<svg width="487" height="480" viewBox="0 0 487 480" fill="none" xmlns="http://www.w3.org/2000/svg">
<path opacity="0.6" d="M117.4 479.8C182.238 479.8 234.8 476.263 234.8 471.9C234.8 467.537 182.238 464 117.4 464C52.5618 464 0 467.537 0 471.9C0 476.263 52.5618 479.8 117.4 479.8Z" fill="#099DB2"/>
<path opacity="0.6" d="M363.6 479.8C431.752 479.8 487 476.263 487 471.9C487 467.537 431.752 464 363.6 464C295.448 464 240.2 467.537 240.2 471.9C240.2 476.263 295.448 479.8 363.6 479.8Z" fill="#099DB2"/>
<path d="M94.5 187C94.5 187 88.5 192.1 96.4 212.5C99.7 221 105.1 224.6 109.7 228.2C117.7 234.6 119.1 246.2 112.8 254.3C106.5 262.4 94.9 263.9 86.7 257.7L85.5 186.9L94.5 187Z" fill="#D45C78"/>
<path d="M135 204.2L130.6 190.9C125.2 196.2 119.8 195 117.6 194.2L118.4 198.6L80.7001 201.9C75.0001 202.4 70.8002 207.4 71.3002 213.1V213.2C71.6002 216.2 73.1002 219 75.6002 220.7C78.0002 222.5 81.2002 223.1 84.1002 222.4L96.5002 219.4L113.2 215.4L130.9 211.1C132.4 210.7 133.6 209.8 134.4 208.5C135.3 207.2 135.5 205.7 135 204.2Z" fill="#143257"/>
<path d="M130.7 190.9L118.8 154.3L118.1 145.8C118.1 145.5 118 145.3 118 145C117.3 142.2 115.9 140.2 113.4 141.9C112.2 140.6 110.6 142 110.6 142C109 140.7 107.4 142.4 107.4 142.4C105.8 141.3 104.9 142.8 104.9 142.8C104.3 141.9 103.6 141.7 103.6 141.7C102.2 142.1 102.7 143 102.7 143L103 145.2C102.4 147.3 103.6 148 103.6 148C104.2 148.7 105.2 150.2 105.2 150.2C105.6 151.6 107.1 152.4 107.1 152.4L111.8 155.5L118 194C119.9 195 125.2 196.2 130.7 190.9Z" fill="#F79974"/>
<path opacity="0.3" d="M113.3 215.4L96.5998 219.4L89.7998 204.8C89.7998 204.9 99.0998 215.6 113.3 215.4Z" fill="url(#paint0_linear_319_133)"/>
<path d="M239.2 276.5L247.8 280.7C249.5 280.4 251.6 280.6 252.8 281.3C253 281.4 253.1 281.5 253.3 281.6C255.1 282.4 256.3 283.9 256.3 283.9C260.7 284.8 262.1 286.2 262.6 287.2C263.4 287.4 264.2 287.4 264.2 287.4C266.5 287.3 268.2 288.2 268.2 288.2C269 288.5 269.2 289.4 269.2 289.4C269.7 289.9 269.8 290.4 269.8 290.4C270 291 269.6 291.2 269.1 291.2C268.2 291.2 266.6 290.6 266.2 290.6C264 290.3 260.6 290.1 260.6 290.1C258.5 290.1 255.6 290.2 255.6 290.2C254.3 290.4 253.5 289.6 253.5 289.6C252.4 288.8 247 286.7 245.3 285.7L236.4 281.9L239.2 276.5Z" fill="#F79A75"/>
<path d="M92.5001 381.1L42.3001 447L53.4001 463L57.8001 466.5C58.3001 466.9 58.4001 467.5 58.2001 468.1C57.9001 468.6 57.4001 469 56.8001 468.8C56.4001 468.7 55.8001 468.5 55.2001 468.1L47.6001 464L29.2001 450.3C28.3001 449.6 27.9001 448.4 28.2001 447.3C28.6001 446.2 29.5001 444.9 31.9001 443.7C31.9001 443.7 33.6001 442.8 34.5001 441.6C49.7001 415.1 68.3001 381.2 76.4001 371.2L92.5001 381.1Z" fill="#F79974"/>
<path opacity="0.5" d="M92.5001 381.1L42.3001 447L53.4001 463L57.8001 466.5C58.3001 466.9 58.4001 467.5 58.2001 468.1C57.9001 468.6 57.4001 469 56.8001 468.8C56.4001 468.7 55.8001 468.5 55.2001 468.1L47.6001 464L29.2001 450.3C28.3001 449.6 27.9001 448.4 28.2001 447.3C28.6001 446.2 29.5001 444.9 31.9001 443.7C31.9001 443.7 33.6001 442.8 34.5001 441.6C49.7001 415.1 68.3001 381.2 76.4001 371.2L92.5001 381.1Z" fill="url(#paint1_linear_319_133)"/>
<path d="M36.2 456.8L39.3 450.6L46.2 449.3L45.2 444.4L38.9 445.4L34.4 440.5L30.5 443.9L34.1 448L31.2 453.2L36.2 456.8Z" fill="white"/>
<path d="M55.4998 463.8L51.0998 467.3L47.2998 465.3L52.8998 460.9L53.9998 462.6L55.4998 463.8Z" fill="white"/>
<path d="M57.9 470.2L57.7999 470.3C56.6999 472.5 54.9 473.8 52.4 472.5L24.6 457.8C24 457.5 23.6 457 23.4 456.4C23.2 455.8 23.3 455.1 23.6 454.6L26.7999 448.7L57.9 470.2Z" fill="white"/>
<path d="M109 465.2L103.5 464.1L87.8002 454.1L87.4002 451L94.3002 381.2L97.0002 343.2L73.2002 341.1L73.9002 358.6L76.2002 378.4C74.2002 391.9 76.6002 453.4 76.9002 453.8C76.6002 455.3 75.5002 456.9 75.5002 456.9C72.0002 461.5 74.9002 463.8 74.9002 463.8L98.7002 467.7L107.4 467.9C108.2 467.9 108.7 467.9 109.2 467.8C109.8 467.6 110.2 467.1 110.1 466.5C110 465.8 109.6 465.3 109 465.2Z" fill="#F79974"/>
<path d="M85.2999 466.6L85.1999 459.6L91.0999 455.4L87.5999 451.4L82.4999 455.2L76.1999 452.9L74.3999 457.7L79.3999 459.7L79.1999 465.6L85.2999 466.6Z" fill="white"/>
<path d="M105.7 463.9L103.3 469H99L102 462.5L103.8 463.5L105.7 463.9Z" fill="white"/>
<path d="M110.8 468.5V468.7C110.9 471.1 109.9 473.1 107.1 473.2H75.4C74.8 473.2 74.2 472.9 73.7 472.4C73.3 472 73 471.3 73 470.7L73.1 464L110.8 468.5Z" fill="white"/>
<path d="M68.6999 184.2C68.6999 184.2 71.5999 187.3 65.8999 197.7C63.4999 202 60.3999 203.5 57.6999 205.2C52.9999 208.1 51.3999 214.2 54.1999 218.9C56.9999 223.7 63.0999 225.3 67.8999 222.5L73.4999 184.8L68.6999 184.2Z" fill="#D45C78"/>
<path d="M69.7002 184.4C69.7002 184.4 75.0002 190.2 64.5002 209.4C60.1002 217.4 54.3002 220.2 49.3002 223.3C40.5002 228.6 37.7002 240 42.9002 248.8C48.1002 257.6 59.4002 260.6 68.3002 255.5L78.7002 185.5L69.7002 184.4Z" fill="#D45C78"/>
<path d="M88.7999 196.6C88.7999 196.6 81.2999 214.5 93.0999 242.7C95.7999 249 93.2999 256.4 87.2999 259.8C84.2999 261.5 79.9999 262.6 74.0999 262.1C74.0999 262.1 61.9999 260.9 62.4999 243.1C62.4999 241.6 62.6999 240.2 63.0999 238.8L72.8999 197.7L88.7999 196.6Z" fill="#D45C78"/>
<path d="M89.2001 209.4L88.6001 190.4L84.1001 183.5L75.1001 193V205.7L82.3001 207.7L89.2001 209.4Z" fill="#F79974"/>
<path d="M89.2001 209.4L88.6001 190.4L84.1001 183.5L75.1001 193V205.7L82.3001 207.7L89.2001 209.4Z" fill="url(#paint2_linear_319_133)"/>
<path d="M66.4999 216.3C62.8999 224.6 61.0999 235.9 67.4999 248.7L73.7999 271.1C73.7999 271.1 55.2999 277.4 47.3999 362.7C47.3999 362.7 85.7999 372.3 114.3 360.9L110.7 337.6L100.9 274.4L102.3 242.9C102.3 242.9 109.7 236.6 106.1 229.3L91.3999 206.6C90.6999 205.3 89.5999 204.3 88.2999 203.5C86.2999 202.4 83.1999 201.1 79.7999 201.3C77.7999 201.4 75.8999 202.3 74.4999 203.9C72.4999 206 69.0999 210.4 66.4999 216.3Z" fill="#143257"/>
<path d="M71.8 185.2C71.8 185.2 71.3 191.5 75 193.9L83.1 185.6L78.9 184.1L71.8 185.2Z" fill="#D45C78"/>
<path d="M103.1 183.8C103.4 184.4 103.6 185.1 103.5 185.8C103.3 187.4 101.8 188.5 100.3 188.2C99.7001 188.1 99.1001 187.8 98.7001 187.3L84.8001 185.4H80.5001C80.5001 185.4 76.3001 187.6 67.0001 185.7C67.0001 185.7 66.5001 183.6 66.4001 181.1C66.3001 178 67.0001 174.2 70.2001 172.4C69.8001 171.4 69.6001 170.2 69.8001 169.1C70.3001 166 73.0001 163.9 75.9001 164.5C76.2001 164.5 76.4001 164.6 76.7001 164.7C76.8001 164.7 76.9001 164.7 77.0001 164.7C77.0001 164.7 86.0001 158.1 96.3001 166.5C97.1001 167.2 97.9001 167.9 98.7001 168.7C101.9 172 106.2 179.4 104.7 182.3C104.3 183 103.8 183.5 103.1 183.8Z" fill="#D45C78"/>
<path d="M93.9998 172C94.3998 171.8 94.8998 172 95.0998 172.4L97.1998 175.6C98.0998 177.1 98.2998 178.9 97.8998 180.6V180.7C97.7998 181.2 97.8998 181.8 98.1998 182.2L101.4 186.9C101.6 187.1 101.6 187.4 101.6 187.7C101.5 188 101.4 188.2 101.1 188.3L99.2998 189.2L98.8998 190C98.9998 190 99.1998 190.1 99.2998 190.2C99.5998 190.6 99.5998 191.2 99.2998 191.6C99.0998 191.8 98.8998 191.9 98.5998 191.9C98.7998 192.3 98.7998 192.8 98.4998 193.1C98.1998 193.5 97.5998 193.5 97.2998 193.1L96.5998 194.4C96.5998 194.4 96.5998 195 96.4998 195.9C96.3998 197.1 95.4998 198 94.2998 198.2C92.7998 198.4 89.9998 198.4 87.0998 196.3L85.9998 195.6C83.7998 194.2 82.4998 191.6 82.6998 188.9C82.6998 188.6 82.7998 188.4 82.7998 188.1C82.8998 187.5 82.6998 187 82.3998 186.5C81.2998 185 79.1998 181.3 81.5998 178.8C82.1998 178.2 83.0998 177.9 83.8998 178C84.7998 178.2 85.4998 178.7 85.8998 179.6C86.1998 180.2 86.1998 181.3 86.1998 182.2L87.9998 182.3C88.1998 182.5 88.1998 174.1 93.9998 172Z" fill="#F79974"/>
<path opacity="0.7" d="M99.8998 184.6C100.1 183.8 100.3 182.8 100.2 181.6C100.1 179.2 99.3998 177.3 98.5998 177.3C98.3998 177.3 98.1998 177.4 97.9998 177.7C98.1998 178.6 98.1998 179.5 97.9998 180.4L96.6998 180.6C96.4998 178.8 95.8998 177.5 95.1998 177.5C94.4998 177.5 93.9998 178.8 93.8998 180.6L84.8998 180.1C84.2998 180.1 83.7998 180.6 83.7998 181.2C83.7998 181.8 84.2998 182.3 84.8998 182.3L93.8998 182.8C94.0998 184.8 94.6998 186.2 95.4998 186.2C96.1998 186.2 96.6998 184.7 96.7998 182.8L98.4998 182.6L99.8998 184.6Z" fill="white"/>
<path d="M83.4998 186C83.1998 186.2 82.8998 186.2 82.5998 186.2C82.2998 186.1 81.9998 185.9 81.8998 185.7C80.8998 183.9 79.7998 181 81.7998 179C82.3998 178.4 83.2998 178.1 84.0998 178.2C84.9998 178.4 85.6998 178.9 86.0998 179.8C86.3998 180.4 86.4998 181.1 86.4998 182L86.2998 183C86.0998 183.9 85.5998 184.6 84.8998 185.1L83.4998 186Z" fill="#F79974"/>
<path opacity="0.3" d="M110.7 337.4C64.1999 342.1 70.7999 294.5 74.0999 279.4C74.6999 276.6 76.5999 274.3 79.1999 273.2L87.0999 269.7L76.8999 270.4C76.8999 270.4 75.4999 260.1 74.3999 251.9C73.4999 245.4 75.3999 238.9 79.5999 233.8L87.2999 224.4C89.0999 222.2 90.0999 219.5 90.0999 216.7C90.0999 214.3 89.3999 212.8 89.3999 212.8L87.5999 215.1L66.4999 216.1C62.8999 224.4 61.0999 235.7 67.4999 248.5L73.7999 270.9C73.7999 270.9 55.2999 277.2 47.3999 362.5C47.3999 362.5 85.7999 372.1 114.3 360.7L110.7 337.4Z" fill="url(#paint3_linear_319_133)"/>
<path d="M49.6002 263.3L46.8002 252.6C46.1002 249.8 46.6002 246.9 48.1002 244.5L70.4002 209C72.0002 206.4 74.7002 204.7 77.6002 204.2C80.6002 203.7 83.6002 204.6 85.9002 206.6L86.0002 206.7C90.3002 210.4 90.8002 216.9 87.1002 221.3L61.2002 251.7L62.4002 261.4C59.8002 263.7 55.3002 266.2 49.6002 263.3Z" fill="#143257"/>
<path d="M60.7001 312.4C60.6001 312.1 60.6001 311.9 60.5001 311.6L60.1001 304L49.6001 263.3C55.3001 266.1 59.8001 263.6 62.4001 261.4L67.4001 302.8L71.6001 304.7C71.6001 304.7 73.1001 305.5 73.5001 306.9C73.5001 306.9 74.5001 308.4 75.1001 309.1C75.1001 309.1 76.3001 309.7 75.7001 311.9L76.0001 314C76.0001 314 76.5001 314.9 75.1001 315.3C75.1001 315.3 74.4001 315.1 73.7001 314.2C73.7001 314.2 72.8001 315.8 71.2001 314.7C71.2001 314.7 69.6001 316.5 68.0001 315.2C68.0001 315.2 66.9001 316.4 65.6001 315.2C63.7001 317.5 61.4001 314.4 60.7001 312.4Z" fill="#F79974"/>
<path d="M152.9 317C153.8 314.8 152.6 314 152.6 314C152 313.2 151.2 311.5 151.2 311.5C151 310 149.5 308.9 149.5 308.9L145.6 306.8L145.8 297.6H138.9V307.2L138.5 315.7C138.3 317 139.2 320.7 141.9 319.2C143 320.7 144.4 319.6 144.4 319.6C145.9 321.2 147.8 319.5 147.8 319.5C149.4 320.9 150.5 319.3 150.5 319.3C151.1 320.3 151.8 320.6 151.8 320.6C153.3 320.4 152.9 319.3 152.9 319.3V317Z" fill="#F79A75"/>
<path d="M146.6 302.3H138V306.2H146.6V302.3Z" fill="white"/>
<path d="M175.5 222.2C175 223.3 168.1 234.2 161.8 244C158.7 248.7 155.8 253.2 153.9 256.2C152.9 257.8 152.1 258.9 151.7 259.5L147.2 303.5H137.2V259.4C137.2 256.6 137.8 253.9 139 251.4C144.1 240.7 150.6 226.8 156.2 214.4C157.2 212.1 160.1 209.4 162.3 208.2C166.4 206 171.9 208 174.9 211.1C177.9 214.2 177.2 218.5 175.5 222.2Z" fill="#143257"/>
<path opacity="0.3" d="M153.9 256.3L156.7 247.3L155.3 244.9C150.7 234.6 154.1 223.3 154.1 223.3L161.8 244C158.8 248.8 155.9 253.3 153.9 256.3Z" fill="#172F57"/>
<path d="M157.4 435L153.5 459.9C153.4 462.4 155 463 157.1 464.4C159 465.7 161.4 466.4 161.4 466.4L162.9 470.1H158.8L144.8 461.8L147.3 435.1L157.4 435Z" fill="#F79A75"/>
<path d="M144.8 461.8C144.8 461.8 141.3 466.9 141.5 473H173.3C173.8 473 174.3 472.7 174.5 472.1C174.7 471.6 174.5 471 174.1 470.7C173.1 469.8 171.3 469.2 168.4 469.8C167.8 469.9 167.2 469.8 166.6 469.6L160.5 466.5L159.3 468.4L144.8 461.8Z" fill="white"/>
<path d="M183.7 305.1L169.7 384.5C169.4 386.4 169 388.3 168.6 390.1L155.1 457.5H144C145.4 443.2 146 426.4 147.6 411.5C148.8 400.1 150.6 389.7 153.7 382.5L157.6 318.1C153.7 309.5 154.6 301.4 156.6 295.4C158.8 288.8 162.2 284.7 162.2 284.7L181.6 290.2L183.7 305.1Z" fill="#143257"/>
<path opacity="0.3" d="M168 305.8C168.4 305.7 168.7 305.8 168.7 305.8L165.8 297.5L156.6 295.5C154.6 301.5 153.7 309.5 157.6 318.2L153.7 382.6C150.6 389.9 148.8 400.2 147.6 411.6C149.6 400.9 152.7 393.1 154.7 388.6C155.5 386.8 157.6 383.8 159.3 383L162.8 381.4L157.3 381.3C157.7 366.5 158.7 352.1 160.6 337.9C161.6 330.2 168 324.4 175.8 324.1V319.1L168 305.8Z" fill="#172F57"/>
<path d="M188.7 435.7L186.2 459.6C186.1 462.1 187.8 463 189.9 464.4C191.8 465.7 193.8 466.4 193.8 466.4L195.3 470.1H191.2L177.9 461.8L179.5 435.9L188.7 435.7Z" fill="#F79A75"/>
<path d="M177.9 461.8C177.9 461.8 174.4 466.9 174.6 473H206.1C206.7 473 207.2 472.6 207.4 472C207.6 471.4 207.4 470.8 206.9 470.4C205.9 469.7 204.2 469.2 201.7 469.7C201 469.8 200.3 469.7 199.7 469.4L193.8 466.4L192.6 468.3L177.9 461.8Z" fill="white"/>
<path d="M200.2 315.3C200.2 317.6 200.1 320 200 322.4C199.5 337.9 198.2 355.4 196.4 373.8C193.9 400.7 190.5 429.6 187.6 457.1H176V411.5C176 411.5 176.3 391.1 178.8 382.5L176.7 356.2L175.3 339.4L174 323.2L173.7 319.5V319.3C171.7 317.3 170.2 315.3 169 313.3C167.8 311.3 167 309.4 166.3 307.5C165.8 305.9 165.4 304.5 165.3 303C164.3 296.4 165.8 291.6 165.8 291.6H199.7C199.8 292.5 199.8 293.4 199.9 294.4C199.9 294.8 199.9 295.2 200 295.6C200.3 301.7 200.4 308.3 200.2 315.3Z" fill="#143257"/>
<path opacity="0.3" d="M200.2 315.3C200.2 317.6 200.1 320 200 322.4C194.7 322.3 189.6 324.3 185.8 328C181.9 331.9 179.8 337.3 180.1 342.8L181.8 381.7H188.6L181.5 385C181.5 385 177.6 395.7 176.1 413.2V411.5C176.1 411.5 176.4 391.1 178.9 382.5L176.8 356.2L175.4 339.4L174.1 323.2L173.8 319.5V319.3C171.8 317.3 170.3 315.3 169.1 313.3C167.9 311.3 167.1 309.4 166.4 307.5C165.9 305.9 165.5 304.5 165.4 303L178.4 295.4L183 291.6H199.2L200 294.4C200 294.8 200 295.2 200.1 295.6C200.3 301.7 200.4 308.3 200.2 315.3Z" fill="#172F57"/>
<path d="M193.3 181.6C193.6 181.5 193.8 181.3 193.9 181C194 180.7 193.9 180.4 193.8 180.2L191 176.2C189.6 173.4 187.8 171.3 186.3 169.7C184.5 167.9 183.2 167 183.2 167L174.2 176L173.2 184.8L172.1 194.5L170.4 207.4L185.4 206L186.6 197.5V197.3L193.5 191.7L193.8 188.4L193.9 186.7C193.9 186.5 193.9 186.2 193.9 186C193.8 184.4 193.5 183 193.2 181.6H193.3Z" fill="#F79A75"/>
<path d="M193.5 193.3C194.4 191.3 194.2 189.1 194 187.8C193.9 187.2 193.8 186.8 193.8 186.8C193.8 186.6 193.8 186.3 193.8 186.1C192.9 186.5 192 186.5 191.1 186.1C190.3 185.7 189.6 185 189.4 184.1C188.7 181.6 187.9 178.7 187.9 178.7C187.3 176.4 186.3 174.8 185.3 173.8C187.5 172.7 189.1 170.5 189.1 167.8C189.1 164.2 186.1 161.2 182.5 161.2C181.2 161.2 179.9 161.6 178.9 162.3C177.4 162.3 175.9 162.4 174.5 162.8C173.3 163.1 172.3 163.9 171.3 164.2C161.6 166.5 163.6 174.8 163.6 174.8C159 177.8 160.4 184 163.2 186.3C165.6 188.2 169.9 192.8 171.3 194.3C171.5 194.5 171.9 194.7 172.2 194.7C172.3 194.7 172.4 194.7 172.5 194.7L180.2 192.5C185 190.2 184.2 185 184.2 185C183.5 182.7 184.3 181.6 185.1 180.9C185.4 180.7 185.7 180.6 186.1 180.7C186.4 180.8 186.7 181.1 186.8 181.4L188 185.7C188.4 187.3 188.2 188.9 187.4 190.3C185.7 193.3 186.1 195.5 186.1 195.5L186.4 196.7C186.4 196.9 186.5 197 186.5 197.2L186.6 197.6C187.2 199.1 188.7 200.1 190.4 200.1C192.7 200.1 194.6 198.2 194.6 195.9C194.4 195 194.1 194 193.5 193.3Z" fill="#14274C"/>
<path d="M169.6 199.4L166.8 207.7L181.7 212.2L188.4 208.4L188.9 204.6C188.9 204.6 188.6 201.3 184.1 200.8L169.6 199.4Z" fill="white"/>
<path d="M203.4 310.5C201.8 310.9 200.2 311.2 198.6 311.4C192.6 312.2 186.6 312.3 180.6 311.9C178.8 311.8 177 311.7 175.2 311.5C166.5 310.8 157.8 309.6 149.8 306C149.5 296 155.2 283.1 158.4 276.6C165.6 262 164.3 256.1 157.2 242.2C155.4 238.7 154.3 234.8 154 230.8C152.9 217.5 158.1 210.7 161.8 207.6C163.5 206.1 165.7 205.4 168 205.4H185.3C196.8 205.1 201.5 212.2 203.3 219.1C205 225.5 204.3 231.8 204.3 231.8L204 253C204 260.4 203.8 266.9 203.4 272.6V273.6C203.5 284 203.8 302.5 205.7 308.1C205.6 308.1 206 310.4 203.4 310.5Z" fill="#143257"/>
<path opacity="0.3" d="M205.6 308.1C203.8 302.5 203.4 284 203.3 273.6V272.6C203.6 266.9 203.8 260.4 203.9 253L204.2 231.8C204.2 231.8 204.9 225.5 203.2 219.1L185.2 214.9C185.2 214.9 184.8 215.4 184.4 216.2L184.2 215.7C184.2 215.7 180 220.9 181.5 227.4L190.9 265.6C193.2 274.9 193.6 284.6 192.2 294.1L192.1 294.7C190.9 300.9 187.9 308.2 180.6 311.7C186.6 312 192.6 312 198.6 311.2C200.2 311 201.8 310.7 203.4 310.3C206 310.4 205.6 308.1 205.6 308.1Z" fill="#172F57"/>
<path d="M242.354 276.474L238.798 284.742L242.749 286.441L246.305 278.173L242.354 276.474Z" fill="white"/>
<path d="M243.2 276.3L207.7 257.7C206.9 252.3 204.6 231.7 204 224.3C203.9 222.6 203.6 220.5 203.1 218.5C202 214.5 199.9 210.8 195.7 210.2C191.4 209.6 185.9 211.6 184.1 215.8C183.1 218.1 182.6 222 183.3 224.5C185 231 190.9 255.2 193.2 264.7C193.7 266.8 195.2 268.6 197.3 269.3C208 273.4 239.3 285.4 239.3 285.4L243.2 276.3Z" fill="#143257"/>
<path d="M288.724 40.6384C288.724 41.3086 288.657 41.9787 288.657 42.7159C288.59 43.453 288.523 44.2572 288.456 44.9943C288.255 46.6697 287.987 48.345 287.585 49.9533C287.316 50.9585 287.048 51.8967 286.713 52.9019C284.837 58.6651 281.62 63.8922 277.533 68.114C277.063 68.5831 276.594 69.0522 276.125 69.5213C275.857 69.7894 275.522 70.0574 275.254 70.3925C273.378 72.4699 271.97 74.8824 271.166 77.6299L268.352 87.615C267.883 89.2903 266.341 90.1615 264.599 90.1615H231.159C229.417 90.1615 227.875 88.9552 227.473 87.2799L225.128 78.4341L224.726 76.7588C223.922 73.7432 222.313 70.9286 220.102 68.7171C212.73 61.3456 208.24 51.1596 208.375 39.9683C208.576 17.7868 226.736 -0.0388038 248.918 0.162237C252.805 0.229251 256.557 0.765359 260.109 1.83758C268.486 4.31708 275.656 9.47713 280.749 16.3125C282.626 18.792 284.167 21.4726 285.44 24.3541C285.574 24.6222 285.708 24.9573 285.775 25.2253C285.909 25.4934 285.976 25.6944 286.043 25.9625C286.244 26.4316 286.378 26.9007 286.512 27.3698C286.646 27.7718 286.78 28.1739 286.914 28.643C287.115 29.2461 287.249 29.8493 287.451 30.5194C287.585 31.0555 287.719 31.5916 287.853 32.1277C288.188 33.736 288.456 35.3444 288.59 37.0197C288.657 38.1589 288.724 39.3652 288.724 40.6384Z" fill="#FEE84D"/>
<path opacity="0.4" d="M232.24 26.7107C236.777 20.3098 237.494 13.0213 233.841 10.4315C230.187 7.84174 223.547 10.9313 219.01 17.3323C214.472 23.7332 213.756 31.0217 217.409 33.6115C221.062 36.2013 227.702 33.1117 232.24 26.7107Z" fill="white"/>
<path d="M223.913 20.7875C225.09 19.1268 225.261 17.2254 224.295 16.5405C223.329 15.8556 221.591 16.6466 220.414 18.3072C219.237 19.9679 219.066 21.8693 220.032 22.5542C220.998 23.2391 222.736 22.4481 223.913 20.7875Z" fill="white"/>
<path d="M288.724 40.6385C288.724 41.3086 288.657 42.0457 288.657 42.7159C288.59 43.453 288.523 44.2572 288.456 44.9943C288.255 46.6697 287.987 48.345 287.585 49.9534C287.317 50.9586 287.048 51.8967 286.713 52.902C284.837 58.6651 281.62 63.8922 277.533 68.114C277.063 68.5831 276.594 69.0522 276.125 69.5213C275.857 69.7894 275.522 70.0574 275.254 70.3925C273.378 72.4699 271.97 74.8824 271.166 77.63L268.352 87.615C267.883 89.2903 266.341 90.1615 264.599 90.1615H231.159C229.417 90.1615 227.875 88.9553 227.473 87.2799L225.128 78.4341C237.659 87.0789 254.346 83.9963 258.568 70.2585C263.46 54.2422 271.769 47.3398 271.769 47.3398C278.471 37.8239 278.471 29.2462 276.192 22.0087C270.228 2.90982 248.851 0.0952454 248.851 0.0952454C252.738 0.162259 256.49 0.698368 260.042 1.77059C268.419 4.25009 275.589 9.41013 280.682 16.2455C282.559 18.725 284.1 21.4056 285.373 24.2872C285.507 24.5552 285.641 24.8903 285.708 25.1583C285.842 25.4264 285.909 25.6274 285.976 25.8955C286.177 26.3646 286.311 26.8337 286.445 27.3028C286.579 27.7048 286.713 28.1069 286.847 28.576C287.048 29.1791 287.183 29.7823 287.384 30.4524C287.518 30.9885 287.652 31.5246 287.786 32.0607C288.121 33.6691 288.389 35.2774 288.523 36.9527C288.657 38.0919 288.724 39.3652 288.724 40.6385Z" fill="#FBD603"/>
<path d="M255.686 122.229C260.031 117.885 260.031 110.842 255.686 106.497C251.342 102.153 244.299 102.153 239.954 106.497C235.61 110.842 235.61 117.885 239.954 122.229C244.299 126.574 251.342 126.574 255.686 122.229Z" fill="#0E2748"/>
<path d="M267.145 101.621C267.145 99.5434 265.403 97.8681 263.192 97.8681C265.403 97.8681 267.212 96.2597 267.212 94.1823C267.212 92.1049 265.47 90.1615 263.259 90.0945H232.835C230.623 90.0945 228.814 91.7698 228.814 93.8472C228.814 95.9247 230.556 97.6 232.768 97.6C230.556 97.6 228.747 99.2083 228.747 101.286C228.747 103.363 230.489 105.039 232.701 105.039C230.489 105.039 228.68 106.647 228.68 108.724C228.68 110.668 230.221 112.276 232.231 112.477V114.621C232.231 117.838 234.778 120.586 237.995 120.653H257.63C260.846 120.653 263.46 118.106 263.46 114.89V112.745C265.47 112.544 267.078 111.003 267.078 109.059C267.078 106.982 265.336 105.307 263.125 105.307C265.336 105.374 267.145 103.698 267.145 101.621Z" fill="#153056"/>
<path opacity="0.5" d="M267.146 101.621C267.146 99.5434 265.403 97.8681 263.192 97.8681C265.403 97.8681 267.213 96.2597 267.213 94.1823C267.213 92.1049 265.471 90.1615 263.259 90.0945H250.594C252.805 90.0945 254.547 91.9709 254.547 94.0483C254.547 96.1257 252.738 97.8011 250.526 97.734C252.738 97.734 254.48 99.4764 254.48 101.487C254.48 103.497 252.671 105.24 250.459 105.173C252.671 105.173 254.413 106.915 254.413 108.925C254.413 110.869 252.805 112.477 250.795 112.611V114.755C250.795 117.972 248.181 120.519 244.964 120.519L257.63 120.653C260.847 120.653 263.46 118.106 263.46 114.89V112.745C265.471 112.544 267.079 111.003 267.079 109.059C267.079 106.982 265.336 105.307 263.125 105.307C265.336 105.374 267.146 103.698 267.146 101.621Z" fill="#153056"/>
<path d="M318.6 422L319.6 459.2C319.6 461.6 318.3 461.6 316.4 463.1C314.4 464.6 311.3 466.2 311.3 466.2L309.8 470H314C314 470 326.9 472.5 327.5 461.4C328.7 437.2 329.3 422.1 329.3 422.1H318.6V422Z" fill="#F79A75"/>
<path d="M327.3 461.3C327.3 461.3 330.9 466.6 330.7 472.9H296.4C295.7 472.9 295.1 472.4 294.9 471.7C294.7 471 295 470.3 295.6 470C296.7 469.4 298.2 469.1 300.5 469.5C301.2 469.6 301.9 469.5 302.6 469.2L311.2 466.1L312.4 468L327.3 461.3Z" fill="white"/>
<path d="M328.8 257.6L317.6 288.5C316.9 290.5 317.1 292.6 318 294.5L324.5 304.4C325 305.9 326.8 306.2 326.8 306.2C326.9 307.3 328.4 307.6 328.4 307.6L330.2 308.2L334.8 309.7C335.6 308 333.5 307.3 333.5 307.3C333.1 304.8 329 304.2 329 304.2C329 304.2 329 302.8 327.4 300.6C327.1 300.2 326.9 299.8 326.8 299.5C326.6 299.2 326.6 298.8 326.5 298.6C326.3 297.5 326.5 296.9 326.5 296.9C328.5 298.6 331.6 297.1 331.6 297.1C331.8 297 331.9 296.9 332.1 296.7C332.3 296.4 332.4 296.1 332.3 295.8C332.2 295.5 331.8 295.3 331.5 295.3C328 295.6 326.5 293.7 326 292.9C325.7 292.3 325.1 291.8 324.5 291.5C324.2 291.4 324 291.3 323.7 291.2C323.5 291.1 323.3 291 323.3 290.8C323.2 290.6 323.2 290.4 323.3 290.2L338.4 262.3C335.9 257.5 331.2 257.3 328.8 257.6Z" fill="#F79A75"/>
<path d="M340.3 252.6L334.3 229.7C329.3 208.3 319.6 206.9 319.6 206.9L318.7 231.1L329.4 255.8L328.8 257.6C331.2 257.3 336 257.5 338.3 262.2L339.4 260.2C339.7 259.7 339.9 259.2 340.1 258.7C340.7 256.8 340.8 254.7 340.3 252.6Z" fill="white"/>
<path d="M330.8 432.6C330.8 433.1 330.8 433.6 330.8 434.1C330.8 434.2 330.8 434.2 330.8 434.3C330.6 441.1 330.4 456.6 330.4 456.6H317C316.2 447.3 310.7 399.4 308.2 383.5C307.6 379.6 306.5 375.7 305.1 372C304.8 371.1 304.4 370.3 304.1 369.3C299.3 355.4 298.2 337.5 298.2 337.5L294.3 290.7L309.2 288.6L319.6 287.7C332.3 304 321 321.7 321 321.7L326.9 373.7C331 388.5 331.1 416.2 330.8 432.6Z" fill="#143257"/>
<path opacity="0.3" d="M330.8 432.6C330.8 433.1 330.8 433.6 330.8 434.1C330.8 434.2 330.8 434.2 330.8 434.3C330.6 441.1 330.4 456.6 330.4 456.6H317C316.2 447.3 310.7 399.4 308.2 383.5C307.6 379.6 306.5 375.7 305.1 372C304.8 371.1 304.4 370.3 304.1 369.3L308.7 314.9L321.4 297.9C321.4 297.9 324.6 310.1 316.8 320.9C316.8 320.9 316.1 341.4 315.9 373.8C315.9 373.8 320.6 397.6 318.4 408C317.8 410.9 317.7 413.9 318.1 416.8C320.3 431.9 325.6 431.2 330.8 432.6Z" fill="#143257"/>
<path d="M298.6 422L299.6 459.2C299.6 461.6 298.3 461.6 296.4 463.1C294.4 464.6 291.3 466.2 291.3 466.2L289.8 470H294C294 470 306.9 472.5 307.5 461.4C308.7 437.2 309.3 422.1 309.3 422.1H298.6V422Z" fill="#F79A75"/>
<path d="M307.3 461.3C307.3 461.3 310.9 466.6 310.7 472.9H276.4C275.7 472.9 275.1 472.4 274.9 471.7C274.7 471 275 470.3 275.6 470C276.7 469.4 278.2 469.1 280.5 469.5C281.2 469.6 281.9 469.5 282.6 469.2L291.2 466.1L292.4 468L307.3 461.3Z" fill="white"/>
<path d="M312.8 374.5C315.7 390 313.3 418.9 311.6 434.9C311.6 435 311.6 435.1 311.6 435.1C310.9 441.9 310.3 456.6 310.3 456.6H297.2C297.2 447.3 294.5 398.7 293.4 382.6C293.1 378.7 292.4 374.7 291.2 370.9C288.8 362.8 287.8 352.9 287.4 345.8C287.1 340.1 287.2 336 287.2 336V288.7L300.6 286.8L313.2 284.7L319.7 287.6C327.5 306.3 313.3 320.1 313.3 320.1L312.8 374.5Z" fill="#143257"/>
<path d="M314 192.9H301.7V207.1H314V192.9Z" fill="#F79A75"/>
<path d="M331.7 158.8C331.4 158.7 331.2 158.4 331.2 158.1C331.5 156.7 330.9 155.3 329.7 154.4C328.7 153.7 327.5 153.7 326.5 154.1V154C326.4 154 326.2 154 326.2 153.9V154C325.9 153.2 325.5 152.5 324.8 152C323.1 150.8 320.7 151.3 319.6 153C318.7 154.4 318.8 156.1 319.7 157.3H319.6C320.4 158.4 320.2 159.9 319.1 160.7C318.9 160.8 318.8 160.9 318.7 161C316.8 162.7 316.8 165.7 318.5 167.5C320.2 169.4 323.2 169.4 325 167.7C325.4 167.3 325.8 166.8 326 166.3C326.6 164.9 328.2 164.3 329.6 165V164.9C331 165.6 332.8 165.2 333.7 163.8C334.7 162.3 334.3 160.3 332.8 159.2C332.5 159.1 332.1 158.9 331.7 158.8Z" fill="#BF4C69"/>
<path d="M299.3 212.3V204.7C299.3 203.9 299.9 203.3 300.6 203.2L315.2 201.1C315.5 201.1 315.8 201.1 316.1 201.4C316.3 201.6 316.5 201.9 316.5 202.2V209.5L299.3 212.3Z" fill="white"/>
<path d="M327.5 230.1C327 235.7 325.7 241.1 323.7 246.3C318.6 259.2 319.7 287.8 319.7 287.8C318.2 288.5 316.7 289.1 315.2 289.6C312.9 290.3 310.7 290.9 308.7 291.2C296.8 293.1 287.8 289.2 287.3 288.9L287.4 281.8C287.5 278.9 287.1 276 286.4 273.2C284.9 267.8 284.1 260.1 283.7 254.9C283.4 251.5 283.3 249.1 283.3 249.1C279.6 246.4 277.9 243.6 277.4 240.9C276.1 234.6 281.1 229.2 281.1 229.2L286.2 219.5C287.5 215.5 290.2 212.9 292.7 211.3C294.6 210.1 296.8 209.3 299 208.9L314.9 206.4C317 206 319.2 206.4 321.1 207.5C327.8 211.1 328.4 221.5 327.5 230.1Z" fill="white"/>
<path d="M301.3 167.1C301.3 167.1 294.8 170 294.5 179.4L290.9 183.3C290.6 183.6 290.4 184.1 290.5 184.6C290.6 185.1 290.8 185.5 291.2 185.7C291.7 186 292.3 186.3 293.1 186.5C293.1 186.5 292.8 190.8 294.7 194.4C295.8 196.4 297.6 197.8 299.8 198.3C303 199 309.2 199.8 314 196.2L308.6 169.9L301.3 167.1Z" fill="#F79A75"/>
<path d="M313.9 196.3C302.2 194.5 302.6 186.8 302.6 186.8C307.5 182.8 304.2 178.2 304.2 178.2C301.1 175.3 299.2 179.1 299.2 179.1C294.7 168.3 302.1 165 302.1 165C302.1 165 313.6 158 322.5 169C326 173.4 326.3 179.5 324.6 184.6C323.8 187.2 322.6 189.6 320.7 191.6C319.6 192.6 315.5 196.6 313.9 196.3Z" fill="#BF4C69"/>
<path d="M308.7 291.2C296.8 293.1 287.8 289.2 287.3 288.9L287.4 281.8C287.5 278.9 287.1 276 286.4 273.2C284.9 267.8 284.1 260.1 283.7 254.9C283.4 251.5 283.3 249.1 283.3 249.1C279.6 246.4 277.9 243.6 277.4 240.9L298.9 234.3C298.9 234.3 297.4 210.3 304 214.2C307.4 216.2 308.5 219.3 308.7 221.9C308.7 222.1 308.7 222.2 308.7 222.4C308.9 226.3 307.4 230.2 304.6 233L292.2 245.2C292.2 245.2 291.7 246.2 291.1 248C287.6 258.6 291.4 270.2 300.4 276.7C304.4 279.3 308.7 284 308.7 291.2Z" fill="#DFF2F8"/>
<path d="M387.5 434.2H398.2L397.8 459.7L382.4 469.5H377.6L379.3 465.2C379.3 465.2 384.2 462.1 387.1 459.9C388.3 458.9 388.6 458.6 389 457.1L387.5 434.2Z" fill="#F79A75"/>
<path d="M397.8 459.7C397.8 459.7 402 465.9 401.7 473H364.6C364 473 363.4 472.6 363.2 472C363 471.4 363.2 470.7 363.6 470.3C364.8 469.3 366.8 468.5 370.2 469.2C370.9 469.3 371.6 469.2 372.2 468.9L379.3 465.3L380.7 467.5L397.8 459.7Z" fill="white"/>
<path d="M407.2 316.3L401.8 371.5L401.3 417.6L400.9 455.2H385.6L375.5 289.3L404 286.4L414.5 285.3C414.3 285.3 422.5 305.1 407.2 316.3Z" fill="#143257"/>
<path opacity="0.3" d="M407.2 316.3L401.8 371.5L401.3 417.6L397.1 373.4L386 369.2H397L397.7 314.8C408.4 298.3 405.9 289.7 403.9 286.5L414.4 285.4C414.3 285.3 422.5 305.1 407.2 316.3Z" fill="#143257"/>
<path d="M385.8 189.8L389.1 203.1L374.1 209.1L369.4 189.7L372.7 186.9L378.3 181.5L385.3 186.7L385.8 189.8Z" fill="#F79A75"/>
<path opacity="0.5" d="M385.8 189.8L389.1 203.1L374.1 209.1L369.4 189.7L372.7 186.9L378.3 181.5L385.3 186.7L385.8 189.8Z" fill="url(#paint4_linear_319_133)"/>
<path d="M371.9 206.4L368.9 211.5L370.8 213.5L371.9 206.4Z" fill="#D45C78"/>
<path d="M389.4 198.1L391.9 201.7L370.8 213.5L371.9 206.4L389.4 198.1Z" fill="white"/>
<path d="M414.7 290.3C414.5 290.4 414.4 290.4 414.2 290.4C413.3 290.8 412.3 291.2 410.8 291.4C408.9 291.7 407 291.5 405.3 290.8C404.4 290.4 403.5 289.9 402.6 289.3C399.8 287.2 390.8 289.9 385.7 291.3C382.9 292.4 379.1 292.7 377.4 292.7C376.6 292.7 375.9 292.5 375.2 292.2C372.7 290.8 372.9 288.6 373.5 287C374.2 285.3 374.6 283.6 374.8 281.8C374.9 280.9 375 280.1 375 280C375.5 275.9 374.6 274.6 374.4 270.4C374.2 267.4 374.1 264.4 374.1 263.4L373.7 259.5C373 252.9 374 246.7 371.5 240.6C368.6 233.5 365.7 222.4 370.9 213.4L371 213.2C371.4 212.8 371.8 212.3 372.2 211.9C372.7 211.4 373.3 210.6 373.8 209.8C375.9 206.3 378.9 204.3 381.7 202.9C385.8 201 388.7 198.2 392.7 200.9C395.4 202.7 398.4 205.4 401 207.8C402.8 209.6 404.3 211.2 405.2 212.2C407.7 215.2 409.8 218.5 411.4 222C411.7 222.8 412.1 223.5 412.4 224.3C414.3 229.3 415.3 234.6 415.3 240.1C415.3 242.5 415.2 244.9 415.1 247.4C414.9 250.5 414.8 253.6 414.6 256.8C414.3 261.7 413.8 263.3 413.7 267.8C413.7 268.9 413.7 270 413.7 271.1C413.7 271.2 413.7 271.3 413.7 271.4C413.7 272.6 413.7 273.7 413.8 274.9C413.8 274.9 413.4 279.7 416.7 284.1C417.5 285.2 417.6 286.6 417.1 287.8C417.1 287.8 417.1 287.9 417 288C416.4 289.2 415.6 289.9 414.7 290.3Z" fill="white"/>
<path d="M391.4 209.4L400.8 208C402.6 209.8 404.1 211.4 405 212.4C407.5 215.4 409.6 218.7 411.2 222.2C411.5 223 411.9 223.7 412.2 224.5C414.1 229.5 415.1 234.8 415.1 240.3C415.1 242.7 415 245.2 414.9 247.7C414.7 250.8 414.6 253.9 414.4 257.1C414.1 262 413.6 263.6 413.5 268.1C413.5 269.2 413.5 270.3 413.5 271.4C413.5 271.5 413.5 271.6 413.5 271.7C413.5 272.9 413.5 274 413.6 275.2C413.6 275.2 413.2 280 416.5 284.4C417.3 285.5 417.4 286.9 416.9 288.1C416.9 288.1 416.9 288.2 416.8 288.3C416.4 289.2 415.6 289.9 414.7 290.3C414.5 290.4 414.4 290.4 414.2 290.4C413.3 290.8 412.3 291.2 410.8 291.4C408.9 291.7 407 291.5 405.3 290.8C404.4 290.4 403.5 289.9 402.6 289.3C394.2 282.4 399.7 277.5 399.7 277.5C402 275.4 403.9 272.9 405.3 270C410 261 408.2 250 400.9 243L384.5 227.1C382.7 225.3 378.9 218.4 381.6 213.5C384.4 208.3 406.5 215.8 391.4 209.4Z" fill="url(#paint5_linear_319_133)"/>
<path d="M364.4 172C364.4 172 361.7 177 362.2 181.7L359.6 187C359.5 187.2 359.5 187.5 359.6 187.7C359.7 187.9 359.9 188.1 360.2 188.2L361.7 188.5L364.6 197.1L370 196.9L373.2 190.7L375.4 177.4L381.5 170.8L374.2 169.2L364.4 172Z" fill="#F79A75"/>
<path d="M392.5 175.3C392.5 175.3 392.2 164.3 378.3 164.3C378.3 164.3 369.6 163.5 364.4 172.1L374.5 172.7L371.8 175.5C371.5 175.9 371.3 176.3 371.2 176.8C371.2 177.6 371.3 178.4 371.5 179.2L372.2 181.3C372.5 182.2 372.6 183.2 372.5 184.1L372.4 185.6C372.4 185.6 372.4 185.7 372.4 185.8L377.3 186.1L377.5 187.3L380.3 186.3L386.7 193.2L388.1 188.2C388 188.2 393.9 180.9 392.5 175.3Z" fill="#3D4A73"/>
<path d="M375 189.4C375 188.7 375.4 188.1 376.1 187.8L377.5 187.3L377.3 186.1L372.4 185.8C372.3 186.8 371.5 192.5 367.4 193.2C367.4 193.2 366.7 188.9 361.7 188.6V188.7C361.2 188.7 360.7 189.1 360.7 189.6C360.7 190.1 361.1 190.6 361.6 190.7L361.4 193.9C361.3 194.9 361 195.8 360.5 196.7C354.9 205.7 367.4 209.2 373 203C375.2 200.5 375.2 196.8 375.1 193.7L375 189.4Z" fill="#163057"/>
<path d="M375.4 181.4C376.4 180 378.3 179.6 379.7 180.5C380.9 181.2 382.1 182.7 381.1 185.5C381.1 185.5 379.6 189.9 376.8 190.6C376.8 190.6 375 191.4 374.8 188.8L374.5 184.4C374.4 183.7 374.6 183 374.9 182.3C375 182 375.2 181.7 375.4 181.4Z" fill="#F79A75"/>
<path d="M455.933 268.341L404.332 284.592L415.567 320.264L467.168 304.013L455.933 268.341Z" fill="white"/>
<path d="M415.125 286.08L412.741 286.831L421.152 313.538L423.536 312.787L415.125 286.08Z" fill="#DAF0F3"/>
<path d="M422.248 288.195L419.864 288.946L427.013 311.646L429.398 310.895L422.248 288.195Z" fill="#DAF0F3"/>
<path d="M432.702 300.638L430.317 301.389L432.961 309.783L435.345 309.032L432.702 300.638Z" fill="#DAF0F3"/>
<path d="M432.822 280.489L430.437 281.24L438.848 307.946L441.233 307.195L432.822 280.489Z" fill="#DAF0F3"/>
<path d="M440.712 284.938L438.327 285.689L444.756 306.101L447.14 305.35L440.712 284.938Z" fill="#DAF0F3"/>
<path d="M446.395 282.356L444.011 283.107L450.65 304.186L453.034 303.435L446.395 282.356Z" fill="#DAF0F3"/>
<path d="M416.2 254.2L384.2 223C382.2 220.7 381.2 217.8 381.4 214.7C381.7 211.7 383.1 208.9 385.5 207L385.8 206.7C388.2 204.8 391.2 204 394.2 204.4C397.2 204.8 399.9 206.4 401.7 208.8L428.7 245.1C429.9 246.6 430.7 248.4 431 250.3L432.5 257.8L419.4 262.3L416.2 254.2Z" fill="white"/>
<path d="M432.6 258L419.5 262.5L433.9 300.6L430.6 304.6C430.6 304.6 429.4 306.1 429.6 307.7C429.6 307.7 429.3 309.7 428.9 310.7C428.9 310.7 428 311.9 429.5 313.9L430.2 316.2C430.2 316.2 430.1 317.3 431.7 317.1C431.7 317.1 432.3 316.6 432.6 315.4C432.6 315.4 434.2 316.7 435.4 314.8C435.4 314.8 440.6 314.6 441.4 312.7C444.9 313.4 444.4 309.7 443.9 307.6L440.8 298.6L432.6 258Z" fill="#F79A75"/>
<path d="M420.9 267.5C420.1 267.6 419.4 267.1 419.1 266.4L416.7 260.7C416.4 260.1 416.7 259.3 417.3 258.9C422.8 255.4 426.5 254.4 432.5 254C432.9 254 433.3 254.2 433.4 254.6L435.3 261.6C435.4 262.2 435.2 262.7 434.7 263C429.5 265.7 426.1 266.9 420.9 267.5Z" fill="white"/>
<path d="M375.2 289.1C375.4 287.9 376.2 285.3 376.3 284C376.4 282.8 376.5 281.7 376.5 280.3C376.5 279.7 376.5 279 376.5 278.3C376.5 277.7 376.5 277.1 376.4 276.5C376.2 273.8 376 271.1 375.5 268.3C374.9 265.6 374.5 262.8 373.7 260.1C373 257.3 372.2 254.7 371.4 252C370.7 249.3 369.9 246.7 369.3 244.1C369 242.8 368.7 241.5 368.4 240.2C368.1 238.9 368 237.7 367.8 236.5C367.3 234.2 367.4 231.5 367.4 229.2C367.4 228.7 367.4 227.9 367.4 227.6C367.5 227 367.5 226.5 367.6 225.9C367.7 224.8 367.8 223.7 367.9 222.7C368.3 220.7 368.5 218.8 368.9 217.3C369.4 215.7 369.6 214.3 370.1 213.2C370.2 212.9 370.4 212.6 370.5 212.3L369 211.3C368.8 211.6 368.6 212 368.4 212.4C367.8 213.4 367.3 214.9 366.6 216.5C365.8 218.1 365.4 220 364.8 222.1C364.5 223.1 364.3 224.2 364 225.4C363.9 226 363.7 226.5 363.6 227.1C363.4 227.9 363.4 228.3 363.3 229C363 231.4 362.6 233.8 362.7 236.7C362.7 238.1 362.7 239.6 362.8 240.9C362.9 242.3 363.1 243.7 363.2 245.1C363.5 247.9 363.9 250.7 364.3 253.5C364.7 256.3 365.2 259 365.5 261.6C365.9 264.3 366 266.8 366.2 269.3C366.3 271.7 366.2 274.1 366.1 276.1C366 276.7 366 277.3 365.9 277.9C365.8 278.4 365.7 278.9 365.7 279.4C365.6 280.3 365.3 281.3 365.2 282.2C365 283.1 364.2 285.3 363.9 286.1L367.2 293.9L375.2 289.1Z" fill="#D45C78"/>
<path d="M265.2 235.9L236.5 219C236.5 219 234.4 217.2 233.5 216.1L230.8 212.8L229 211C229 211 228.1 209.6 226.6 209.1L225 208.8C225 208.8 223.1 208 222.8 207.8C222.8 207.8 221.1 206.7 220.2 206.4L216.6 204.3L214.9 203.3C214.9 203.3 214 202.5 213.5 203.6C213.5 203.6 212.6 205.1 216.1 207.2L221.9 210.9C220.4 211.1 220.1 211.9 220.1 212.6C220.1 212.6 218.6 213.4 219.4 214.8C219.4 214.8 217.8 215.3 218.6 217.2C218.6 217.2 217.9 218.1 219 218.8C219 218.8 221.5 220.4 222.6 221L223.7 221.9C224.2 222.3 224.8 222.6 225.5 222.9C226.8 223.3 229.6 223.6 231.7 223.7L258.4 245.4C265.1 247.8 268.4 238.4 265.2 235.9Z" fill="#F79A75"/>
<path d="M304.6 212.9C302.3 210.8 299.3 209.9 296.3 210.2C293.3 210.5 290.5 212.1 288.7 214.6L269.1 238.2L265.1 235.9C267 238.8 262.8 246.4 258.3 245.4L268.5 253.7C270.8 255.5 274 255.5 276.2 253.6L304.9 228.5C307 226.4 308.1 223.6 308.1 220.7C308.1 217.7 306.8 214.9 304.6 212.9Z" fill="white"/>
<defs>
<linearGradient id="paint0_linear_319_133" x1="89.7962" y1="212.17" x2="113.349" y2="212.17" gradientUnits="userSpaceOnUse">
<stop stop-color="#163057"/>
<stop offset="0.0916267" stop-color="#1E375D"/>
<stop offset="0.2325" stop-color="#334A6C"/>
<stop offset="0.4051" stop-color="#576A86"/>
<stop offset="0.6028" stop-color="#8895A9"/>
<stop offset="0.8186" stop-color="#C5CCD5"/>
<stop offset="1" stop-color="white"/>
</linearGradient>
<linearGradient id="paint1_linear_319_133" x1="69.4455" y1="416.306" x2="97.7487" y2="374.415" gradientUnits="userSpaceOnUse">
<stop stop-color="white"/>
<stop offset="1" stop-color="#F79A75"/>
</linearGradient>
<linearGradient id="paint2_linear_319_133" x1="82.0966" y1="199.408" x2="82.0108" y2="184.108" gradientUnits="userSpaceOnUse">
<stop stop-color="white"/>
<stop offset="0.1315" stop-color="#FFF9F7"/>
<stop offset="0.3337" stop-color="#FDE9E2"/>
<stop offset="0.5813" stop-color="#FBD0BF"/>
<stop offset="0.8624" stop-color="#F8AC8E"/>
<stop offset="1" stop-color="#F79974"/>
</linearGradient>
<linearGradient id="paint3_linear_319_133" x1="111.627" y1="225.154" x2="70.1141" y2="348.75" gradientUnits="userSpaceOnUse">
<stop stop-color="#163057"/>
<stop offset="0.0916267" stop-color="#1E375D"/>
<stop offset="0.2325" stop-color="#334A6C"/>
<stop offset="0.4051" stop-color="#576A86"/>
<stop offset="0.6028" stop-color="#8895A9"/>
<stop offset="0.8186" stop-color="#C5CCD5"/>
<stop offset="1" stop-color="white"/>
</linearGradient>
<linearGradient id="paint4_linear_319_133" x1="378.006" y1="191.374" x2="381.759" y2="205.663" gradientUnits="userSpaceOnUse">
<stop stop-color="#F79A75"/>
<stop offset="0.223" stop-color="#F5A98B"/>
<stop offset="0.6845" stop-color="#F1D0C3"/>
<stop offset="1" stop-color="#EDEDED"/>
</linearGradient>
<linearGradient id="paint5_linear_319_133" x1="396.972" y1="218.625" x2="402.311" y2="275.881" gradientUnits="userSpaceOnUse">
<stop stop-color="#DAF0F3"/>
<stop offset="0.3369" stop-color="#E2F3F5"/>
<stop offset="0.8533" stop-color="#F8FCFD"/>
<stop offset="1" stop-color="white"/>
</linearGradient>
</defs>
</svg>
