<?xml version="1.0" encoding="utf-8"?>
<!-- Generator: Adobe Illustrator 23.0.0, SVG Export Plug-In . SVG Version: 6.00 Build 0)  -->
<svg version="1.1" id="Layer_1" xmlns="http://www.w3.org/2000/svg" xmlns:xlink="http://www.w3.org/1999/xlink" x="0px" y="0px"
	 width="491.5px" height="468.9px" viewBox="0 0 491.5 468.9" style="enable-background:new 0 0 491.5 468.9;" xml:space="preserve"
	>
<style type="text/css">
	.st0{opacity:0.7;fill:#C1BEAF;}
	.st1{fill:#F79A75;}
	.st2{fill:#FFFFFF;}
	.st3{fill:#143257;}
	.st4{fill:#B9D76C;}
	.st5{opacity:0.4;fill:#FFFFFF;}
	.st6{fill:#A2CC39;}
	.st7{fill:#0E2748;}
	.st8{fill:#153056;}
	.st9{opacity:0.5;fill:#153056;}
	.st10{opacity:0.3;fill:#143257;}
	.st11{fill:#375684;}
	.st12{fill:url(#SVGID_1_);}
	.st13{fill:#F05673;}
	.st14{opacity:0.3;fill:url(#SVGID_2_);}
	.st15{fill:#14274C;}
	.st16{opacity:0.7;fill:#FFFFFF;}
	.st17{fill:#2D2A29;}
	.st18{fill:#272222;}
	.st19{fill:#262121;}
	.st20{fill:#74CEE7;}
	.st21{fill:#59BBD3;}
	.st22{fill:#EE7A6A;}
	.st23{fill:#EB654F;}
	.st24{fill:#E77694;}
	.st25{fill:#EF5276;}
	.st26{opacity:0.5;fill:url(#SVGID_3_);}
	.st27{fill:#D45C78;}
	.st28{fill:url(#SVGID_4_);}
	.st29{fill:#BCDAE9;}
	.st30{fill:#2F5584;}
	.st31{fill:#8FBEE0;}
	.st32{fill:#8AAED4;}
	.st33{fill:#E6EFF4;}
</style>
<ellipse class="st0" cx="246.1" cy="456" rx="243.2" ry="4.9"/>
<path class="st1" d="M264.4,267.3c-0.4-0.6-1.1-1-1.9-0.8l0,0l-3.3,0.8l-3.9,0.9c-0.3,0.7-0.9,1.3-1.1,1.8l-1.1,2l-9.2,1.3l0.9,5.1
	l9.4-1.6l5.7,0c0.2,0,0.5,0,0.7-0.1l0.8-0.2c0.3,0,0.6-0.1,0.9-0.2c1-0.3,1.7-0.8,1.9-2.4c1.2-1,0.3-2.1,0.3-2.1
	c1.3-1.2-0.1-2.8-0.1-2.8C264.9,268.5,264.8,267.8,264.4,267.3z"/>
<rect x="249.9" y="271.6" transform="matrix(0.9887 -0.1499 0.1499 0.9887 -38.3421 40.7722)" class="st2" width="2.9" height="6.4"/>
<path class="st3" d="M218.3,285c-1.3,0.3-2.7,0.3-4,0.2l-30.3-2.8c-4.5-0.2-8.9-3.7-8.4-8.2c0.5-4.5,4.4-7.5,9.8-6.7l30.2,7
	l34.7-3.3l1.1,7.1L218.3,285z"/>
<g>
	<g>
		<g>
			<path class="st4" d="M146.3,109.2c0,0.6,0,1.1-0.1,1.7c0,0.6-0.1,1.3-0.2,1.9c-0.2,1.4-0.4,2.7-0.7,4.1c-0.2,0.8-0.4,1.6-0.7,2.4
				c-1.6,4.7-4.2,9-7.5,12.5c-0.4,0.4-0.8,0.8-1.1,1.1v0c-0.2,0.2-0.5,0.5-0.7,0.7c-1.6,1.7-2.7,3.7-3.3,6l-2.3,8.2
				c-0.4,1.4-1.7,2.1-3.1,2.1H98.9c-1.4,0-2.7-1-3.1-2.4l-1.9-7.3l-0.4-1.4c-0.7-2.5-2-4.8-3.8-6.6c-6-6.1-9.8-14.4-9.7-23.7
				c0.2-18.3,15.1-33,33.4-32.8c3.2,0,6.3,0.5,9.2,1.4c6.9,2.1,12.8,6.3,17,11.9c1.5,2,2.8,4.3,3.8,6.6c0.1,0.2,0.2,0.5,0.3,0.7
				c0.1,0.2,0.2,0.4,0.2,0.6c0.1,0.4,0.3,0.8,0.4,1.1c0.1,0.3,0.2,0.7,0.3,1c0.2,0.5,0.3,1,0.4,1.5c0.1,0.4,0.2,0.9,0.3,1.3
				c0.3,1.3,0.5,2.7,0.6,4C146.3,107.1,146.3,108.2,146.3,109.2z"/>
		</g>
		
			<ellipse transform="matrix(0.5783 -0.8158 0.8158 0.5783 -36.7567 116.5698)" class="st5" cx="94.4" cy="93.8" rx="11.7" ry="6.7"/>
		<path class="st2" d="M90.1,90.8c1-1.4,2.4-2,3.2-1.5c0.8,0.6,0.6,2.1-0.3,3.5c-1,1.4-2.4,2-3.2,1.5C89,93.8,89.2,92.2,90.1,90.8z"
			/>
	</g>
	<path class="st6" d="M146.3,109.2c0,0.6,0,1.1-0.1,1.7c0,0.6-0.1,1.3-0.2,1.9c-0.2,1.4-0.4,2.7-0.7,4.1c-0.2,0.8-0.4,1.6-0.7,2.4
		c-1.6,4.7-4.2,9-7.5,12.5c-0.4,0.4-0.8,0.8-1.1,1.1c-0.2,0.2-0.5,0.5-0.7,0.7c-1.6,1.7-2.7,3.7-3.3,6l-2.3,8.2
		c-0.4,1.4-1.7,2.1-3.1,2.1H98.9c-1.4,0-2.7-1-3.1-2.4l-1.9-7.3c10.3,7.1,24,4.6,27.5-6.8c4-13.2,10.9-18.8,10.9-18.8
		c5.5-7.8,5.5-14.9,3.6-20.9c-4.9-15.6-22.5-18-22.5-18c3.2,0,6.3,0.5,9.2,1.4c6.9,2.1,12.8,6.3,17,11.9c1.5,2,2.8,4.3,3.8,6.6
		c0.1,0.2,0.2,0.5,0.3,0.7c0.1,0.2,0.2,0.4,0.2,0.6c0.1,0.4,0.3,0.8,0.4,1.1c0.1,0.3,0.2,0.7,0.3,1c0.2,0.5,0.3,1,0.4,1.5
		c0.1,0.4,0.2,0.9,0.3,1.3c0.3,1.3,0.5,2.7,0.6,4C146.3,107.1,146.3,108.2,146.3,109.2z"/>
	<ellipse transform="matrix(0.4372 -0.8994 0.8994 0.4372 -89.389 196.965)" class="st7" cx="112.7" cy="169.9" rx="9.2" ry="9.2"/>
	<path class="st8" d="M128.6,159.4c0-1.7-1.4-3.1-3.2-3.1c1.8,0,3.3-1.3,3.3-3.1c0-1.7-1.4-3.3-3.2-3.3h-25.1
		c-1.8,0-3.3,1.4-3.3,3.1c0,1.7,1.4,3.1,3.2,3.1c-1.8,0-3.3,1.3-3.3,3.1c0,1.7,1.4,3.1,3.2,3.1c-1.8,0-3.3,1.3-3.3,3.1
		c0,1.6,1.3,2.9,2.9,3.1l0,1.8c0,2.6,2.1,4.9,4.7,5h16.2c2.6,0,4.8-2.1,4.8-4.7l0-1.8c1.7-0.1,3-1.4,3-3c0-1.7-1.4-3.1-3.2-3.1
		C127.1,162.5,128.6,161.1,128.6,159.4z"/>
	<path class="st9" d="M128.6,159.4c0-1.7-1.4-3.1-3.2-3.1c1.8,0,3.3-1.3,3.3-3.1c0-1.7-1.4-3.3-3.2-3.3h-10.4c1.8,0,3.3,1.6,3.2,3.3
		s-1.5,3.1-3.3,3.1c1.8,0,3.3,1.4,3.2,3.1c0,1.7-1.5,3.1-3.3,3.1c1.8,0,3.3,1.4,3.2,3.1c0,1.6-1.3,2.9-3,3l0,1.8
		c0,2.6-2.2,4.7-4.8,4.7l10.4,0.1c2.6,0,4.8-2.1,4.8-4.7l0-1.8c1.7-0.1,3-1.4,3-3c0-1.7-1.4-3.1-3.2-3.1
		C127.1,162.5,128.6,161.1,128.6,159.4z"/>
</g>
<g>
	<path class="st1" d="M144.5,421.5l-5.5-4.8l-12.1,14.6l-2.4,12.2l1.2,3.1l2.3-2.2c0,0,0.4-3.4,1.2-5.7c0.3-1,0.6-1.5,1.4-2.1
		L144.5,421.5z"/>
	<path class="st2" d="M126.9,431.4c0,0-4.9-1.1-9.4,0.8l9.1,23.6c0.2,0.4,0.5,0.7,1,0.7c0.4,0,0.8-0.3,1-0.7c0.4-1,0.3-2.5-0.9-4.5
		c-0.3-0.4-0.4-0.9-0.3-1.4l0.6-5.4l-1.7-0.3L126.9,431.4z"/>
</g>
<polygon class="st3" points="173.8,392.6 134.2,436 126.2,429.2 142.8,408.5 143.2,407.9 163.3,382.9 163.7,382.4 "/>
<polygon class="st10" points="164.6,386.9 143.2,407.9 163.3,382.9 "/>
<g>
	<path class="st1" d="M173.6,429.9l-7-0.1v17.5l10.5,6.7l3.3,0l-1.2-2.9c0,0-3-1.6-4.9-3.2c-0.8-0.7-1-0.9-1.3-1.9L173.6,429.9z"/>
	<path class="st2" d="M166.6,447.2c0,0-2.8,4.2-2.7,9h25.3c0.4,0,0.8-0.3,1-0.7c0.2-0.4,0-0.9-0.3-1.1c-0.8-0.7-2.2-1.2-4.5-0.8
		c-0.5,0.1-1,0-1.4-0.2l-4.8-2.5l-0.9,1.5L166.6,447.2z"/>
</g>
<path class="st11" d="M138.1,331.1c0,0,11.6-6.3,16.6,4.4l6-14.8c-0.3-2.3,1.1-11.2-1-12.2c-2.1-1-6.3,6.4-8.3,7.6L138.1,331.1z"/>
<path class="st3" d="M177.9,329L175,444.3h-10.5l-1-26.5l-1.3-33.4l-6-39.9c-11.2-12.4-1.6-22.4-1.6-22.4l6.2,1.8L177.9,329z"/>
<path class="st10" d="M172.6,384l-7.1,2.9l-2,31l-1.3-33.4l-6-39.9c-11.2-12.4-1.6-22.4-1.6-22.4l6.2,1.8c-1.6,1.8-6.3,8.5,1.4,20.1
	l3.3,39.9H172.6z"/>
<path class="st3" d="M176.1,324.8c0.7-3,7.9-16.7,9.5-18.5c6-6.2,9-8.9,8.9-19.3c0-4-1.7-7.9-4.4-10.7l-0.6,1.2l-5.7,25.4l-0.6,2.7
	l-2.5,5.7l-0.2,0.4l-3.9,8.8c-0.3,0.7-0.7,1.4-1.1,2.1L176.1,324.8z"/>
<polygon class="st1" points="190.5,281.4 188.7,278.6 186.6,268 192.9,259 198.7,269.1 "/>
<linearGradient id="SVGID_1_" gradientUnits="userSpaceOnUse" x1="-114.693" y1="1644.5558" x2="-112.9393" y2="1628.188" gradientTransform="matrix(0.903 0.4296 -0.4296 0.903 1000.7385 -1163.9833)">
	<stop  offset="0" style="stop-color:#FFFFFF"/>
	<stop  offset="0.4512" style="stop-color:#F9D0C0"/>
	<stop  offset="1" style="stop-color:#F79A75"/>
</linearGradient>
<polygon class="st12" points="190.5,281.4 188.7,278.6 186.6,268 192.9,259 198.7,269.1 "/>
<path class="st2" d="M166.1,328c-0.2-0.1-0.3-0.1-0.5-0.2c-3.5-1.4-7.2-1.4-10.7-2.6c-0.8-0.3-1.5-1-1.7-1.8c-0.2-0.9,0-1.8,0.7-2.4
	c2.6-2.5,2.8-5.7,2.8-5.7c0.3-1.4,0.6-3,0.8-4.6c0.4-2.9,0.7-6.1,1.1-9.4c0.2-2.1,0.4-4.1,0.6-6.1c0.2-1.7,0.5-3.4,0.8-5
	c0.6-3.6,2.4-6,4.2-9.1c1.5-2.6,3.9-5.7,6.3-7.8c1.6-1.4,2-2.1,4.5-3.4c2.8-1.5,9.1-4,11.5-2.3c1.9,1.3,5.5,10.5,5.9,12.9
	c0.1,0.4,0.1,0.7,0.2,1.1c0,0.3,0.1,0.8,0.1,1.1c0,0.1,0,0.2,0,0.3c0,0.7,0.1,1.4,0.1,2.1c0,4-0.4,8.1-2.1,11.7
	c-2.2,4.6-7.6,7.3-8.5,12.8c-0.2,1.4-2.7,15.8-3.2,19.1c-0.2,0.9-1,1.6-1.9,1.6C173.6,330.1,169.3,329.2,166.1,328z"/>
<path class="st3" d="M180,298.1c-0.3,0.3-0.7,0.6-1,0.9c-0.7,0.6-1.4,1.2-2.2,1.7c0,0-0.1,0-0.1,0c-1.4,1-3,2.1-4.7,3
	c-0.6,0.3-1.2,0.6-1.9,0.9c-2.1,1-4.3,2-6.3,3.2c-0.2,0.1-0.3,0.2-0.4,0.3c0,0-0.1,0-0.1,0.1c-0.5,0.3-1,0.6-1.5,1
	c-0.4,0.3-0.7,0.5-1.1,0.8c-0.4,0.3-0.7,0.6-1,0.9c-0.9,0.7-1.8,1.5-2.7,2.3c-0.2,0.2-0.3,0.3-0.5,0.5c-0.3,0.3-0.7,0.6-1,0.9
	c-0.2,0.2-0.4,0.4-0.6,0.6c-0.8,0.7-1.6,1.4-2.5,2.2c0,0-13.1,15.3-13.2,15.4c-0.5,0.5-4-3.4-4.2-3.7c-0.7-1.1-1.3-2.3-1.7-3.6
	c-0.7-2.2-0.8-4.5-0.5-6.8c0-0.3,0.1-0.6,0.1-1c0.2-0.9,0.5-1.7,0.8-2.4c0.5-1,1.2-1.9,2.1-2.6c0.6-0.6,1.3-1.1,2.1-1.6
	c3.7-2.4,7.9-4.2,11.8-6.2c0.2-0.1,0.5-0.2,0.7-0.4c1.5-0.7,2.9-1.4,3.9-2c1.1-0.6,1.8-0.9,1.8-0.9c0.1-0.3,0.8-4.7,2.2-10
	c2-7.7,6.5-16,13.2-20.9c0.5-0.4,1-0.7,1.5-1c1.3-0.8,2.6-1.5,4-2c2.1-0.8,7.3-0.8,7.3-0.8c1.2,4.5,1.9,8.7,2.1,12.5
	c0.1,2.1,0,4.2-0.3,6.1c0,0.2,0,0.4-0.1,0.5C185.5,290.7,183.6,294.6,180,298.1z"/>
<polygon class="st13" points="194.2,277.2 194.6,281.5 192.7,281.8 "/>
<linearGradient id="SVGID_2_" gradientUnits="userSpaceOnUse" x1="681.9929" y1="-1110.6901" x2="721.445" y2="-1157.1044" gradientTransform="matrix(0.9694 0.2454 -0.2454 0.9694 -796.2819 1229.5635)">
	<stop  offset="0" style="stop-color:#FFFFFF"/>
	<stop  offset="0.1876" style="stop-color:#C3CBD4"/>
	<stop  offset="0.4018" style="stop-color:#8595A8"/>
	<stop  offset="0.598" style="stop-color:#546A85"/>
	<stop  offset="0.7693" style="stop-color:#314C6C"/>
	<stop  offset="0.9091" style="stop-color:#1B395D"/>
	<stop  offset="1" style="stop-color:#143257"/>
</linearGradient>
<path class="st14" d="M179.2,277.2c0,0,1.5-3.3,3.2-0.9c2.3,3.2-1.3,7-1.3,7l-17.7,20.1c-1.2,1.4-1.3,3.4-0.3,4.9c0,0,0,0,0,0
	c-0.5,0.3-1,0.6-1.5,1c-0.4,0.3-0.7,0.5-1.1,0.8c-0.4,0.3-0.7,0.6-1,0.9c-0.9,0.7-1.8,1.5-2.7,2.3c-0.2,0.2-0.3,0.3-0.5,0.5
	c-0.3,0.3-0.7,0.6-1,0.9c-0.2,0.2-0.4,0.4-0.6,0.6c-0.8,0.7-1.6,1.4-2.5,2.2c0,0-13.1,15.3-13.2,15.4c-0.5,0.5-4-3.4-4.2-3.7
	c-0.7-1.1-1.3-2.3-1.7-3.6c-0.7-2.2-0.8-4.5-0.5-6.8c0-0.3,0.1-0.6,0.1-1c0.2-0.9,0.5-1.7,0.8-2.4c0.5-1,1.2-1.9,2.1-2.6
	c0.7-0.5,1.4-1.1,2.1-1.6c3.7-2.4,7.9-4.2,11.8-6.2c0.2-0.1,0.5-0.2,0.7-0.4c1.5-0.7,2.9-1.4,3.9-2c1.1-0.6,1.8-0.9,1.8-0.9
	c0.1-0.3,0.8-4.7,2.2-10L179.2,277.2z"/>
<polygon class="st2" points="186.7,265.8 184.4,267.1 192.7,281.8 194.2,277.2 "/>
<path class="st11" d="M184.4,267.1l-4.3,3l3.7,2l-1.9,0.7c0,0,8.2,15.1-3.4,26.7C178.5,299.5,194.5,290.8,184.4,267.1z"/>
<g>
	<path class="st1" d="M203.6,252.9c1.3,1.7,1.6,3.8,1.4,6.3l0,0.5l1.5,3.4c0.1,0.3,0,0.6-0.3,0.8l-1.2,0.6l-1.4,4.8l-4-1.2l-4.6-8.3
		l-0.7-6.2l1.4-2.6l4.8,0L203.6,252.9z"/>
	<path class="st15" d="M203.4,265.3c-0.5,0.6-1.2,0.8-1.9,0.6c-1.2-0.3-2.3-1.1-2.9-2.2l-0.9-1.4c-2.5-3,1.1-6.2,1.1-6.2
		c1.4-1.8-1.3-3.3-1.3-3.3l6.1,0c1.7-3.5-1-6.5-1-6.5c-2.4-2.7-5-1.2-5-1.2c-1.9,0.9-4.9,0.2-4.9,0.2c-1.7,0.1-1.8,1.9-1.8,1.9
		l-3.7,0c-2.7,0.3-1.7,2.8-1.7,2.8c-1.5,0.6-2.6,2.9-2.6,2.9c-1.5,2.6,1.3,5.7,1.3,5.7l3.5,7.6l5.4-4.8l1.8,0.2l-0.2,2.9l-0.1,0.1
		c-0.8,0.8-0.9,2-0.3,2.9c1.6,2.3,3.2,2.3,3.2,2.3l0.5,0.1c0.4,0.1,0.6,0.4,0.6,0.8c0,4,6.3,4.2,6.3,0l0-2.4l0-1.5l0-2.5
		C204.3,264.5,203.8,264.9,203.4,265.3z"/>
	<path class="st16" d="M192.8,258.4l9.1,0c0.2-1.2,0.6-2,1.2-2c0.6,0,1,0.8,1.2,2l0.8,0c0-0.7,0-1.3-0.1-1.9
		c0.1-0.1,0.2-0.1,0.3-0.1c0.7,0,1.3,1.4,1.3,3c0,1.1-0.2,2-0.6,2.5l-1-2.3l0-0.2l-0.7,0c0,1.6-0.6,2.9-1.3,3s-1.3-1.3-1.3-2.9l-9,0
		L192.8,258.4z"/>
	<path class="st1" d="M194.1,258.4c-0.9-0.7-2.1-0.7-2.9,0.1c-0.6,0.6-1.2,1.8-0.1,3.5c0,0,1.7,2.6,3.6,2.6c0,0,1.3,0.2,1-1.5
		l-0.5-2.9c-0.1-0.5-0.3-0.9-0.6-1.3C194.5,258.8,194.3,258.6,194.1,258.4z"/>
</g>
<path class="st13" d="M194.2,280.6c0,0,0,0.2,0.1,0.6c0.1,0.4,0.2,0.9,0.3,1.7c0.2,1.4,0.4,3.5,0.3,6c0,1.2-0.1,2.6-0.3,4
	c-0.1,0.7-0.2,1.4-0.3,2.2c-0.1,0.7-0.3,1.5-0.4,2.3c-0.3,1.5-0.8,3.1-1.3,4.7c-0.3,0.8-0.6,1.6-0.8,2.4c-0.3,0.8-0.7,1.6-1,2.3
	c-0.3,0.8-0.7,1.5-1.1,2.3l-0.6,1.1l-0.1,0.3l-0.1,0.1l0,0.1c0,0-0.1,0.1,0.1-0.1l0,0l0,0l-0.3,0.5c-0.2,0.4-0.3,0.7-0.5,1.1
	c-0.2,0.3-0.4,0.7-0.5,1c-0.2,0.6-0.4,1.2-0.6,1.8c-0.3,1.3-0.7,2.6-0.8,3.8c0,0.3-0.1,0.6-0.1,0.9c0,0.3,0,0.6-0.1,0.9
	c0,0.6-0.1,1.1-0.1,1.6c0,0.5,0,1,0,1.5c0,0.2,0,0.5,0,0.7c0,0.2,0.1,0.4,0.1,0.7c0.1,0.8,0.1,1.6,0.3,2.2c0.3,1.2,0.4,1.9,0.4,1.9
	l-3.4,4.9l-5.2-3.4c0,0-0.1-0.9-0.2-2.5c-0.1-0.8,0-1.8,0-2.9c0-0.3,0-0.6,0-0.9c0-0.3,0.1-0.6,0.1-0.9c0.1-0.6,0.2-1.3,0.2-2
	c0.1-0.7,0.3-1.4,0.4-2.1c0.1-0.4,0.2-0.7,0.3-1.1c0.1-0.4,0.2-0.7,0.3-1.1c0.4-1.5,1.1-3,1.8-4.5c0.4-0.8,0.8-1.6,1.3-2.4
	c0.4-0.8,0.9-1.3,1.3-2l0.3-0.5l0.1-0.2l0-0.1l0.1-0.1l0.2-0.2l0.7-0.9c0.4-0.6,0.9-1.2,1.3-1.9c0.4-0.7,0.8-1.3,1.2-2
	c0.4-0.7,0.7-1.4,1.1-2c0.7-1.4,1.3-2.7,1.8-4.1c0.3-0.7,0.5-1.4,0.7-2c0.2-0.7,0.4-1.3,0.6-2c0.4-1.3,0.6-2.5,0.8-3.7
	c0.4-2.3,0.6-4.3,0.6-5.7c0-0.7,0-1.2,0-1.6c0-0.4,0-0.6,0-0.6L194.2,280.6z"/>
<path class="st17" d="M177.5,400.8C177.5,400.8,177.5,400.8,177.5,400.8c-0.5,0-0.9-0.4-0.9-0.9c0.6-22.5-11.3-43.2-31.1-54
	c-18.3-10-30.6-31.8-30.6-54.1v-32.2c0-0.5,0.4-0.9,0.9-0.9s0.9,0.4,0.9,0.9v32.2c0,21.7,11.9,42.8,29.6,52.5
	c20.3,11.1,32.6,32.5,32,55.7C178.4,400.4,178,400.8,177.5,400.8z"/>
<path class="st18" d="M127.3,329.6L108,306.4c-20.3-23.7-31.5-54-31.5-85.2v-9.2c0-0.5,0.4-0.9,0.9-0.9c0.5,0,0.9,0.4,0.9,0.9v9.2
	c0,30.8,11,60.6,31,84l12.2,14.7c-11-23-10.2-51.7-10.2-52l0-82.9c0-0.5,0.4-0.9,0.9-0.9c0.5,0,0.9,0.4,0.9,0.9v83
	c0,0.4-1,37.5,15.5,60.6L127.3,329.6z"/>
<path class="st19" d="M263.1,368.1c-0.1,0-0.1,0-0.2,0c-0.5-0.1-0.8-0.6-0.7-1.1c4.9-22-2.2-54.2-2.3-54.5
	c-6.9-32.3,0.6-59.1,7.3-82.8c0.5-1.7,1-3.4,1.4-5.1c6.5-23.4,5.3-59,5.3-59.4l0-38.1c0-0.5,0.4-0.9,0.9-0.9c0.5,0,0.9,0.4,0.9,0.9
	v38.1c0,0.3,1.2,36.2-5.4,59.9c-0.5,1.7-0.9,3.4-1.4,5.1c-6.6,23.5-14,50.1-7.3,81.9c0.1,0.3,7.3,32.9,2.3,55.3
	C263.9,367.8,263.5,368.1,263.1,368.1z"/>
<path class="st1" d="M258.9,275.8c0.4,0.7,1.1,1.1,1.9,0.9l0.8-0.2l0.9-0.2c1-0.3,1.7-0.8,1.9-2.4c1.2-1,0.3-2.1,0.3-2.1
	c1.3-1.2-0.1-2.8-0.1-2.8c0.5-0.6,0.4-1.3,0-1.8c-0.4-0.6-1.1-1-1.9-0.8l-3.1,0.8c-0.7,0.2-1.1,1.2-0.5,2c-1.2,1-0.3,2.1-0.3,2.1
	c-1.2,1.4,0.1,2.8,0.1,2.8C258.5,274.7,258.5,275.3,258.9,275.8z"/>
<g>
	<g>
		<g>
			<path class="st20" d="M315.3,43.8c0,0.7,0,1.4-0.1,2c0,0.8-0.1,1.5-0.2,2.2c-0.2,1.7-0.5,3.3-0.9,4.9c-0.2,1-0.5,2-0.8,2.9
				c-1.9,5.7-5,10.8-9.1,15.1c-0.4,0.5-0.9,0.9-1.4,1.4v0c-0.3,0.3-0.6,0.5-0.8,0.8c-1.9,2-3.3,4.5-4,7.1l-2.8,9.9
				c-0.5,1.7-2,2.5-3.7,2.5h-33.1c-1.7,0-3.2-1.2-3.7-2.8l-2.3-8.7l-0.4-1.6c-0.8-3-2.4-5.8-4.6-8c-7.3-7.3-11.7-17.3-11.6-28.4
				C236,21.2,254,3.5,275.9,3.7c3.8,0,7.6,0.6,11.1,1.7c8.3,2.5,15.4,7.6,20.4,14.3c1.8,2.4,3.4,5.1,4.6,8c0.1,0.3,0.2,0.6,0.4,0.9
				c0.1,0.2,0.2,0.5,0.3,0.7c0.2,0.4,0.3,0.9,0.5,1.4c0.1,0.4,0.3,0.8,0.4,1.2c0.2,0.6,0.4,1.2,0.5,1.8c0.1,0.5,0.3,1,0.4,1.6
				c0.3,1.6,0.6,3.2,0.7,4.8C315.2,41.3,315.3,42.6,315.3,43.8z"/>
		</g>
		<ellipse transform="matrix(0.5783 -0.8158 0.8158 0.5783 85.9598 217.035)" class="st5" cx="252.9" cy="25.4" rx="14" ry="8"/>
		<ellipse transform="matrix(0.5783 -0.8158 0.8158 0.5783 86.4923 213.2522)" class="st2" cx="249.5" cy="23" rx="3.7" ry="2.1"/>
	</g>
	<path class="st21" d="M315.3,43.8c0,0.7,0,1.4-0.1,2c0,0.8-0.1,1.5-0.2,2.2c-0.2,1.7-0.5,3.3-0.9,4.9c-0.2,1-0.5,2-0.8,2.9
		c-1.9,5.7-5,10.8-9.1,15.1c-0.4,0.5-0.9,0.9-1.4,1.4c-0.3,0.3-0.6,0.5-0.8,0.8c-1.9,2-3.3,4.5-4,7.1l-2.8,9.9
		c-0.5,1.7-2,2.5-3.7,2.5h-33.1c-1.7,0-3.2-1.2-3.7-2.8l-2.3-8.7c12.4,8.5,28.8,5.5,33-8.1c4.9-15.8,13.1-22.6,13.1-22.6
		c6.6-9.4,6.6-17.9,4.4-25c-5.9-18.8-27-21.6-27-21.6c3.8,0,7.6,0.6,11.1,1.7c8.3,2.5,15.4,7.6,20.4,14.3c1.8,2.4,3.4,5.1,4.6,8
		c0.1,0.3,0.2,0.6,0.4,0.9c0.1,0.2,0.2,0.5,0.3,0.7c0.2,0.4,0.3,0.9,0.5,1.4c0.1,0.4,0.3,0.8,0.4,1.2c0.2,0.6,0.4,1.2,0.5,1.8
		c0.1,0.5,0.3,1,0.4,1.6c0.3,1.6,0.6,3.2,0.7,4.8C315.2,41.3,315.3,42.6,315.3,43.8z"/>
	<ellipse transform="matrix(0.7071 -0.7071 0.7071 0.7071 -1.9967 228.5513)" class="st7" cx="274.9" cy="116.7" rx="11" ry="11"/>
	<path class="st8" d="M294,104.1c0-2-1.7-3.7-3.9-3.7c2.2,0,3.9-1.6,4-3.7c0-2-1.7-4-3.9-4h-30.1c-2.2,0-3.9,1.6-4,3.7
		c0,2,1.7,3.7,3.9,3.7c-2.2,0-3.9,1.6-4,3.7c0,2,1.7,3.7,3.9,3.7c-2.2,0-3.9,1.6-4,3.7c0,1.9,1.5,3.5,3.5,3.7l0,2.1
		c0,3.2,2.5,5.9,5.7,5.9h19.4c3.2,0,5.7-2.5,5.8-5.7l0-2.1c2-0.2,3.6-1.7,3.6-3.6c0-2-1.7-3.7-3.9-3.7
		C292.2,107.8,294,106.1,294,104.1z"/>
	<path class="st9" d="M294,104.1c0-2-1.7-3.7-3.9-3.7c2.2,0,3.9-1.6,4-3.7c0-2-1.7-4-3.9-4h-12.5c2.2,0,3.9,1.9,3.9,3.9
		c0,2-1.8,3.7-4,3.7c2.2,0,3.9,1.7,3.9,3.7c0,2-1.8,3.7-4,3.7c2.2,0,3.9,1.7,3.9,3.7c0,1.9-1.6,3.5-3.6,3.6l0,2.1
		c0,3.2-2.6,5.7-5.8,5.7l12.5,0.1c3.2,0,5.7-2.5,5.8-5.7l0-2.1c2-0.2,3.6-1.7,3.6-3.6c0-2-1.7-3.7-3.9-3.7
		C292.2,107.8,294,106.1,294,104.1z"/>
</g>
<g>
	<g>
		<g>
			<path class="st22" d="M110.9,143.5c0,0.6,0,1.1-0.1,1.7c0,0.6-0.1,1.3-0.2,1.9c-0.2,1.4-0.4,2.7-0.7,4.1
				c-0.2,0.8-0.4,1.6-0.7,2.4c-1.6,4.7-4.2,9-7.5,12.5c-0.4,0.4-0.8,0.8-1.1,1.1v0c-0.2,0.2-0.5,0.5-0.7,0.7c-1.6,1.7-2.7,3.7-3.3,6
				l-2.3,8.2c-0.4,1.4-1.7,2.1-3.1,2.1H63.6c-1.4,0-2.7-1-3.1-2.4l-1.9-7.3l-0.4-1.4c-0.7-2.5-2-4.8-3.8-6.6
				c-6-6.1-9.8-14.4-9.7-23.7c0.2-18.3,15.1-33,33.4-32.8c3.2,0,6.3,0.5,9.2,1.4c6.9,2.1,12.8,6.3,17,11.9c1.5,2,2.8,4.3,3.8,6.6
				c0.1,0.2,0.2,0.5,0.3,0.7c0.1,0.2,0.2,0.4,0.2,0.6c0.1,0.4,0.3,0.8,0.4,1.1c0.1,0.3,0.2,0.7,0.3,1c0.2,0.5,0.3,1,0.4,1.5
				c0.1,0.4,0.2,0.9,0.3,1.3c0.3,1.3,0.5,2.7,0.6,4C110.9,141.4,110.9,142.4,110.9,143.5z"/>
		</g>
		
			<ellipse transform="matrix(0.5783 -0.8158 0.8158 0.5783 -79.6471 102.1465)" class="st5" cx="59" cy="128.1" rx="11.7" ry="6.7"/>
		<path class="st2" d="M54.7,125.1c1-1.4,2.4-2,3.2-1.5c0.8,0.6,0.6,2.1-0.3,3.5c-1,1.4-2.4,2-3.2,1.5S53.8,126.5,54.7,125.1z"/>
	</g>
	<path class="st23" d="M110.9,143.5c0,0.6,0,1.1-0.1,1.7c0,0.6-0.1,1.3-0.2,1.9c-0.2,1.4-0.4,2.7-0.7,4.1c-0.2,0.8-0.4,1.6-0.7,2.4
		c-1.6,4.7-4.2,9-7.5,12.5c-0.4,0.4-0.8,0.8-1.1,1.1c-0.2,0.2-0.5,0.5-0.7,0.7c-1.6,1.7-2.7,3.7-3.3,6l-2.3,8.2
		c-0.4,1.4-1.7,2.1-3.1,2.1H63.6c-1.4,0-2.7-1-3.1-2.4l-1.9-7.3c10.3,7.1,24,4.6,27.5-6.8c4-13.2,10.9-18.8,10.9-18.8
		c5.5-7.8,5.5-14.9,3.6-20.9c-4.9-15.6-22.5-18-22.5-18c3.2,0,6.3,0.5,9.2,1.4c6.9,2.1,12.8,6.3,17,11.9c1.5,2,2.8,4.3,3.8,6.6
		c0.1,0.2,0.2,0.5,0.3,0.7c0.1,0.2,0.2,0.4,0.2,0.6c0.1,0.4,0.3,0.8,0.4,1.1c0.1,0.3,0.2,0.7,0.3,1c0.2,0.5,0.3,1,0.4,1.5
		c0.1,0.4,0.2,0.9,0.3,1.3c0.3,1.3,0.5,2.7,0.6,4C110.9,141.4,110.9,142.4,110.9,143.5z"/>
	<ellipse transform="matrix(0.8154 -0.5789 0.5789 0.8154 -103.9348 82.429)" class="st7" cx="77.3" cy="204.2" rx="9.2" ry="9.2"/>
	<path class="st8" d="M93.2,193.7c0-1.7-1.4-3.1-3.2-3.1c1.8,0,3.3-1.3,3.3-3.1c0-1.7-1.4-3.3-3.2-3.3H64.9c-1.8,0-3.3,1.4-3.3,3.1
		c0,1.7,1.4,3.1,3.2,3.1c-1.8,0-3.3,1.3-3.3,3.1c0,1.7,1.4,3.1,3.2,3.1c-1.8,0-3.3,1.3-3.3,3.1c0,1.6,1.3,2.9,2.9,3.1l0,1.8
		c0,2.6,2.1,4.9,4.7,5h16.2c2.6,0,4.8-2.1,4.8-4.7l0-1.8c1.7-0.1,3-1.4,3-3c0-1.7-1.4-3.1-3.2-3.1C91.7,196.8,93.2,195.4,93.2,193.7
		z"/>
	<path class="st9" d="M93.2,193.7c0-1.7-1.4-3.1-3.2-3.1c1.8,0,3.3-1.3,3.3-3.1c0-1.7-1.4-3.3-3.2-3.3H79.5c1.8,0,3.3,1.6,3.2,3.3
		c0,1.7-1.5,3.1-3.3,3.1c1.8,0,3.3,1.4,3.2,3.1c0,1.7-1.5,3.1-3.3,3.1c1.8,0,3.3,1.4,3.2,3.1c0,1.6-1.3,2.9-3,3l0,1.8
		c0,2.6-2.2,4.7-4.8,4.7l10.4,0.1c2.6,0,4.8-2.1,4.8-4.7l0-1.8c1.7-0.1,3-1.4,3-3c0-1.7-1.4-3.1-3.2-3.1
		C91.7,196.8,93.2,195.4,93.2,193.7z"/>
</g>
<g>
	<g>
		<g>
			<path class="st24" d="M149.6,191c0,0.6,0,1.1-0.1,1.7c0,0.6-0.1,1.3-0.2,1.9c-0.2,1.4-0.4,2.7-0.7,4.1c-0.2,0.8-0.4,1.6-0.7,2.4
				c-1.6,4.7-4.2,9-7.5,12.5c-0.4,0.4-0.8,0.8-1.1,1.1v0c-0.2,0.2-0.5,0.5-0.7,0.7c-1.6,1.7-2.7,3.7-3.3,6l-2.3,8.2
				c-0.4,1.4-1.7,2.1-3.1,2.1h-27.5c-1.4,0-2.7-1-3.1-2.4l-1.9-7.3l-0.4-1.4c-0.7-2.5-2-4.8-3.8-6.6c-6-6.1-9.8-14.4-9.7-23.7
				c0.2-18.3,15.1-33,33.4-32.8c3.2,0,6.3,0.5,9.2,1.4c6.9,2.1,12.8,6.3,17,11.9c1.5,2,2.8,4.3,3.8,6.6c0.1,0.2,0.2,0.5,0.3,0.7
				c0.1,0.2,0.2,0.4,0.2,0.6c0.1,0.4,0.3,0.8,0.4,1.1c0.1,0.3,0.2,0.7,0.3,1c0.2,0.5,0.3,1,0.4,1.5c0.1,0.4,0.2,0.9,0.3,1.3
				c0.3,1.3,0.5,2.7,0.6,4C149.6,188.9,149.6,189.9,149.6,191z"/>
		</g>
		
			<ellipse transform="matrix(0.5783 -0.8158 0.8158 0.5783 -102.085 153.722)" class="st5" cx="97.7" cy="175.6" rx="11.7" ry="6.7"/>
		<path class="st2" d="M93.4,172.6c1-1.4,2.4-2,3.2-1.5s0.6,2.1-0.3,3.5c-1,1.4-2.4,2-3.2,1.5S92.4,174,93.4,172.6z"/>
	</g>
	<path class="st25" d="M149.6,191c0,0.6,0,1.1-0.1,1.7c0,0.6-0.1,1.3-0.2,1.9c-0.2,1.4-0.4,2.7-0.7,4.1c-0.2,0.8-0.4,1.6-0.7,2.4
		c-1.6,4.7-4.2,9-7.5,12.5c-0.4,0.4-0.8,0.8-1.1,1.1c-0.2,0.2-0.5,0.5-0.7,0.7c-1.6,1.7-2.7,3.7-3.3,6l-2.3,8.2
		c-0.4,1.4-1.7,2.1-3.1,2.1h-27.5c-1.4,0-2.7-1-3.1-2.4l-1.9-7.3c10.3,7.1,24,4.6,27.5-6.8c4-13.2,10.9-18.8,10.9-18.8
		c5.5-7.8,5.5-14.9,3.6-20.9c-4.9-15.6-22.5-18-22.5-18c3.2,0,6.3,0.5,9.2,1.4c6.9,2.1,12.8,6.3,17,11.9c1.5,2,2.8,4.3,3.8,6.6
		c0.1,0.2,0.2,0.5,0.3,0.7c0.1,0.2,0.2,0.4,0.2,0.6c0.1,0.4,0.3,0.8,0.4,1.1c0.1,0.3,0.2,0.7,0.3,1c0.2,0.5,0.3,1,0.4,1.5
		c0.1,0.4,0.2,0.9,0.3,1.3c0.3,1.3,0.5,2.7,0.6,4C149.6,188.9,149.6,189.9,149.6,191z"/>
	
		<ellipse transform="matrix(0.7309 -0.6825 0.6825 0.7309 -140.5609 146.8598)" class="st7" cx="115.9" cy="251.7" rx="9.2" ry="9.2"/>
	<path class="st8" d="M131.9,241.2c0-1.7-1.4-3.1-3.2-3.1c1.8,0,3.3-1.3,3.3-3.1c0-1.7-1.4-3.3-3.2-3.3h-25.1
		c-1.8,0-3.3,1.4-3.3,3.1c0,1.7,1.4,3.1,3.2,3.1c-1.8,0-3.3,1.3-3.3,3.1c0,1.7,1.4,3.1,3.2,3.1c-1.8,0-3.3,1.3-3.3,3.1
		c0,1.6,1.3,2.9,2.9,3.1l0,1.8c0,2.6,2.1,4.9,4.7,5H124c2.6,0,4.8-2.1,4.8-4.7l0-1.8c1.7-0.1,3-1.4,3-3c0-1.7-1.4-3.1-3.2-3.1
		C130.4,244.3,131.8,242.9,131.9,241.2z"/>
	<path class="st9" d="M131.9,241.2c0-1.7-1.4-3.1-3.2-3.1c1.8,0,3.3-1.3,3.3-3.1c0-1.7-1.4-3.3-3.2-3.3h-10.4c1.8,0,3.3,1.6,3.2,3.3
		c0,1.7-1.5,3.1-3.3,3.1c1.8,0,3.3,1.4,3.2,3.1c0,1.7-1.5,3.1-3.3,3.1c1.8,0,3.3,1.4,3.2,3.1c0,1.6-1.3,2.9-3,3l0,1.8
		c0,2.6-2.2,4.7-4.8,4.7l10.4,0.1c2.6,0,4.8-2.1,4.8-4.7l0-1.8c1.7-0.1,3-1.4,3-3c0-1.7-1.4-3.1-3.2-3.1
		C130.4,244.3,131.8,242.9,131.9,241.2z"/>
</g>
<path class="st1" d="M253.7,271.2l0.9-1.2c0,0,0.8-3.3,2.2-4.6c0,0,0.8-0.8,1.2-3c0.2-1.4,1.5-0.5,1.7,0.3c0.4,1.4-0.1,2.7-0.7,3.9
	c0,0,0,0.2,0.1,0.8C259.1,267.4,258.4,271.3,253.7,271.2z"/>
<path class="st1" d="M148.6,333.1l-1.5,4.2l2.2,3.2c0,0,0.7,1.1,0.5,2.2c0,0,0.1,1.4,0.2,2.1c0,0,0.5,0.9-0.6,2.1l-0.6,1.5
	c0,0,0,0.8-1.1,0.5c0,0-0.4-0.4-0.5-1.2c0,0-1.2,0.7-1.8-0.6c0,0-1.7,0.6-2.3-0.9c0,0-1.2,0.4-1.6-0.9c-2.4,0.3-1.8-2.2-1.4-3.6
	l2.6-5.8l1.3-4.1L148.6,333.1z"/>
<rect x="144.2" y="331.1" transform="matrix(0.3147 -0.9492 0.9492 0.3147 -217.5121 367.4443)" class="st2" width="2.9" height="6.4"/>
<path class="st3" d="M150.6,301.9c0.4-1.5,1-2.9,1.9-4.1l16-24c2.7-3.6,8-5.3,11.5-2.4c3.5,2.9,3.8,7.9,0.6,11.1l-19.5,21.9
	l-11.8,30.9l-7-2.2L150.6,301.9z"/>
<g>
	<path class="st2" d="M336,280.9l29.5-8.5c2-0.4,4.2,0,5.9,1.1c1.7,1.2,2.9,3,3.2,5l0,0.3c0.3,2-0.2,4.1-1.4,5.8
		c-1.3,1.6-3.1,2.7-5.2,2.9l-30.8,3.8c-1.3,0.2-2.6,0-3.9-0.4l-5-1.6l1.7-9.3L336,280.9z"/>
</g>
<g>
	<path class="st1" d="M348.8,423.9l7.2-1.1l2.4,17.4l-6.5,10.7l-3,1.5l-0.2-3.2c0,0,2.1-3.4,3.2-5.6c0.5-1,0.6-1.3,0.3-2.3
		L348.8,423.9z"/>
	<path class="st2" d="M358.4,440.2l-8.2,9.9l-1.5-0.9l-2.9,3.9c-0.3,0.1-0.7,0.1-1.1,0.1c-2.3-0.4-3.7,0.1-4.5,0.8
		c-0.3,0.3-0.5,0.7-0.3,1.2c0.2,0.4,0.5,0.7,1,0.7h0.6h5.8l16.8-8.3l0.7-0.4C362.8,442.7,358.4,440.2,358.4,440.2z"/>
</g>
<path class="st3" d="M368.9,360.2l-14.8,25.3l3.2,28.3l2.8,25l-10.4,1.5L339,385.3c-0.5-2.8-0.2-5.8,1-8.4l22.7-48.6l7.8,29.1
	L368.9,360.2z"/>
<polygon class="st10" points="354.1,385.5 357.3,413.8 351.4,387.2 343.1,383.1 351.9,384.3 361,364.4 362.9,339 368.9,360.2 "/>
<g>
	<path class="st1" d="M370.4,429.3h7.3l-0.3,17.5l-10.6,6.7l-3.3,0l1.2-3c0,0,3.4-2.1,5.3-3.6c0.8-0.7,1.1-0.9,1.3-1.9L370.4,429.3z
		"/>
	<path class="st2" d="M377.5,446.7c0,0,2.9,4.2,2.7,9.1h-25.4c-0.4,0-0.8-0.3-1-0.7c-0.2-0.4,0-0.9,0.3-1.2c0.8-0.7,2.2-1.2,4.5-0.8
		c0.5,0.1,1,0,1.4-0.2l4.8-2.5l0.9,1.5L377.5,446.7z"/>
</g>
<path class="st3" d="M383.9,348.4l-3.7,37.8l-0.4,31.6l-0.3,25.8H369l-6.9-113.8l19.5-2l7.2-0.7
	C388.8,327.1,394.4,340.7,383.9,348.4z"/>
<path class="st10" d="M383.9,348.4l-3.7,37.8l-0.4,31.6l-2.9-30.3l-7.6-2.9h7.6l0.4-37.3c7.3-11.3,5.6-17.2,4.2-19.4l7.2-0.7
	C388.8,327.1,394.4,340.7,383.9,348.4z"/>
<g>
	<polygon class="st1" points="369.3,261.6 371.5,270.7 361.3,274.9 358,261.5 360.3,259.6 364.1,255.9 368.9,259.5 	"/>
	
		<linearGradient id="SVGID_3_" gradientUnits="userSpaceOnUse" x1="8134.7744" y1="-1193.1904" x2="8134.7744" y2="-1183.0569" gradientTransform="matrix(-0.9672 0.254 0.254 0.9672 8534.9482 -649.5012)">
		<stop  offset="0" style="stop-color:#F79A75"/>
		<stop  offset="0.223" style="stop-color:#F5A98B"/>
		<stop  offset="0.6845" style="stop-color:#F1D0C3"/>
		<stop  offset="1" style="stop-color:#EDEDED"/>
	</linearGradient>
	<polygon class="st26" points="369.3,261.6 371.5,270.7 361.3,274.9 358,261.5 360.3,259.6 364.1,255.9 368.9,259.5 	"/>
</g>
<polygon class="st27" points="359.8,273 357.7,276.5 359,277.8 "/>
<polygon class="st2" points="371.7,267.3 373.4,269.7 359,277.8 359.8,273 "/>
<path class="st2" d="M389.1,330.5c-0.1,0-0.2,0.1-0.4,0.1c-0.6,0.3-1.3,0.6-2.3,0.7c-1.3,0.2-2.6,0-3.8-0.4c-0.6-0.3-1.3-0.6-1.8-1
	c-1.9-1.5-8.1,0.4-11.6,1.4c-1.9,0.8-4.5,0.9-5.7,1c-0.5,0-1.1-0.1-1.5-0.4c-1.7-1-1.6-2.4-1.2-3.5c0.5-1.1,0.8-2.4,0.9-3.6
	c0-0.6,0.1-1.1,0.1-1.2c0.4-2.8-0.3-3.7-0.4-6.6c-0.1-2.1-0.2-4.1-0.2-4.8l-0.3-2.7c-0.5-4.5,0.2-8.8-1.5-13c-2-4.9-4-12.5-0.4-18.7
	l0.1-0.1c0.3-0.3,0.5-0.6,0.8-0.9c0.4-0.4,0.7-0.9,1.1-1.5c1.5-2.4,3.5-3.8,5.4-4.7c2.8-1.3,4.8-3.2,7.5-1.4
	c1.8,1.3,3.9,3.1,5.7,4.8c1.3,1.2,2.3,2.3,2.9,3c1.7,2.1,3.2,4.3,4.2,6.7c0.2,0.5,0.5,1.1,0.7,1.6c1.3,3.4,2,7.1,2,10.9c0,0,0,0,0,0
	c0,1.6,0,3.3-0.1,5c-0.1,2.1-0.2,4.3-0.4,6.4c-0.2,3.4-0.5,4.5-0.6,7.6c0,0.8,0,1.5,0,2.3c0,0.1,0,0.2,0,0.2c0,0.8,0,1.6,0.1,2.4
	c0,0-0.3,3.3,2,6.3c0.6,0.7,0.7,1.7,0.3,2.6c0,0,0,0.1-0.1,0.1C390.3,329.8,389.7,330.3,389.1,330.5z"/>
<linearGradient id="SVGID_4_" gradientUnits="userSpaceOnUse" x1="-9893.3574" y1="4648.8433" x2="-9876.5654" y2="4665.6357" gradientTransform="matrix(0.7697 0.6384 -0.6384 0.7697 10965.3301 3038.781)">
	<stop  offset="0" style="stop-color:#DAF0F3"/>
	<stop  offset="0.3369" style="stop-color:#E2F3F5"/>
	<stop  offset="0.8533" style="stop-color:#F8FCFD"/>
	<stop  offset="1" style="stop-color:#FFFFFF"/>
</linearGradient>
<path class="st28" d="M389.3,296.2c0,1.6,0,3.3-0.1,5.1c-0.1,2.1-0.2,4.3-0.4,6.4c-0.2,3.4-0.5,4.5-0.6,7.6c0,0.8,0,1.5,0,2.3
	c0,0.1,0,0.2,0,0.2c0,0.8,0,1.6,0.1,2.4c0,0-0.3,3.3,2,6.3c0.6,0.7,0.7,1.7,0.3,2.6c0,0,0,0.1-0.1,0.1c-0.3,0.6-0.8,1.1-1.4,1.4
	c-0.1,0-0.2,0.1-0.4,0.1c-0.6,0.3-1.3,0.6-2.3,0.7c-1.3,0.2-2.6,0-3.8-0.4c-0.6-0.3-1.3-0.6-1.8-1c-5.8-4.7-2-8.1-2-8.1
	c6.4-5.7,7.8-17,7-25.1L389.3,296.2z"/>
<g>
	<g>
		<path class="st1" d="M353.8,252.2c0,0-1.3,3-0.8,5.4l0.1,1.1l-1,2.9c-0.1,0.2,0,0.4,0.1,0.6c0.1,0.2,0.3,0.3,0.5,0.2l0.7,0l0.1,1
			l3.9,1.3l3.2-2.1l1.7-4.4l1.9-7.6l-4.1-1.2l-4.4,1.1L353.8,252.2z"/>
		<path class="st15" d="M373.1,255.5l1.1-4.4c0,0,0.5-1.7-1.5-2.2c0,0-0.2-2.2-2.7-2.1c0,0-1.6-4-8.4-2.9l1,1.2c0,0-2.9-1.7-6.2,0.2
			l0.8,1c0,0-3.6-1.3-4.6,2.2c0,0-0.7,2,1.2,3.7l12.4-0.8L373.1,255.5z"/>
		<path class="st8" d="M356.2,273.6c-2,0.1-3.7-1.4-3.9-3.4c-0.1-1.2,0.5-2.3,1.4-3.1c0,0,0,0,0,0c0,0,0-0.1,0-0.1l-0.4-4.7l3.9,0.5
			c0.8,0.1,1.7-0.1,2.3-0.6c0.7-0.5,1.1-1.3,1.2-2.1c0,0,0-0.1,0-0.2c0,0,0-0.1,0-0.1c0,0,0.3-2-1.3-4c0,0-1.2-1.2-0.2-2.7
			c0.1-0.2,0.3-0.4,0.4-0.5l0,0c3.5-2.9,8.5-3.1,12.1-0.3c0.7,0.6,2.1,2,0.9,4.7l-0.9,1.3c-1,1.4-1.7,3.1-1.9,4.8l-0.1,0.5l-3.7-3.8
			l-2.1,1.2l-1.6,0.9c0,0,1.5,3.5-0.1,6.5c-0.6,1.1-1.6,1.9-2.8,2.3C359.1,272.3,357.8,273.5,356.2,273.6z"/>
	</g>
	<path class="st1" d="M363.2,256.7c0.7-0.8,1.9-1,2.8-0.3c0.7,0.5,1.4,1.5,0.6,3.3c0,0-1.2,2.7-3,3c0,0-1.2,0.4-1.2-1.3l0.1-2.8
		c0-0.5,0.1-0.9,0.4-1.3C362.9,257.1,363.1,256.9,363.2,256.7z"/>
</g>
<path class="st13" d="M434.9,275.3c-16.2-10.9-31-7.1-42.5,9.3c-0.1,0.1-0.1,0.3-0.1,0.5c0,0.2,0.1,0.3,0.3,0.4l14.9,10
	c0.3,0.2,0.7,0.1,0.9-0.2c5.2-7.7,10.3-8.6,15.7-4.9c5.4,3.6,6.5,8.6,1.3,16.4c-18.1,26.9-38.1,16.6-53.9,40.2l-5,7.4
	c-0.8,1.2-0.5,2.9,0.7,3.8l10.9,7.4c1.2,0.8,2.9,0.5,3.8-0.7l4.6-6.8c13.3-19.8,36.3-10.6,55.2-38.7
	C453.2,302,451.4,286.4,434.9,275.3z"/>
<path class="st13" d="M374.9,370.4c1.2,0.8,1.6,2.5,0.7,3.8l-7.4,11c-0.8,1.2-2.5,1.6-3.8,0.7l-11-7.4c-1.2-0.8-1.6-2.5-0.7-3.8
	l7.4-11c0.8-1.2,2.5-1.6,3.8-0.7L374.9,370.4z"/>
<g>
	<path class="st2" d="M390.9,304.8l-22.8-20.5c-1.4-1.5-2.2-3.5-2.1-5.6c0.1-2.1,1-4,2.6-5.4l0.2-0.2c1.6-1.4,3.6-2,5.7-1.8
		c2.1,0.2,3.9,1.2,5.2,2.8l19.5,24.1c0.8,1,1.4,2.2,1.7,3.5l1.3,5.1l-8.8,3.5L390.9,304.8z"/>
	<path class="st1" d="M402.2,306.9l-8.8,3.5l10.9,25.7l-2.2,2.8c0,0-0.8,1.1-0.6,2.2c0,0-0.2,1.4-0.4,2.1c0,0-0.6,0.9,0.5,2.1
		l0.5,1.6c0,0,0,0.8,1.1,0.6c0,0,0.4-0.4,0.6-1.2c0,0,1.1,0.8,1.9-0.5c0,0,3.6-0.3,4-1.6c2.5,0.4,2-2.1,1.6-3.5l-2.3-6.1
		L402.2,306.9z"/>
	<path class="st2" d="M394.5,313.7c-0.5,0.1-1.1-0.2-1.3-0.7l-1.8-3.9c-0.2-0.4-0.1-1,0.3-1.2c3.6-2.6,6.2-3.3,10.3-3.8
		c0.3,0,0.5,0.1,0.6,0.4l1.5,4.8c0.1,0.4,0,0.8-0.4,1C400.3,312.2,398,313.2,394.5,313.7z"/>
</g>
<path class="st27" d="M359.1,276.7c0,0-0.1,0.2-0.3,0.5c-0.2,0.4-0.4,0.9-0.6,1.6c-0.5,1.4-0.8,3.6-0.8,6.2c0,1.3,0.2,2.7,0.4,4.2
	c0.1,0.7,0.3,1.5,0.5,2.2c0.2,0.8,0.4,1.5,0.7,2.3c0.5,1.6,1,3.3,1.6,5l0.2,0.6l0.1,0.3l0.1,0.4l0.3,1.3c0.2,0.9,0.4,1.8,0.6,2.7
	c0.4,1.8,0.7,3.7,0.9,5.5c0.2,1.8,0.4,3.6,0.5,5.4c0.1,1.8,0.1,3.5,0.1,5.1c0,1.6-0.2,3.2-0.3,4.6c-0.1,0.7-0.2,1.4-0.3,2.1
	c-0.1,0.7-0.2,1.3-0.3,1.9c-0.2,1.2-0.5,2.2-0.7,3c-0.5,1.7-0.8,2.6-0.8,2.6l-5.5,2.4l-2.1-5.4c0,0,0.3-0.7,0.9-2
	c0.2-0.7,0.6-1.5,0.9-2.4c0.1-0.5,0.3-1,0.5-1.5c0.1-0.6,0.3-1.1,0.4-1.7c0.3-1.2,0.6-2.6,0.8-4c0.2-1.4,0.4-3,0.5-4.6
	c0.1-1.6,0.2-3.3,0.2-5c0-1.7-0.1-3.5-0.2-5.2c-0.1-0.9-0.1-1.7-0.2-2.6l-0.2-1.3l0-0.2l0-0.1c0,0,0,0.2,0,0.1l0,0l0,0l-0.1-0.3
	l-0.1-0.7c-0.3-1.7-0.6-3.4-0.9-5.1c-0.2-0.9-0.3-1.7-0.4-2.6c-0.1-0.8-0.2-1.7-0.2-2.5c-0.1-1.6,0-3.1,0.1-4.5
	c0.3-2.8,1-5.1,1.7-6.5c0.3-0.7,0.7-1.3,0.9-1.7c0.2-0.4,0.4-0.6,0.4-0.6L359.1,276.7z"/>
<path class="st1" d="M329.9,280l-32-5.3c-0.2-0.4-0.5-0.8-0.5-0.9c-0.4-0.7-1-1.5-1.6-2.1c-0.3-0.3-1-0.6-1.3-1
	c-0.3-0.5-1.4-1.4-1.8-1.8c-0.4-0.4-0.4-0.9-0.9-0.6c-0.5,0.3-0.4,1.2-0.2,1.6c0.2,0.8,1,1.4,1.4,1.9c0.4,0.5,0.6,0.8-0.3,0.8
	c-0.9,0.1-3-1.3-3.7-1.7c-0.7-0.4-2.4-1.4-2.8-1.7c-0.5-0.3-1.2-0.8-1.7,0c-0.5,0.8,1,1.5,1.3,1.7c0.3,0.3,1.2,0.8,1.5,1
	c0.4,0.3,2.2,1.3,2,1.8c-0.2,0.4-1.7-0.3-2.3-0.5c-0.6-0.2-1.8-0.5-2.3-0.6c-0.4-0.1-1.2-0.3-1.6-0.4c-0.5-0.1-1.1-0.1-1.2,0.5
	c-0.2,0.6,0.3,0.8,0.5,0.9c0.2,0.1,1.2,0.4,1.6,0.5c0.4,0.1,1.5,0.5,2,0.7c0.6,0.2,2,0.7,2.4,0.8c0.4,0.1,0.5,0.5,0.2,0.6
	c-0.4,0.1-2.8,0.2-3.3,0.2c-0.5,0-1.5-0.1-2.3,0c-0.8,0-1.1,0.4-1,0.8c0,0.4,0.3,0.7,0.6,0.7c0.3,0,1.9,0,2.5,0.1
	c0.6,0.1,2,0.1,2.6,0.1c0.6,0,1.3,0.1,1.4,0.4c0.1,0.2-0.6,0.4-1.1,0.6c-0.5,0.2-1.9,0.7-2.7,0.9c-0.8,0.2-0.9,0.7-0.9,0.9
	c0,0.3,0.4,0.5,1,0.5c0.6-0.1,2.1-0.5,2.6-0.7c0.5-0.2,2.1-0.6,2.1-0.6c0.7,0.1,1.1,0.1,1.6,0.2c0.4,0.1,1.3,0,1.8,0.1
	c0.9,0.2,2.7-1,3.4-1.5l31,10.2L329.9,280z"/>
<path class="st2" d="M326.5,279.2c0.2-0.5,0.7-0.8,1.3-0.7l4.2,0.5c0.5,0.1,0.8,0.5,0.9,0.9c0.3,4.5-0.4,7-2.2,10.7
	c-0.1,0.3-0.4,0.4-0.7,0.3l-4.8-1.3c-0.4-0.1-0.6-0.5-0.6-0.9C324.7,284.9,325.1,282.4,326.5,279.2z"/>
<g>
	<g>
		<g>
			<path class="st29" d="M98.2,359.1c0,0,0.4,6.1-0.3,10.1c-0.7,4-1.4,4.9-0.9,10.2c0.5,5.2,2.7,17.4,2.8,17.9
				c0.1,0.5,1.1-19.7,1.1-19.7s-0.7-1.4-0.7-4C100.3,370.9,100.5,363.4,98.2,359.1z"/>
			<path class="st30" d="M98.2,403.4h-4.6c-1-1.3-1.6-2.6-1.8-4.1c-0.3-2-0.8-3.1-0.8-3.1l-1.1-3l-0.1-0.2c-1.3-3.6-1.1-6-1.1-6
				c0.1-5.7-1.3-7.5-1.4-7.7c2.2,2.5,3.1,5.3,3.4,7.5c0.2,1.4,1.5,4.2,1.5,4.2l1.2,2.4L98.2,403.4z"/>
			<path class="st31" d="M93.3,386.5c0,0-1-17.6-1.4-20.9c0,0,3.6,10.8,3.5,20.7L93.3,386.5z"/>
			<path class="st15" d="M95.1,391.3c0,0-0.9-4.4,0-11.6l-0.5-4.2c0,0,0.1-4.8,0.3-9.2c0.3-4.4,0.3-5.6,0.1-7.5c0,0,1.9,3,2.2,9.4
				c0.3,6.4,0.1,6.9,0.8,9.8c0.7,2.9,1.9,7.7,1.9,12.4l0.8,4.2c0,0,1.5,5.2,0.7,8.7L95.1,391.3z"/>
			<path class="st31" d="M102,403.4h-5.5c-1.3-2.3-3.1-6.1-3.2-9.3c0-0.2,0-0.4,0-0.6c-0.2-3.1-1-5.1-1.5-6.1
				c-0.5-0.9-0.8-1.8-0.9-2.8c-0.1-0.8-0.2-1.9-0.1-3c0.3-2.7,0-8.4-0.8-10.1c-0.6-1.3,1.4,1.3,2.6,5.8c0,0,0,0.1,0,0.1
				c0.5,1.8,0.8,3.7,0.8,5.6c0,0.5,0.1,1.5,0.8,2.5c0.1,0.1,0.2,0.3,0.3,0.5c0,0.1,0.1,0.2,0.1,0.3c0.7,1.4,1.8,3.9,2.4,5.5
				c0.4,0.9,0.8,1.7,1.3,2.5c0.2,0.3,0.4,0.7,0.7,1.2c0.2,0.4,0.4,0.8,0.6,1.2c0,0.1,0.1,0.2,0.1,0.3c0.5,1,0.9,2,1.3,3.1
				c0.1,0.4,0.3,0.8,0.4,1.2C101.8,402,102,402.7,102,403.4z"/>
			<path class="st30" d="M115.2,386.1c0.1,1.8,0.1,4.6-0.9,5.8c-0.3,0.4-0.6,1-0.9,1.7c-0.5,1.4-0.9,2.9-0.9,2.9
				c-0.7,3.3-1.5,5.5-2.1,6.9h-3.3l2.1-9.1c0.4-0.3,0.8-0.7,1.2-1c2.4-2.5,2.5-5.5,2.5-5.5c0.7-6.1,3.6-8.5,3.7-8.6
				C115.6,380.8,115.2,384.3,115.2,386.1z"/>
			<path class="st15" d="M104.5,381c0.4,5.1-0.7,17.3-1.2,22.3h-4.1v-13.8c0-1.6,0.1-3.2,0.3-4.7c0.3-2.9,0.8-5.7,1.3-8
				c0.5-2.1,0.9-3.9,1.2-5.2c0.7-3.3-0.3-4,0.1-9.1c0.4-5,2-7.7,2.1-7.8c0,0.1-0.9,2.7,0,6.3c0.9,3.7,0.1,5.6,0.6,8.5
				c0.5,2.6-0.5,4.7-0.2,10.3C104.4,380.2,104.5,380.6,104.5,381z"/>
			<path class="st30" d="M108.1,385.7c-1.3,2.4-1,3.4-1,3.4c0,0.5,0.1,1,0.1,1.5c0,0.7,0,1.4,0,2c0,4.6-0.5,8.5-0.9,10.8h-5.4
				c0.1-0.3,0.1-0.6,0.1-0.9c0.1-0.7,0.2-1.5,0.3-2.4c0.1-0.6,0.1-1.3,0.1-2.1c0.1-2.1,0.2-4.5,0.3-7.4c0.3-7.3,1.5-6.5,2.7-10.8
				c0-0.1,0.1-0.2,0.1-0.3c1.2-4.7,1.2-8.6,1.2-8.6c-0.5-7.5,1.9-12.1,1.9-12.1c-0.3,2.3-0.4,3.4,0.2,8.3c0.6,4.9,0.5,7,0.5,7
				l-0.2,3.1c-0.1,1.1,0,2.2,0.3,3.2c0,0,0,0.1,0,0.1C108.8,382.6,109.1,383.8,108.1,385.7z"/>
			<path class="st32" d="M110.9,374.7c0,0-2.3,2.7-3.1,8.4l-1.4,6.8l0.7,2.9l2.8-3.5C109.9,389.2,109.5,377.8,110.9,374.7z"/>
			<path class="st29" d="M113.2,379.6c0,2.5-0.1,4.5-0.8,6.9c-0.5,1.8-1.5,1.5-2,6.6l0,0c-0.5,5.2-1.3,6.3-1.3,6.3l-1.7,3.9H105
				l0.8-4.9c0.5-3,0.7-5,1.1-6.8c0.1-0.4,0.2-0.8,0.3-1.1c0.3-1,0.8-2,1.5-3c0.6-1,1-1.6,1.2-2.1c0.5-1.2,0.3-2,0.8-6
				c0.4-2.5,2.9-7.9,4.4-10.1C114.4,371.8,113.2,377.1,113.2,379.6z"/>
		</g>
		<g>
			<g>
				<path class="st2" d="M112.1,405.3v47.5c0,1.9-1.5,3.5-3.5,3.5H94.8c-1.9,0-3.5-1.5-3.5-3.5v-47.5H112.1z"/>
				<path class="st33" d="M104.7,405.3v47.5c0,1.9-1.5,3.5-3.5,3.5h-6.4c-1.9,0-3.5-1.5-3.5-3.5v-47.5H104.7z"/>
			</g>
			<rect x="89.6" y="402.5" class="st2" width="24.3" height="3.3"/>
			<rect x="106.8" y="402.5" class="st33" width="4.4" height="3.3"/>
		</g>
	</g>
	<g>
		<g>
			<g>
				<path class="st3" d="M79.9,456.3c-0.1-1-1-1.8-2.1-1.8c-0.5,0-0.9,0.1-1.2,0.4c-0.4-0.9-1.3-1.5-2.4-1.5c-0.1,0-0.1,0-0.2,0
					c-0.4-1.9-2.1-3.3-4.1-3.3c-2.3,0-4.2,1.8-4.2,4.1c-1.5,0-2.8,0.8-3.5,2H79.9z"/>
			</g>
		</g>
		<g>
			<path class="st3" d="M89.6,424.1c0,0,0.1,0,0.2,0c0.1,0,0.2,0,0.3,0c2.2-0.3,4-1.7,5-3.6c0.6-1.1,0.7-2.3,0.5-3.5
				c-0.2-1.2-0.7-2.3-0.5-3.5c0.1-0.9,0.6-1.7,0.7-2.5l0,0c0,0-4.8,1.1-7.1,5.4c-0.8,1.4-1.1,3-0.9,4.6
				C88,422.1,88.4,423.5,89.6,424.1z"/>
			<path class="st3" d="M88.5,449.2h0.6c0-0.4,0-1,0.1-1.9c0.1-0.8,0.6-1.4,1.3-1.8c0.6-0.3,1.3-0.6,1.9-0.8
				c1.2-0.4,1.1-2.2,2.3-3.1c1.2-0.9,1.3-1.5,1.1-1.9c-0.1-0.3-0.4-0.4-0.7-0.3c-3.4,1-4.9,3.5-5.6,5.2
				C89,445.7,88.4,447.4,88.5,449.2z"/>
			<path class="st3" d="M82.4,432.8c0,0-4.2-3.4-8.3-2.4c-1.6,0.4-3.5,1.8-3.5,3.6c0,1.7,1.7,1.4,2.8,0.9c1.4-0.6,2.6-1.7,4.1-2.1
				c0.7-0.2,1.5-0.3,2.2-0.3C80.4,432.5,81.9,432.4,82.4,432.8z"/>
			<path class="st3" d="M70.2,424.2c0,4,3.2,4.7,5.3,4.8c1.1,0.1,2.1,0.4,2.9,1.1c0.1,0.1,0.3,0.2,0.4,0.3c0.9,0.7,1.8,1.3,2.8,2
				c0.1,0.1,0.2,0.2,0.3,0.3c0.1,0.1,0.2,0.2,0.3,0.3l0.3,0.3c0.1,0.1,0.2,0.2,0.3,0.3l0.1,0.2c0,0.1,0.1,0.1,0.1,0.2l0.2,0.4
				l0.2,0.4c0.1,0.1,0.1,0.2,0.2,0.4c0.5,1,0.8,2.1,1.1,3.1c0.4,1.7,0.6,3.4,0.7,4.9c0,0.3,0,0.6,0.1,0.9c0.1,1.7,0.1,3.1,0.1,4.1
				c0,0.5,0,0.9,0,1.2H86c0-0.3,0-0.7,0-1.2c0-1,0-2.4-0.1-4.2c-0.1-1.5-0.3-3.2-0.6-4.9c-0.1-0.3-0.1-0.6-0.2-0.9
				c-0.3-1.1-0.6-2.1-1.1-3.2c-0.1-0.1-0.1-0.3-0.2-0.4l-0.2-0.4l-0.2-0.4c0-0.1-0.1-0.1-0.1-0.2l-0.1-0.2c-0.1-0.1-0.2-0.2-0.3-0.3
				l-0.3-0.3c-0.1-0.1-0.2-0.2-0.3-0.3c-0.1-0.1-0.2-0.2-0.3-0.3c-0.9-0.7-1.9-1.4-2.8-2c-0.9-0.7-1.8-1.3-2.7-2
				c-0.8-0.7-1.6-1.3-2.3-2c-0.7-0.7-1.3-1.4-1.8-2.1c-1.1-1.6-1.5-3.4-2.1-5.3L70.2,424.2z"/>
			<path class="st3" d="M83.8,441.6c0,0,1.5-4.1-1.6-6.2c0,0-1.2-1-3.5-1.5C78.8,433.8,76.8,440.2,83.8,441.6z"/>
			<path class="st3" d="M83.4,440.6c0,0,0,0.1,0.1,0.4c0,0.1,0.1,0.3,0.1,0.4c0,0.2,0.1,0.4,0.1,0.6c0,0.2,0.1,0.4,0.1,0.7
				c0,0.2,0.1,0.5,0.1,0.8c0,0.3,0.1,0.5,0.1,0.8c0,0.3,0.1,0.6,0.1,0.8c0,0.3,0.1,0.6,0.1,0.8c0,0.3,0.1,0.6,0.1,0.8
				c0,0,0,0.1,0,0.1c0,0.2,0,0.5,0.1,0.7c0,0.1,0,0.2,0,0.3c0,0.1,0,0.3,0,0.4c0,0.4,0,0.7,0.1,0.9h0.6c0-0.2-0.1-0.6-0.1-1
				c0-0.2,0-0.4-0.1-0.7c0-0.2-0.1-0.5-0.1-0.8c0-0.3-0.1-0.5-0.1-0.8c-0.1-0.3-0.1-0.6-0.2-0.8c-0.1-0.3-0.1-0.6-0.2-0.8
				c-0.1-0.3-0.1-0.6-0.2-0.8c-0.1-0.3-0.1-0.5-0.2-0.8c-0.1-0.2-0.1-0.5-0.2-0.7c-0.1-0.2-0.1-0.4-0.2-0.6c0-0.2-0.1-0.3-0.1-0.4
				c-0.1-0.2-0.1-0.4-0.1-0.4L83.4,440.6z"/>
			<path class="st3" d="M84.9,448c0,0-0.6-2.8-2.9-3.4c-0.1,0-0.2,0-0.3,0.1c-0.1,0.1-0.1,0.2-0.1,0.3
				C81.9,445.6,82.5,446.9,84.9,448z"/>
			<path class="st3" d="M82.8,429.1c0.5,0,0.9,0.3,1,0.7c0.5,1.4,1.2,4.1,1.5,9.1c0.1,1.2,0.1,2.6,0.2,4.1c0,1.8,0,3.7,0,5.9v0.3
				h1.1c0-0.2,0-0.4,0-0.7c0.1-3.2,0.1-8.1-0.4-10.9c-0.7-4.3,0.5-11.3,1-13.1c0-0.1,0-0.1,0-0.2c0-0.1-0.1-0.1-0.2-0.1l0,0
				c-0.1,0-0.1,0-0.2,0c-0.1,0-0.1,0.1-0.1,0.2c-0.3,1.3-1.7,7.3-1.5,9.7c-0.1-0.4-0.4-2.6-1-4.5c-0.2-0.6-0.2-1.2-0.1-1.7
				c2.6-9.8-10.2-11.1-10.2-11.1C73.6,428.2,80.2,429.1,82.8,429.1z M85.3,434C85.3,434,85.3,434,85.3,434
				C85.3,434,85.3,434,85.3,434z"/>
			<path class="st3" d="M88.4,427.7c0,0-2.7,2.3-2.5,6.3c0-0.5,0.6-1.4,0.9-1.8c1.9-2.6,4.6-2.1,7.4-1.5L88.4,427.7z"/>
			<path class="st3" d="M90.5,439.8c0-0.1,0-0.2-0.1-0.2c-0.1-0.1-0.1-0.1-0.2-0.1c-0.9,0.1-3.4,0.7-4.2,4.4
				C86,443.9,89.8,444.9,90.5,439.8z"/>
			<path class="st3" d="M88.9,435.2c0,0-2.8,1.1-2.8,3.8C86.2,439.1,88.3,439.7,88.9,435.2z"/>
			<path class="st3" d="M98.3,432.2c0,0-7.3-1.5-8.3,4.7c0,0,2.6,1.2,5.1,0C97.6,435.7,98.3,432.2,98.3,432.2z"/>
			<path class="st3" d="M91.6,435.7C91.6,435.7,91.5,435.7,91.6,435.7c-0.1,0.1-0.2,0.1-0.3,0.1c-0.2,0.1-0.4,0.2-0.6,0.4
				c-0.1,0.1-0.3,0.2-0.4,0.3c-0.1,0.1-0.3,0.2-0.4,0.4c-0.1,0.1-0.3,0.3-0.4,0.4c-0.1,0.2-0.3,0.3-0.4,0.5
				c-0.1,0.2-0.3,0.3-0.4,0.5c-0.1,0.2-0.2,0.3-0.3,0.5c-0.1,0.2-0.2,0.3-0.3,0.5c-0.1,0.2-0.2,0.3-0.2,0.4
				c-0.1,0.1-0.1,0.3-0.2,0.4c-0.1,0.1-0.1,0.2-0.1,0.3c-0.1,0.2-0.1,0.3-0.1,0.3l0.5,0.2c0,0,0-0.1,0.1-0.3c0-0.1,0.1-0.2,0.1-0.3
				c0-0.1,0.1-0.2,0.2-0.4c0.1-0.1,0.1-0.3,0.2-0.4c0.1-0.2,0.2-0.3,0.3-0.5c0.1-0.2,0.2-0.3,0.3-0.5c0.1-0.2,0.2-0.3,0.3-0.5
				c0.1-0.2,0.2-0.3,0.4-0.5c0.1-0.2,0.2-0.3,0.4-0.4c0.1-0.1,0.3-0.3,0.4-0.4c0.1-0.1,0.2-0.2,0.4-0.3c0.2-0.2,0.4-0.3,0.6-0.4
				c0.1,0,0.1-0.1,0.2-0.1c0,0,0.1,0,0.1,0L91.6,435.7z"/>
			<path class="st3" d="M103.5,429.5c0,0-5.5-9.1-15.1-1.8C88.4,427.7,95.1,434.1,103.5,429.5z"/>
			<path class="st3" d="M86.4,449.2h1.7c-1.3-13.6,2.1-26.5,2.1-26.5l-0.4-0.3c-1.9,7.8-2.5,17.4-2.6,22.8c0,0.6-0.1,1.3-0.2,1.9
				c-0.1,0.5-0.2,0.9-0.3,1.3C86.6,448.7,86.5,449,86.4,449.2z"/>
		</g>
		<path class="st3" d="M87.7,417.4c0,0,1.9,6.1-0.4,8.2c-0.4,0.3-1.4-1.5-1.4-1.8c0-0.8,0.9-1.8,1.1-2.5
			C87.4,420.1,87.7,418.7,87.7,417.4z"/>
		<path class="st3" d="M105.6,456.3c-0.2-1.7-1.7-2.9-3.4-2.9c-0.7,0-1.4,0.2-2,0.6c-0.7-1.5-2.1-2.5-3.9-2.5c-0.1,0-0.2,0-0.3,0
			c-0.7-3.1-3.5-5.4-6.8-5.4c-3.8,0-6.8,3-6.9,6.8c-2.4,0.1-4.6,1.4-5.8,3.3H105.6z"/>
	</g>
</g>
</svg>
