<?xml version="1.0" encoding="utf-8"?>
<!-- Generator: Adobe Illustrator 23.0.0, SVG Export Plug-In . SVG Version: 6.00 Build 0)  -->
<svg version="1.1" id="Layer_1" xmlns="http://www.w3.org/2000/svg" xmlns:xlink="http://www.w3.org/1999/xlink" x="0px" y="0px"
	 width="46.2px" height="47.5px" viewBox="0 0 46.2 47.5" style="enable-background:new 0 0 46.2 47.5;" xml:space="preserve">
<style type="text/css">
	.st0{fill:#8FDDA8;}
	.st1{fill:#71BE8B;}
	.st2{fill:#FEFEFE;}
</style>
<g>
	<path class="st0" d="M0,22.5c0-0.3,0-0.7,0-1c0.1-0.9,0.8-1.2,1.4-1.7C2,19.3,2.7,18.9,3,18.2c0.3-0.6,0.5-1.2,0.3-1.9
		c-0.2-0.7-0.4-1.4-0.6-2.2c-0.2-0.8-0.1-1.6,0.6-2.2c0.2-0.2,0.4-0.3,0.7-0.4c0.7-0.2,1.3-0.4,2-0.5c1.4-0.4,2-1.1,2.3-2.5
		C8.3,8,8.5,7.4,8.5,6.8C8.6,5.5,9.6,4.7,11,5c0.7,0.1,1.4,0.2,2,0.3c1.1,0.2,2-0.3,2.6-1.2c0.4-0.5,0.7-1.1,1.1-1.7
		c0.5-0.9,1.3-1.2,2.4-1c0.2,0,0.4,0.1,0.6,0.2c0.6,0.4,1.2,0.8,1.8,1.2c1,0.6,2,0.6,3,0c0.6-0.4,1.2-0.8,1.8-1.2
		c0.8-0.5,2.1-0.3,2.7,0.4c0.4,0.6,0.8,1.2,1.2,1.8C31,5,31.9,5.5,33.2,5.3c0.7-0.1,1.3-0.2,2-0.3c1.5-0.3,2.4,0.6,2.5,1.8
		c0.1,0.7,0.2,1.4,0.3,2.1c0.2,1.1,0.8,1.7,1.8,2.1c0.8,0.2,1.5,0.4,2.3,0.6c1.1,0.3,1.7,1.3,1.4,2.5c-0.2,0.7-0.4,1.5-0.6,2.2
		c-0.3,1.1,0.1,2,1,2.7c0.5,0.4,1,0.8,1.5,1.2c0.5,0.3,0.8,0.8,0.8,1.4c0,0.3,0,0.6,0,0.9c-0.1,0.8-0.7,1.3-1.2,1.9
		c-0.4,0.5-0.9,1-1,1.7c-0.1,0.7-0.1,1.4,0.3,2c0.4,0.6,0.7,1.3,1,2c0.5,0.9,0.1,2-0.9,2.5c-0.7,0.4-1.4,0.7-2.1,1.1
		c-1,0.5-1.5,1.6-1.4,2.7c0.1,0.7,0.1,1.5,0.1,2.2c0,1-0.8,1.8-1.8,1.9c-0.7,0-1.5,0.1-2.2,0.1c-1.2,0-2.1,0.7-2.6,1.8
		c-0.2,0.6-0.5,1.3-0.7,1.9c-0.5,1.2-1.5,1.6-2.7,1.2c-0.6-0.2-1.3-0.5-1.9-0.8c-1.1-0.5-2.1-0.3-3,0.6c-0.5,0.5-1,1-1.5,1.5
		c-0.5,0.5-1.1,0.6-1.7,0.6c-0.6,0-1.1-0.3-1.4-0.7c-0.5-0.5-0.9-1-1.4-1.4c-0.8-0.7-1.7-0.9-2.7-0.6c-0.7,0.2-1.4,0.6-2.1,0.8
		c-1.3,0.5-2.3,0-2.8-1.2c-0.3-0.7-0.5-1.3-0.7-2c-0.4-1.1-1.3-1.7-2.5-1.8c-0.7,0-1.5-0.1-2.2-0.1c-1-0.1-1.8-0.9-1.8-1.9
		c0-0.8,0.1-1.5,0.1-2.3c0.1-1-0.4-2.2-1.3-2.6c-0.7-0.4-1.4-0.7-2.1-1.1C0.8,32.1,0.5,31,1,30c0.3-0.7,0.7-1.4,1-2
		c0.5-0.9,0.4-2.2-0.3-3c-0.4-0.4-0.7-0.9-1.1-1.3C0.3,23.3,0.1,22.9,0,22.5z"/>
	<path class="st1" d="M23.1,9.6C31.1,9.5,38,16,38,24.5c0,8.4-6.7,15-15,15c-8.2,0-14.9-6.6-14.9-14.9C8.1,16,15.1,9.5,23.1,9.6z"/>
	<path class="st2" d="M16.6,23.6c0.2,0,0.2,0.2,0.3,0.2c1.1,1.1,2.2,2.2,3.3,3.4c0.3,0.3,0.4,0.3,0.7,0c2.8-2.8,5.5-5.6,8.3-8.3
		c0.3-0.3,0.4-0.3,0.7,0c0.4,0.5,0.9,0.9,1.3,1.3c0.3,0.2,0.3,0.4,0,0.7c-3.3,3.2-6.5,6.5-9.7,9.7c-0.2,0.2-0.5,0.5-0.7,0.7
		c-0.2,0.2-0.3,0.2-0.4,0c-1.8-1.9-3.7-3.7-5.5-5.6c-0.1-0.1-0.2-0.2-0.1-0.4c0.6-0.6,1.1-1.1,1.7-1.7
		C16.5,23.6,16.5,23.6,16.6,23.6z"/>
</g>
</svg>
