<?xml version="1.0" encoding="utf-8"?>
<!-- Generator: Adobe Illustrator 23.0.0, SVG Export Plug-In . SVG Version: 6.00 Build 0)  -->
<svg version="1.1" id="Layer_1" xmlns="http://www.w3.org/2000/svg" xmlns:xlink="http://www.w3.org/1999/xlink" x="0px" y="0px"
	 width="63px" height="61px" viewBox="0 0 63 61" style="enable-background:new 0 0 63 61;" xml:space="preserve">
<style type="text/css">
	.st0{fill:#43A2F8;}
	.st1{fill:#FCC042;}
	.st2{fill:#81E6A4;}
	.st3{fill:#71B9FA;}
	.st4{fill:#70B9FA;}
	.st5{fill:#1684FA;}
	.st6{fill:#19C78C;}
	.st7{fill:#FC6095;}
	.st8{fill:#1685FA;}
</style>
<g>
	<path class="st0" d="M0,31.5c0-0.6,0-1.1,0-1.7c0.1-0.3,0.1-0.6,0-0.9c0,0,0-0.1,0-0.1c0.3-0.3,0.6-0.3,1-0.3c2.5,0,4.9,0,7.4,0
		c3.5,0,6-2.5,6-6c0-1.2,0-2.3,0-3.5c0-1.2,0.7-1.9,1.9-1.9c1,0,2,0.1,3.1-0.1c2.7-0.5,4.4-2.3,4.9-5c0.3-2-0.8-4.3-2.5-5.4
		c-1-0.6-2-1-3.2-0.9c-1.3,0-2.7,0-4,0c-0.3,0-0.6,0-0.8-0.3c0-0.5,0.5-0.7,0.8-0.9c1.6-0.9,3.3-1.8,5-2.4c2.8-1,5.6-1.6,8.5-1.9
		c6.5-0.5,12.5,1,18.1,4.3c1.9,1.1,3.6,2.5,5.3,4c0.2,0.2,0.3,0.3,0.3,0.6c-0.2,0.5-0.6,0.7-1,0.9c-0.4,0.3-0.9,0.6-1.2,1.1
		c-0.7,1.1-0.4,2.4,0.7,3c0.6,0.3,1.3,0.5,1.9,0.8c0.8,0.4,0.8,0.6,0.4,1.3c-0.1,0.1-0.2,0.1-0.3,0.1c-0.4,0.1-0.8,0.1-1.2,0.1
		c-4.8,0-9.6,0-14.4,0c-4.4,0-8,3.2-8.5,7.6c-0.6,4.9,3.2,9.8,8.7,9.7c0.9,0,1.9,0,2.8,0c0.3,0.1,0.6,0,0.9,0c0.3,0,0.5,0,0.7,0.2
		c0.1,0.2,0,0.3-0.1,0.3c-0.2,0.1-0.4,0.2-0.7,0.1c-0.9-0.2-1.4,0.4-2,1c-1.1,1.3-2.3,2.5-3.6,3.6c-0.8,0.7-1.5,1.4-2.3,2.1
		c-2.5,2.3-5.1,4.4-7.9,6.4c-2.6,1.9-5.3,3.6-8.1,5.1c-1.7,0.9-3.4,1.6-5.1,2.2c-0.4,0-0.6-0.3-0.9-0.5c-0.8-0.6-1.5-1.3-2.2-2
		c-0.2-0.3-0.5-0.5-0.2-0.9C8.7,51,9.1,51,9.5,51c1.2,0,2.3,0,3.5-0.4c2.7-0.8,4.2-3.5,4.1-5.7c-0.1-2.7-2-4.8-4.7-5.4
		c-0.5-0.1-0.9-0.1-1.4-0.1c-2.9,0-5.8,0-8.7,0c-0.4,0-0.8,0-1.1-0.2c-0.3-0.1-0.3-0.4-0.4-0.7c-0.4-1.3-0.6-2.7-0.6-4.1
		c0-0.5,0-0.9-0.1-1.4c0-0.2,0-0.5,0-0.7C0.1,32.1,0.1,31.8,0,31.5z"/>
	<path class="st1" d="M52.7,10c2-1.5,4.1-2.9,6.1-4.4c0.1,0,0.1-0.1,0.2-0.1c0.9-0.7,1.5-0.5,1.8,0.6c0.3,1.3,0.6,2.7,0.9,4
		c0.5,2,0.8,4,1.3,5.9c0,0.2,0,0.4,0,0.6c-0.4,0.6-0.9,0.6-1.6,0.3c-0.9-0.4-1.9-0.7-2.8-1.1c-0.5-0.2-0.7-0.2-0.9,0.4
		c-0.1,0.2-0.2,0.5-0.3,0.7c0,0.4-0.1,0.8-0.3,1.2C55,22.7,52.2,27,49,31c-1.9,2.5-4,4.8-6.1,7.1c-0.4,0.1-0.5,0.5-0.8,0.8
		c-1.7,2-3.7,3.7-5.7,5.5c-2.5,2.4-5.2,4.5-8,6.6c-3.4,2.5-6.9,4.7-10.6,6.6c-0.4,0.2-0.7,0.3-1.1,0.2c-1.8,0.7-3.5,1.5-5.4,1.8
		c-1.8,0.4-3.6,0.5-5.4,0.1c-2.7-0.7-4.6-2.9-4.8-5.7c-0.2-3,0.6-5.7,1.6-8.4c0.2-0.4,0.3-0.8,0.5-1.2c0.3-0.1,0.4,0.1,0.6,0.4
		c0.5,1,1.1,1.9,1.7,2.8c0.1,0.2,0.3,0.4,0.2,0.7C5.4,49.7,5,51,4.9,52.4c-0.1,0.9,0.1,1.7,0.4,2.4c0.2,0.5,0.7,0.9,1.2,1.1
		c1,0.4,2,0.3,3.1,0.1c1.1-0.2,2.1-0.5,3.1-0.7c0.8-0.5,1.6-0.7,2.4-1c2.8-1.3,5.5-2.8,8-4.5c3.1-2,5.9-4.3,8.7-6.7
		c2.8-2.4,5.5-5.1,8.1-7.7c0.5-0.5,0.9-1.1,1.5-1.4c0-0.3,0.2-0.5,0.4-0.7c3.6-4,6.9-8.2,9.6-12.8c0.9-1.5,1.7-3,2.5-4.6
		c0-0.1,0.1-0.2,0.1-0.3c0.4-0.9,0.4-0.9-0.6-1.3c-0.8-0.3-1.7-0.6-2.5-1c-0.8-0.4-1-1.2-0.4-1.9c0.5-0.5,1.1-0.9,1.7-1.3
		C52.3,10,52.5,10,52.7,10z"/>
	<path class="st2" d="M0,28.1c0.3-1,0.3-2,0.5-2.9c1-5.4,3.3-10.2,6.9-14.4c1.7-2,3.6-3.7,5.8-5.2c0.2-0.1,0.4-0.2,0.6-0.3
		c1.5,0.1,3,0.1,4.5,0.1c1.2,0,2.3,0.3,3.3,0.9c3.5,2,3.9,7.2,0.7,9.7c-1.2,1-2.6,1.5-4.2,1.5c-0.7,0-1.3,0-2,0
		c-1,0-1.6,0.6-1.6,1.6c0,1.2,0,2.5,0,3.7c0,3.5-2.7,6.2-6.1,6.2c-2.8,0-5.7,0-8.5,0C0,28.6,0,28.3,0,28.1z"/>
	<path class="st3" d="M0,28.9c0.2,0.3,0.2,0.6,0,0.9C0,29.5,0,29.2,0,28.9z"/>
	<path class="st4" d="M0,31.5c0.2,0.3,0.2,0.6,0,0.9C0,32.1,0,31.8,0,31.5z"/>
	<path class="st2" d="M39.6,33.9c-1.7,0-3.4,0.2-5.1-0.3c-4.1-1.1-7-5-6.7-9.1c0.3-4.4,3.6-7.9,7.9-8.4c0.3,0,0.7,0,1,0
		c5.2,0,10.4,0,15.7,0c0.2,0.3,0.1,0.5,0,0.7c-2.1,4-4.6,7.7-7.4,11.2c-1.5,1.9-3,3.7-4.6,5.4C40.1,33.6,39.8,33.7,39.6,33.9z"/>
	<path class="st2" d="M5.5,48.2C4.8,47,4,45.7,3.2,44.4c-0.7-1.5-1.4-2.9-1.8-4.5c-0.1-0.3-0.2-0.5-0.2-0.8c3.3,0,6.7,0,10,0
		c2.6,0,4.9,1.8,5.7,4.1c0.9,2.6-0.1,5.5-2.3,7c-1.2,0.8-2.5,1.1-3.9,1.1c-0.9,0-1.8,0-2.6,0c-0.3,0.2-0.5,0-0.6-0.2
		C7,50.5,6.5,49.9,6,49.2C5.7,48.9,5.6,48.6,5.5,48.2z"/>
	<path class="st5" d="M41.4,34c-1.1,1.4-2.4,2.7-3.7,3.9C33,42.6,28,47,22.3,50.6c-2.9,1.9-5.9,3.6-9.2,4.8c-0.1,0-0.2,0.1-0.3,0.1
		c-0.8-0.1-1.1-0.4-1.2-1c0.1-0.2,0.3-0.3,0.5-0.3c4.4-1.6,8.3-3.9,12.1-6.6c3.7-2.7,7.2-5.6,10.5-8.8c1.4-1.3,2.8-2.6,4.1-4.1
		c0.5-0.5,1-0.8,1.7-0.7C40.7,34,41,34,41.4,34C41.4,33.9,41.4,33.9,41.4,34z"/>
	<path class="st6" d="M41.4,34C41.4,34,41.4,34,41.4,34c-0.7-0.2-1.3,0-1.9-0.1c2.5-2.7,4.9-5.5,7-8.5c2-2.8,3.9-5.7,5.5-8.8
		c0.1-0.2,0.2-0.4,0.2-0.6c0,0,0.1-0.1,0.1-0.1c0.6-0.4,1.2-0.4,1.6,0c-1,2.2-2.2,4.3-3.5,6.4c-2.6,4.1-5.6,7.9-8.9,11.5
		C41.6,33.8,41.5,33.9,41.4,34z"/>
	<path class="st7" d="M24.6,42.4c-1.3,0-2.4-1.1-2.4-2.4c0-1.4,1.1-2.4,2.5-2.4c1.3,0,2.4,1.1,2.4,2.4C27,41.3,25.9,42.4,24.6,42.4z
		"/>
	<path class="st8" d="M54.1,15.9c-0.5,0-1.1,0-1.6,0c0.2-0.4,0.2-0.7-0.3-0.9c-0.7-0.2-1.3-0.5-1.9-0.8c-1.6-0.8-1.8-2.9-0.4-4
		c0.6-0.4,1.2-1,1.9-1.3c0.3,0.3,0.7,0.7,1,1c-0.6,0.4-1.1,0.9-1.7,1.3c-0.3,0.2-0.7,0.5-0.6,1c0.1,0.5,0.4,0.7,0.8,0.8
		c1.1,0.4,2.1,0.8,3.1,1.2c0.3,0.1,0.4,0.2,0.3,0.6C54.4,15.2,54.2,15.6,54.1,15.9z"/>
	<path class="st0" d="M54.3,49.3c-3,3.9-6.7,6.8-11.1,8.8c-4.4,2.1-9.1,3-14,2.8c-3.7-0.1-7.3-0.9-10.7-2.4c0-0.4,0.3-0.5,0.6-0.6
		c2.5-1.4,5-2.8,7.4-4.5c2.8-1.9,5.4-4,8-6.1c2.5-2.2,5-4.5,7.3-6.8c0.3-0.3,0.5-0.7,1-0.4c0.2,0.2,0.3,0.5,0.3,0.8
		c0.3,4.4,3.7,7.8,8.2,8.1c0.8,0,1.6,0.1,2.4,0.1C53.9,49.1,54.2,49.1,54.3,49.3z"/>
	<path class="st2" d="M54.3,49.3c-1.4-0.1-2.8,0-4.2-0.2c-4-0.7-7-4.1-7.3-8.2c0-0.3-0.1-0.5-0.1-0.8c0,0-0.1-0.1-0.1-0.2
		c0.4-0.7,0.9-1.2,1.5-1.8c2.3-2.4,4.4-5,6.5-7.6c2.2-2.9,4.3-6,6.1-9.2c0.4-0.7,0.8-1.4,1.1-2.1c0.1-0.2,0.2-0.5,0.5-0.5
		c1.1,2.6,1.8,5.3,2.2,8.1c0.6,4.6,0.1,9.2-1.4,13.6c-1,2.9-2.4,5.7-4.3,8.2C54.7,48.9,54.6,49.2,54.3,49.3z"/>
	<path class="st5" d="M42.7,40c0,0,0,0.1,0,0.1c-0.8,0.8-1.7,1.7-2.5,2.5c-4.7,4.6-9.8,8.8-15.4,12.5c-2,1.3-4.1,2.4-6.2,3.5
		c-0.7-0.2-1.2-0.6-1.9-0.8c1.8-0.9,3.7-1.9,5.5-2.9c5.7-3.4,10.8-7.6,15.6-12.1c1.7-1.6,3.3-3.2,4.9-4.8c0.5,0.5,0.3,1.1,0.2,1.6
		C42.9,39.7,42.8,39.8,42.7,40z"/>
	<path class="st6" d="M42.7,40c0-0.7,0-1.4,0-2c1.5-1.7,3-3.4,4.5-5.2c4-4.8,7.6-9.9,10.2-15.6c0-0.1,0.1-0.1,0.1-0.2
		c0.3,0.6,0.5,1.2,0.8,1.8c-1,2.2-2.2,4.2-3.5,6.2c-3.1,4.8-6.7,9.3-10.6,13.5C43.7,39,43.3,39.5,42.7,40z"/>
	<path class="st7" d="M39.6,27c-1.3,0-2.4-1.1-2.4-2.4c0-1.4,1.1-2.5,2.5-2.4c1.4,0,2.4,1.1,2.4,2.4C42,25.9,40.9,27,39.6,27z"/>
</g>
</svg>
