<?xml version="1.0" encoding="utf-8"?>
<!-- Generator: Adobe Illustrator 23.0.0, SVG Export Plug-In . SVG Version: 6.00 Build 0)  -->
<svg version="1.1" id="Layer_1" xmlns="http://www.w3.org/2000/svg" xmlns:xlink="http://www.w3.org/1999/xlink" x="0px" y="0px"
	 width="94.6px" height="91.5px" viewBox="0 0 94.6 91.5" style="enable-background:new 0 0 94.6 91.5;" xml:space="preserve">
<style type="text/css">
	.st0{fill:#F8E009;}
	.st1{fill:#57B6EA;}
	.st2{fill:#83D1F3;}
	.st3{fill:#A0D41C;}
	.st4{fill:#C3F136;}
	.st5{fill:#84D1F3;}
	.st6{fill:#4891D2;}
	.st7{fill:#83D0F2;}
	.st8{fill:#FBBB04;}
	.st9{fill:#FBBB05;}
	.st10{fill:#7AB82D;}
	.st11{fill:#A1D51F;}
	.st12{fill:#FEFEFC;}
	.st13{fill:#FABB05;}
</style>
<g>
	<path class="st0" d="M22.7,56.8c-0.4-0.4,0-0.8,0.1-1.1c0.9-3.1,1.9-6.1,2.9-9.2c0.2-0.7,0.1-1.1-0.4-1.5c-2.4-2.2-4.8-4.4-7.2-6.6
		c-0.6-0.5-0.6-0.8,0-1.3c2.5-2.2,4.9-4.4,7.3-6.6c0.5-0.4,0.6-0.8,0.4-1.5c-1-3.2-2-6.3-3-9.5c-0.2-0.7,0-0.8,0.6-1
		c3.3-0.7,6.5-1.4,9.8-2.1c0.6-0.1,0.8-0.3,0.9-0.9c0.7-3.2,1.4-6.4,2.1-9.6c0.2-0.9,0.5-1,1.3-0.7c3.1,1,6.2,2,9.3,3
		c0.6,0.2,1,0.1,1.4-0.4c2.2-2.4,4.4-4.8,6.6-7.2c0.5-0.6,0.8-0.7,1.4,0c2.2,2.4,4.4,4.8,6.6,7.2C63,8.3,63.4,8.4,64,8.2
		c3.1-1,6.3-2,9.4-3c0.7-0.2,0.9-0.1,1.1,0.6c0.7,3.2,1.4,6.5,2.1,9.7c0.1,0.6,0.4,0.8,1,1c3.2,0.7,6.5,1.4,9.7,2.1
		c0.7,0.1,0.8,0.4,0.6,1c-1,3.2-2,6.3-3,9.5c-0.2,0.6-0.1,1,0.4,1.4c2.5,2.2,4.9,4.5,7.4,6.7c0.5,0.5,0.5,0.7,0,1.2
		c-2.4,2.2-4.8,4.4-7.2,6.6c-0.5,0.5-0.7,0.9-0.4,1.6c1,3.1,2,6.3,3,9.4c0.2,0.7,0,0.9-0.6,1c-3.3,0.7-6.5,1.4-9.8,2.1
		c-0.5,0.1-0.8,0.3-0.9,0.9c-0.7,3.3-1.4,6.5-2.1,9.8c-0.1,0.7-0.3,0.9-1,0.6c-3-1-6.1-1.9-9.1-2.9c-0.9-0.3-1.4-0.2-2,0.5
		c-2.1,2.4-4.3,4.7-6.4,7.1c-0.5,0.5-0.7,0.5-1.2,0c-1.2-1.3-2.4-2.6-3.6-3.9c-0.3-0.3-0.5-0.8-1-0.9c-0.3,0-0.4-0.3-0.6-0.5
		c-1.5-2.6-3-5.1-4.5-7.7c-0.1-0.2-0.2-0.4-0.1-0.7c0.5-0.7,1.5-0.7,2.2-1c1.6-0.8,2.8-0.7,3.9,0.9c1,1.5,2.5,2.7,3.7,4.1
		c0.3,0.4,0.7,0.6,1.1,0.2c1.3-1.5,2.6-2.9,4-4.4c0.1-0.1,0.1-0.2,0.1-0.4c0.6-0.3,1.2-0.7,1.9-1c2.2,0.6,4.3,1.3,6.5,2
		c1.2,0.4,1.2,0.4,1.5-0.9c0.4-1.9,0.9-3.8,1.3-5.8c0.2-1,0.7-1.5,1.7-1.7c2-0.4,3.9-0.9,5.9-1.3c1.2-0.2,1.2-0.3,0.9-1.4
		c-0.6-1.9-1.2-3.9-1.9-5.8c-0.4-1.2-0.3-1.4,0.6-2.2c1.6-1.4,3.1-2.9,4.8-4.3c0.7-0.6,0.2-1-0.2-1.5c-0.4-0.9-1.2-1.3-2-1.8
		c-0.4-0.2-0.9-0.4-1.2-0.8c-0.4-0.6-0.9-1-1.5-1.5c-0.9-0.8-1-1-0.7-2.1c0.7-1.9,1.2-3.9,1.9-5.8c0.4-1.2,0.4-1.3-0.9-1.5
		c-2-0.4-3.9-0.9-5.9-1.3c-1-0.2-1.4-0.7-1.6-1.6c-0.4-2-0.9-4.1-1.3-6.1c-0.2-1-0.3-1-1.3-0.7c-2,0.7-4,1.2-6,1.9
		c-0.9,0.3-1.5,0.1-2.1-0.6c-1.4-1.7-2.9-3.2-4.3-4.8c-0.4-0.5-0.8-0.5-1.2,0c-1.5,1.7-3.1,3.3-4.5,5c-0.4,0.5-0.9,0.7-1.6,0.5
		c-1-0.3-1.9-0.7-2.8-0.9c-0.6-0.3-1.3-0.6-2-0.6c-0.6-0.2-1.2-0.4-1.8-0.6c-0.6-0.2-0.9,0-1,0.6c-0.4,2.1-1,4.2-1.4,6.4
		c-0.2,0.5-0.3,1-0.8,1.3c-2.2,0.7-4.5,1-6.7,1.5c-1.3,0.3-1.3,0.3-0.9,1.6c0.6,1.9,1.2,3.8,1.8,5.7c0.3,0.9,0.1,1.5-0.6,2.1
		c-1.7,1.4-3.2,2.9-4.9,4.3c-0.4,0.4-0.5,0.7-0.1,1.1c1.5,1.3,3,2.8,4.5,4.1c1.3,1.1,1.3,1.1,0.8,2.8c-0.1,0.3-0.2,0.6-0.2,0.9
		c-0.3,1-1,1.8-1.7,2.7c-2.1,2.9-4.6,5.4-7.4,7.7C23.4,56.6,23.2,56.9,22.7,56.8z"/>
	<path class="st1" d="M45,61.3c1.6,3,3.4,6,5.1,8.9c-0.2,0.3-0.5,0.2-0.8,0.2c-7.5-0.3-14.5,1.5-21,5.4c-0.1,0.1-0.3,0.1-0.5,0.2
		c-0.2,0-0.3-0.1-0.4-0.2c-1.2-2.2-2.6-4.2-3.7-6.5c0-0.1,0-0.2,0.1-0.3c2.7-1.6,5.2-3.5,7.4-5.8c3-3.2,5.5-6.7,7.2-10.8
		c0.2-0.4,0.2-0.9,0.7-1.1c0.5,0,0.6,0.4,0.8,0.8c1.6,2.7,3.1,5.5,4.7,8.2C44.9,60.6,45.1,60.9,45,61.3z"/>
	<path class="st2" d="M39.2,51.4c-0.5,1-1,2-1.4,3c-1.8,3.8-4.3,7.1-7.4,10c-2,1.8-4,3.6-6.5,4.7c-0.4,0-0.5-0.3-0.7-0.6
		c-1.5-2.7-3.1-5.3-4.6-8c-0.1-0.2-0.4-0.5-0.2-0.8c1.4-1,3-1.7,4.3-2.9c4.1-2.9,7.4-6.4,9.9-10.7c0.4-0.8,0.7-1.7,1.2-2.5
		c0.5-0.7,0.8-0.7,1.2,0c1.3,2.3,2.7,4.6,4,7C39.1,50.8,39.3,51,39.2,51.4z"/>
	<path class="st0" d="M20.5,6.1c-0.9,0-1.7,0.1-2.4,0C17.2,6,17,6.4,17,7.3c0,3.4,0,6.8,0,10.3c0,4.5-2.7,7.3-7.2,7.6
		C7.6,25.2,6,26.9,6,29.3c0,4,0,8,0,12c0,5.9,0,11.9,0,17.8c0,0.3,0,0.7,0,1c-0.1,0.8-0.6,1.2-1.4,1.3c-0.7,0.1-1.3-0.3-1.6-0.9
		c-0.2-0.4-0.2-0.9-0.2-1.4c0-9.8,0-19.6,0-29.3c0-4.8,2.6-7.6,7.3-7.9c2-0.1,3.7-1.7,3.7-3.7c0.1-3.8,0-7.6,0-11.5
		c0-0.5-0.2-0.7-0.7-0.7c-0.6,0-1.3,0-2.1,0c1.5-2.1,3-4,4.4-5.9c0.4-0.5,0.6-0.1,0.8,0.2C17.7,2.3,19,4.1,20.5,6.1z"/>
	<path class="st0" d="M80.6,77.3c1.5-2.1,2.9-3.9,4.3-5.8c0.2-0.3,0.4-0.5,0.7-0.1c1.4,1.9,2.9,3.8,4.4,5.9c-0.9,0-1.7,0-2.4,0
		c-0.6,0-0.8,0.2-0.8,0.8c0,1.8,0,3.6,0,5.4c0,4.6-3.5,8-8,8c-12.5,0-24.9,0-37.4,0c-1.3,0-2-0.6-2-1.6c0-1,0.7-1.6,2-1.6
		c12.2,0,24.5,0,36.7,0c3.7,0,5.5-1.8,5.5-5.5c0-1.6,0-3.2,0-4.7c0-0.7-0.2-0.8-0.8-0.8C82.2,77.3,81.5,77.3,80.6,77.3z"/>
	<path class="st3" d="M23.9,69.2c1.3,2.2,2.7,4.5,4,6.7c-0.9,0.6-1.8,1.1-2.7,1.7c-0.3,0.6-0.9,0.7-1.4,1c-1.3,0.7-2.6,1.7-4.1,2.2
		c-1,0.4-1.8,1.2-2.9,1.5c-1.1-1.1-1.8-2.5-2.3-4c0.1-0.5,0.6-0.7,1-0.9c0.9-0.5,1.9-1.1,2.8-1.7c0.8-0.5,1-1.2,0.7-1.8
		c-0.3-0.7-1.1-0.9-2-0.5c-1,0.5-1.9,1.1-2.9,1.7c-0.4,0.2-0.8,0.5-1.3,0.3c-0.8-0.8-1.3-1.6-1.5-2.7c0.2-0.6,0.8-0.7,1.3-1
		c1-0.5,1.8-1.3,2.9-1.5c2.2,0.4,4.4,0.2,6.5-0.6C22.6,69.5,23.2,69,23.9,69.2z"/>
	<path class="st1" d="M14.6,78.2c0.7,1.3,1.5,2.7,2.2,4c-1.1,0.1-2.2,0.2-3.3,0.3c-2.2,0.1-4.4,0.3-6.6,0.4c-0.4,0-0.7,0-0.9-0.4
		c-0.4-0.8-0.9-1.7-1.4-2.5c-0.1-0.4,0.2-0.6,0.4-0.8C5.7,78.7,6,78,6.3,77.4c0.8-0.7,1-1.6,0.7-2.6c0.2-1.8-0.3-3.4-1.2-4.9
		c-0.2-0.4-0.5-0.7-0.3-1.2c0.6-1,1.2-2,1.9-2.8c0.1,0,0.3,0.1,0.4,0.2c0.7,1.2,1.5,2.5,2.2,3.7c0.4,1,1.2,1.8,1.4,2.8
		c0.5,0.9,1,1.7,1.5,2.6C13.7,76.2,14.3,77.1,14.6,78.2z"/>
	<path class="st4" d="M7.7,66.2c-0.1-0.1-0.2-0.2-0.2-0.3c3.6-2.2,7.2-4.3,10.9-6.3c1.7,2.9,3.3,5.7,5,8.6c0.2,0.3,0.4,0.5,0.5,0.8
		c0,0.1,0,0.1,0,0.2c-2.4,1.3-4.9,1.7-7.5,1.6c-0.4,0-0.7,0-0.9-0.4c0-0.3,0.2-0.5,0.4-0.7c0.3-0.6,0.2-1.1-0.2-1.6
		c-0.4-0.5-0.9-0.5-1.5-0.3c-0.9,0.4-1.7,1.1-2.6,1.3c-0.7,0.1-1.2-0.4-1.7-0.8C8.9,67.8,8.3,67,7.7,66.2z"/>
	<path class="st1" d="M19.7,80.8c1.8-1.2,3.6-2.2,5.5-3.2c2,2.2,4,4.3,6,6.5c1.8,2,1.9,4,0.2,6c-0.5,0.3-0.8-0.2-1.1-0.4
		c-1.1-1-2.1-2.2-3.1-3.3c-1.2-1.3-2.6-1.7-4.3-1.5c-0.3,0-0.7,0.2-1-0.1C21.2,83.4,20.5,82.1,19.7,80.8z"/>
	<path class="st0" d="M11.1,14.1c0,2.6-2.2,4.7-4.8,4.7c-2.6,0-4.7-2.2-4.7-4.8c0-2.6,2.2-4.7,4.8-4.7C9,9.3,11.1,11.5,11.1,14.1z"
		/>
	<path class="st0" d="M67.9,75.7c2.6,0,4.8,2.1,4.8,4.8c0,2.6-2.1,4.7-4.7,4.7c-2.6,0-4.8-2.1-4.8-4.8
		C63.2,77.8,65.4,75.7,67.9,75.7z"/>
	<path class="st0" d="M87.2,59.9c0.9,0,1.3,0.6,1.8,1.1c0.4,0.4,0.6,0.5,1,0c0.2-0.3,0.4-0.5,0.7-0.7c0.7-0.6,1.6-0.5,2.1,0.1
		c0.6,0.6,0.8,1.5,0.1,2c-1.2,1-1,1.7,0,2.6c0.6,0.6,0.5,1.4-0.2,2c-0.6,0.6-1.4,0.6-2.1,0.1c-0.5-0.3-0.7-1.1-1.2-1
		c-0.4,0-0.8,0.7-1.2,1c-0.7,0.6-1.6,0.6-2.2-0.1c-0.6-0.6-0.6-1.4,0-2.1c0.3-0.4,1.1-0.7,1-1.2c-0.1-0.4-0.7-0.8-1-1.2
		c-0.4-0.5-0.5-1.1-0.2-1.7C86.1,60.2,86.6,59.9,87.2,59.9z"/>
	<path class="st0" d="M17.2,48.3c0,1-0.6,1.4-1.1,1.9c-0.4,0.4-0.5,0.6,0,1c0.3,0.2,0.5,0.5,0.8,0.8c0.5,0.7,0.5,1.4-0.1,2.1
		c-0.6,0.6-1.3,0.7-2,0.2c-0.5-0.3-0.9-1.1-1.3-1.1c-0.4,0-0.8,0.7-1.3,1.1c-0.7,0.5-1.5,0.4-2-0.2c-0.6-0.6-0.6-1.4-0.1-2.1
		c0.3-0.4,1.1-0.7,1-1.2c0-0.4-0.7-0.8-1-1.2c-0.5-0.7-0.5-1.6,0.1-2.1c0.6-0.6,1.5-0.6,2.1,0c0.4,0.3,0.7,0.9,1.2,1
		c0.5,0.1,0.8-0.6,1.2-1c0.5-0.4,1.1-0.6,1.7-0.2C16.9,47.4,17.2,47.9,17.2,48.3z"/>
	<path class="st5" d="M22,84.7c1.4-0.2,2.8-0.5,4.1,0.3c1.2,0.7,2.1,1.9,3,2.9c0.7,0.8,1.3,1.7,2.3,2.1c-2.3,2.2-5.3,1.8-6.9-0.9
		C23.7,87.7,22.8,86.2,22,84.7z"/>
	<path class="st5" d="M5.5,68.8c0.6,1.4,1.5,2.7,1.7,4.2c0.1,0.6,0.2,1.3-0.1,1.9c-1.1-0.6-2-0.2-2.9,0.4c-0.6,0.3-1.1,0.9-1.8,0.8
		c-0.9-0.9-0.7-1.7,0-2.7C3.5,71.9,4.5,70.3,5.5,68.8z"/>
	<path class="st6" d="M2.4,76.1c0.9-0.5,1.8-1.1,2.7-1.6c0.7-0.4,1.4-0.3,2,0.4c0.6,1.2,0.5,1.5-0.6,2.5C5.8,78.1,5,78.7,4,78.8
		C3.5,77.9,2.9,77,2.4,76.1z"/>
	<path class="st7" d="M4,78.8c0.8-0.5,1.6-1,2.5-1.4c-0.3,1.1-1.1,1.8-1.8,2.6C4.5,79.6,4.2,79.2,4,78.8z"/>
	<path class="st8" d="M39.2,51.4c-1.5-2.7-3.1-5.3-4.6-8c0-0.1-0.1-0.1-0.2-0.2c-0.7,0.9-1,2-1.8,2.9c0-0.5,0.1-0.9,0.3-1.3
		c0.4-0.9,0.1-1.4-0.6-2c-1.7-1.5-3.4-3-5.1-4.5c-0.4-0.4-0.4-0.7,0-1c1.7-1.5,3.3-3,5.1-4.5c0.7-0.6,0.9-1.1,0.6-2
		c-0.8-2.1-1.4-4.3-2.1-6.4c-0.2-0.6-0.2-0.8,0.6-1c2.5-0.5,5-1,7.5-1.6c0.2,0.4-0.1,0.6-0.2,0.9c-0.5,1-1.2,2-1.7,3
		c-0.5,0.9-0.4,1.6,0.3,2c0.7,0.4,1.4,0.2,2-0.7c0.6-1,1.2-2,1.8-3c0.5-0.9,0.7-0.9,1.6-0.5c0.6,0.3,1.2,0.8,1.9,1
		c0.8,0.3,1.4,0.2,1.8-0.5c0.4-0.6,0.2-1.2-0.4-1.7c-0.7-0.5-1.4-0.8-2.1-1.3c-0.6-0.3-0.7-0.8-0.4-1.3c1.5-2.6,1.1-2.5,3.5-1.1
		c0.7,0.4,1.3,0.8,2,1.1c0.9,0.5,1.6,0.3,2-0.4c0.4-0.6,0.2-1.3-0.6-1.8c-1.2-0.8-2.5-1.4-3.7-2.2c-0.3-0.2-0.7-0.2-0.7-0.7
		c1,0.1,1.9,0.6,2.9,0.8c0.6,0.1,0.9,0,1.3-0.4c1.6-1.8,3.1-3.5,4.7-5.3c0.4-0.5,0.7-0.5,1.2,0c1.5,1.7,3,3.4,4.5,5.1
		c0.5,0.6,1,0.8,1.9,0.5c2.2-0.8,4.4-1.4,6.5-2.2c0.6-0.2,0.8-0.1,1,0.6c0.5,2.3,1,4.7,1.5,7c0.1,0.6,0.4,0.8,1,0.9
		c2.3,0.5,4.7,1,7,1.5c0.7,0.1,0.8,0.4,0.6,1c-0.7,2.2-1.4,4.4-2.2,6.6c-0.3,0.8-0.1,1.2,0.5,1.7c0.7,0.4,1.2,1,1.6,1.7
		c-0.4,0.2-0.7-0.1-1-0.3c-0.6-0.3-1.1-0.6-1.7-1c-1.4-0.8-2-0.7-2.9,0.8c-1.9,3.3-3.8,6.5-5.7,9.8c-0.7,1.3-0.6,1.8,0.7,2.6
		c1.5,0.8,2.9,1.7,4.4,2.6c0.3,0.2,0.6,0.3,0.9,0.4c0.6,0.1,1.1-0.1,1.4-0.7c0.3-0.5,0.1-1-0.3-1.4c-0.2-0.2-0.5-0.4-0.8-0.6
		c-0.6-0.3-1.1-0.7-1.7-1c-0.4-0.2-0.8-0.4-1.2-0.7c-0.8-0.5-0.7-0.8,0.3-2.5c0.4-0.6,0.7-1.2,1.5-0.6c0.5,0.3,1.1,0.6,1.6,0.9
		c1.1,0.6,1.8,0.5,2.2-0.3c0.4-0.7,0.1-1.4-0.9-2c-0.5-0.3-1-0.6-1.5-0.9c-0.7-0.3-0.9-0.7-0.5-1.5c1.2-2.2,1.2-2.3,3.4-1
		c0.6,0.3,1.2,0.7,1.8,1c1.3,0.7,1.8,0.5,2.5-0.8c0.1-0.1,0.1-0.2,0.2-0.3c1.2,1,1.1,1.1,0,2c-1.7,1.4-3.3,2.9-5,4.4
		c-0.4,0.4-0.4,0.8-0.2,1.2c0.7,2.2,1.4,4.5,2.2,6.7c0.2,0.7,0.1,0.9-0.6,1.1c-2.3,0.5-4.6,1-6.9,1.5c-0.6,0.1-0.9,0.4-1,1
		c-0.5,2.3-1.1,4.6-1.5,7c-0.1,0.6-0.3,0.8-0.9,0.6c-2.4-0.8-4.9-1.6-7.3-2.4c-0.8-1.9-0.8-1.9-3-1.9c-1.6,0-3.2,0.3-4.8,0.2
		c-0.3,0-0.6,0.1-1,0.2c-0.7,0.2-1.1,0.6-1,1.3c0.1,0.7,0.6,1.1,1.3,1.1c1.1,0,2.3,0,3.4-0.1c1.1-0.1,2.2-0.3,3.3,0.1
		c0.4,0,0.4,0.2,0.1,0.4c-1.4,1.5-2.8,3-4.2,4.6c-0.3,0.4-0.6,0.4-1,0c-1.5-1.7-3-3.3-4.5-5.1c-0.6-0.7-1.1-1-2-0.7
		c-1.1,0.4-2.2,0.8-3.3,1.2c-1.8-3-3.5-6.1-5.3-9.1C39.5,51.9,39.4,51.6,39.2,51.4z"/>
	<path class="st1" d="M82.8,36.8c-0.2,1.7-1.2,2.2-2.7,1.4c-1-0.6-2.1-1.2-3.1-1.8c-0.5-0.3-0.8-0.4-1.1,0.2
		c-1.2,2.1-1.2,2.1,0.9,3.3c1.4,0.8,1.8,1.6,1.3,2.5c-0.5,0.9-1.4,1-2.8,0.2c-2.2-1.3-2.2-1.3-3.4,1c-0.2,0.4-0.2,0.6,0.2,0.8
		c1.1,0.6,2.2,1.2,3.2,1.9c1.1,0.6,1.4,1.5,0.9,2.4c-0.5,0.8-1.4,1-2.4,0.4c-1.7-0.9-3.3-1.9-5-2.9c-1.1-0.6-1.3-1.4-0.7-2.5
		c2-3.5,4-7,6.1-10.5c0.7-1.1,1.4-1.3,2.6-0.7c1,0.6,2,1.1,3,1.7c0.6,0.4,1.2,0.8,1.8,1.1C82.2,35.7,82.6,36.1,82.8,36.8z"/>
	<path class="st1" d="M45.8,14.6c1.5,0.9,3.1,1.8,4.6,2.7c1,0.6,1.2,1.6,0.6,2.4c-0.6,0.7-1.3,0.8-2.1,0.3c-1.2-0.7-2.3-1.3-3.5-2
		c-0.4-0.3-0.6-0.2-0.8,0.2c-1.4,2.2-1.4,2.2,0.8,3.4c1.4,0.8,1.8,1.6,1.3,2.5c-0.5,1-1.4,1-2.9,0.2c-0.7-0.4-1.3-1.1-2-1
		c-0.6,0.2-0.8,1.2-1.2,1.8c-0.4,0.6-0.7,1.2-1,1.8c-0.6,1-1.5,1.4-2.4,0.9c-0.8-0.5-1-1.4-0.4-2.4c0.7-1.3,1.4-2.5,2.1-3.8
		c0.2-0.4,0.4-0.8,0.7-1.2c0.7-2,2-3.7,3-5.6c0.1-0.2,0.2-0.3,0.3-0.5c0.3-0.3,0.6-0.5,1-0.4C44.6,13.9,45.2,14.4,45.8,14.6z"/>
	<path class="st5" d="M59.8,60.8c-2.1,0.1-4.2,0.2-6.3,0.3c-1.2,0.1-2-0.4-2.1-1.4c-0.1-1,0.6-1.6,1.8-1.7c2.2-0.2,4.4-0.3,6.7-0.4
		c1.3-0.1,1.8,0.8,1.6,2.3C61.2,60.5,60.5,60.7,59.8,60.8z"/>
	<path class="st9" d="M43.9,14c-0.6,0.3-0.9,0.7-1.2,1.2c-1,1.8-2.1,3.5-3.1,5.3c0.2-2.1,0.9-4.1,1.2-6.2c0-0.3,0.1-0.5,0.2-0.8
		c0.1-0.4,0.3-0.6,0.7-0.4C42.3,13.5,43.2,13.6,43.9,14z"/>
	<path class="st10" d="M14.6,78.2c-0.7-0.9-1.2-1.9-1.7-2.9c1.3-0.3,2.3-1.3,3.5-1.8c0.4-0.2,0.8-0.5,1.2-0.6
		c0.8-0.1,1.4,0.2,1.7,0.9c0.3,0.7,0.2,1.4-0.6,1.9c-1,0.6-1.9,1.1-2.9,1.7C15.4,77.7,15,78,14.6,78.2z"/>
	<path class="st10" d="M11.5,69c0.7-0.4,1.5-0.8,2.2-1.2c1-0.5,1.8-0.4,2.3,0.3c0.5,0.7,0.3,1.6-0.5,2.3c-1.3,0.8-2.7,1.6-4,2.4
		c-0.6-0.9-1.2-1.8-1.6-2.8C10.1,69.2,10.9,69.2,11.5,69z"/>
	<path class="st11" d="M11.5,69c-0.5,0.3-1.1,0.7-1.6,1c-0.8-1.2-1.5-2.5-2.1-3.8c1,0.7,1.6,1.7,2.6,2.3C10.7,68.7,11,69,11.5,69z"
		/>
	<path class="st12" d="M6.4,12.5c0.9,0,1.5,0.7,1.5,1.6c0,0.9-0.7,1.6-1.6,1.6c-0.9,0-1.6-0.7-1.6-1.6C4.8,13.1,5.5,12.4,6.4,12.5z"
		/>
	<path class="st12" d="M69.5,80.4c0,0.9-0.7,1.6-1.6,1.6c-0.9,0-1.6-0.7-1.6-1.5c0-0.9,0.7-1.6,1.6-1.6
		C68.8,78.9,69.5,79.6,69.5,80.4z"/>
	<path class="st1" d="M59.7,25.4c0,1.9-0.9,3.3-2.5,4.2c-0.6,0.3-0.7,0.6-0.7,1.2c0.1,0.9-0.1,1.7-0.6,2.5c-0.5,0.9-1.1,1.9-1.6,2.8
		c-0.5,0.8-1.4,1-2.1,0.6c-0.7-0.4-1-1.3-0.6-2.1c0.4-0.8,1-1.7,1.4-2.5c0.8-1.4,0-2.9-1.6-3.1c-0.4-0.1-0.4,0.3-0.5,0.5
		c-0.7,1.1-1.3,2.2-1.9,3.3c-0.6,1-1.5,1.3-2.3,0.8c-0.8-0.5-1-1.4-0.4-2.3c2-3.5,4-7,6.1-10.5c0.6-1.1,1.4-1.3,2.5-0.7
		c0.9,0.5,1.9,1,2.8,1.6C59,22.5,59.7,23.8,59.7,25.4z"/>
	<path class="st1" d="M65.5,41.6c0,1.1-1.2,1.9-2.3,1.3c-1.9-1-3.8-2.1-5.6-3.2c-0.8-0.5-1-1.3-0.5-2.1c2.1-3.7,4.2-7.4,6.4-11
		c0.5-0.8,1.2-1,2.1-0.5c1.9,1,3.7,2.1,5.5,3.2c0.8,0.5,1,1.4,0.5,2.1c-0.5,0.7-1.3,1-2.2,0.5c-1.2-0.6-2.3-1.3-3.5-2
		c-0.4-0.3-0.6-0.2-0.9,0.2c-1.3,2.1-1.3,2.1,0.8,3.4c0.3,0.1,0.5,0.3,0.8,0.5c0.7,0.5,0.9,1.4,0.5,2.1c-0.4,0.7-1.3,1-2.1,0.6
		c-0.8-0.4-1.5-0.8-2.2-1.3c-0.5-0.3-0.7-0.2-1,0.3c-1.3,2.1-1.3,2.1,0.9,3.3c0.7,0.4,1.3,0.8,2,1.1C65.2,40.5,65.5,41,65.5,41.6z"
		/>
	<path class="st5" d="M58.9,48c0,0.7-0.3,1.1-0.9,1.4c-2.7,1.5-5.3,3.1-8,4.6c-0.9,0.5-1.8,0.3-2.2-0.5c-0.5-0.8-0.2-1.7,0.7-2.3
		c2.7-1.6,5.3-3.1,8-4.6C57.6,46,58.9,46.8,58.9,48z"/>
	<path class="st5" d="M45.4,47.5c-1.5,0-2.3-1.2-1.6-2.3c1.3-2.1,2.7-4.1,4.1-6.2c0.5-0.7,1.5-0.8,2.1-0.3c0.7,0.5,0.9,1.3,0.4,2
		c-1.3,2.1-2.7,4.1-4.1,6.2C46.1,47.3,45.6,47.5,45.4,47.5z"/>
	<path class="st13" d="M56.6,25.5c0,0.9-0.7,1.6-1.5,1.6c-0.6,0-2.1-0.8-2.1-1.2c0-0.3,1.4-2.5,1.6-2.5
		C55.3,23.4,56.6,24.7,56.6,25.5z"/>
</g>
</svg>
