<?xml version="1.0" encoding="utf-8"?>
<!-- Generator: Adobe Illustrator 23.0.0, SVG Export Plug-In . SVG Version: 6.00 Build 0)  -->
<svg version="1.1" id="Layer_1" xmlns="http://www.w3.org/2000/svg" xmlns:xlink="http://www.w3.org/1999/xlink" x="0px" y="0px"
	 width="700px" height="552px" viewBox="0 0 700 552" style="enable-background:new 0 0 700 552;" xml:space="preserve">
<style type="text/css">
	.st0{fill:#525EAA;}
	.st1{fill:#99B3DD;}
	.st2{fill:#FFFFFF;}
	.st3{fill:#E8D346;}
	.st4{fill:#8197CD;}
	.st5{fill:#C1D1EC;}
	.st6{fill:#F37268;}
	.st7{fill:#F59391;}
	.st8{fill:#EFCB1D;}
	.st9{fill:#EE7F7F;}
	.st10{fill:#F8A592;}
	.st11{fill:#F37559;}
	.st12{fill:#E1C122;}
	.st13{fill:#1D1952;}
	.st14{fill:url(#SVGID_1_);}
	.st15{fill:url(#SVGID_2_);}
	.st16{fill:url(#SVGID_3_);}
</style>
<g>
	<g>
		<path class="st0" d="M695.8,540.8H5.6c-1.2,0-2.3,0.9-2.3,2.1c-0.1,1.3,1,2.4,2.3,2.4h690.3c1.3,0,2.3-1,2.3-2.3l0,0
			C698,541.8,697,540.8,695.8,540.8z"/>
	</g>
	<g>
		
			<ellipse transform="matrix(1 -4.593859e-03 4.593859e-03 1 -0.3269 1.1272)" class="st1" cx="245.2" cy="71.7" rx="37.2" ry="37.2"/>
		<path class="st1" d="M259.2,105.1c-18.4,7.7-39.7-1-47.4-19.4c-7.7-18.4,1-39.7,19.4-47.4c18.4-7.7,39.7,1,47.4,19.4
			C286.4,76.1,277.6,97.4,259.2,105.1z"/>
		
			<ellipse transform="matrix(0.5265 -0.8502 0.8502 0.5265 55.0409 242.5664)" class="st2" cx="245.3" cy="71.9" rx="29.6" ry="29.6"/>
		<path class="st2" d="M256.1,97.6c-14.3,6-30.7-0.8-36.7-15c-6-14.3,0.8-30.7,15-36.7c14.3-6,30.7,0.8,36.7,15
			C277.1,75.2,270.3,91.6,256.1,97.6z"/>
		<g>
			<path class="st1" d="M222.3,79.7l-4.6,1.9c-0.8,0.3-1.1,1.2-0.8,2c0.3,0.8,1.2,1.1,2,0.8l4.6-1.9c0.8-0.3,1.1-1.2,0.8-2
				C223.9,79.8,223,79.4,222.3,79.7z"/>
			<path class="st1" d="M254,92.7c-0.8,0.3-1.1,1.2-0.8,2l1.9,4.6c0.3,0.8,1.2,1.1,2,0.8c0.8-0.3,1.1-1.2,0.8-2l-1.9-4.6
				C255.7,92.8,254.8,92.4,254,92.7z"/>
			<path class="st1" d="M271.7,59L267,61c-0.8,0.3-1.1,1.2-0.8,2c0.3,0.8,1.2,1.1,2,0.8l4.6-1.9c0.8-0.3,1.1-1.2,0.8-2
				C273.3,59.1,272.4,58.7,271.7,59z"/>
			<path class="st1" d="M233.3,43.3c-0.8,0.3-1.1,1.2-0.8,2l1.9,4.6c0.3,0.8,1.2,1.1,2,0.8c0.8-0.3,1.1-1.2,0.8-2l-1.9-4.6
				C235,43.4,234.1,43,233.3,43.3z"/>
		</g>
		<g>
			<path class="st1" d="M243.7,30.7l0.4-5.9c0-0.5,0.5-0.8,0.9-0.8l6.7,0.5c0.5,0,0.8,0.5,0.8,0.9l-0.4,5.9c0,0.5-0.5,0.8-0.9,0.8
				l-6.7-0.5C244.1,31.6,243.7,31.2,243.7,30.7z"/>
		</g>
		<g>
			<path class="st1" d="M217.4,41.9l-4.5-3.8c-0.4-0.3-0.9-0.3-1.2,0.1l-4.4,5.1c-0.3,0.4-0.3,0.9,0.1,1.2l4.5,3.8
				c0.4,0.3,0.9,0.3,1.2-0.1l4.4-5.1C217.9,42.8,217.8,42.2,217.4,41.9z"/>
		</g>
		<g>
			<path class="st1" d="M224.7,32.3c-0.4,0.2-0.9,0-1.1-0.5l-1.6-3.9c-0.2-0.4,0-0.9,0.5-1.1l8-3.3c0.4-0.2,0.9,0,1.1,0.5l1.6,3.9
				c0.2,0.4,0,0.9-0.5,1.1L224.7,32.3z"/>
			<path class="st1" d="M226.8,33.7c-3.9,0.3-7.7-1.9-9.3-5.7c-2-4.7,0.2-10.2,5-12.2c4.7-2,10.2,0.2,12.2,5c1.6,3.8,0.5,8-2.5,10.6
				l0.9,2.1c4-3.1,5.7-8.7,3.6-13.6c-2.5-5.9-9.2-8.6-15.1-6.2c-5.9,2.5-8.6,9.2-6.2,15.1c2.1,4.9,7.2,7.7,12.2,7L226.8,33.7z"/>
			<path class="st1" d="M230.5,36.7c0.9-0.4,1.9-0.7,2.8-1.1L231,30l-4.4,1.8l2.3,5.6C229.5,37.2,230,37,230.5,36.7z"/>
		</g>
		<g>
			<path class="st1" d="M247.7,70.6c0.6,1.4-0.1,3-1.5,3.6c-1.4,0.6-3-0.1-3.6-1.5c-0.6-1.4,0.1-3,1.5-3.6
				C245.6,68.6,247.2,69.2,247.7,70.6z"/>
			<path class="st1" d="M248.1,49.4l-1.9,22.4c0,0.6-0.5,1-1.1,0.9c-0.6,0-1-0.5-0.9-1.1C244.1,71.5,244,72.5,248.1,49.4z"/>
			<path class="st1" d="M264.9,82.8l-20.1-10.1c-0.5-0.3-0.7-0.9-0.5-1.4c0.3-0.5,0.9-0.7,1.4-0.5C245.8,70.9,245,70.3,264.9,82.8z"
				/>
			<path class="st1" d="M246.2,71.2c0.2,0.6,0,1.2-0.6,1.5s-1.2,0-1.5-0.6c-0.2-0.6,0-1.2,0.6-1.5C245.4,70.4,246,70.7,246.2,71.2z"
				/>
		</g>
	</g>
	<g>
		<path class="st3" d="M521.9,232.8c-0.3-0.3-0.7-0.4-1.1-0.3c-2,0.5-5.5-0.3-7.3-0.9l-1.9-9.5c1.4-1.2,4.4-3.4,6.4-3.6
			c0.4-0.1,0.8-0.3,0.9-0.7l2.4-7.2c0.1-0.4,0-0.8-0.3-1.1c-1.4-1.4-2.5-4.9-2.9-6.7l7.3-6.4c1.8,0.6,5.1,2.1,6.3,3.7
			c0.3,0.3,0.7,0.5,1.1,0.4l7.5-1.5c0.4-0.1,0.7-0.4,0.8-0.8c0.5-2,3-4.7,4.4-5.9l9.2,3.1c0.4,1.8,0.7,5.5,0,7.3
			c-0.2,0.4-0.1,0.8,0.2,1.1l5,5.7c0.3,0.3,0.7,0.4,1.1,0.3c2-0.5,5.5,0.3,7.3,0.9l1.9,9.5c-1.4,1.2-4.4,3.4-6.4,3.6
			c-0.4,0.1-0.8,0.3-0.9,0.7l-2.4,7.2c-0.1,0.4,0,0.8,0.3,1.1c1.4,1.4,2.5,4.9,2.9,6.7l-7.3,6.4c-1.8-0.6-5.1-2.1-6.3-3.7
			c-0.3-0.3-0.7-0.5-1.1-0.4l-7.5,1.5c-0.4,0.1-0.7,0.4-0.8,0.8c-0.5,2-3,4.7-4.4,5.9l-9.2-3.1c-0.4-1.8-0.7-5.5,0-7.3
			c0.2-0.4,0.1-0.8-0.2-1.1L521.9,232.8z M542.8,230.4c5.2-1,8.5-6.1,7.5-11.2c-1-5.2-6.1-8.5-11.2-7.5c-5.2,1-8.5,6.1-7.5,11.2
			C532.6,228.1,537.6,231.5,542.8,230.4z M544,236.4c8.5-1.7,14-10,12.2-18.4c-1.7-8.5-10-14-18.4-12.2c-8.5,1.7-14,10-12.2,18.4
			C527.3,232.7,535.5,238.1,544,236.4z"/>
		<path class="st3" d="M583.6,266.7c0.1-0.3,0.3-0.6,0.7-0.6l5.9-1.2c0.3-0.1,0.7,0.1,0.9,0.3c1,1.3,3.6,2.5,5,2.9l5.7-5.1
			c-0.3-1.5-1.1-4.2-2.3-5.3c-0.2-0.2-0.3-0.6-0.2-0.9l1.9-5.7c0.1-0.3,0.4-0.5,0.7-0.6c1.6-0.2,4-1.9,5-2.9l-1.5-7.5
			c-1.4-0.5-4.2-1.1-5.8-0.7c-0.3,0.1-0.7,0-0.9-0.3l-4-4.5c-0.2-0.2-0.3-0.6-0.2-0.9c0.6-1.5,0.3-4.4,0-5.8l-7.3-2.4
			c-1.1,1-3.1,3.1-3.5,4.6c-0.1,0.3-0.3,0.6-0.7,0.6l-5.9,1.2c-0.3,0.1-0.7-0.1-0.9-0.3c-1-1.3-3.6-2.5-5-2.9l-5.7,5.1
			c0.3,1.5,1.1,4.2,2.3,5.3c0.2,0.2,0.3,0.6,0.2,0.9l-1.9,5.7c-0.1,0.3-0.4,0.5-0.7,0.6c-1.6,0.2-4,1.9-5,2.9l1.5,7.5
			c1.4,0.5,4.2,1.1,5.8,0.7c0.3-0.1,0.7,0,0.9,0.3l4,4.5c0.2,0.2,0.3,0.6,0.2,0.9c-0.6,1.5-0.3,4.4,0,5.8l7.3,2.4
			C581.2,270.4,583.1,268.3,583.6,266.7z M585.6,257.7c-5.1,1-10-2.3-11.1-7.3c-1-5.1,2.3-10,7.3-11.1c5.1-1,10,2.3,11.1,7.3
			C594,251.7,590.7,256.7,585.6,257.7z"/>
	</g>
	<path class="st1" d="M168.2,147.3l-6.6-2.5l-5.8,4c-0.7,0.5-1.6,0-1.5-0.8l0.3-7l-5.6-4.2c-0.6-0.5-0.4-1.5,0.3-1.7l6.8-1.9
		l2.3-6.6c0.3-0.8,1.3-0.9,1.7-0.2l3.9,5.9l7,0.1c0.8,0,1.2,0.9,0.7,1.6l-4.4,5.5l2,6.7C169.7,146.9,168.9,147.6,168.2,147.3z"/>
	<polygon class="st4" points="178.2,105.4 174.7,95.8 165.5,98.5 161.6,89.3 152.6,90.8 148.5,84.3 145.2,86.4 150.7,95 159.2,93.6 
		163.3,103.2 172.3,100.6 175.5,109.2 	"/>
	<polygon class="st5" points="561.8,149.5 552.8,144.6 547.7,152.6 538.7,148.2 532.8,155.2 525.5,153 524.4,156.7 534.2,159.7 
		539.7,153 549.1,157.6 554.1,149.7 562.3,154.2 	"/>
	<polygon class="st1" points="325.5,28.8 321.6,38.2 330.2,42.4 326.9,51.9 334.6,56.9 333.2,64.4 337,65.1 338.8,55 331.5,50.3 
		335,40.4 326.6,36.3 330.1,27.8 	"/>
	<polygon class="st6" points="551.5,273 549.6,269.3 545.4,269.5 543.6,265.2 539.1,266.7 536.8,261.9 532.5,262.8 529.6,258.6 
		531.2,257.5 533.4,260.6 537.9,259.7 540.1,264.3 544.7,262.7 546.7,267.5 550.8,267.3 552.6,270.8 555.3,270.1 555.7,272 	"/>
	<polygon class="st6" points="473.1,101 471.1,95.1 480.2,90.9 478.4,81.9 484.7,77.6 482.5,74.4 474.1,80.1 475.8,88.6 466.3,93.1 
		469.3,101.9 	"/>
	<g>
		<path class="st5" d="M546.3,87.4c10.1,15.4-3.6,36.8-21.6,33.6c-3.2-0.6-6.6,0.2-9.5,1.9l-9.9,6.1c-2.7,1.7-6.2,1-7.9-1.7
			l-3.8-5.8c-1.7-2.6-1.2-6.3,1.3-8.4c9-7.7,12.8-9.9,14-16.3C512.4,78,536.2,72,546.3,87.4z"/>
		<g>
			<path class="st2" d="M522.6,95.9c-0.2-0.8-0.4-1.8-0.5-2.7c-0.5-5.4,3.7-7.2,5.9-5.9c1.4,0.9,2,3,1.2,4.9c-0.7,1.8-2.3,3-3.9,4.4
				c0.9,3,2.2,5.7,4,8.2c4.9-3,8.4-1.3,8.6,1.3c0.1,1.7-1,3.5-2.6,4.2c-1,0.4-3.6,1-6.6-2.3c-8.3,5.8-19.1,14.5-19.1,14.5l-1.4-1.9
				c0,0,10.8-8.6,19-14.4c-1.7-2.4-3-5-4-7.8c-9.4,8.2-17.8,14.8-18.1,15l-1.4-1.9C504.5,111,512.6,104.7,522.6,95.9z M526.6,89.3
				c-0.7-0.3-2.7,0.5-1.9,4.7C526.9,92.1,527.6,91.3,526.6,89.3z M530.8,106.7c1.2,1.3,3,2.4,4.3,1
				C536.7,106,534.4,104.7,530.8,106.7z"/>
		</g>
		<path class="st1" d="M515.5,122.8c-0.1,0-0.2,0.1-0.3,0.1l-9.9,6.1c-2.7,1.7-6.2,1-7.9-1.7l-3.8-5.8c-1.7-2.6-1.2-6.3,1.3-8.4
			c4-3.4,7-5.8,9.1-7.9L515.5,122.8z"/>
	</g>
	<g>
		<g>
			<g>
				<path class="st7" d="M69.8,412.1c0,0-0.3-1.6-0.4-2.1c-0.1-0.6-0.2-2.5-0.2-2.5s0-6.6,0.5-6.6c0.5,0,1.1,1.2,1.3,1.6
					c0.1,0.4,0.3,0.9,0.5,1.3c0.1,0.4,0.6,0.6,1.1,0.5c0.5-0.1,0.3-1.9,0.1-2.5c-0.6-1.8-3.2-6.4-3.5-6.9c-0.3-0.6,1.8-12,2.2-16h0
					c0.9-6.5,2.1-13.1,2.2-13.8l11.6-25.5l-7.7-7.9c0,0-13.2,28.2-13.7,29.7c-0.2,0.7-1.1,15.9-1.1,15.9c0.1,7.5,0.1,14.1,0.1,15.4
					c0,0-1.1,3.8-1.9,6.2c-0.8,2.4-0.7,4.9-0.8,5.6c0,0.1-0.6,2.5-0.2,5.5c0.3,2.6,1.2,0,1.2,0s0.2-4.9,0.6-4.8
					c0.3,0.1,0,2.7,0.4,5.6c0.1,0.7,0.2,1.5,0.3,2.1c0.2,1.7,1.4,2.1,1.4,0.2c0-0.7,0-1.8-0.1-2.5c-0.1-0.8,0-1.7,0.1-2.4
					c0-1.4,0-2.5,0.1-2.5c0.1,0,0.3-0.2,0.4,0.5c0.1,0.9,0,3,0.3,4.4c0.2,0.8,0.5,2.4,0.5,2.4s0.7,2.6,0.9,2.6
					c0.9,0,0.9-2.1,0.5-3.1c0.1-0.8-0.3-2.5-0.3-2.5s0.1-3.6,0.6-3.6c0.4,0,1.9,8.7,2.8,8.6C70.1,414.7,69.8,412.1,69.8,412.1z"/>
			</g>
			<path class="st8" d="M80.4,354.3c0,0-4.8-0.8-7.3-1.8c-3.4-1.3-5.6-2.4-5.6-2.4s3.7-15.9,8.4-25.6c1.9-4,3.9-5.9,6.6-6.4
				c0,0,5.7,3.7,5.5,12.8C87.8,333,80.4,354.3,80.4,354.3z"/>
			<g>
				<path class="st7" d="M95.2,407.9l6.2,57.2c0,0-3,12.1-2.7,15.5c0.4,3.4,6.8,48.5,6.8,48.5l-0.3,2.5l0,7.5h23.7
					c0,0-5-2.3-12.1-6.9c-0.5-0.3-1.7-1.4-2-3.6c-1.9-13.9,1.8-60.2,1.8-60.2l2.9-60.3L95.2,407.9z"/>
				<path class="st7" d="M76.1,419.9c-1.3,0.3-3.4,49.5-4.5,51.7c-7,13.8-8.7,55.8-8.7,55.8l-2,6l-2.2,7.3c0,0,7,1.9,10.7-0.2
					l-0.4-7.2l-0.4-6.6l17.7-52.3l9.7-53.4L76.1,419.9z"/>
				<path class="st3" d="M111.4,324.6c-2.9-4-14.7-15.7-16-15.7c-3.8,0.1-16.4,0.1-18.8,1.4l0,2.7c0.1,12.3,1.6,24.5,4.7,36.4
					c2.2,8.3,4.2,17.1,3.9,20.3l0.1,0.1c7.3,7.2,18.7,6.7,25.4-1.3l0,0c0,0,0-8.8,1-16.8C113.3,339.2,118.5,334.6,111.4,324.6z"/>
				<path class="st7" d="M91.6,296.5c0,0,0.3,8.2-0.4,11.3c-0.7,3.1-1.7,3.3,4.5,4.3c2.4,0.4,4.7,0.9,4.7,0.9s-0.6-4.6-0.7-6.5
					c-0.2-3.2,0.7-13,0.7-13L91.6,296.5z"/>
				<path class="st9" d="M96.3,300.5c1.3,0.7,2.4,1.1,3.5,1.3c0.2-3.9,0.6-8.3,0.6-8.3l-8.4,2.8C93,298,94.4,299.5,96.3,300.5z"/>
				<path class="st7" d="M93.5,273.5c0,0-3.5,1.2-5.4,5.1c-1.9,3.9-2.7,14.7,5,19c3.8,2.1,8.1,2.5,10.2,0.7c2.1-1.9,1.8-6.1,1.6-9.6
					C104.5,281.8,102.9,271.3,93.5,273.5z"/>
				<path class="st10" d="M87.9,287.1c0.4,1.8-0.1,3.6-1.3,3.9s-2.4-0.8-2.9-2.7c-0.4-1.8,0.1-3.6,1.3-3.9
					C86.2,284.1,87.5,285.3,87.9,287.1z"/>
				<path class="st6" d="M69,533.3c-3.2,1.5-6.7,0.6-8.1,0.1l-2.2,7.4c0,0,7.1,2.1,10.8,0L69,533.3z"/>
				<path class="st11" d="M72,449.1C72.1,449.1,72.1,449.1,72,449.1L72,449.1z"/>
				<path class="st6" d="M105,541h24.7c0.9-0.1,1.1-0.9,0.8-1.3c-0.7-1-3.5-1.7-6.8-3.2c-5.7,0.6-17.6-3.4-18.5-4.8
					C104.7,534.4,104.5,540.9,105,541z"/>
				<path class="st7" d="M154.5,343.3c0.5-0.7,2.1-3.9,2.1-3.9s1.7-5.6,1.3-5.5c-0.2,0-0.9,0.8-1.7,2.5c-0.5,1-1,2.8-1.5,3.7
					c-0.9,1.6-1.9,2.2-1.7,1.6c0.2-0.4,0.8-0.8,1.3-1.7c1.3-2.3,2.5-6,2-5.9c-0.4,0.1-1.7,2.6-3.1,4.6c-0.6,0.9-2.4,2-3.5,2.7
					c0-0.5,0.1-1,0.2-1.2c0.1-0.4,2.1-3,1.3-3.4c-0.8-0.3-5.4,5.3-5.4,5.3l-1.9,3.3l-0.2,0.1l0,0c0,0-23.3,9.1-24,8.9
					c-1.8-0.6-8.1-18.7-8.1-18.7l-13,2.3c-0.2-0.1,13.7,27,16.3,28.3c2.3,1.2,26.5-11.4,31-14.1c6.3-2.4,8.7-5.3,9.7-6.7
					c0.5-0.8,2.6-4.2,2.6-4.2s0.4-4.7,0.1-4.8c-1.1-0.1-1.5,4.3-1.5,4.3s-1.6,2.1-1.8,2.4C154.4,343.8,154.5,343.3,154.5,343.3z"/>
				<path class="st12" d="M90.2,319.8c-1.8,7.5,7.7,24.3,7.7,24.3s13.5-6.6,15.9-9.4c0,0-9.3-15.4-9.9-16.4
					c-1.2-2.2-5.6-6.6-8.6-5.8C93.5,313.1,90.2,319.8,90.2,319.8z"/>
				<path class="st13" d="M92.4,301.3c1-6.9,12.5-21,8-26.9c-3.6-4.8-9.8-3.3-13.8-2c-18,6.2-17,28.9-22.7,32.4
					c-10.3,6.4-16.7,10.4-17.4,24.9c-0.9,17.2,13.7,25.9,31.2,21.7c9.4-2.3,11.9-5.3,15.7-14.3c1.7-4,5.1-16.5,4.2-22.7
					C96.8,309.1,91.6,306.8,92.4,301.3z"/>
				<path class="st7" d="M99.2,288.6c0,2-0.7,3.7-1.7,3.7c-0.9,0-1.7-1.7-1.7-3.7c0-2,0.7-3.7,1.7-3.7
					C98.5,284.9,99.2,286.6,99.2,288.6z"/>
				<path class="st1" d="M121.8,445.1l0.8-33.9c0.1-9.6-1.8-19.1-5.6-27.8l-6.4-14.7c-2.6,0.8-5,1.6-7.8,1.9
					c-5.9,0.7-11.8,0-17.7-0.7c0,0.2,0,0.4-0.1,0.6c-1.1,5-7,16.1-9.5,31.4c-2.9,17.3-3.9,43.1-3.6,45.2
					C99.4,448.2,105.8,449.2,121.8,445.1z"/>
			</g>
		</g>
	</g>
	<g>
		<g>
			<path class="st0" d="M461.3,275.2l20.5,20.5c0,0,39.1,15.3,43.5,24.7c4.4,9.4-3.9,9-13.1,7.6c-9.2-1.3-35.2-17.5-35.2-17.5
				l-23.8-27.5L461.3,275.2z"/>
			<path class="st5" d="M521.4,316.3l-5.1-1.8l-9.8,4.6c0,0-5.1,3.4-7.5,12c-2.5,8.5,0,59.5,4.1,67.6
				C507.2,406.9,521.4,316.3,521.4,316.3z"/>
			<path class="st7" d="M553.7,520.6c0,0,3.6,2.3,3.9,3.4c0.3,1.1,2.9,12.6,2,14c-1,1.3-4.6,0.7-3.2,1.7c1.1,0.7,7.9,1.3,12.3,0.1
				c1.3-0.3,0.7-11.2,0.9-12.8c0.3-2.4,1.9-7.8,0.9-9.2c-0.5-0.7-3.3-1.9-5.8-2.9c-2.7-1-5.6-4-5.6-4L553.7,520.6z"/>
			<path class="st13" d="M564.4,514.7c0,0-2.1,20.5-4.6,22c-0.7,0.4-4.2,0.7-4.5,2.4c0,0-0.1,1.7,1,1.8l13.3,0
				c0,0,0.1-10.1,0.1-14.1c0,0,1.8-10.1,1.2-10.9C570.2,515.2,564.4,514.7,564.4,514.7z"/>
			<path class="st7" d="M605.7,520.6c0,0,3.6,2.3,3.9,3.4s2.9,12.6,2,14c-1,1.3-4.6,0.7-3.2,1.7c1.1,0.7,7.9,1.3,12.3,0.1
				c1.3-0.3,0.7-11.2,0.9-12.8c0.3-2.4,1.9-7.8,0.9-9.2c-0.5-0.7-3.3-1.9-5.8-2.9c-2.7-1-5.6-4-5.6-4L605.7,520.6z"/>
			<linearGradient id="SVGID_1_" gradientUnits="userSpaceOnUse" x1="514.0196" y1="454.9191" x2="614.4731" y2="454.9191">
				<stop  offset="0" style="stop-color:#262262"/>
				<stop  offset="1" style="stop-color:#662D91"/>
			</linearGradient>
			<path class="st14" d="M540.4,387.1c0,0,12.2,24.2,14.7,30.7l18.5,47l40.9,48.1c0,0-3,7.7-7.5,9.8c0,0-49.3-39.8-53.4-46.1
				c-6.2-9.6-34.3-68.1-34.3-68.1l-5.2-11.3L540.4,387.1z"/>
			<linearGradient id="SVGID_2_" gradientUnits="userSpaceOnUse" x1="503.8369" y1="450.571" x2="560.1801" y2="450.571">
				<stop  offset="0" style="stop-color:#262262"/>
				<stop  offset="1" style="stop-color:#662D91"/>
			</linearGradient>
			<path class="st15" d="M511,386.9l0.2,20.6c0,0-8.8,67.3-7.1,71.3c4.2,9.8,49.9,42.8,49.9,42.8l6.2-10.7l-32.9-36.7l12.4-35.7
				c3.5-8.3,10.9-24.3,10.7-33.3c-0.2-7.7-15.4-25.6-15.4-25.6L511,386.9z"/>
			<path class="st0" d="M529.6,417.3c12.1-2.8,21.9-7,22.9-10.4c0.5-1.5-6.3-16.9-11.3-37.4c-1.6-6.7-1.3-13-3.9-36.5
				c-0.6-5-2.6-15.4-10.3-18.1c-2.7-0.9-4.2-0.8-4.2-0.8c-0.1,0-9.8,0.1-14.3,2.6c-1.1,1.5-5.2,9.7-6.3,31.9c-0.5,9.7-2.4,41-2,46
				c0.1,0.8,0.1,1.5,0.2,2.2C502.2,410.2,516.4,420.3,529.6,417.3z"/>
			<path class="st7" d="M508.2,331.8C508.2,331.8,508.2,331.8,508.2,331.8c5-0.5,17.4-16.8,17.4-16.8l0,0l-7.7-12.1
				c0,0-11.3,2.1-9.1,5.5c2.2,3.4,3.4,11.7,3.4,11.7c0,0.1-0.1,0.2-0.2,0.3C511.4,322,508.8,327,508.2,331.8z"/>
			<path class="st9" d="M508.8,308.3c-2.2-3.4,9.1-5.5,9.1-5.5l0.6,1c0,0.9-0.1,1.6-0.3,2.3c-1.2,3.4-4.2,6.5-7.2,7.9
				C510.5,312,509.7,309.7,508.8,308.3z"/>
			<g>
				<path class="st7" d="M511.5,283.6c0.2-0.2,8.8,13.9,6.8,19.7c-2.1,5.8-9,10.4-13.1,8.4c-4.5-2.3-11.4-18.4-7.3-25.3
					C502.1,279.5,511.5,283.6,511.5,283.6z"/>
				<path class="st13" d="M499.1,277.3c5-1.1,14,0.4,19.1,4c6.2,4.4,6.4,12.2,3.6,17.3c-2.8,5.1-1.1,8.8-1.1,8.8s-8.8-0.6-10.5-6.5
					c-0.7-2.5,0.2-4.2-1.5-5.6c-1.3-1.1-2.4-4.2-3.7-6.8c0,0-5.7-3-7.8-0.5C496.5,288.8,492.7,278.7,499.1,277.3z"/>
				<path class="st7" d="M507.9,296.3c0.8,1.8,2.3,3,3.3,2.5c1.1-0.4,1.3-2.3,0.5-4.1c-0.8-1.8-2.3-3-3.3-2.5
					C507.3,292.6,507.1,294.5,507.9,296.3z"/>
			</g>
			<path class="st13" d="M616.5,514.7c0,0-2.2,20.5-4.7,22c-0.7,0.4-4.2,0.7-4.5,2.4c0,0-0.1,1.8,1,1.7l13.3,0
				c0,0,0.2-10.1,0.1-14.1c0,0,1.8-10.1,1.2-10.9C622.3,515.2,616.5,514.7,616.5,514.7z"/>
		</g>
		<g>
			<g>
				<linearGradient id="SVGID_3_" gradientUnits="userSpaceOnUse" x1="241.5627" y1="325.1829" x2="481.6877" y2="325.1829">
					<stop  offset="0" style="stop-color:#262262"/>
					<stop  offset="1" style="stop-color:#662D91"/>
				</linearGradient>
				<path class="st16" d="M322.5,419.9c-10.6-22.1-13.5-55.1-2-81.2c19.4-44.2,72.8-62.2,68.9-112.2c-1-12.6-6.6-22.7-14.9-29.3
					c-21.7-17.2-56.7-8.1-81.7,3.9c-15.9,7.7-30.8,18.5-44.4,32.6l-6.9-88.4c30-21.3,66.2-32.4,102.4-35.2
					c74.2-5.8,131.4,22,137.3,96.2c5.3,67.7-40.4,97.6-71.1,131.5c-17,18.8-20.9,33.2-19.6,50c0.7,8.7,3.9,19.4,9.2,26.2
					L322.5,419.9z M375.8,540.8c-72.1,5.7-80.4-91.2-7.6-96.9C439.9,438.3,447.6,535.2,375.8,540.8z"/>
			</g>
		</g>
		<path class="st7" d="M450.3,279.7c-0.1-0.6,0.4-0.1-0.6-4.9c-0.3-1.4-1.1-2.8-1.8-3.6c-0.3-0.4-1.1-1.1-1.6-1.4
			c-0.8-0.5-1.5,0.3-1.3,0.8c0.2,0.5,1,2,1.2,2.5c0.2,0.5,0.2,1.6-0.1,1.9c-0.4,0.4-6.3-6.5-6.7-7.1c-0.3-0.5-1-2.7-1-2.7
			s-0.5-1.6-1.2-1.2c-0.4,0.3-0.9,1.6,0.3,4.2c1,2.3,2.5,4.1,2.3,4.3c-0.4,0.4-3-2.8-3-2.8s-0.9-1.7-1.5-2.3c-0.4-1.1-1.1-2.6-1.8-2
			c-0.1,0.1,0.4,2.6,0.4,2.6s0.9,1.6,1.3,2.4c0.7,1.4,2.2,3.1,2.8,4c0.4,0.8,0,0.6,0,0.7c0,0.1-0.7-0.8-1.7-2
			c-0.5-0.6-1.2-1.2-1.7-2.1c-0.5-0.8-1.2-1.7-1.7-2.3c-1.3-1.6-2.1-0.5-1,1.2c0.4,0.6,0.8,1.3,1.3,2c1.7,2.7,3.8,4.9,3.6,5.1
			c-0.3,0.3-3.9-3.8-3.9-3.8s-2.5-1.7-1,0.8c1.8,2.9,3.7,4.7,3.7,4.8c0.6,0.5,2.2,3,4.5,4.5c2.3,1.5,6.1,3.7,6.1,3.7
			c0.4,0.5,1.6,2.2,3.1,4.7l5.7-6.8C452.9,282.7,450.4,280.1,450.3,279.7z"/>
		<path class="st4" d="M445.9,289.3l7.9-6.9l27,26.6c0,0,41.8,3.7,41.9,3.7l1.7,0.5c15.2,5.2,8.9,17.6,6,19.5
			c-6.8,4.5-44.6,1.8-56.7-5.7C463.6,320.9,445.9,289.3,445.9,289.3z"/>
	</g>
	<g>
		<path class="st7" d="M164.5,327.5c0.3,1.1,0.5,1.5,0.9,2.2c2.5,4.8,8.2,11.6,8.2,11.6l4.4-10.7c0,0-0.7-3.3-2-8.1
			C171.7,323.8,167.7,324.5,164.5,327.5z"/>
		<path class="st0" d="M189.9,318.3c0,0-24.7,11.4-25.5,11.1c-0.5-0.1-10.1-17.3-10.2-33.5c0-7.5,7.2-16.5,15.3-14.7
			c4.1,0.9,4,2.1,10.1,11.5C185.6,302.1,189.9,318.3,189.9,318.3z"/>
		<path class="st7" d="M211,522c0,0-0.6,10.4-0.6,10.4c-0.2,1.3-1.1,4.6-1.1,5.8c0,4.5,20-3.8,15.5-5.8c-0.4-0.2-2.5-1.5-2.7-3.1
			c-0.2-2.4-0.7-7.1-0.7-7.1L211,522z"/>
		<path class="st13" d="M224.8,532.3c0,0-4.7,1.4-7.1,1.7c-2.4,0.3-5.6-2.5-7.3-1.8c-1.9,0.9-1.8,8.6-1.8,8.6s25.2,2.2,32.2-0.1
			C243.7,539.9,234.4,535.5,224.8,532.3z"/>
		<path class="st7" d="M170.1,522c0,0-0.6,10.4-0.6,10.4c-0.2,1.3-1.1,4.6-1.1,5.8c0,4.5,20-3.8,15.5-5.8c-0.4-0.2-3.2-2.6-3.3-4.1
			c-0.2-2.4-0.1-6.1-0.1-6.1L170.1,522z"/>
		<path class="st13" d="M183.9,532.3c0,0-4.7,1.4-7.1,1.7c-2.4,0.3-5.6-2.5-7.3-1.8c-1.9,0.9-1.9,8.6-1.9,8.6s25.3,2.6,32.4-0.1
			C202.8,539.7,193.5,535.5,183.9,532.3z"/>
		<g>
			<path class="st7" d="M176.2,333.3l17.6-26.3c0.1-0.2,0.2-0.7,0.5-1.4c0.9-2.6,2.7-8,4.3-13.5l0-0.1c0.5-1.9,1.6-5.2,2.6-8.4
				c1.2-3.5,2.6-7.9,2.6-8.7c0-0.1-0.1-0.4-0.2-0.7c-0.6-1.8-1.5-6-1.8-7.9c-0.2-1.2-0.4-4,0.9-4c2.1,0,1.1,2.9,2,4.7
				c0.4-1.2,1.1-3.6,1.4-6l0.3-5.6c0.1-0.4-0.4-3.5,1.1-3.5l0.1,0c1.3,0.1,1.3,3.4,1.8,8.9c0.2-0.6,0.3-1.4,0.5-2.1
				c0-0.4,0.2-2,0.4-2.9c-0.3-1.5-0.1-4,1.4-3.8c0.8,0.1,0.7,3.5,0.7,3.5c0,0.5-0.1,4.1,0,4.8c0.2-1.2,0.8-6.4,2-6.4
				c1,0,1.1,1.4,1.1,2.5c0,0.6-0.6,6.2-0.7,6.9c0.5-0.8,1-5.8,1.5-5.8c2,0,1.3,7,0.5,8.8c-0.1,0.2-0.1,0.6-0.2,1
				c-0.2,1.2-0.7,3.3-1.7,5.2c-1.2,2.2-2.9,5.8-3.2,6.4c-0.2,1.1-0.8,5.1-1.5,10.2c-0.3,2.2-0.7,4.5-1,7l0,0
				c-0.1,0.5-0.4,2.2-1.8,8.5c-1.9,8.7-2.1,9-2.2,9.2c-0.8,1.6-19.8,29.1-20.6,30.2l-0.5,0.7L176.2,333.3z"/>
			<path class="st9" d="M209,271.9c0,0-1.4-3.9-4-3.9c0,0,1.4-0.5,2.6,0.5C208.9,269.5,209,271.9,209,271.9z"/>
		</g>
		<g>
			<path class="st7" d="M172,264.3l-2.3,15.3c0,0,8.6,7.4,13.7,5.8c4.2-1.3,1.3-7.2,1.3-7.2s-2.3-8.2-1.6-12.4
				C183.9,261.5,172,264.3,172,264.3z"/>
			<path class="st9" d="M173.6,269c2.2,1.1,6.4,2.6,9.8,2.9c-0.3-2.1-0.5-4.4-0.2-6.1c0.3-2-2-2.4-4.7-2.4c-3.4,0.3-6.5,0.9-6.5,0.9
				l-0.4,2.9C172.2,268,172.9,268.6,173.6,269z"/>
			<path class="st7" d="M161.1,246.7c-0.4,0,3.4,17.1,9.2,20c5.8,2.9,14.5,1.4,16.2-3.2c1.8-5.1-4.8-22.5-13-24.7
				C165.3,236.6,161.1,246.7,161.1,246.7z"/>
			<path class="st13" d="M167.8,231c-4.7,2.9-6.8,7.1-7.5,8.9c-2.2,1.1-4.8,3.5-6.1,10c-1.6,7.9,4,14.1,9.9,15.9
				c5.9,1.8,6.9,6,6.9,6l0.6-4.5c0,0-1.3-3.9-3.3-5.8c-2-2,0.9-4.8,1.2-7.1c0.2-1.8-1-5.3-0.8-8.2c0,0,3.3-5.3,6.5-6.6
				C180.7,237.3,173.8,227.3,167.8,231z"/>
			<path class="st7" d="M170.3,257.3c0.8,2,0.5,3.9-0.7,4.4c-1.1,0.4-2.7-0.8-3.5-2.8c-0.8-2-0.5-3.9,0.7-4.4
				C168,254,169.6,255.3,170.3,257.3z"/>
		</g>
		<path class="st7" d="M192.1,333.7l34-5.9c0,0-3.9-10.4-5.2-10.4c-1.4,0-25.7,11.3-25.7,11.3l-1.9,4.1L192.1,333.7z"/>
		<path class="st13" d="M174.7,358.5c0,0-3.4,17.5-2,30.7c1.4,13.3,1.5,60.3,1.5,60.3l-5.3,75.3l12.5,0.3c0,0,14.8-75.3,14.5-73.4
			s5-53,5-53l-17.7-42L174.7,358.5z"/>
		<path class="st13" d="M178,357.7c0,0-2.2,15.7,0.6,22.6c2.8,6.9,23.7,74.6,24,80.2c0.3,5.5,7.2,66.6,7.2,66.6l14.5-0.4l3.1-67.9
			l-6.6-85.3l-6.4-21.6L178,357.7z"/>
		<path class="st7" d="M169.7,279.6c0,0,3.6,2.5,6.9,2.2c3.3-0.3,8.1-3.6,8.1-3.6l-0.7-2.4c0,0-8.6-1.3-8.9-1.2
			C175,274.8,169.7,279.6,169.7,279.6z"/>
		<path class="st7" d="M207.9,316.9c0,0,12.8,12.9,18.6,10.7c5.8-2.2,8.2-9.8-6-20.8C208,296.9,207.9,316.9,207.9,316.9z"/>
		<path class="st4" d="M216.6,332.9c-1.9-11.1-15.7-45.6-16.8-51.9c-0.5-3.1-8-3.2-15.1-2.8c-7.5,0.4-15,1.4-15,1.4
			s-6.6,1.2-9.6,4.1c-2.9,2.9-3.7,11,0.5,26.4c3.3,12.1,7.4,18.8,9.5,27.6c0.4,3,0.8,5.9,1.2,9.3c0.7,13.2,0,30.6,0,30.6
			s36.2,8,49.7-4.1C221.1,373.4,218.6,344.2,216.6,332.9z"/>
		<path class="st0" d="M225.9,309c0,0-14.2,12.5-15,12.5c-0.5,0-20.3-15.5-24.8-28.2c-2.5-7,2.8-14.9,8.8-14.9c4.2,0,6,1.2,14.3,8.6
			C217.4,294.5,225.9,309,225.9,309z"/>
	</g>
	<g>
		<path class="st3" d="M442.7,61.1l-30.8,20.8c-3.1,2.1-7.4,1.3-9.5-1.8l-20.8-30.8c-2.1-3.1-1.3-7.4,1.8-9.5L414.2,19
			c3.1-2.1,7.4-1.3,9.5,1.8l20.8,30.8C446.6,54.8,445.8,59,442.7,61.1z"/>
		<path class="st2" d="M427.2,39.3c5.4,8,3.3,18.8-4.7,24.2c-8,5.4-18.8,3.3-24.2-4.7c-5.4-8-3.3-18.8,4.7-24.2
			C411,29.2,421.8,31.3,427.2,39.3z"/>
		<path class="st6" d="M407,41.9l7.1,7.8c0.5,0.6,0.5,1.5-0.1,2c-0.6,0.5-1.5,0.5-2-0.1c-0.1-0.1-0.2-0.2-0.2-0.3L407,41.9z"/>
		<path class="st6" d="M412.5,49.8l10.8-6l-9.4,8c-0.5,0.4-1.3,0.4-1.7-0.1c-0.4-0.5-0.4-1.3,0.1-1.7
			C412.4,49.8,412.4,49.8,412.5,49.8z"/>
	</g>
	<path class="st5" d="M132.9,229.7H83.4c-14.8,0-26.8-12-26.8-26.8v0c0-14.8,12-26.8,26.8-26.8h49.4c14.8,0,26.8,12,26.8,26.8v0
		C159.7,217.7,147.7,229.7,132.9,229.7z"/>
	<polygon class="st5" points="147.4,209.5 172.8,220.8 155.8,197.1 	"/>
	<g>
		<path class="st2" d="M91,201.2c0,2.2-2,3.9-4.4,3.9c-2.5,0-4.4-1.8-4.4-3.9c0-2.2,2-3.9,4.4-3.9C89,197.2,91,199,91,201.2z"/>
		<path class="st2" d="M111.6,201.2c0,2.2-2,3.9-4.4,3.9c-2.5,0-4.4-1.8-4.4-3.9c0-2.2,2-3.9,4.4-3.9
			C109.6,197.2,111.6,199,111.6,201.2z"/>
		<path class="st2" d="M132.3,201.2c0,2.2-2,3.9-4.4,3.9c-2.5,0-4.4-1.8-4.4-3.9c0-2.2,2-3.9,4.4-3.9
			C130.3,197.2,132.3,199,132.3,201.2z"/>
	</g>
	<g>
		<polygon class="st5" points="371.7,19.9 367.6,11 371,9.3 373.4,14.4 379.2,10.9 381.2,14.2 		"/>
	</g>
	<g>
		<polygon class="st6" points="135.1,148.1 125.8,151.4 124.5,147.8 129.8,145.9 126.8,139.8 130.3,138.2 		"/>
	</g>
	<g>
		<path class="st1" d="M519.4,58.3c0.7,2.2,1.4,4.4,2.1,6.6c0.5,1.7,0.9,4.5,2.6,5.5c0.4,0.2,1.1,0.1,1.3-0.3c0.8-1.8-0.4-4.2-0.9-6
			c-0.7-2.2-1.4-4.4-2.1-6.6C521.7,55.6,518.8,56.4,519.4,58.3L519.4,58.3z"/>
	</g>
	<g>
		<path class="st1" d="M542.6,55.9c-3.6,12.1-3.6,11.8-3.3,13c0.2,1,1.5,1.3,2.2,0.6c0.8-0.9,0.6-0.6,4.1-12.8
			C546.1,54.9,543.2,54.1,542.6,55.9L542.6,55.9z"/>
	</g>
	<g>
		<path class="st1" d="M556.2,83c2.1-1,4.2-2,6.3-3c1.9-0.9,4.3-1.6,5.5-3.3c0.6-0.7-0.2-1.7-1-1.7c-2.1-0.1-4.3,1.5-6.1,2.4
			c-2.1,1-4.2,2-6.3,3C552.9,81.2,554.4,83.8,556.2,83L556.2,83z"/>
	</g>
	<g>
		<path class="st1" d="M549.3,119.4c2.1,2.8,4.3,5.6,6.7,8.1c1.3,1.4,3.2-0.6,2-2c-2.3-2.7-4.6-5.4-6.8-8.1
			C550.2,115.9,548.2,118,549.3,119.4L549.3,119.4z"/>
	</g>
	<g>
		<path class="st1" d="M557.2,105.3c1.9,0.9,3.9,1.6,5.9,2.4c1.8,0.7,3.9,2,5.9,1.7c1-0.1,1.2-1.5,0.6-2.2c-0.7-0.8-1.1-0.7-5.4-2.4
			c-1.9-0.7-3.9-1.5-5.8-2.3C556.8,102,555.7,104.6,557.2,105.3L557.2,105.3z"/>
	</g>
</g>
</svg>
