<?xml version="1.0" encoding="utf-8"?>
<!-- Generator: Adobe Illustrator 23.0.0, SVG Export Plug-In . SVG Version: 6.00 Build 0)  -->
<svg version="1.1" id="Layer_1" xmlns="http://www.w3.org/2000/svg" xmlns:xlink="http://www.w3.org/1999/xlink" x="0px" y="0px"
	 width="349.9px" height="234.3px" viewBox="0 0 349.9 234.3" style="enable-background:new 0 0 349.9 234.3;" xml:space="preserve"
	>
<style type="text/css">
	.st0{fill:#EBEBEB;}
	.st1{fill:#F5F5F5;}
	.st2{fill:#E0E0E0;}
	.st3{fill:#7E57C2;}
	.st4{fill:#263238;}
	.st5{opacity:0.2;}
	.st6{opacity:0.6;}
	.st7{fill:#FFFFFF;}
	.st8{fill:#FFBE9D;}
	.st9{fill:#EB996E;}
	.st10{fill:#455A64;}
	.st11{opacity:0.3;}
	.st12{opacity:0.3;enable-background:new    ;}
	.st13{fill:#996964;}
	.st14{fill:#784D48;}
</style>
<g id="freepik--background-complete--inject-97">
	<path class="st0" d="M343.6,46.9c0.5-3.3-4.3-6.1-7.8-6.4c-1.7-0.1-3.4,0.1-5-0.4c-3.5-1.2-4.8-5.7-8.2-7.1
		c-2.5-1.1-5.4-0.1-7.9,1.1s-4.9,2.8-7.6,3c-2.4,0.1-5-0.7-7,0.4c-1.6,0.9-2.4,2.7-3.8,3.7c-1.4,1.1-3.2,1.3-5,1.3
		c-1.8,0.1-3.5,0.1-5.1,0.8c-1.6,0.7-2.9,2.4-2.6,4.1L343.6,46.9z"/>
	<path class="st1" d="M198.8,15.4c0.3-2.5-3.1-4.5-5.8-4.7c-1.2-0.1-2.5,0.1-3.7-0.3c-2.6-0.9-3.6-4.2-6.1-5.3
		c-1.9-0.8-4-0.1-5.9,0.8c-1.8,0.9-3.6,2.1-5.6,2.2c-1.8,0.1-3.7-0.5-5.2,0.3c-1.1,0.6-1.7,2-2.8,2.8c-1.1,0.8-2.4,0.9-3.7,1
		c-1.3,0.1-2.6,0.1-3.8,0.6c-1.2,0.5-2.1,1.8-1.9,3L198.8,15.4z"/>
	<path class="st0" d="M257,62c-0.1-0.5-0.1-1.1,0.1-1.6c0.1-0.2,0.1-0.5,0.1-0.7l-0.1-0.6l-7.7,1.1c-0.7,0.1-1.1,0.7-1,1.4
		c0,0,0,0,0,0l1.1,7.6l-0.5,0.1c-0.2,0-0.5,0-0.7-0.1c-1.7-0.5-3.5,0.4-4,2.1c-0.5,1.7,0.4,3.5,2.1,4c0.9,0.3,1.8,0.1,2.6-0.3
		c0.2-0.1,0.4-0.2,0.6-0.2l0.7-0.1l1.1,7.5c0.1,0.6,0.7,1.1,1.4,1l20.7-3.1c0.5-0.1,0.9-0.6,0.8-1.1c0,0,0,0,0,0l-3.1-21
		c-0.1-0.5-0.6-0.9-1.1-0.8c0,0,0,0,0,0l-7.5,1.1l0.1,0.8c0,0.2,0.1,0.4,0.2,0.6c0.9,1.5,0.4,3.5-1.1,4.4c-0.4,0.2-0.8,0.4-1.3,0.4
		C258.9,64.6,257.4,63.6,257,62z"/>
	<path class="st1" d="M1.3,177.1c0,0-3.3,1.3,0.5,8.4c3.8,7.1,6.5,10.5,6.5,10.5s0.7,1.6-0.7,1.9s-4.5-0.1-5.1,1.6s0.7,3.4,3.4,4.8
		c2.7,1.4,8.3,4.7,8.9,5c0.5,0.3,1,1.1,0.1,1.4s-7.8,1.3-7.2,4.5c0.6,3.3,8.6,5.9,9.5,6.3c0.9,0.3,1.1,0.7,1,1.1s-2.4,0.5-4.4,0.9
		c-2,0.4-4.2,1.1-3.6,2.9c0.5,1.9,5.3,5.6,16.8,6.4l5.3,0l2.8-4.6c5.4-10.2,4.7-16.2,3.4-17.7s-3.1,0.1-4.4,1.6
		c-1.3,1.5-2.6,3.4-3.1,3.2c-0.4-0.2-0.6-0.6-0.4-1.5c0.2-0.9,2.1-9.1-0.3-11.4c-2.4-2.3-6.8,3.1-7.6,3.7c-0.8,0.6-1.2-0.3-1.1-0.8
		c0-0.6,0.2-7.2,0.5-10.1c0.2-3-0.5-5-2.3-5.4s-3.1,2.4-4,3.4c-1,1-2-0.4-2-0.4S12.2,189,8.2,182C4.2,175,1.3,177.2,1.3,177.1"/>
	<path class="st2" d="M32.7,234.3c-2.9-5.1-7.9-14.4-12.2-22.3s-8.2-15-11.1-20.2c-1.4-2.6-2.6-4.7-3.4-6.1L5.1,184l-0.2-0.4
		c-0.1-0.1-0.1-0.2-0.1-0.2s0,0,0.1,0.1l0.3,0.4l1,1.6c0.8,1.4,2,3.5,3.4,6.1c2.9,5.1,6.8,12.3,11.1,20.2
		c4.3,7.9,9.3,17.1,12.1,22.3"/>
	<path class="st2" d="M6.8,200.4c0.1,0,0.3,0,0.4,0.1c0.2,0.1,0.6,0.2,1,0.3c0.8,0.3,2,0.7,3.3,1.2l3.2,1.3l1,0.4
		c0.1,0,0.2,0.1,0.4,0.2c-0.1,0-0.3,0-0.4-0.1c-0.2-0.1-0.6-0.2-1-0.3c-0.8-0.3-2-0.7-3.2-1.2l-3.2-1.2l-1-0.4
		C7.1,200.5,7,200.4,6.8,200.4z"/>
	<path class="st2" d="M16.4,203.4c0,0,0.7-2.4,1.7-5.4c1-3,1.8-5.3,1.9-5.3c0,0-0.7,2.4-1.7,5.4S16.4,203.4,16.4,203.4z"/>
	<path class="st2" d="M22.5,215.8c0.1-0.1,0.1-0.2,0.2-0.3l0.6-0.9c0.5-0.7,1.2-1.8,2-2.9s1.4-2.2,1.8-3l0.5-0.9
		c0.1-0.1,0.1-0.2,0.2-0.3c0,0.1-0.1,0.2-0.2,0.4c-0.1,0.2-0.3,0.5-0.5,1c-0.4,0.8-1.1,1.9-1.8,3.1c-0.7,1.2-1.5,2.2-2,2.9
		c-0.3,0.4-0.5,0.7-0.7,0.9C22.6,215.7,22.5,215.8,22.5,215.8z"/>
	<path class="st2" d="M13.2,215c0.1,0,0.2,0,0.4,0l1,0.1c0.8,0,2,0.1,3.3,0.2c1.3,0.1,2.4,0.2,3.3,0.3l1,0.1c0.1,0,0.2,0,0.4,0.1
		c-0.1,0-0.2,0-0.4,0l-1-0.1c-0.8,0-2-0.1-3.3-0.2c-1.3-0.1-2.4-0.2-3.3-0.3l-1-0.1C13.5,215,13.3,215,13.2,215z"/>
	<path class="st2" d="M17.2,226.6c0.2,0,0.3,0,0.5,0l1.3,0.1c1.1,0.1,2.5,0.2,4.2,0.3c1.6,0.1,3.1,0.2,4.2,0.3l1.3,0.1
		c0.2,0,0.3,0,0.5,0.1c-0.2,0-0.3,0-0.5,0l-1.3-0.1c-1.1-0.1-2.5-0.2-4.2-0.3s-3.1-0.2-4.2-0.3l-1.3-0.1
		C17.5,226.7,17.4,226.7,17.2,226.6z"/>
	<path class="st2" d="M28.7,227.4c0.1-0.2,0.2-0.3,0.3-0.4c0.2-0.3,0.4-0.7,0.7-1.1c0.6-1,1.5-2.3,2.4-3.8c0.9-1.5,1.7-2.9,2.2-3.9
		l0.7-1.2c0.1-0.2,0.2-0.3,0.3-0.4c-0.1,0.2-0.1,0.3-0.2,0.5c-0.1,0.3-0.3,0.7-0.6,1.2c-0.5,1-1.3,2.4-2.2,3.9
		c-0.9,1.5-1.8,2.8-2.4,3.8c-0.3,0.5-0.6,0.9-0.8,1.1C29,227.1,28.9,227.2,28.7,227.4z"/>
	<path class="st1" d="M305.4,233.1c-7-3.5-9.6-11.6-10.5-19c-0.1-1.2-0.5-2.5,0-3.7s1.7-2.1,2.9-1.7c1,0.3,1.5,1.3,2.2,2.1
		c0.9,1.1,2,1.9,3.3,2.4c0.8,0.3,1.9,0.4,2.6-0.1c1-0.7,0.9-2.2,0.7-3.5c-0.4-2.3-0.7-4.6-1.1-6.9c-0.3-1.2-0.3-2.5-0.2-3.7
		c0.2-1.2,0.9-2.3,2-2.9c1.1-0.5,2.7,0,3.1,1.1c0.1,0.5,0.2,1,0.3,1.5c0.1,0.5,0.4,1,0.9,1.1c0.5,0.1,1-0.3,1.3-0.8
		c1-1.5,1.8-3.1,2.3-4.9c0.5-1.7,1.2-3.4,2.1-5c1-1.5,2.4-2.8,4.1-3.2c1.7-0.4,3.8,0.5,4.5,2.1c0.7,1.7-0.1,3.6-1,5.1
		c-1.3,2.3-3,4.4-4.9,6.3c-0.4,0.3-0.7,0.7-0.8,1.2c-0.1,0.9,0.7,1.6,1.6,1.7c1,0.2,1.9-0.1,2.9-0.1c1,0,2.1,0.2,2.6,1.1
		c0.7,1.2-0.2,2.7-1.1,3.7c-1.8,2-4,3.7-6.4,5c-0.9,0.4-1.7,0.9-2.4,1.6c-0.6,0.7-0.9,1.9-0.4,2.7c0.6,0.8,1.7,0.9,2.7,0.6
		c0.9-0.4,1.7-0.9,2.5-1.4c1.6-0.9,3.8-1.1,5.1,0.2c0.8,0.9,1.2,2.2,0.9,3.4c-0.3,1.2-0.7,2.3-1.4,3.3c-2.2,3.6-5.3,6.6-9.1,8.6
		C313.1,233.1,309.5,234,305.4,233.1"/>
	<path class="st2" d="M306.6,228.2c0.6-4.2,1.5-8.4,2.7-12.5c0.3-1.1,0.6-2.2,0.9-3.2c0.3-1.1,0.6-2.1,0.9-3.1
		c0.7-1.9,1.4-3.9,2.3-5.7c0.8-1.8,1.7-3.4,2.5-5s1.6-3,2.3-4.3c1.2-2,2.5-3.9,4-5.7c0.5-0.6,0.9-1.1,1.2-1.4
		c0.1-0.1,0.3-0.3,0.3-0.4c0.1-0.1,0.1-0.1,0.1-0.1c0,0-0.1,0.1-0.1,0.1c-0.1,0.1-0.2,0.2-0.3,0.4c-0.3,0.3-0.7,0.8-1.2,1.5
		c-1.5,1.8-2.8,3.7-4,5.8c-0.8,1.3-1.5,2.7-2.3,4.3c-0.8,1.6-1.6,3.2-2.4,5c-0.9,1.9-1.6,3.8-2.3,5.7c-0.3,1-0.6,2.1-0.9,3.1
		c-0.3,1.1-0.6,2.1-0.9,3.2c-1.1,4.1-2,8.3-2.7,12.5"/>
	<path class="st2" d="M311.1,209.3c-0.1-0.2-0.1-0.4-0.2-0.5c-0.1-0.3-0.3-0.8-0.4-1.4c-0.4-1.2-0.8-2.9-1.2-4.7s-0.9-3.5-1.3-4.7
		c-0.2-0.6-0.3-1.1-0.4-1.4c-0.1-0.2-0.1-0.4-0.1-0.5c0.1,0.2,0.2,0.3,0.2,0.5c0.1,0.3,0.3,0.8,0.5,1.4c0.4,1.2,0.9,2.8,1.4,4.7
		c0.5,1.9,0.9,3.5,1.2,4.7c0.1,0.6,0.3,1.1,0.4,1.4C311.1,209,311.1,209.1,311.1,209.3z"/>
	<path class="st2" d="M326.5,204.1c-0.2,0.1-0.4,0.1-0.6,0.2c-0.4,0.1-1,0.2-1.7,0.4c-1.4,0.4-3.4,0.9-5.5,1.7
		c-2.1,0.7-4,1.5-5.4,2.1c-0.7,0.3-1.2,0.5-1.6,0.7c-0.2,0.1-0.4,0.2-0.6,0.2c0.2-0.1,0.3-0.2,0.5-0.3c0.4-0.2,0.9-0.5,1.6-0.8
		c1.3-0.6,3.2-1.4,5.4-2.1c1.8-0.6,3.7-1.2,5.5-1.6c0.7-0.2,1.3-0.3,1.7-0.3C326.1,204.1,326.3,204.1,326.5,204.1z"/>
	<path class="st2" d="M306.8,227.9c-0.1-0.1-0.1-0.1-0.1-0.2l-0.4-0.5c-0.3-0.5-0.7-1.1-1.2-2c-1-1.7-2.4-4.1-3.8-6.8
		c-1.4-2.7-2.8-5.1-3.7-6.8l-1.2-2c-0.1-0.2-0.2-0.4-0.3-0.5c-0.1-0.1-0.1-0.2-0.1-0.2c0.1,0.1,0.1,0.1,0.1,0.2l0.4,0.5
		c0.3,0.5,0.7,1.1,1.2,2c1,1.7,2.4,4.1,3.8,6.8c1.4,2.7,2.8,5.1,3.8,6.8c0.5,0.8,0.9,1.5,1.2,2l0.3,0.5
		C306.8,227.8,306.8,227.9,306.8,227.9z"/>
	<path class="st2" d="M326.8,218.1c0,0-0.1,0-0.2,0.1l-0.6,0.3l-2.1,1.1c-1.8,0.9-4.3,2.1-7,3.6c-2.7,1.4-5.2,2.6-7.1,3.5
		c-0.9,0.4-1.7,0.8-2.2,1l-0.6,0.3c-0.1,0.1-0.2,0.1-0.2,0.1c0.1,0,0.1-0.1,0.2-0.1l0.6-0.3l2.1-1.1c1.8-0.9,4.3-2.1,7-3.6
		c2.7-1.4,5.2-2.6,7.1-3.5c0.9-0.4,1.7-0.8,2.2-1l0.6-0.3C326.7,218.1,326.7,218.1,326.8,218.1z"/>
</g>
<g id="freepik--Flag--inject-97">
	<path class="st3" d="M89.2,11.2c0,0-6.4-2.3-10.6-0.9s-5.5,4.1-8.7,3.9c-2.6-0.1-4.4-1.2-5.4-3.9c-1-2.7-1.1-6.1-9.8-5.5
		c-6.7,0.4-7.3,1.4-7.3,1.4L47,24c3.8-0.7,7.6-1.2,11.8-0.8c2.1,0.4,3.7,2.1,4,4.2c0.6,3.8,4.5,5.2,6.9,5.1c3.4-0.1,5-2.4,7.8-3.1
		c4.4-1.1,12.2,1.8,12.2,1.8L89.2,11.2z"/>
	<path class="st4" d="M65.5,25.5c0.1,0,0.1-3,0.1-6.6s-0.1-6.6-0.2-6.6c-0.1,0-0.1,3-0.1,6.6C65.3,22.6,65.4,25.5,65.5,25.5z"/>
	<path class="st4" d="M72.3,17.6c-0.1,0,0,3.1,0.1,6.8c0.1,3.8,0.2,6.8,0.3,6.8s0-3.1-0.1-6.8C72.5,20.7,72.4,17.6,72.3,17.6z"/>
	<g class="st5">
		<path d="M72.6,28.2c0.1,1.4,0.1,3.2,0.1,3.2c-1,0.7-3,1.2-4.2,0.8h0c-1.6-0.5-2.8-1.7-3.2-3.3c-0.2-0.5-0.2-1.1-0.2-1.6
			c0.3-4.5,0.6-10.2,0.3-14.7c2,1.6,4.6,2.1,7,1.3L72.6,28.2z"/>
	</g>
	<g class="st6">
		<path class="st7" d="M72.9,14.6c0.2-0.1,0.4-0.2,0.6-0.4l1.5-1c1.7-1.1,3.5-2,5.4-2.5c2-0.4,4-0.4,5.9,0.2
			c0.8,0.3,1.6,0.5,2.3,0.9c-0.2-0.1-0.4-0.2-0.6-0.3c-0.5-0.3-1.1-0.5-1.7-0.7c-2-0.6-4-0.7-6-0.3c-2,0.5-3.8,1.4-5.5,2.6
			c-0.6,0.4-1.1,0.8-1.5,1.1C73.2,14.3,73,14.4,72.9,14.6z"/>
	</g>
	<g class="st6">
		<path class="st7" d="M57.1,5.9c0,0,0.5,0,1.2,0c2,0.2,3.7,1.3,4.7,3.1c0.4,0.7,0.5,1.1,0.5,1.1c0-0.4-0.2-0.8-0.4-1.2
			c-0.9-1.9-2.7-3.1-4.8-3.2C58,5.8,57.5,5.8,57.1,5.9z"/>
	</g>
	<polygon class="st4" points="46.8,4.3 45.9,123.1 46.7,123.3 47.9,4.4 	"/>
</g>
<g id="freepik--Characters--inject-97">
	<path class="st3" d="M288.5,219.3l2.5,7.8c0,0-7.1,5.1-6.8,6.6l15.3-4.3l-3.4-12.3L288.5,219.3z"/>
	<path class="st2" d="M295.5,225.1c0.3,0,0.6,0.3,0.6,0.6c0,0.3-0.3,0.6-0.6,0.6c-0.3,0-0.6-0.3-0.7-0.6
		C294.9,225.3,295.2,225.1,295.5,225.1"/>
	<path class="st2" d="M299.5,229.7l-0.3-1.2l-14.7,4.2c0,0-0.6,0.5-0.4,0.9L299.5,229.7z"/>
	<path class="st4" d="M290.7,227.1c0,0.1,0.4,0,0.8,0.1s0.7,0.4,0.8,0.3c0.1-0.1-0.2-0.4-0.7-0.6S290.6,227,290.7,227.1z"/>
	<path class="st4" d="M289.3,228.2c0,0.1,0.4,0.1,0.7,0.4c0.3,0.2,0.5,0.6,0.6,0.5c0,0,0-0.5-0.4-0.8S289.2,228.1,289.3,228.2z"/>
	<path class="st4" d="M288.9,230.3c0.1,0,0.1-0.4-0.2-0.8c-0.3-0.4-0.7-0.4-0.7-0.4c0,0.1,0.3,0.2,0.5,0.5
		C288.7,230.1,288.8,230.4,288.9,230.3z"/>
	<path class="st4" d="M290.3,225.2c0,0.1,0.4-0.1,0.8-0.2c0.4-0.1,0.8,0,0.8-0.1c0-0.1-0.4-0.3-0.9-0.1
		C290.5,224.8,290.3,225.2,290.3,225.2z"/>
	<path class="st3" d="M261.3,209.9l5.2,8.9c0,0-9,3.5-9.1,5.2l17.6,0.1v-1.4l-3.9-13L261.3,209.9z"/>
	<path class="st2" d="M271.9,218c0.4,0.1,0.6,0.4,0.5,0.8c-0.1,0.4-0.4,0.6-0.8,0.5c-0.4-0.1-0.6-0.5-0.5-0.9
		C271.2,218.1,271.6,217.9,271.9,218"/>
	<path class="st2" d="M275,224.1v-1.4l-16.9,0.4c0,0-0.8,0.4-0.7,0.9L275,224.1z"/>
	<path class="st4" d="M266.5,218.8c0,0.1,0.4,0.1,0.9,0.4c0.4,0.3,0.7,0.6,0.7,0.6s-0.1-0.5-0.6-0.8
		C267,218.6,266.5,218.7,266.5,218.8z"/>
	<path class="st4" d="M264.6,219.7c0,0.1,0.4,0.2,0.7,0.6c0.3,0.4,0.4,0.7,0.5,0.7s0.1-0.5-0.2-0.9S264.6,219.6,264.6,219.7z"/>
	<path class="st4" d="M263.5,221.9c0.1,0,0.2-0.4,0-0.9c-0.2-0.5-0.6-0.7-0.7-0.6c0,0.1,0.2,0.3,0.4,0.7
		C263.4,221.5,263.4,221.9,263.5,221.9z"/>
	<path class="st4" d="M265.4,216.9c0,0.1,0.4,0,0.9,0c0.5,0,0.9,0.2,0.9,0.1c0-0.1-0.3-0.4-0.9-0.4
		C265.8,216.6,265.4,216.8,265.4,216.9z"/>
	<polygon class="st8" points="292.9,139.4 293.9,153.4 299.1,154.4 300.2,138.8 	"/>
	<path class="st8" d="M291.3,165.1c0,0-0.2-3.5-0.3-4.8c0-0.4,0.1-0.9,0.3-1.3l2.6-4v-1.6l5.2,1c0,0,0.4,4,0.4,4.7
		c0,0.4-0.2,2.7-0.3,4.2c-0.1,0.8-0.7,1.4-1.5,1.5l0,0c0.2,0.7-0.3,1.4-1,1.6c-0.1,0-0.2,0-0.2,0c-0.6,0.5-1.3,0.8-2.1,0.7h-0.5
		c0,0-0.1,0.6-1,0.6s-0.6-1.2-0.6-1.2l-0.1-1.5L291.3,165.1z"/>
	<path class="st9" d="M292.4,160.8c0.2,1.6,0.2,3.2-0.2,4.8c-0.1-0.8-0.1-1.6,0-2.4C292.2,162.4,292.2,161.6,292.4,160.8z"/>
	<path class="st9" d="M294.8,162.5c0.1,0.8,0.1,1.6-0.1,2.3c-0.1,0.8-0.4,1.5-0.9,2.2c-0.1,0,0.3-1,0.6-2.2
		C294.7,163.5,294.7,162.5,294.8,162.5z"/>
	<path class="st9" d="M296.7,162.5c0.2,1.3,0.1,2.7-0.5,3.9c0-0.7,0.1-1.3,0.3-2C296.5,163.8,296.6,163.2,296.7,162.5z"/>
	<path class="st9" d="M297.8,162.1c0.2,0.5,0.2,1,0.2,1.5c0,0.5-0.1,1-0.3,1.5c-0.1-0.5-0.1-1,0-1.5
		C297.7,163.1,297.7,162.6,297.8,162.1z"/>
	<path class="st4" d="M262.4,87.6c-1.1,0.1-2-0.7-2.1-1.7c-0.1-0.9,0.4-1.7,1.2-2c-0.8-0.8-0.8-2.1,0-2.9c0.4-0.5,1.1-0.7,1.7-0.6
		c0-1.3,1.1-2.4,2.5-2.4c0.4,0,0.8,0.1,1.1,0.3c0.9-0.8,2.3-0.9,3.3-0.2c1-0.2,2.1,0.4,2.3,1.5c0.1,0.6-0.1,1.3-0.5,1.8"/>
	<path class="st8" d="M262.1,87.9c0.2-4.3,3.7-7.7,8-7.8h0.4c4.6,0.1,7.1,4.1,6.8,8.7l-0.2,15.3v0.7l-10.5,2.4l-0.1-3.9
		c0,0-4.4-0.6-4.6-5C261.7,96.3,261.9,91.9,262.1,87.9z"/>
	<path class="st9" d="M266.4,103.4c2.1-0.1,4-0.7,5.7-1.9c0,0-1.3,3.2-5.7,2.9L266.4,103.4z"/>
	<path class="st4" d="M264.1,91.3c0,0.3,0.3,0.6,0.6,0.6c0.3,0,0.6-0.2,0.6-0.6c0,0,0,0,0,0c0-0.3-0.3-0.6-0.6-0.6
		C264.4,90.7,264.1,91,264.1,91.3C264.1,91.3,264.1,91.3,264.1,91.3z"/>
	<path class="st4" d="M263.1,90c0.1,0.1,0.5-0.3,1.2-0.3c0.7,0,1.2,0.3,1.3,0.2c0.1-0.1,0-0.2-0.3-0.3c-0.3-0.2-0.7-0.3-1-0.3
		c-0.4,0-0.7,0.1-1,0.3C263.2,89.8,263.1,90,263.1,90z"/>
	<path class="st4" d="M270.6,91.7c0,0.3,0.3,0.6,0.6,0.6c0.3,0,0.6-0.2,0.6-0.6c0,0,0,0,0,0c0-0.3-0.3-0.6-0.6-0.6
		C270.9,91.1,270.6,91.3,270.6,91.7C270.6,91.7,270.6,91.7,270.6,91.7z"/>
	<path class="st4" d="M269.8,90c0.1,0.1,0.5-0.3,1.2-0.3c0.7,0,1.2,0.3,1.3,0.2c0.1-0.1,0-0.2-0.3-0.3c-0.3-0.2-0.7-0.3-1-0.3
		c-0.4,0-0.7,0.1-1,0.3C269.8,89.8,269.8,89.9,269.8,90z"/>
	<path class="st4" d="M267.5,95.1c-0.4-0.1-0.7-0.2-1.1-0.2c-0.2,0-0.3,0-0.4-0.2c0-0.2,0-0.4,0.1-0.5c0.2-0.4,0.3-0.9,0.5-1.3
		c0.4-1.1,0.8-2.3,1.1-3.5c-0.5,1.1-1,2.2-1.3,3.4c-0.2,0.5-0.3,0.9-0.5,1.3c-0.1,0.2-0.1,0.5-0.1,0.7c0.1,0.1,0.2,0.2,0.3,0.2
		c0.1,0,0.2,0,0.3,0C266.7,95.1,267.1,95.1,267.5,95.1z"/>
	<path class="st4" d="M269.5,95.5c-0.1,0-0.1,0.7-0.7,1.3c-0.6,0.5-1.4,0.5-1.4,0.6c0,0.1,0.2,0.1,0.5,0.1c0.4,0,0.8-0.2,1.2-0.4
		c0.3-0.3,0.5-0.7,0.5-1.1C269.6,95.7,269.5,95.5,269.5,95.5z"/>
	<path class="st4" d="M269.5,87.3c0.1,0.2,0.7,0.1,1.5,0.1c0.8,0.1,1.4,0.3,1.5,0.1c0.1-0.2-0.1-0.3-0.3-0.4
		c-0.7-0.4-1.6-0.5-2.4-0.2C269.7,87.1,269.5,87.2,269.5,87.3z"/>
	<path class="st4" d="M263.3,88.1c0.1,0.1,0.6,0,1.1,0c0.6,0,1,0.1,1.1-0.1c0-0.1,0-0.2-0.2-0.4c-0.3-0.2-0.6-0.2-0.9-0.2
		c-0.3,0-0.7,0.1-0.9,0.3C263.3,87.8,263.3,88,263.3,88.1z"/>
	<path class="st4" d="M262.5,85.9c0,0,1.1-2.8,2.4-3.5c1.6-0.8,2.3,0.9,3.9,0.4c1.5-0.5,3-1.3,4.7-0.1c1.8,1.2,1,2.2,1.1,4.1
		c0.7,7.9,2.2,10.1,2.5,6.4c0-0.4,1.2-0.8,1.3-2.5c0.2-2.3,0.2-5-0.4-6.6c-0.5-1.3-1.3-2.2-2.7-3.2c-2.2-1.6-5.2-1.5-7.2-1.2
		S262.2,82.4,262.5,85.9z"/>
	<path class="st8" d="M276.7,93.1c0-0.7,0.5-1.2,1.2-1.2c0,0,0,0,0,0c0.8,0.1,1.8,0.5,1.7,2.2c0,3-3,2.4-3.1,2.3
		C276.7,96.3,276.7,94.4,276.7,93.1z"/>
	<path class="st9" d="M277.3,95.3c0,0,0.1,0,0.1,0.1c0.1,0.1,0.3,0.1,0.4,0c0.4-0.3,0.6-0.7,0.6-1.2c0-0.3,0-0.5-0.1-0.8
		c-0.1-0.2-0.2-0.3-0.4-0.4c-0.1,0-0.3,0-0.3,0.1c0,0.1,0,0.1,0,0.2c0,0-0.1-0.1,0-0.2c0-0.1,0.1-0.1,0.1-0.2
		c0.1-0.1,0.2-0.1,0.3-0.1c0.2,0.1,0.4,0.2,0.5,0.5c0.1,0.3,0.2,0.6,0.2,0.8c0,0.6-0.3,1.1-0.8,1.3c-0.2,0.1-0.3,0-0.5-0.1
		C277.4,95.4,277.3,95.3,277.3,95.3z"/>
	<path class="st4" d="M276.5,87.3c-0.4,0.3-0.8,0.5-1.3,0.6c-0.5,0.1-1-0.2-1.1-0.7c0-0.2,0-0.5-0.1-0.6c-0.1-0.2-0.5-0.1-0.7-0.1
		c-0.9,0.1-1.8-0.5-2-1.3c-0.3,0.3-0.7,0.4-1.1,0.1c-0.3-0.2-0.6-0.5-0.8-0.9c-0.3-0.3-0.7-0.5-1.1-0.5c-0.2,0.1-0.4,0.1-0.7,0.2
		c-0.4,0-0.6-0.5-0.7-0.9c-0.1-0.4-0.1-0.8-0.5-1.1c-0.3-0.1-0.7-0.1-1.1,0c-0.4,0.1-0.8,0-0.9-0.4c0-0.2,0-0.4,0.1-0.5
		c0.5-0.8,1.4-1.1,2.3-0.8c0.4-1.4,1.9-2.2,3.3-1.8c0.7,0.2,1.2,0.6,1.6,1.2c1.1-1,2.7-1,3.8,0c0.2,0.2,0.4,0.5,0.6,0.8
		c1-0.3,2.1,0.3,2.4,1.3c0.1,0.5,0.1,1-0.1,1.5c0.6,0.3,1,0.8,1.1,1.4c0,0.6-0.4,1.1-1,1.1c-0.1,0-0.1,0-0.2,0
		c0.3,0.5,0.2,1.2-0.4,1.5c-0.5,0.3-1.2,0.2-1.5-0.4"/>
	<path class="st10" d="M266.6,81.4C266.6,81.4,266.6,81.4,266.6,81.4c0,0.1,0,0.1,0,0.2c0,0.2,0.1,0.4,0.2,0.6
		c0.2,0.3,0.4,0.5,0.7,0.7c0.4,0.2,0.8,0.4,1.2,0.3l-0.1-0.1c-0.1,0.3-0.1,0.6,0.1,0.8c0.1,0.3,0.3,0.5,0.5,0.7
		c0.1,0.1,0.2,0.2,0.3,0.3c0.1,0.1,0.3,0.1,0.5,0.2c0.4,0,0.7-0.1,1-0.4l-0.1,0c0.1,0.6,0.5,1.2,1,1.5c0.3,0.2,0.6,0.3,1,0.3
		c0.3,0,0.7-0.1,1-0.2l-0.1,0c0.2,0.4,0.4,0.7,0.7,0.9c0.3,0.2,0.7,0.3,1.1,0.3c0.6-0.2,1.1-0.7,1.2-1.3l-0.1,0
		c0.3,0.2,0.7,0.2,1.1,0.1c0.3-0.1,0.5-0.2,0.7-0.3c0.1-0.1,0.2-0.2,0.3-0.4c0,0,0.1-0.1,0.1-0.2c-0.1,0.2-0.3,0.4-0.4,0.5
		c-0.2,0.2-0.4,0.3-0.7,0.3c-0.3,0.1-0.7,0-1-0.1l-0.1,0v0.1c-0.1,0.6-0.6,1.1-1.2,1.2c-0.3,0.1-0.7,0-1-0.2
		c-0.3-0.2-0.5-0.5-0.7-0.9v-0.1h-0.1c-0.3,0.1-0.6,0.2-0.9,0.2c-0.3,0-0.7-0.1-0.9-0.3c-0.5-0.3-0.9-0.9-0.9-1.5l0-0.1l-0.1,0.1
		c-0.2,0.2-0.5,0.4-0.8,0.3c-0.2,0-0.3-0.1-0.4-0.1c-0.1-0.1-0.2-0.2-0.3-0.3c-0.2-0.2-0.4-0.4-0.5-0.7c-0.1-0.2-0.2-0.5-0.1-0.8
		v-0.1h-0.1c-0.4,0-0.8-0.1-1.2-0.3c-0.3-0.2-0.5-0.4-0.7-0.7C266.8,81.9,266.7,81.7,266.6,81.4z"/>
	<path class="st8" d="M249.6,134.3l-10.4-5.3l-3.6,3.8c0,0,10.1,8.5,12.6,9.1C248.1,142,251.1,139.9,249.6,134.3z"/>
	<path class="st8" d="M236.2,124l-2.5-0.5c0,0-3.8,7.5-3.2,8.8c0.6,1.3,6.8,1,6.8,1l2.1-2.8c0,0,0.2-0.6,0.2-3.1
		C239.6,125.8,236.2,124,236.2,124z"/>
	<path class="st8" d="M230.3,128.1c0,0-0.7,1.6-0.3,2.1c0,0-0.5,1.6,0.4,2.1c0,0,3.8-0.9,4-1.8l0.1-0.9c0,0,2.9,0,1.9-1.5
		c0,0,0.8-1.3,0-1.6l-1-0.2c0,0,1.2-1,0.4-1.4c-0.7-0.3-1.4-0.6-2.2-0.9l-2.9,0.5L230.3,128.1z"/>
	<path class="st9" d="M230.3,128.1c0-0.1,0-0.2,0-0.3l0.1-0.7c0.1-0.7,0.2-1.5,0.4-2.6v-0.1h0.1l2.9-0.5h0.1
		c0.6,0.2,1.2,0.4,1.8,0.7c0.2,0.1,0.3,0.1,0.5,0.2c0.1,0.1,0.2,0.2,0.2,0.3c0,0.1,0,0.2,0,0.3c-0.2,0.4-0.4,0.7-0.7,0.9l-0.1-0.2
		l1,0.2h0c0.1,0.1,0.3,0.2,0.4,0.3c0.1,0.1,0.1,0.3,0.1,0.5c0,0.3-0.1,0.6-0.3,0.8l-0.1,0.2V128c0.2,0.2,0.3,0.6,0.2,0.9
		c-0.1,0.3-0.4,0.5-0.7,0.5c-0.5,0.2-1,0.3-1.5,0.3l0.1-0.1c0,0.3-0.1,0.5-0.1,0.7c0,0.1,0,0.1,0,0.2c0,0.1,0,0.2-0.1,0.2
		c-0.1,0.1-0.2,0.2-0.3,0.3c-0.4,0.3-0.8,0.5-1.3,0.6c-0.8,0.3-1.6,0.5-2.4,0.7h0h0c-0.4-0.2-0.6-0.7-0.6-1.1c0-0.4,0-0.7,0.2-1.1
		v0.1c-0.1-0.2-0.2-0.3-0.1-0.5c0-0.1,0-0.3,0.1-0.4c0-0.2,0.1-0.4,0.2-0.7C230.1,128.4,230.2,128.3,230.3,128.1
		c-0.1,0.1-0.1,0.3-0.2,0.5c-0.1,0.2-0.1,0.4-0.2,0.7c-0.1,0.3,0,0.6,0.1,0.8l0,0v0c-0.1,0.3-0.1,0.7-0.1,1c0,0.4,0.2,0.8,0.5,1
		h-0.1c0.8-0.2,1.6-0.5,2.4-0.8c0.4-0.2,0.8-0.4,1.2-0.6c0.1-0.1,0.2-0.1,0.2-0.2c0.1-0.1,0.1-0.2,0.1-0.3c0-0.2,0.1-0.5,0.1-0.7
		v-0.1h0.1c0.5,0,1-0.1,1.4-0.3c0.2-0.1,0.4-0.2,0.5-0.4c0-0.2,0-0.4-0.2-0.6l-0.1-0.1l0-0.1c0-0.1,0.1-0.1,0.1-0.2
		c0.1-0.2,0.2-0.5,0.2-0.7c0-0.2-0.1-0.4-0.3-0.5h0l-1-0.2l-0.3-0.1l0.2-0.2c0.3-0.2,0.5-0.5,0.6-0.8c0.1-0.1,0-0.3-0.1-0.3
		c-0.1-0.1-0.3-0.2-0.4-0.2c-0.6-0.3-1.2-0.5-1.8-0.7h0.1l-2.9,0.5l0.1-0.1c-0.2,1.1-0.3,2-0.4,2.6c-0.1,0.3-0.1,0.5-0.1,0.7
		S230.3,128.1,230.3,128.1z"/>
	<path class="st9" d="M234.5,129.6c0,0.1-1,0-2.2,0.1c-0.7,0.1-1.4,0.3-2.1,0.5c0.6-0.5,1.3-0.7,2.1-0.8
		C233,129.3,233.8,129.3,234.5,129.6z"/>
	<path class="st9" d="M230.6,128.3c0.9-0.5,1.9-0.7,2.8-0.7c1-0.1,2,0.1,2.9,0.5c-1-0.1-1.9-0.2-2.9-0.2
		C231.9,128,230.7,128.4,230.6,128.3z"/>
	<path class="st9" d="M231.1,126.4c0.7-0.4,1.4-0.6,2.2-0.5c0.8-0.1,1.5,0.1,2.2,0.5c0,0.1-1-0.2-2.2-0.2
		C232.1,126.1,231.2,126.4,231.1,126.4z"/>
	<path class="st9" d="M236.2,125.3c0.4,0.3,0.8,0.6,1.2,1l0.1,0.1l-0.1,0.1c-0.3,0.4-0.4,0.9-0.6,1.3c-0.2,0.7-0.2,1.4-0.1,2.1
		c0.1,0.3,0.1,0.6,0.2,0.9c-0.2-0.2-0.3-0.5-0.4-0.8c-0.2-0.7-0.2-1.5,0-2.2c0.1-0.5,0.4-1,0.6-1.4v0.2
		C236.8,126.1,236.5,125.7,236.2,125.3z"/>
	<path class="st4" d="M280.4,156.4l-17.4,1.7l11.9,31.1l5,7.9l8.3,27.6l9.6-3.2C297.7,216.8,280.4,156.4,280.4,156.4z"/>
	<path class="st4" d="M266.5,158.1c0,0-14.8,16.8-16.1,19.3c-1.3,2.4-2.5,3.9-1.1,7.5c1.4,3.6,15.1,33.9,15.1,33.9s9.7-2.2,10.1-2.9
		c0,0-6.7-20.3-7.6-23.5c-0.8-2.7-1.9-5.3-3.2-7.9c0,0,12.1-10.6,14.2-12.9c2.1-2.3,11.3-8.3,10.9-14.6c-0.3-4.1-1.1-5.3-1.1-5.3
		L266.5,158.1z"/>
	<path class="st10" d="M266.2,158.4c-1.2,1.7-2.5,3.3-4,4.8c0.6-0.9,1.2-1.7,1.9-2.5C264.7,159.9,265.4,159.1,266.2,158.4z"/>
	<path class="st10" d="M263.8,184.4c-0.6,0-1.1-0.1-1.7-0.1c-0.9,0-1.6,0-1.7,0C261.6,183.9,262.8,183.9,263.8,184.4z"/>
	<path class="st10" d="M283.3,166.7c-0.1,0.2-0.3,0.3-0.5,0.5l-1.4,1.3c-1.2,1.1-2.8,2.5-4.5,4.2c-1.7,1.7-3.3,3.2-4.4,4.3
		c-0.6,0.5-1,1-1.4,1.3c-0.2,0.2-0.3,0.3-0.5,0.4c0.1-0.2,0.3-0.4,0.5-0.5l1.3-1.3c1.1-1.1,2.6-2.7,4.4-4.3c1.7-1.7,3.3-3.1,4.5-4.2
		c0.6-0.5,1.1-0.9,1.4-1.2C282.9,166.9,283.1,166.8,283.3,166.7z"/>
	<path class="st10" d="M283.5,192.6c-0.5,1.2-1.3,2.3-2.3,3.2c0.3-0.6,0.7-1.1,1.2-1.6C282.7,193.6,283.1,193.1,283.5,192.6z"/>
	<path class="st3" d="M258.8,110.7c-0.7,1.4-1.3,2.8-1.8,4.2c-0.4,1.1-3,9.9-3,9.9l-3.3,9.2c-0.5-0.3-1.2-0.1-1.5,0.4
		c0,0.1-0.1,0.1-0.1,0.2c-0.5,1.2-1.5,7.6-1.5,7.6c1.1,0.5,2.3,0.7,3.5,0.6c1.9-0.2,7.3-2.7,7.3-2.7l1.4-3.1l3.1-6.8l0.5-22.2
		C263.3,108.1,259.6,109.4,258.8,110.7z"/>
	<path class="st3" d="M289,139.1l-0.2-8.5l-1.4-22.8l-8.6-3l-1.2-3.5l-9.4,5.3l-2.2-2.1l-0.7,2.6l-2.1,0.9l-3.5,8.6l0.9,14.5
		c0,0,0.7,22.9,2.7,27.2c0,0,5.4-2.2,10.2-1.9c4.8,0.3,11.8-0.9,11.8-0.9s3.9-1.3,4.3,0.2"/>
	<path class="st3" d="M288.9,140.6l-0.2-8.5l-1.4-22.8l-8.6-3l-1.2-3.5l-9.4,5.3l-2.2-2.1l-0.7,2.7l-2.1,0.8l-3.5,8.6l0.9,14.5
		c0,0,0.7,22.9,2.7,27.2c0,0,5.4-2.2,10.2-1.9c4.8,0.3,11.8-0.9,11.8-0.9s3.9-1.3,4.3,0.2"/>
	<path class="st7" d="M280.3,124.6c-0.4,0.1-0.9,0.1-1.3,0H276h-3.1c-0.4,0-0.9,0-1.3,0c0.4-0.1,0.8-0.1,1.3-0.1
		c0.8-0.1,1.9-0.1,3.1-0.1c1.2,0,2.3,0,3.1,0.1C279.5,124.4,279.9,124.5,280.3,124.6z"/>
	<path class="st7" d="M280.3,126.1c-0.4,0.1-0.9,0.1-1.3,0h-3.1h-3.1c-0.4,0-0.9,0-1.3,0c0.4-0.1,0.8-0.2,1.3-0.1
		c0.8-0.1,1.9-0.1,3.1-0.1s2.3,0,3.1,0.1C279.5,125.9,279.9,126,280.3,126.1z"/>
	<path class="st7" d="M280.3,127.6c-0.4,0.1-0.9,0.1-1.3,0h-3.1h-3.1c-0.4,0-0.9,0-1.3,0c0.4-0.1,0.8-0.1,1.3-0.1
		c0.8-0.1,1.9-0.1,3.1-0.1c1.2,0,2.3,0,3.1,0.1C279.4,127.4,279.9,127.5,280.3,127.6z"/>
	<path class="st7" d="M280.3,129.1c-0.4,0.1-0.9,0.1-1.3,0h-3.1h-3.1c-0.4,0-0.9,0-1.3,0c0.4-0.1,0.8-0.2,1.3-0.1
		c0.8-0.1,1.9-0.1,3.1-0.1c1.2,0,2.3,0,3.1,0.1C279.4,129,279.9,129,280.3,129.1z"/>
	<path class="st3" d="M287.2,107.8c1.6,0.8,3,2,4,3.5c1.8,2.7,7.1,17.9,7.2,18.9l0,0l1.2,3c0.6,0.9,1,1.9,1,2.9v3.4
		c0,0-4.9-1.1-7.6,0.6c-0.8-0.7-1.2-1.8-1.1-2.9c0.1-0.5,0.3-1,0.5-1.5c0,0-1.2,0.3-1.5-0.3c-0.1-0.4-0.1-0.8,0-1.2l-4.9-7.6l-1.5-7
		C284.5,119.7,282.7,109.7,287.2,107.8z"/>
	<path class="st4" d="M268.8,156.8c0,0,0-0.1,0-0.1l-0.1-0.4c0-0.3-0.1-0.8-0.2-1.4c-0.2-1.2-0.4-2.9-0.6-5
		c-0.5-4.3-1.2-10.1-1.7-16.6c-0.2-3.1-0.3-6.1-0.3-9.2c0.1-2.8,0.4-5.4,0.7-7.5c0.3-2.1,0.6-3.8,0.8-5l0.2-1.4
		c0-0.1,0.1-0.3,0.1-0.4s0-0.1,0-0.1c0,0,0,0.1,0,0.1c0,0.1,0,0.2,0,0.4c0,0.3-0.1,0.8-0.2,1.4c-0.2,1.2-0.4,2.9-0.7,5
		s-0.5,4.6-0.6,7.5c-0.1,2.8,0.1,5.9,0.3,9.2c0.5,6.5,1.1,12.4,1.6,16.6c0.2,2.1,0.4,3.8,0.5,5c0.1,0.6,0.1,1,0.1,1.4
		c0,0.1,0,0.3,0,0.4C268.8,156.7,268.8,156.8,268.8,156.8z"/>
	<path class="st4" d="M272.1,119.4c0.2,0,0.4,0,0.6,0l1.7,0l6-0.1h0.1v0.1c0,2.8,0,6.1,0,9.6v0.1l0,0c-0.3,0.2-0.5,0.5-0.8,0.7
		c-0.5,0.4-1,0.8-1.6,1.1c-0.5,0.4-1.1,0.6-1.8,0.7c-0.6,0.1-1.3,0-1.8-0.3c-0.5-0.2-1.1-0.5-1.5-0.9c-0.2-0.2-0.5-0.3-0.7-0.5
		c-0.1-0.1-0.2-0.2-0.3-0.3c-0.1-0.1-0.1-0.3-0.2-0.4c-0.2-0.5-0.2-1-0.3-1.6c0-0.9,0-1.9,0-2.8c0.1-1.7,0.3-3.1,0.4-4
		c0.1-0.5,0.1-0.8,0.2-1.1C272,119.7,272.1,119.6,272.1,119.4c0,0.2,0,0.3,0,0.4c0,0.3-0.1,0.6-0.1,1.1c-0.1,0.9-0.3,2.3-0.4,4
		c-0.1,0.9-0.1,1.9,0,2.8c0,0.5,0.1,1,0.3,1.5c0.1,0.2,0.2,0.5,0.4,0.6c0.2,0.2,0.4,0.3,0.7,0.5c0.5,0.3,1,0.6,1.5,0.8
		c0.5,0.2,1.1,0.3,1.7,0.3c0.6-0.1,1.2-0.4,1.7-0.7c0.6-0.3,1.1-0.7,1.6-1.1c0.3-0.2,0.6-0.5,0.8-0.7l0,0.1c0-3.6,0-6.9,0-9.6
		l0.1,0.1l-6-0.1l-1.7,0h-0.4L272.1,119.4z"/>
	<path class="st3" d="M277.6,101.3c-1.3,0.6-2.6,1.3-3.7,2.1c-2.6,1.7-5.6,3.2-5.6,3.2l0.6,4.4l9.9-6"/>
	<path class="st4" d="M278.7,105.1c-0.1,0.1-0.1,0.1-0.2,0.1l-0.5,0.4l-2.1,1.3l-7.1,4.3l-0.2,0.1v-0.2c-0.1-0.6-0.2-1.2-0.2-1.8
		c-0.1-0.9-0.2-1.8-0.3-2.6v-0.1l0.1,0c2.7-1.4,5-2.8,6.7-3.8c0.8-0.5,1.5-0.9,2-1.1c0.2-0.1,0.5-0.2,0.8-0.3
		c-0.1,0-0.1,0.1-0.2,0.1l-0.5,0.3c-0.5,0.3-1.1,0.6-1.9,1.2c-1.6,1.1-3.9,2.5-6.6,3.9l0.1-0.1c0.1,0.8,0.2,1.7,0.3,2.6l0.2,1.8
		l-0.2-0.1l7.1-4.2l2.1-1.2l0.6-0.3C278.7,105.1,278.7,105.1,278.7,105.1z"/>
	<polyline class="st3" points="266,104.6 268.2,106.7 267.5,111.5 265.4,107.4 	"/>
	<path class="st4" d="M265.4,107.4c0.3,0.4,0.5,0.7,0.7,1.1c0.4,0.7,1,1.7,1.6,2.9l-0.3,0c0.1-0.5,0.2-1.1,0.2-1.6
		c0.2-1.2,0.3-2.2,0.5-3.2l0,0.1c-0.7-0.6-1.2-1.2-1.6-1.6c-0.2-0.2-0.4-0.4-0.5-0.6c0.2,0.2,0.5,0.3,0.7,0.5c0.4,0.3,1,0.9,1.6,1.5
		l0,0v0.1c-0.1,0.9-0.3,2-0.5,3.2c-0.1,0.5-0.2,1.1-0.2,1.6l-0.1,0.4l-0.2-0.4c-0.6-1.2-1.1-2.2-1.5-3
		C265.7,108.2,265.5,107.8,265.4,107.4z"/>
	<path class="st4" d="M285.8,109.3c-0.6,0.8-1.2,1.6-1.6,2.5c-0.5,1-0.8,2-1,3.1c-0.2,1.4-0.1,2.8,0.2,4.1l0,0c0.4,1,0.8,2,1.2,3.1
		c0.4,0.9,0.7,1.7,1.1,2.5s0.8,1.6,1.1,2.3c0.7,1.5,1.3,2.8,1.9,3.9c0.6,1.1,1.1,2,1.5,2.5c0.2,0.3,0.4,0.6,0.6,0.9
		c-0.1-0.1-0.1-0.1-0.2-0.2c-0.1-0.1-0.3-0.4-0.5-0.6c-0.6-0.8-1.1-1.6-1.6-2.5c-0.6-1.1-1.3-2.4-2-3.9c-0.4-0.7-0.7-1.5-1.1-2.3
		c-0.4-0.8-0.8-1.7-1.2-2.5c-0.4-1.1-0.8-2.1-1.2-3.1l0,0l0,0c-0.3-1.4-0.4-2.8-0.2-4.2c0.2-1.1,0.5-2.2,1.1-3.2
		c0.3-0.6,0.8-1.3,1.2-1.8c0.2-0.2,0.3-0.3,0.4-0.4C285.7,109.3,285.8,109.3,285.8,109.3z"/>
	<path class="st4" d="M259.2,116c0.1,0.3,0.1,0.6,0.1,0.9c0.1,0.6,0.2,1.5,0.3,2.5c0.2,2.1,0.4,5.1,0.7,8.4c0.2,3.3,0.4,6.2,0.6,8.4
		c0.1,1,0.1,1.9,0.2,2.5c0,0.3,0,0.6,0,0.9c-0.1-0.3-0.1-0.6-0.1-0.9c-0.1-0.6-0.2-1.5-0.3-2.5c-0.2-2.1-0.4-5.1-0.7-8.4
		c-0.2-3.3-0.4-6.2-0.6-8.4c-0.1-1-0.1-1.9-0.2-2.5C259.2,116.6,259.2,116.3,259.2,116z"/>
	<path class="st4" d="M280.5,121.9c-2.9,0.2-5.8,0.2-8.7,0C274.6,121.7,277.6,121.7,280.5,121.9z"/>
	<path class="st4" d="M253.1,138.8c-0.1,0-0.5-1.2-1.1-2.6c-0.2-0.6-0.5-1.2-0.9-1.7c-0.3-0.4-0.7-0.4-0.6-0.5s0.4,0,0.8,0.3
		c0.5,0.5,0.8,1.1,1.1,1.7C252.8,136.9,253,137.8,253.1,138.8z"/>
	<path class="st4" d="M255.2,137.9c0,0-0.3-0.2-0.6-0.7c-0.4-0.6-0.9-1.1-1.4-1.6c-0.5-0.5-1-0.9-1.7-1.3c-0.3-0.1-0.5-0.2-0.8-0.4
		c0.3,0,0.6,0.1,0.9,0.2c0.7,0.3,1.3,0.7,1.8,1.2c0.5,0.5,0.9,1.1,1.3,1.7C254.9,137.3,255.1,137.6,255.2,137.9z"/>
	<path class="st4" d="M298.5,135.6c-1-0.2-2.1-0.3-3.2-0.2c-1.1,0.1-2.1,0.3-3.1,0.6c0.9-0.6,2-0.9,3.1-0.9
		C296.4,134.9,297.5,135.1,298.5,135.6z"/>
	<path class="st4" d="M296.5,132.7c-1,0.1-2.1,0.3-3.1,0.5c-1,0.4-1.9,0.8-2.8,1.4C292.2,133,294.4,132.3,296.5,132.7L296.5,132.7z"
		/>
	<g class="st11">
		<path d="M271.9,129.7c0.5,0.7,1.1,1.8,1.7,2.3c0.7,0.6,1.5,1,2.5,1c0.8,0,1.6-0.3,2.2-0.8c1-0.8,1.7-1.9,2-3.1
			c0.1-0.1-1.5,1.1-2.3,1.7c-0.7,0.5-1.6,0.8-2.5,0.7C274.2,131.5,273,130.5,271.9,129.7"/>
	</g>
	<path class="st12" d="M268.2,107.2c-0.1,0.1-0.2,5.5-0.2,5.5l9.9-7.1l-9.1,5.5L268.2,107.2z"/>
	<path class="st8" d="M226.8,122.2c0.2,0.9,0.5,1.8,1,2.6c0.6,0.8,4,5.2,4,5.2s0.8,0.6,0.6-0.7c-0.2-1.3-1.6-4.8-1.6-4.8
		c0.3-0.3,0.7-0.3,1.1-0.2l2.1-0.4l-3.3-3.7L226.8,122.2z"/>
	<path class="st4" d="M192,53.5c-4.5,3.3-3,8.9-3.9,10.2c-0.4,0.5-0.7,1.1-0.8,1.7c0,0.7,0.5,1.3,0.6,2c0.1,0.9-0.7,1.7-1.2,2.6
		c-0.7,1.1-0.8,2.5-0.4,3.8c0.1,0.3,0.6,0.4,0.5,0.6c-0.8,2.8,1.8,6.7,2,6.7c4.5,0,8-5.2,12.4-5.6c1-0.1,1.7-1.8,2.5-2.4
		c1.1-0.7,1.6-2,1.9-3.2s0.7-2.5,1.1-3.7c0.3-0.8,0.4-1.6,0.5-2.4c0-1.1,0-2.3-0.1-3.4c0-1.1,0-2.1-0.1-3.2
		c-0.1-1.1-0.6-2.1-1.4-2.9"/>
	<path class="st4" d="M196.2,48.7c-3,0.6-6.1,3-7.1,5.9c-1,2.8-0.7,6.4-0.5,9.5c0.9-0.2,1.5,0.2,2.5,0.1c0.6-0.1,1.1-0.5,1.4-1.1
		c0.8-1.2,1.4-2.5,1.9-3.9c1.2-3.2,2.4-6.4,3.5-9.7"/>
	<path class="st8" d="M205.8,57.4c-0.2-4.1-3.7-7.4-7.8-7.2c-0.1,0-0.2,0-0.3,0c-4.1,0.3-7.2,3.7-7.1,7.8c0,3.5,0.1,7,0.3,8.3
		c0.7,3.8,3.1,4.9,4.1,5.2c0.4,0.1,0.7,0.1,1.1,0.1l0,0 M196.2,71.5L196,76c0.1,2.9,2.1,5.2,5.1,5.1c3,0,4.9-2.6,4.9-5.5L196.2,71.5
		z"/>
	<path class="st4" d="M191.6,60.4c0,0.3,0.3,0.6,0.6,0.6c0.3,0,0.6-0.2,0.6-0.5c0-0.3-0.3-0.6-0.6-0.6l0,0
		C191.9,59.8,191.7,60.1,191.6,60.4z"/>
	<path class="st4" d="M191.6,58.8c0.4,0,0.8,0,1.2,0.1c0.4,0.1,0.8,0.3,1.1,0.5c0,0,0-0.1-0.2-0.3c-0.3-0.2-0.6-0.4-0.9-0.5
		c-0.3-0.1-0.7-0.1-1,0C191.6,58.7,191.5,58.8,191.6,58.8z"/>
	<path class="st4" d="M198,60.4c0,0.3,0.3,0.6,0.6,0.6c0.3,0,0.6-0.2,0.6-0.5c0-0.3-0.3-0.6-0.6-0.6C198.3,59.8,198,60.1,198,60.4z"
		/>
	<path class="st4" d="M198.2,59.3c0.4-0.2,0.8-0.4,1.2-0.6c0.7-0.3,1.3-0.2,1.3-0.3c0-0.1-0.1-0.1-0.4-0.1c-0.4,0-0.7,0-1.1,0.2
		c-0.3,0.1-0.6,0.3-0.9,0.6C198.1,59.1,198.1,59.2,198.2,59.3z"/>
	<path class="st4" d="M195.9,63.8c-0.3-0.1-0.7-0.2-1.1-0.2c-0.2,0-0.3,0-0.4-0.2c0-0.2,0-0.3,0.1-0.5c0.2-0.4,0.3-0.8,0.5-1.3
		c0.5-1.1,0.8-2.2,1.1-3.4c-0.5,1-1,2.1-1.4,3.3c-0.2,0.5-0.3,0.9-0.5,1.3c-0.1,0.2-0.1,0.4-0.1,0.7c0.1,0.1,0.2,0.2,0.3,0.2
		c0.1,0,0.2,0,0.3,0C195.2,63.8,195.5,63.8,195.9,63.8z"/>
	<path class="st9" d="M196.2,71.5c0,0,2.6,0.2,5.8-1.8c0,0-1,3.4-5.8,3L196.2,71.5z"/>
	<path class="st9" d="M196.2,65.3c0.3-0.3,0.7-0.5,1.1-0.5c0.3,0,0.6,0.2,0.8,0.4c0.2,0.2,0.2,0.5,0.1,0.8c-0.2,0.2-0.6,0.3-0.9,0.2
		c-0.3-0.1-0.6-0.3-0.9-0.5c-0.1-0.1-0.1-0.1-0.2-0.2C196.1,65.5,196.1,65.4,196.2,65.3"/>
	<path class="st4" d="M198.1,56.8c0.1,0.2,0.7,0,1.5,0s1.4,0.1,1.5-0.1c0-0.1-0.1-0.2-0.4-0.4c-0.4-0.2-0.8-0.2-1.2-0.2
		c-0.4,0-0.8,0.1-1.2,0.3C198.1,56.5,198,56.7,198.1,56.8z"/>
	<path class="st4" d="M191.7,56.6c0.1,0.1,0.6,0,1.1,0c0.6,0,1,0.1,1.1-0.1c0-0.1,0-0.2-0.2-0.4c-0.3-0.2-0.6-0.2-0.9-0.2
		c-0.3,0-0.6,0.1-0.9,0.3C191.7,56.4,191.6,56.6,191.7,56.6z"/>
	<path class="st4" d="M196.1,48.4c-0.7,2,0.2,4.2,2.2,5.1c0.8,0.4,1.9,0.6,2.3,1.4c0.4,0.6,0.2,1.5,0.7,2s1.2,0.6,1.7,1
		c0.7,0.6,1.2,1.4,1.3,2.4c0.1,0.9,0.2,1.8,0.3,2.7c0.2,0.9,0.8,1.7,1.7,2c0.4-2.6,0.8-5.3,0.5-8s-1.3-5.3-3.3-7.1
		S198.6,47.3,196.1,48.4"/>
	<path class="st4" d="M205.9,74.6c-1.6-0.3-2.8-1.6-3-3.3c-0.1-1.5,0-3.2-0.3-4.1c-0.5-1.5-1.2-1.3-1.3-2.9s0.9-3.2,0.7-4.7
		s-0.7-1.1-1.4-3.2c-0.7-2.2-2-2.7-2-2.7l0.7-5.4l-0.5-0.3c3.2-0.1,6.9,1.9,8.2,4.9c0.6,1.5,0.9,3.2,2,4.4c0.7,0.7,1.7,1.2,2.3,2
		c1.3,1.8,0.1,4.4,0.9,6.4c0.4,0.9,1.2,1.5,1.7,2.4c2.6,4.3,0.4,7.5,0.4,7.5L205.9,74.6z"/>
	<path class="st4" d="M187.9,64.9c0.3-0.6,0.7-1.2,0.5-1.9c-0.2-0.4-0.4-0.9-0.6-1.3c-0.2-0.6-0.2-1.2,0.1-1.7
		c0.2-0.6,0.5-1.1,0.6-1.7c0.1-0.5,0.2-0.9,0.3-1.4c0.1-0.5,0.5-0.8,0.9-1c0.4,2.1-0.3,4.2-0.3,6.4c0,0.5,0,0.9-0.1,1.4
		c-0.2,0.5-0.6,0.7-1.1,0.7"/>
	<path class="st10" d="M210.5,74.8c0,0,0.1-0.1,0.1-0.3c0.1-0.3,0.1-0.6,0.1-0.9c-0.1-0.5-0.2-1-0.4-1.4c-0.3-0.6-0.7-1.1-1.1-1.6
		c-0.5-0.6-0.9-1.4-1-2.2c-0.1-0.9-0.1-1.8-0.1-2.8c0-0.5,0-1-0.2-1.5c-0.1-0.5-0.4-0.9-0.7-1.3c-0.4-0.4-0.8-0.7-1.2-1.1
		c-0.4-0.4-0.7-0.9-0.9-1.4c-0.3-1.1-0.2-2.2-0.3-3.3c-0.1-1-0.5-2-1.1-2.8c-0.5-0.7-1.2-1.4-2-1.8c-0.7-0.4-1.4-0.7-2.2-1
		c-0.6-0.2-1.2-0.6-1.8-0.9c-0.4-0.3-0.8-0.7-1.1-1.1c-0.2-0.3-0.3-0.6-0.4-0.9c0-0.1-0.1-0.2-0.1-0.3c0,0,0,0.1,0.1,0.3
		c0.1,0.3,0.2,0.6,0.4,0.8c0.3,0.4,0.7,0.7,1.1,1c0.5,0.4,1.1,0.7,1.7,0.9c0.8,0.3,1.5,0.6,2.2,1c1.8,1,2.9,2.7,3.2,4.7
		c0.1,1.1,0,2.2,0.3,3.2c0.2,0.5,0.4,1,0.9,1.3c0.4,0.4,0.8,0.7,1.2,1.1c0.4,0.4,0.6,0.9,0.8,1.4c0.1,0.5,0.2,1,0.2,1.5
		c-0.1,0.9,0,1.8,0.1,2.7c0.2,0.8,0.5,1.5,1,2.1c0.4,0.5,0.8,1.1,1.1,1.7c0.2,0.5,0.4,0.9,0.4,1.4c0,0.3,0,0.6-0.1,0.9
		C210.7,74.6,210.6,74.7,210.5,74.8z"/>
	<path class="st4" d="M197.6,64.3c0,0,0.1,0.1,0.1,0.4c-0.1,0.7-0.5,1.3-1.2,1.5c-0.2,0.1-0.4,0.1-0.4,0c0,0,0.6-0.2,1-0.8
		C197.4,65.1,197.5,64.7,197.6,64.3z"/>
	<path class="st4" d="M213.3,74.3c0.4-0.2,0.9-0.4,1.2-0.7c0.4-0.4,0.8-0.8,1-1.3c0.3-0.7,0.4-1.4,0.3-2.1c-0.1-0.9-0.5-1.7-1.2-2.3
		c-0.7-0.7-1.7-1.1-2.3-2.1c-0.3-0.5-0.5-1.1-0.5-1.6c0-0.6,0-1.2,0.1-1.8c0.1-0.6,0.1-1.2,0-1.8c-0.1-0.6-0.4-1.1-0.8-1.6
		c-0.4-0.5-0.9-0.8-1.4-1.3c-0.4-0.4-0.8-0.9-1.1-1.5c-0.6-1.1-0.9-2.2-1.3-3.2c-0.3-1-0.9-1.8-1.7-2.5c-0.7-0.6-1.5-1-2.3-1.3
		c-1.2-0.4-2.5-0.7-3.8-0.8l-1.1-0.1c-0.1,0-0.2,0-0.4-0.1c0.1,0,0.2,0,0.4,0c0.2,0,0.6,0,1.1,0c1.3,0.1,2.6,0.3,3.9,0.7
		c0.9,0.3,1.7,0.8,2.4,1.3c0.8,0.7,1.4,1.6,1.8,2.6c0.4,1,0.7,2.1,1.3,3.2c0.3,0.5,0.6,1,1.1,1.4c0.4,0.4,0.9,0.8,1.4,1.3
		c0.2,0.2,0.4,0.5,0.6,0.8c0.2,0.3,0.3,0.6,0.3,0.9c0.1,0.6,0.1,1.2,0,1.8c-0.1,0.6-0.1,1.2-0.1,1.7c0,0.5,0.2,1.1,0.4,1.5
		c0.6,0.9,1.6,1.4,2.3,2.1c0.7,0.6,1.1,1.5,1.2,2.4c0.1,0.8,0,1.5-0.4,2.2c-0.3,0.5-0.6,0.9-1.1,1.3c-0.3,0.2-0.6,0.4-0.9,0.5
		l-0.3,0.1L213.3,74.3z"/>
	<path class="st3" d="M185.9,171.6l2.5,7.8c0,0-7.1,5.1-6.8,6.6l15.3-4.3l-3.4-12.3L185.9,171.6z"/>
	<path class="st2" d="M192.9,177.4c0.3,0,0.6,0.3,0.6,0.6c0,0.3-0.3,0.6-0.6,0.6c-0.4,0-0.6-0.3-0.7-0.6
		C192.3,177.7,192.6,177.4,192.9,177.4"/>
	<path class="st2" d="M197,182.1l-0.3-1.2l-14.7,4.2c0,0-0.6,0.5-0.4,0.9L197,182.1z"/>
	<path class="st4" d="M188.1,179.4c0,0.1,0.4,0,0.8,0.1s0.7,0.4,0.8,0.3c0.1,0-0.2-0.4-0.7-0.6C188.5,179.1,188,179.3,188.1,179.4z"
		/>
	<path class="st4" d="M186.6,180.5c0,0.1,0.4,0.1,0.7,0.4s0.5,0.5,0.6,0.5s0-0.5-0.4-0.8S186.6,180.4,186.6,180.5z"/>
	<path class="st4" d="M186.3,182.7c0.1,0,0.1-0.4-0.2-0.8c-0.3-0.4-0.7-0.4-0.7-0.3c0,0.1,0.3,0.2,0.5,0.5
		C186.1,182.4,186.2,182.7,186.3,182.7z"/>
	<path class="st4" d="M187.7,177.6c0.1,0.1,0.4-0.1,0.8-0.2c0.4-0.1,0.8,0,0.8-0.1c0-0.1-0.4-0.3-0.9-0.1S187.6,177.5,187.7,177.6z"
		/>
	<path class="st3" d="M210.3,180l5.2,8.9c0,0-9,3.5-9.1,5.2l17.6,0.1v-1.4l-3.9-13L210.3,180z"/>
	<path class="st2" d="M220.9,188.1c0.4,0.1,0.6,0.5,0.5,0.8c-0.1,0.4-0.4,0.6-0.8,0.5c-0.4-0.1-0.6-0.5-0.5-0.9
		C220.2,188.3,220.6,188.1,220.9,188.1"/>
	<path class="st2" d="M223.9,194.3v-1.4l-16.9,0.4c0,0-0.8,0.4-0.7,0.9L223.9,194.3z"/>
	<path class="st4" d="M215.5,188.9c0,0.1,0.4,0.1,0.9,0.4s0.7,0.6,0.7,0.6s-0.1-0.5-0.6-0.8S215.5,188.8,215.5,188.9z"/>
	<path class="st4" d="M213.5,189.8c0,0.1,0.4,0.2,0.7,0.6c0.3,0.4,0.4,0.7,0.5,0.7c0.1,0,0.1-0.5-0.2-0.9
		C214,189.7,213.5,189.7,213.5,189.8z"/>
	<path class="st4" d="M212.5,192.1c0.1,0,0.2-0.4,0-0.9s-0.6-0.6-0.7-0.6c0,0.1,0.2,0.3,0.4,0.7C212.4,191.7,212.4,192,212.5,192.1z
		"/>
	<path class="st4" d="M214.4,187c0,0.1,0.4,0,0.9,0s0.9,0.2,0.9,0.1c0-0.1-0.3-0.4-0.9-0.4C214.7,186.7,214.3,187,214.4,187z"/>
	<path class="st8" d="M222.4,110.6l4.4,11.7l4-1.8l-3.2-10.7C227.6,109.7,224.3,109.1,222.4,110.6z"/>
	<path class="st8" d="M163,91.4c0,0-1.9-0.3-2.9-1l-5.7-4.3c0,0-0.7-0.8,0.8-0.7s5.2,1.6,5.2,1.6v-1.4l0.5-2.2l4.6,4L163,91.4z"/>
	<path class="st8" d="M175.3,104.2L163,91.4l1.8-4.4l12.9,9.6C177.8,96.7,176.9,102.1,175.3,104.2z"/>
	<path class="st9" d="M230.7,120.2c0.2,0.2,0.4,0.4,0.7,0.7c0.4,0.5,1,1.1,1.7,1.9c0.2,0.2,0.4,0.4,0.6,0.6c0.1,0.2,0.1,0.4,0,0.5
		c-0.1,0.2-0.2,0.3-0.4,0.3l-0.9,0.2l-0.2,0c-0.1,0-0.2,0-0.3,0c-0.1,0-0.3,0-0.4,0c-0.1,0-0.1,0.1-0.2,0.1c-0.1,0-0.1,0.1-0.1,0.1
		c0,0,0,0,0,0.1l0,0.1l0.1,0.3c0.1,0.3,0.3,0.7,0.4,1.1c0.3,0.7,0.5,1.5,0.8,2.3c0.1,0.4,0.2,0.8,0.2,1.2c0,0.2,0,0.5-0.1,0.7
		c-0.1,0.1-0.3,0.1-0.4,0.1c-0.1,0-0.2-0.1-0.3-0.1l0,0l0,0c-1.6-2.1-3.1-4-4.1-5.3c-0.3-0.6-0.6-1.2-0.7-1.9
		c-0.1-0.2-0.1-0.5-0.1-0.7c0.1,0.2,0.1,0.5,0.2,0.7c0.2,0.6,0.4,1.2,0.8,1.8l4.1,5.3l0,0c0.1,0.1,0.3,0.1,0.3,0.1
		c0.1-0.1,0.1-0.3,0.1-0.5c0-0.4-0.1-0.8-0.2-1.1c-0.2-0.8-0.5-1.5-0.7-2.2l-0.4-1.1l-0.1-0.3l0-0.1c0-0.1,0-0.1,0-0.2
		c0-0.1,0.1-0.2,0.2-0.3c0.1,0,0.2-0.1,0.3-0.1c0.2-0.1,0.4-0.1,0.6,0c0.1,0,0.1,0,0.2,0l0.2,0l0.9-0.2c0.2,0,0.3-0.2,0.3-0.4
		c0-0.1,0-0.1-0.1-0.2c-0.2-0.2-0.4-0.4-0.5-0.6l-1.6-1.9C231.1,120.7,230.9,120.5,230.7,120.2z"/>
	<path class="st3" d="M193.1,76.2c-0.3,0.1-3.1,2-3.9,3.6c-0.5,0.9-0.8,6.5-0.8,6.5s-1.7,3.6-1.2,6l0.6,2.5c0,0,0.5,10.7,1.3,13.2
		c0.5,1.6,1.4,3,2.7,4.1c0,0,7.7-4.9,11.7-5.8c2.4-0.5,4.9-0.6,7.3-0.2c1.2-0.7,2.2-1.7,2.9-3c0.9-1.8,1.2-7.6,1.2-7.6L213.4,75
		l-7.2-2l-2.7-2.9l-4.4,3.2l-2.2,5.4l-0.9-4.8l-2,2L193.1,76.2z"/>
	<path class="st3" d="M194.3,110.3c-0.1-0.1-0.1-0.2-0.2-0.3c-0.2-0.3-0.3-0.5-0.4-0.8c-0.4-1.1-0.7-2.2-0.8-3.3
		c-0.2-1.7-0.2-3.4-0.1-5c0.1-1.9,0.3-4,0.5-6.1c0.4-3.7,1.1-7.4,1.9-11c0.3-1.4,0.6-2.5,0.8-3.3c0.1-0.4,0.2-0.7,0.3-0.9
		c0-0.1,0.1-0.2,0.1-0.3c0,0.1,0,0.2-0.1,0.3c-0.1,0.2-0.1,0.5-0.2,0.9c-0.2,0.8-0.5,1.9-0.8,3.3c-0.8,3.6-1.4,7.3-1.8,11
		c-0.2,2.1-0.4,4.2-0.5,6.1c-0.1,1.7-0.1,3.3,0,5c0.1,1.1,0.4,2.2,0.7,3.3C194.1,109.9,194.3,110.3,194.3,110.3z"/>
	<path class="st3" d="M209.8,87c0.1,0.2,10.5,20.4,10.5,20.4s0.5,3,1.6,3.6s6.5-1.6,6.5-1.6s-0.3-3.7-1.2-5.4
		c-0.9-1.7-11.4-26.7-11.5-27c-0.2-0.3-1.7-2.1-3.2-2.1C211,75,209.8,87,209.8,87z"/>
	<path class="st3" d="M197.8,83.3c0.1,0,0.1-0.1,0.2-0.1c0.2-0.1,0.4-0.1,0.6-0.1c0.8-0.1,1.6-0.2,2.4-0.1c2.7,0.2,5.4,0.8,7.9,1.8
		l0.1,0.1L209,85c-0.4,0.9-0.7,1.9-0.8,2.9V88v0.1H208c-2.3,0.2-4.6,0-6.8-0.6c-1.6-0.4-3.2-1.1-4.6-2l-0.1,0l0-0.1
		c0.4-0.7,0.7-1.2,0.9-1.6C197.6,83.7,197.7,83.5,197.8,83.3c0,0.2-0.1,0.4-0.2,0.6c-0.2,0.4-0.5,1-0.8,1.7l0-0.1
		c1.4,0.8,3,1.5,4.6,1.9c2.2,0.6,4.4,0.8,6.7,0.5l-0.1,0.1v-0.1c0.1-1,0.4-2.1,0.9-3l0.1,0.2c-2.5-1.1-5.1-1.7-7.8-1.9
		c-0.8,0-1.6,0-2.4,0.1C198.4,83.2,198.1,83.3,197.8,83.3z"/>
	<path class="st3" d="M188.4,85c0.1-0.1,0.3-0.2,0.5-0.2c0.4-0.1,0.9-0.3,1.3-0.4c0.7-0.1,1.3-0.2,2-0.2c0.2,0,0.4,0,0.6,0
		c0.3,0.1,0.4,0.3,0.5,0.5c0.1,0.5-0.1,0.9,0.1,1.2c0,0,0,0.1,0.1,0.1l0.1,0.2l-0.2,0.1c-1.4,0.6-2.8,1.2-4.2,2h0h0
		c-0.5-0.1-1-0.3-1.4-0.5c0.5,0.1,1,0.2,1.5,0.3H189c1.3-0.8,2.7-1.5,4.2-2.1l0,0.2c0,0-0.1-0.1-0.1-0.1c-0.1-0.2-0.1-0.5-0.1-0.7
		c0-0.2,0-0.4,0-0.6c0-0.2-0.1-0.3-0.3-0.3c-0.2,0-0.4,0-0.5,0c-0.7,0-1.3,0.1-2,0.2C189,84.8,188.4,85,188.4,85z"/>
	<path class="st3" d="M189.1,79.8c0,0-1.6,2.8-2.1,4.5s-4.6,12.2-4.6,12.2s-1.7-1-2.1,0.9l-2.7-1l-2.9,8.2c0,0,6.7,3.4,7.6,3.2
		c0.9-0.2,6.3-1.8,6.3-1.8c0.5-1.1,0.9-2.3,1.2-3.5c0.4-1.6,2.4-20.6,2.4-20.6L189.1,79.8z"/>
	<path class="st7" d="M187.5,93.2c-0.1,0.1-0.2,0.1-0.3,0.1c-0.3,0-0.7,0-1-0.1c-0.5-0.2-0.9-0.5-1.1-1c-0.1-0.3-0.1-0.6,0-0.9
		c0.1-0.3,0.5-0.6,0.8-0.5c0.4,0,0.7,0.3,0.8,0.6c0.1,0.3-0.1,0.7-0.3,0.9c-0.2,0.2-0.5,0.2-0.8,0.2c-0.2,0-0.5-0.1-0.6-0.3
		c-0.3-0.2-0.4-0.6-0.3-0.9c0-0.2,0.1-0.3,0.1-0.3s0,0.1,0,0.3c0,0.3,0.1,0.6,0.4,0.8c0.3,0.3,0.8,0.3,1.1,0.1
		c0.2-0.1,0.3-0.4,0.2-0.6c-0.1-0.2-0.3-0.4-0.5-0.4c-0.2,0-0.5,0.1-0.5,0.4c-0.1,0.2-0.1,0.5,0,0.7c0.2,0.4,0.5,0.7,0.9,0.9
		C186.7,93.1,187.1,93.2,187.5,93.2z"/>
	<path class="st4" d="M191,111.4c-0.1,0-0.2-0.1-0.3-0.2c-0.2-0.2-0.4-0.4-0.6-0.7c-0.6-0.9-1-1.9-1.3-3c-0.1-0.3-0.2-0.7-0.2-1.1
		c0-0.4-0.1-0.8-0.1-1.2c-0.1-0.8-0.1-1.7-0.2-2.5c-0.2-1.8-0.4-3.8-0.7-5.8c-0.3-1.9-0.3-3.9-0.3-5.9c0-1.6,0.2-3.2,0.5-4.8
		c0.2-1.1,0.5-2.1,0.8-3.1c0.1-0.3,0.2-0.5,0.4-0.8c0-0.1,0.1-0.2,0.1-0.3c0,0-0.2,0.4-0.4,1.1c-0.3,1-0.6,2.1-0.8,3.1
		c-0.3,1.6-0.4,3.2-0.4,4.8c-0.1,2,0,3.9,0.3,5.9c0.3,2.1,0.5,4,0.7,5.8c0.1,0.9,0.2,1.8,0.2,2.6c0,0.4,0,0.8,0.1,1.2
		c0,0.3,0.1,0.7,0.2,1c0.3,1,0.7,2,1.2,3C190.5,110.8,190.7,111.1,191,111.4z"/>
	<path class="st4" d="M213.4,75.2c-0.4,0.1-0.7,0.1-1.1,0.1c-0.8,0.1-1.7,0.3-2.4,0.7c-0.8,0.4-1.4,1-2,1.6
		c-0.4,0.5-0.7,0.8-0.7,0.8c0.1-0.3,0.3-0.7,0.5-0.9c0.5-0.7,1.2-1.3,2-1.7c0.8-0.4,1.7-0.7,2.5-0.7
		C212.7,75.1,213.1,75.1,213.4,75.2z"/>
	<path class="st4" d="M194.2,76.1c0-0.1,0.5-0.3,1.2-0.9l0.1-0.1l0.1,0.2l0.4,1.2c0.3,0.8,0.6,1.7,0.9,2.5c-0.5-0.8-0.9-1.6-1.1-2.5
		c-0.1-0.4-0.3-0.8-0.3-1.2l0.2,0.1C195.1,75.8,194.7,76,194.2,76.1z"/>
	<path class="st4" d="M182.3,102.6c-0.1,0-0.3-1.2-0.8-2.7c-0.2-0.6-0.4-1.2-0.7-1.8c-0.1-0.2-0.3-0.5-0.4-0.7c0,0,0.3,0.2,0.5,0.7
		c0.3,0.6,0.6,1.2,0.8,1.9C182.3,101.3,182.4,102.6,182.3,102.6z"/>
	<path class="st4" d="M185,100.1c-0.1,0-0.4-0.9-1.1-1.9c-0.7-1-1.5-1.6-1.5-1.7C183.7,97.3,184.7,98.6,185,100.1L185,100.1z"/>
	<g class="st11">
		<path d="M187.9,86.4c-0.8,3.2-1.5,6.2-1.6,9.4c-0.1,3.4,0.7,6.7,2.3,9.6c-0.1-1.5-0.3-3.2-0.5-4.7
			C187.4,94.8,187.3,91.1,187.9,86.4"/>
	</g>
	<g class="st11">
		<path d="M180.5,97.3c0.7,0.6,1.2,1.4,1.8,2.1c0.5,0.8,0.8,1.7,0.7,2.6c0,0.1,0,0.3-0.1,0.4c-0.1,0.1-0.2,0.1-0.3,0.1
			c-0.1-0.1-0.1-0.2-0.1-0.3C181.9,100.5,181.3,98.9,180.5,97.3"/>
	</g>
	<g class="st11">
		<path d="M220.3,107.4c0.8-0.6,1.7-1,2.6-1.3c1-0.2,2.1-0.3,3.1-0.3c0.2,0,0.3,0,0.4-0.1c0.1-0.1,0.2-0.2,0.2-0.4
			c-0.1-0.2-0.3-0.3-0.5-0.3C223.9,104.7,221.7,105.6,220.3,107.4"/>
	</g>
	<path class="st4" d="M227,105.9c0,0.1-1.6-0.3-3.5,0.1c-1.1,0.3-2.2,0.7-3.2,1.4c0.2-0.3,0.5-0.5,0.8-0.7c0.7-0.5,1.5-0.8,2.3-1
		c0.8-0.2,1.7-0.2,2.5-0.1C226.3,105.7,226.6,105.8,227,105.9z"/>
	<path class="st7" d="M194.2,94.6c-0.1,0.1-0.1,0.1-0.2,0.1c-0.2,0.1-0.4,0.2-0.6,0.3c-0.4,0.1-0.7,0.1-1.1,0
		c-0.5-0.1-0.9-0.3-1.2-0.6c-0.4-0.4-0.6-1-0.7-1.5c0-0.7,0.2-1.3,0.6-1.8c0.1-0.1,0.3-0.3,0.4-0.3c0.2-0.1,0.4-0.1,0.6-0.1
		c0.2,0.1,0.4,0.3,0.4,0.5c0,0.2-0.1,0.4-0.2,0.6c-0.3,0.3-0.6,0.5-1,0.5c-0.4,0.1-0.8,0.1-1.2,0c-0.8-0.2-1.4-0.6-1.9-1.3
		c-0.4-0.6-0.5-1.4-0.2-2.1c0.2-0.3,0.4-0.6,0.8-0.7c0.3-0.1,0.7-0.1,1,0.1c0.5,0.3,0.8,0.9,0.6,1.5c-0.1,0.5-0.4,0.9-0.7,1.2
		c-0.3,0.2-0.6,0.4-0.9,0.5c-0.2,0.1-0.4,0.2-0.6,0.3c-0.1,0.1-0.2,0.1-0.2,0.1c0,0,0.3-0.1,0.8-0.4c0.3-0.2,0.6-0.4,0.8-0.6
		c0.3-0.3,0.5-0.7,0.6-1.1c0.1-0.5-0.1-1-0.5-1.3c-0.2-0.1-0.5-0.2-0.8-0.1c-0.3,0.1-0.5,0.3-0.6,0.6c-0.2,0.6-0.1,1.3,0.2,1.8
		c0.4,0.6,1,1,1.7,1.2c0.4,0.1,0.7,0.1,1.1,0c0.3-0.1,0.6-0.2,0.9-0.4c0.2-0.2,0.2-0.6-0.1-0.7c-0.3,0-0.6,0.1-0.8,0.3
		c-0.4,0.4-0.6,1-0.6,1.6c0,0.5,0.2,1,0.6,1.4c0.6,0.5,1.3,0.8,2.1,0.6C193.6,94.8,193.9,94.7,194.2,94.6z"/>
	<path class="st7" d="M210.8,88.8c-0.6,0.3-1.2,0.7-1.7,1.1c-0.6,0.5-1.1,1.2-1.4,1.9c-0.2,0.4-0.4,0.9-0.5,1.4
		c-0.1,0.5-0.1,1.1,0,1.6c0.1,0.3,0.3,0.5,0.6,0.5c0.3,0,0.6-0.1,0.7-0.3c0.3-0.6,0.4-1.2,0.4-1.9c-0.1-2.1-1.9-3.6-4-3.5
		c-1.1,0.1-2.1,0.6-2.7,1.4c-0.3,0.3-0.5,0.7-0.6,1.1c-0.1,0.2-0.1,0.4-0.1,0.6c0,0.2,0.1,0.4,0.2,0.5c0.3,0.3,0.7,0.4,1.1,0.2
		c0.3-0.2,0.6-0.6,0.7-1c0.3-0.8,0.3-1.7,0.1-2.5c-0.2-0.8-0.7-1.5-1.3-2.1c-0.6-0.6-1.3-1-2.1-1.1c-0.8-0.1-1.6,0-2.2,0.4
		c-0.7,0.4-1.1,0.9-1.4,1.6c-0.2,0.7-0.1,1.4,0.3,2c0.4,0.5,1,0.8,1.7,0.6c0.6-0.1,1-0.7,1-1.3c0-0.5-0.2-1.1-0.6-1.4
		c-0.4-0.3-0.9-0.5-1.4-0.4c-0.8,0-1.6,0.4-2.1,0.9c-0.3,0.4-0.6,0.8-0.8,1.3l-0.2,0.3c0,0,0,0.1-0.1,0.1c0,0,0,0,0-0.1
		c0-0.1,0.1-0.2,0.2-0.4c0.2-0.5,0.5-0.9,0.8-1.3c0.6-0.6,1.4-1,2.2-1c0.5,0,1,0.1,1.5,0.5c0.5,0.4,0.8,0.9,0.7,1.5
		c0,0.3-0.1,0.6-0.3,0.9c-0.2,0.3-0.5,0.5-0.8,0.5c-0.7,0.2-1.5-0.1-1.9-0.7c-0.4-0.6-0.5-1.4-0.3-2.2c0.3-0.8,0.8-1.4,1.5-1.8
		c0.7-0.4,1.6-0.6,2.4-0.4c0.9,0.2,1.6,0.6,2.3,1.2c0.7,0.6,1.1,1.4,1.4,2.2c0.3,0.9,0.3,1.8-0.1,2.7c-0.1,0.2-0.2,0.4-0.3,0.6
		c-0.1,0.2-0.3,0.4-0.5,0.5c-0.5,0.2-1,0.1-1.4-0.2c-0.2-0.2-0.3-0.4-0.3-0.7c0-0.2,0-0.5,0.1-0.7c0.1-0.4,0.4-0.8,0.6-1.2
		c0.5-0.7,1.3-1.2,2.1-1.4c0.8-0.2,1.7-0.2,2.4,0.1c0.7,0.3,1.4,0.8,1.8,1.4c0.4,0.6,0.7,1.3,0.8,2.1c0.1,0.7-0.1,1.4-0.4,2
		c-0.2,0.3-0.6,0.4-0.9,0.4c-0.2,0-0.3-0.1-0.5-0.2c-0.1-0.1-0.2-0.3-0.3-0.4c-0.1-0.3-0.1-0.6-0.1-0.9c0-0.3,0.1-0.6,0.1-0.8
		c0.1-0.5,0.3-1,0.5-1.4c0.4-0.7,0.9-1.4,1.5-1.9c0.4-0.3,0.8-0.6,1.3-0.8c0.1-0.1,0.2-0.1,0.4-0.1L210.8,88.8z"/>
	<path class="st7" d="M220,87.5c0,0.1,0,0.2-0.1,0.3c-0.1,0.3-0.3,0.6-0.5,0.8c-0.9,0.9-2.3,1-3.2,0.2c-0.7-0.5-1.1-1.2-1.3-2
		c-0.2-0.9,0-1.9,0.4-2.7c0.2-0.5,0.6-0.9,1.1-1.1c0.3-0.1,0.6-0.1,0.9,0.1c0.2,0.2,0.4,0.5,0.4,0.8c-0.1,0.6-0.4,1.1-0.9,1.4
		c-0.5,0.3-1,0.5-1.6,0.6c-1.1,0.2-2.2,0-3.2-0.6c-0.5-0.3-0.8-0.7-1.1-1.1c-0.3-0.5-0.4-1-0.3-1.5c0.1-0.5,0.6-0.9,1.1-1
		c0.5-0.1,1,0,1.3,0.4c0.3,0.3,0.5,0.7,0.6,1.2c0,0.4,0,0.8-0.2,1.2c-0.3,0.6-0.8,1.1-1.5,1.3c-0.5,0.2-1,0.3-1.5,0.3
		c-0.3,0-0.6,0-0.9,0c-0.1,0-0.2,0-0.3-0.1c0,0,0.5,0,1.3,0c0.5,0,1-0.1,1.4-0.3c0.6-0.3,1.1-0.7,1.3-1.3c0.3-0.7,0.2-1.5-0.4-2.1
		c-0.3-0.3-0.7-0.4-1.1-0.3c-0.4,0.1-0.8,0.4-0.9,0.8c-0.1,0.5,0,0.9,0.2,1.3c0.2,0.4,0.6,0.8,1,1.1c0.9,0.6,2,0.8,3,0.6
		c0.5-0.1,1-0.3,1.5-0.6c0.4-0.2,0.7-0.6,0.8-1.1c0-0.2-0.1-0.4-0.3-0.6c-0.2-0.1-0.4-0.1-0.6-0.1c-0.4,0.2-0.8,0.5-0.9,1
		c-0.4,0.8-0.6,1.7-0.4,2.6c0.1,0.8,0.6,1.4,1.2,1.9c0.5,0.4,1.1,0.6,1.8,0.5c0.5-0.1,0.9-0.3,1.3-0.6
		C219.7,88.2,219.9,87.9,220,87.5z"/>
	<g class="st11">
		<path d="M207.5,82.8c0.4,2.7,0.8,5.4,1.8,7.9c1,2.5,2.7,4.9,5.1,6.1c-2.1-4.7-4.3-9.3-6.7-13.9"/>
	</g>
	<path class="st4" d="M214.9,97.3c-0.1-0.2-0.2-0.3-0.3-0.5l-0.8-1.6c-0.7-1.3-1.6-3.2-2.7-5.2c-1-2-1.9-3.9-2.6-5.3l-0.8-1.6
		c-0.1-0.2-0.2-0.4-0.2-0.6c0.1,0.2,0.3,0.3,0.3,0.5l0.8,1.6c0.7,1.3,1.6,3.2,2.7,5.2c1,2,1.9,3.9,2.6,5.3l0.8,1.6
		C214.8,96.9,214.9,97.1,214.9,97.3z"/>
	<path class="st4" d="M206.4,73.3c-0.1,0.1-0.2,0.2-0.4,0.3c-0.3,0.2-0.6,0.4-1.1,0.8c-0.4,0.4-0.9,0.9-1.5,1.4
		c-0.7,0.6-1.4,1.2-2.2,1.7l-0.1,0l0-0.1c-0.6-1.2-1.2-2.6-2-4h0.2c-1.3,3.4-3.2,7.4-4.2,11.9c-0.6,3-0.9,6.1-0.7,9.2
		c0.2,2.5,0.6,5,1.3,7.4c0.5,2.1,1.2,3.7,1.6,4.8l0.5,1.3l0.1,0.3c0,0.1,0,0.1,0,0.1c-1-2.1-1.9-4.3-2.5-6.5
		c-0.7-2.4-1.2-4.9-1.3-7.5c-0.2-3.1,0-6.2,0.7-9.3c0.5-2.2,1.2-4.4,2-6.5l2.3-5.5l0.1-0.2l0.1,0.2c0.8,1.5,1.3,2.8,2,4l-0.1,0
		c1.8-1,2.9-2.3,3.8-3C205.3,73.9,205.8,73.6,206.4,73.3z"/>
	<path class="st4" d="M191.8,112.2l3.3,12.1l3.6,24.8c0,0,8.3,25.4,9.1,27.6c0.8,2.2,4.1,9,4.1,9l9.9-3.3c0,0-2.7-11.6-4-15.9
		c-0.9-3-2.1-6-3.6-8.8l-3.3-20.9l-0.2-18.5l-0.8-12.5C210.2,105.8,201.3,103.4,191.8,112.2z"/>
	<path class="st4" d="M196.8,174c0,0-3.6-11.7-5-17.3s-2.7-9.3-2.7-9.3s1.3-1.1,2.2-1.9c0.9-0.7,12.2-8.2,12.2-8.2
		s12.2-6.3,13.2-12.7c0.9-6.2,0.1-8.4-2.5-12.6c-1.2-1.9-2.4-3.9-3.4-5.9l-0.7-0.4l-10.2,7l-0.8,7.3c0,0-16.1,12.9-18.3,15.8
		c-2.2,2.8-5.5,7.5-3.8,13.1s7.9,27.7,7.9,27.7L196.8,174z"/>
	<path class="st10" d="M189,147.8c-0.7-0.5-1.5-0.9-2.3-1.2c-0.9-0.2-1.7-0.2-2.6,0c0.2-0.2,0.5-0.3,0.7-0.3
		c1.3-0.3,2.6,0.1,3.6,0.9C188.8,147.5,189,147.8,189,147.8z"/>
	<path class="st10" d="M212.5,130.4c0,0.1-5.2,3.9-11.6,8.6c-6.5,4.7-11.7,8.4-11.8,8.4c-0.1-0.1,5.2-3.9,11.6-8.6
		C207.2,134.1,212.5,130.3,212.5,130.4z"/>
	<path class="st10" d="M200,120c-0.8,0.8-1.7,1.6-2.7,2.2c-0.9,0.8-1.9,1.4-2.9,2c0.8-0.8,1.7-1.6,2.7-2.2
		C198.1,121.3,199,120.6,200,120z"/>
	<path class="st10" d="M198.2,120.4c-0.3-0.4-0.6-0.9-0.8-1.4c-0.6-1.1-1.1-2.3-1.6-3.5c-0.5-1.2-0.8-2.4-1.1-3.6
		c-0.2-0.5-0.2-1-0.3-1.6c0.2,0.5,0.4,1,0.5,1.5c0.3,0.9,0.7,2.2,1.2,3.6c0.5,1.4,1.1,2.6,1.5,3.5
		C197.8,119.4,198,119.9,198.2,120.4z"/>
	<path class="st3" d="M138.9,154.4l2.5,7.8c0,0-7.1,5.1-6.8,6.6l15.3-4.3l-3.4-12.3L138.9,154.4z"/>
	<path class="st2" d="M145.9,160.2c0.3,0,0.6,0.3,0.6,0.6c0,0.3-0.3,0.6-0.6,0.6c-0.4,0-0.6-0.3-0.7-0.6
		C145.3,160.4,145.6,160.2,145.9,160.2"/>
	<path class="st2" d="M150,164.9l-0.3-1.2l-14.7,4.2c0,0-0.6,0.5-0.4,0.9L150,164.9z"/>
	<path class="st4" d="M141.1,162.2c0,0.1,0.4,0,0.8,0.1s0.7,0.4,0.8,0.3c0.1,0-0.2-0.4-0.7-0.6C141.5,161.9,141.1,162.1,141.1,162.2
		z"/>
	<path class="st4" d="M139.7,163.3c0,0.1,0.4,0.1,0.7,0.4s0.5,0.5,0.6,0.5s0-0.5-0.4-0.8C140.1,163.1,139.6,163.2,139.7,163.3z"/>
	<path class="st4" d="M139.3,165.5c0.1,0,0.1-0.4-0.2-0.8c-0.3-0.4-0.7-0.4-0.7-0.3c0,0.1,0.3,0.2,0.5,0.5
		C139.1,165.2,139.2,165.5,139.3,165.5z"/>
	<path class="st4" d="M140.7,160.3c0,0.1,0.4-0.1,0.8-0.2c0.4-0.1,0.8,0,0.8-0.1c0-0.1-0.4-0.3-0.9-0.1
		C141,160,140.7,160.3,140.7,160.3z"/>
	<path class="st3" d="M108.2,140.3l5.2,9c0,0-9,3.5-9.1,5.2l17.6,0.1v-1.4l-3.9-13L108.2,140.3z"/>
	<path class="st2" d="M118.8,148.4c0.4,0.1,0.6,0.4,0.5,0.8c-0.1,0.4-0.4,0.6-0.8,0.5c-0.4-0.1-0.6-0.5-0.5-0.9
		C118.1,148.5,118.5,148.3,118.8,148.4"/>
	<path class="st2" d="M121.9,154.5v-1.4l-16.9,0.4c0,0-0.8,0.4-0.7,0.9L121.9,154.5z"/>
	<path class="st4" d="M113.4,149.2c0,0.1,0.4,0.1,0.9,0.4c0.4,0.3,0.7,0.6,0.7,0.6c0.1,0-0.1-0.5-0.6-0.8
		C113.9,149,113.4,149.1,113.4,149.2z"/>
	<path class="st4" d="M111.4,150.1c0,0.1,0.4,0.2,0.7,0.6c0.3,0.4,0.4,0.7,0.5,0.7c0.1,0,0.1-0.5-0.2-0.9
		C111.9,150,111.4,150,111.4,150.1z"/>
	<path class="st4" d="M110.4,152.3c0.1,0,0.2-0.4,0-0.9c-0.2-0.5-0.6-0.6-0.7-0.6s0.2,0.3,0.4,0.7
		C110.3,152,110.3,152.3,110.4,152.3z"/>
	<path class="st4" d="M112.3,147.3c0,0.1,0.4,0,0.9,0s0.9,0.2,0.9,0.1c0-0.1-0.3-0.4-0.9-0.4C112.7,147,112.3,147.2,112.3,147.3z"/>
	<path class="st13" d="M116,8.5l0.4,0c4.6,0,7.2,3.8,7.1,8.4l1.1,18.4l-7.9,7.5l-3-3.8l-0.2-3.9l-0.2-3.3c0,0-4.4-0.4-4.8-4.8
		c-0.2-2.1-0.2-6.5-0.1-10.4C108.5,12.3,111.8,8.8,116,8.5z"/>
	<path class="st14" d="M113.3,31.8c2-0.1,4-0.8,5.6-2c0,0-1.1,3.2-5.5,3.1L113.3,31.8z"/>
	<path class="st4" d="M109.5,19.7c0,0.3,0.3,0.6,0.6,0.6c0.3,0,0.6-0.3,0.6-0.6c0-0.3-0.3-0.6-0.6-0.6
		C109.8,19.1,109.5,19.3,109.5,19.7C109.5,19.7,109.5,19.7,109.5,19.7z"/>
	<path class="st4" d="M109.4,18.4c0.1,0.1,0.5-0.3,1.2-0.3c0.7,0,1.2,0.3,1.3,0.2c0.1-0.1-0.1-0.2-0.3-0.3c-0.6-0.4-1.4-0.3-2,0.1
		C109.4,18.2,109.4,18.4,109.4,18.4z"/>
	<path class="st4" d="M115.7,19.2c0,0.3,0.3,0.6,0.6,0.6c0.3,0,0.6-0.3,0.6-0.6c0,0,0,0,0,0c0-0.3-0.3-0.6-0.6-0.6
		C116,18.6,115.7,18.9,115.7,19.2C115.7,19.2,115.7,19.2,115.7,19.2z"/>
	<path class="st4" d="M115.9,17.8c0.1,0.1,0.5-0.3,1.2-0.2c0.7,0,1.2,0.4,1.2,0.3c0.1-0.1,0-0.2-0.2-0.4c-0.3-0.2-0.6-0.3-1-0.3
		c-0.3,0-0.7,0.1-1,0.3C115.9,17.6,115.8,17.8,115.9,17.8z"/>
	<path class="st4" d="M114,23.5c-0.4-0.1-0.7-0.1-1.1-0.1c-0.2,0-0.3,0-0.4-0.1c0-0.2,0-0.4,0.1-0.5c0.1-0.4,0.3-0.9,0.4-1.3
		c0.4-1.1,0.7-2.3,0.9-3.5c-0.5,1.1-0.9,2.2-1.2,3.4c-0.1,0.5-0.3,0.9-0.4,1.3c-0.1,0.2-0.1,0.5,0,0.7c0.1,0.1,0.2,0.2,0.3,0.2
		c0.1,0,0.2,0,0.3,0C113.3,23.5,113.6,23.5,114,23.5z"/>
	<path class="st4" d="M115.8,15.4c0.1,0.2,0.7,0,1.5,0.1s1.4,0.2,1.5,0c0-0.1-0.1-0.2-0.4-0.4c-0.7-0.4-1.6-0.4-2.3-0.1
		C115.9,15.2,115.8,15.3,115.8,15.4z"/>
	<path class="st4" d="M109.5,16.5c0.1,0.1,0.6,0,1.1-0.1c0.6,0,1,0,1.1-0.1c0-0.1,0-0.2-0.3-0.4c-0.3-0.2-0.6-0.2-0.9-0.2
		c-0.3,0-0.6,0.2-0.9,0.4C109.5,16.3,109.4,16.5,109.5,16.5z"/>
	<path class="st13" d="M123.4,20.1c0.1,0,2.9-1.1,3,1.9c0.1,3-2.9,2.5-2.9,2.4C123.5,24.4,123.4,20.1,123.4,20.1z"/>
	<path class="st14" d="M124.4,23.3c0,0,0.1,0,0.1,0.1c0.1,0,0.3,0,0.4,0c0.4-0.3,0.6-0.7,0.5-1.2c0-0.3-0.1-0.5-0.2-0.7
		c-0.1-0.2-0.2-0.3-0.4-0.4c-0.1,0-0.3,0-0.3,0.2c0,0.1,0,0.1,0,0.1c0,0-0.1,0,0-0.2c0-0.1,0.1-0.1,0.1-0.2c0.1-0.1,0.2-0.1,0.3-0.1
		c0.2,0.1,0.4,0.2,0.5,0.4c0.2,0.2,0.2,0.5,0.3,0.8c0.1,0.5-0.2,1.1-0.7,1.3c-0.2,0.1-0.3,0-0.5-0.1
		C124.4,23.4,124.4,23.3,124.4,23.3z"/>
	<path class="st4" d="M107.6,11.5c0.1-0.6,0.5-1.1,1.1-1.3c-0.4-0.7-0.1-1.5,0.6-1.8c0.5-0.3,1-0.2,1.5,0.1c0-0.8,0.6-1.4,1.4-1.4
		c0.2,0,0.3,0,0.4,0.1c-0.1-0.6,0.4-1.2,1.1-1.3c0.4,0,0.9,0.2,1.1,0.5c0.6-1,1.8-1.3,2.8-0.7c0.1,0.1,0.3,0.2,0.4,0.3
		c1.2-0.5,2.6,0,3.2,1.2c1,0,1.9,0.6,2.3,1.5c1,0,1.8,0.8,1.8,1.8c0,0.3-0.1,0.6-0.3,0.9c0.7,0.3,0.9,1.1,0.6,1.8
		c-0.1,0.1-0.1,0.2-0.2,0.3c0.5,0.2,0.8,0.6,0.8,1.1c0,0.5-0.2,1-0.7,1.2c0.4,0,0.7,0.6,0.5,1c-0.2,0.4-0.3,0.8-0.5,1.2
		c-0.1,0.3-0.1,0.7-0.2,1.1c-0.2,0.7-0.7,1.2-1.3,1.5l0.1,0.1c0.1,0.4-0.4,0.7-0.8,0.5c-0.3-0.2-0.6-0.5-0.8-0.8
		c-0.3-0.3-0.5-0.7-0.7-1.1c-0.2-0.4,0-0.9,0.3-1.2c-0.5-0.2-0.9-0.6-1-1.2c-0.1-0.5-0.1-1.1,0-1.6c0.1-0.8,0.2-1.6,0.3-2.4
		c-1.1,0-2.1-0.6-2.7-1.5c-0.7,0.6-1.8,0.5-2.4-0.3c0-0.1-0.1-0.1-0.1-0.2c-0.3,1.1-1.5,1.8-2.6,1.6c0.2,0.6-0.9,1.3-1.5,1.5
		c-0.5,0.1-1,0-1.4-0.2c0,0-1,0.7-1.6,0.5c-0.6-0.2-1.4-0.9-1.1-1.5C107.6,12.4,107.5,11.9,107.6,11.5z"/>
	<path class="st10" d="M125.4,13.4c0,0,0,0.2-0.3,0.4c-0.1,0.1-0.3,0.2-0.5,0.1c-0.2,0-0.4-0.2-0.4-0.4l0-0.2l-0.1,0.1
		c-0.2,0.2-0.5,0.3-0.8,0.2c-0.3-0.1-0.5-0.4-0.5-0.8v-0.2l-0.2,0.1c-0.3,0.2-0.8,0.1-1-0.3c-0.1-0.1-0.1-0.3-0.2-0.4
		c0,0-0.1,0.2,0.1,0.5c0.1,0.2,0.2,0.3,0.4,0.4c0.2,0.1,0.5,0.1,0.8,0l-0.1-0.1c0,0.5,0.4,1,0.9,1c0.3,0,0.6-0.1,0.8-0.3l-0.2,0
		c0.1,0.3,0.3,0.5,0.6,0.5c0.2,0,0.4,0,0.6-0.2C125.5,13.6,125.4,13.4,125.4,13.4z"/>
	<path class="st10" d="M126.1,16.2c-0.1,0.1-0.2,0.1-0.3,0.1c-0.3,0.1-0.6,0-0.8-0.3l-0.1-0.1l-0.1,0.1c-0.2,0.2-0.5,0.3-0.7,0.3
		c-0.3-0.1-0.6-0.3-0.6-0.7v-0.2l-0.2,0.1c0,0-0.1,0.1-0.1,0.1c-0.2,0.1-0.5,0-0.6-0.2c-0.1-0.2-0.2-0.4-0.1-0.6l0.1-0.2l-0.2,0
		c-0.2,0.1-0.5,0-0.7-0.1c-0.2-0.1-0.3-0.3-0.4-0.4c-0.1-0.2-0.1-0.4-0.1-0.5c-0.1,0.2-0.1,0.4,0,0.6c0.1,0.2,0.2,0.4,0.4,0.5
		c0.2,0.2,0.5,0.2,0.8,0.2l-0.1-0.1c-0.2,0.4-0.1,0.8,0.3,1c0.2,0.1,0.4,0.1,0.6,0c0.1,0,0.1-0.1,0.2-0.1l-0.2-0.1
		c0.1,0.5,0.5,0.9,1.1,0.8c0.3,0,0.5-0.2,0.7-0.4h-0.1c0.1,0.2,0.3,0.3,0.5,0.3c0.1,0,0.3,0,0.4,0C126,16.3,126.1,16.2,126.1,16.2z"
		/>
	<path class="st10" d="M112.9,7c0.1-0.1,0.2-0.2,0.3-0.2c0.1-0.1,0.3-0.1,0.4,0c0.2,0.1,0.3,0.2,0.4,0.4l0.1,0.2l0.1-0.2
		c0.2-0.3,0.5-0.5,0.9-0.6c0.5,0,0.9,0.2,1.1,0.7l0.1,0.2l0.1-0.2c0.2-0.3,0.6-0.5,1-0.6c0.4,0,0.8,0.2,1.1,0.5
		c0.1,0.1,0.2,0.3,0.2,0.5l0,0.1l0.1,0c0.6-0.2,1.2,0.1,1.5,0.6c0.2,0.5,0.2,1-0.1,1.4L120,9.9h0.2c0.4,0,0.7,0.2,0.9,0.5
		c0.2,0.2,0.3,0.5,0.3,0.8c0,0.2,0,0.5-0.1,0.7c0,0,0-0.1,0.1-0.2c0.1-0.2,0.1-0.4,0.1-0.6c0-0.3-0.1-0.6-0.3-0.9
		c-0.2-0.3-0.6-0.5-1-0.6l0.1,0.1c0.4-0.5,0.4-1.1,0.2-1.6c-0.3-0.6-1.1-0.9-1.7-0.7l0.1,0.1c-0.1-0.2-0.1-0.4-0.3-0.5
		c-0.3-0.4-0.8-0.6-1.3-0.6c-0.5,0-0.9,0.3-1.2,0.7h0.2c-0.2-0.6-0.9-1-1.6-0.7c-0.3,0.1-0.6,0.3-0.7,0.6h0.1
		c-0.1-0.2-0.3-0.4-0.5-0.5c-0.2-0.1-0.3,0-0.5,0c-0.1,0-0.2,0.1-0.2,0.2C112.9,6.9,112.9,7,112.9,7z"/>
	<path class="st4" d="M116,23.8c-0.1,0-0.1,0.7-0.7,1.3c-0.6,0.6-1.4,0.5-1.4,0.6s0.2,0.1,0.5,0.1c0.4,0,0.8-0.2,1.1-0.5
		c0.3-0.3,0.5-0.7,0.5-1.1C116.2,24,116.1,23.8,116,23.8z"/>
	<path class="st13" d="M160.2,86.7l1.2-5.7c0,0-4.2-2.9-6.6-2.9l0,0l-4.8,3.5c0,0,1,5,2.3,5.5c0.3,0.1,0.8,0.7,1.9,0.5
		C156.2,87.2,158.2,86.9,160.2,86.7z"/>
	<path class="st13" d="M150,81.7c0,0-5.4-8.7-6-11.4c0,0-0.2-2.8,6-1.3l4.8,9.3"/>
	<path class="st14" d="M159.6,86.6c-0.1-0.1-0.1-0.3-0.1-0.4c0-0.4,0-0.8,0.2-1.2c0.2-0.5,0.3-1.1,0.2-1.7c-0.1-0.3-0.3-0.6-0.6-0.8
		c-0.3-0.1-0.7,0-0.9,0.3l-0.1,0.2l-0.1-0.2c-0.3-0.4-0.8-0.5-1.2-0.2c-0.2,0.1-0.3,0.3-0.3,0.5l-0.2,0.5l-0.1-0.6v0
		c-0.2-0.4-0.6-0.6-1-0.5c0,0,0,0,0,0c-0.4,0.2-0.7,0.6-0.8,1l0,0.2l-0.1-0.1c-0.3-0.2-0.6-0.2-0.9,0c-0.3,0.1-0.5,0.4-0.6,0.6
		c-0.2,0.5-0.3,1-0.3,1.5c0,0.5,0,1-0.2,1.4c0-0.1,0-0.2,0-0.4c0-0.3,0-0.7,0-1c0-0.5,0-1.1,0.2-1.6c0.1-0.3,0.4-0.6,0.7-0.8
		c0.4-0.2,0.8-0.2,1.1,0l-0.2,0.1c0.1-0.5,0.5-1,0.9-1.2c0.3-0.1,0.6-0.1,0.9,0c0.3,0.1,0.5,0.4,0.6,0.7V83l-0.3,0
		c0.2-0.6,0.8-0.9,1.4-0.8c0.3,0.1,0.5,0.2,0.6,0.5h-0.2c0.1-0.2,0.3-0.4,0.5-0.5c0.2-0.1,0.4,0,0.7,0c0.4,0.2,0.6,0.5,0.7,0.9
		c0.1,0.6,0,1.3-0.3,1.8c-0.1,0.4-0.2,0.8-0.2,1.1C159.6,86.4,159.6,86.6,159.6,86.6z"/>
	<path class="st14" d="M154.2,87.7c-0.1,0,0.1-1,0.1-2.1c0.1-1.2,0-2.1,0.1-2.1c0.2,0.7,0.3,1.4,0.2,2.1
		C154.6,86.3,154.4,87,154.2,87.7z"/>
	<path class="st14" d="M156.5,83c0.4,1.4,0.3,2.9-0.3,4.3c-0.1,0,0.1-1,0.2-2.1C156.5,84,156.4,83,156.5,83z"/>
	<path class="st14" d="M158.3,82.7c0.2,0.7,0.2,1.4,0.1,2.1c0,0.7-0.2,1.4-0.6,2c-0.1,0,0.2-0.9,0.3-2.1
		C158.3,83.6,158.3,82.7,158.3,82.7z"/>
	<path class="st14" d="M159.1,82.3c0,0-0.2-0.2-0.4-0.5l0.1,0c-0.7,0.3-1.4,0.3-2.1,0.3c-0.6-0.1-1.3-0.3-1.8-0.7
		c-0.4-0.3-0.6-0.5-0.6-0.5c0.8,0.5,1.6,0.8,2.5,0.9c0.7,0.1,1.3,0,2-0.1h0.1l0,0.1C159,82.1,159.1,82.3,159.1,82.3z"/>
	<path class="st4" d="M145.8,140.4c-1.9-9.8-6.8-18.1-6.9-18.8c-0.1-0.7-1.8-9.2-1.8-9.2s2.1-21.9,1.6-25.8s-31.5-3.2-31.5-3.2
		s-8.8,28.6-8.2,33.8c0.6,5.1,11.3,30.5,11.3,30.5l10-0.1l-8.5-30.8l8.7-22.9c0,0,2,15.2,3,19c1.1,4.4,4.2,15.6,6.1,18.9
		c1.8,3.4,3.9,5.9,4.6,9.8c0.6,3.8,5.2,19.5,5.2,19.5l9.7-2.1C148.8,159,147.7,150.7,145.8,140.4z"/>
	<path class="st10" d="M121.3,100.8c-0.2-0.6-0.3-1.2-0.4-1.8c-0.2-1.1-0.4-2.7-0.5-4.3c-0.2-1.7-0.3-3.2-0.4-4.4
		c-0.1-0.6-0.1-1.2-0.1-1.8c0.1,0.6,0.2,1.2,0.3,1.8l0.4,4.3c0.2,1.7,0.3,3.2,0.4,4.3C121.2,99.6,121.2,100.2,121.3,100.8z"/>
	<path class="st10" d="M136.9,90.8c-0.3,0.1-0.7,0.1-1,0c-1.7-0.3-3.1-1.3-4-2.7c-0.2-0.3-0.3-0.6-0.4-0.9c0.2,0.3,0.4,0.5,0.6,0.8
		c0.5,0.6,1.1,1.2,1.7,1.6c0.7,0.4,1.4,0.7,2.2,0.9C136.2,90.7,136.6,90.7,136.9,90.8z"/>
	<path class="st10" d="M112.3,86.5c0,0-0.2,0.3-0.6,0.7c-1.2,1-2.7,1.4-4.2,1.3c-0.3,0-0.6-0.1-0.9-0.2c1,0.1,2-0.1,3-0.3
		C110.6,87.6,111.5,87.1,112.3,86.5z"/>
	<path class="st10" d="M111.6,116.3c0,0.1-0.9-0.1-2-0.1c-1.1,0-2,0.2-2,0.1C108.9,115.8,110.3,115.8,111.6,116.3z"/>
	<path class="st3" d="M138.6,78.5c-0.7-4.2-1.5-7.2-1.5-7.2L135.3,60L134,35.2l-9.4-3.1c0,0-4.5,3.5-7.2,3.6c-1.5,0.2-3-0.3-4.1-1.4
		l-5.9,3.4l-2.3,5.2l2.1,24.9c0,0,0.8,14.8-0.6,16.3l0,0c0.4,0.2,8,1.3,13.1,1.8c3.8,0.4,10.5,0,13.9-0.2c1.4-0.1,3.6,1.3,5.5,1.9
		l0,0l-0.3-7C138.8,79.9,138.7,79.2,138.6,78.5z"/>
	<path class="st3" d="M145.8,59.9c-0.1-0.6-5.8-18-6.3-19.1c-1.6-3.1-5.5-5.7-5.5-5.7c-5,1.9-3.1,12.7-3.1,12.7l3.9,11l3.9,9.5
		l9.6,12.8c3-1.8,7.1-3.7,7.1-3.7L145.8,59.9z"/>
	<path class="st13" d="M89.1,55.7l-4.2-2.5L78.7,53c0,0-0.3,0.8,1,1.3c1.2,0.4,2.3,0.6,3.5,0.7c0,0-0.9-0.1,1,1.5
		c1.2,1,2.8,1.5,4.4,1.6L89.1,55.7z"/>
	<path class="st13" d="M79.2,53.3c0,0-2.1,0.3-2.6,0.8c-0.5,0.5-0.3,0.9-0.1,1c0.2,0.2,1.2,0.1,1.5-0.1c0.6-0.2,1.3-0.3,2-0.3
		c0,0-2,0.8-2.2,1.4c-0.2,0.6,0.7,1,0.7,1s-0.5,0.9-0.2,1.3c0.2,0.3,0.4,0.4,0.7,0.5c0,0-0.5,0.6-0.1,1.1c0.5,0.5,2.2,0.1,2.2,0.1
		s1,0.4,1.5,0.2c0.5-0.2,6-0.4,6-0.4l0.5-3.7l-8.3-2.5L79.2,53.3z"/>
	<path class="st14" d="M80.5,56.5c-0.1,0,0-0.3,0-0.7s0-0.7,0-0.7c0.1,0,0.2,0.3,0.2,0.7S80.5,56.5,80.5,56.5z"/>
	<path class="st14" d="M78.4,57.1c0,0,0.2-0.1,0.4-0.1c0.1,0,0.3-0.1,0.4-0.2c0.1-0.1,0.2-0.2,0.3-0.4c0-0.2-0.1-0.3-0.2-0.4
		c-0.1-0.1-0.2-0.2-0.4-0.2c-0.3-0.1-0.4-0.1-0.4-0.2c0,0,0.2-0.1,0.5,0c0.2,0,0.4,0.1,0.5,0.2c0.2,0.2,0.3,0.4,0.3,0.6
		c0,0.2-0.2,0.4-0.4,0.6c-0.2,0.1-0.3,0.1-0.5,0.1C78.6,57.2,78.4,57.1,78.4,57.1z"/>
	<path class="st14" d="M78.4,57.1c0.2-0.1,0.5-0.1,0.7-0.1c0.3,0,0.5,0,0.8,0.1c0.1,0.1,0.3,0.1,0.4,0.2c0.1,0.1,0.2,0.3,0.3,0.4
		c0.1,0.2,0.1,0.4,0.1,0.5c-0.1,0.2-0.2,0.3-0.3,0.4c-0.2,0.1-0.5,0.2-0.8,0.2c-0.4,0-0.7,0-0.7-0.1c0.2-0.1,0.4-0.1,0.7-0.1
		c0.2,0,0.4-0.1,0.7-0.3c0.1-0.1,0.2-0.2,0.2-0.3c0-0.1,0-0.3-0.1-0.4c0-0.1-0.1-0.2-0.2-0.3c-0.1-0.1-0.2-0.2-0.3-0.2
		c-0.2-0.1-0.4-0.2-0.7-0.2C78.7,57.2,78.4,57.2,78.4,57.1z"/>
	<path class="st14" d="M79.8,60.3c0,0,0.2,0,0.5-0.2l0.3-0.1c0.1,0,0.2-0.1,0.3-0.1c0.1-0.1,0-0.2-0.2-0.4c-0.4-0.2-0.8-0.3-1.2-0.4
		C79.1,59,78.9,59,78.9,59c0,0,0.2-0.1,0.6-0.1c0.5,0,0.9,0.2,1.3,0.4c0.1,0,0.1,0.1,0.2,0.1c0.1,0.1,0.1,0.1,0.2,0.2
		c0.1,0.2,0,0.4-0.1,0.5c-0.1,0.1-0.2,0.1-0.3,0.1l-0.3,0.1C80,60.4,79.8,60.3,79.8,60.3z"/>
	<path class="st14" d="M80.6,57c0,0.1-0.3,0.1-0.5,0.2c-0.3,0-0.5,0.1-0.6,0c0-0.1,0.2-0.2,0.5-0.3C80.4,56.9,80.6,57,80.6,57z"/>
	<path class="st14" d="M82.4,59.6c0.1-0.7,0.1-1.4-0.1-2.1c-0.1-0.2-0.2-0.5-0.3-0.7l0-0.1v-0.1c0.1-0.3,0.1-0.7,0-1
		c-0.1-0.2-0.1-0.4-0.1-0.4c0,0,0.1,0.1,0.3,0.3c0.2,0.3,0.2,0.7,0.1,1.1v-0.1c0.2,0.2,0.3,0.5,0.4,0.7c0.2,0.5,0.2,1.1,0.1,1.6
		C82.6,59.4,82.4,59.6,82.4,59.6z"/>
	<path class="st14" d="M85.8,58.4c0,0-0.2,0.1-0.6,0c-0.5-0.1-0.9-0.3-1.3-0.7c-0.4-0.3-0.6-0.7-0.8-1.2C83,56.2,83,56,83,56
		c0.3,0.6,0.7,1.1,1.1,1.5C84.6,57.9,85.2,58.2,85.8,58.4z"/>
	<path class="st14" d="M87.2,57.9c-0.1,0-0.3,0-0.4-0.1c-0.3-0.1-0.6-0.2-0.9-0.4c-1-0.5-1.9-1.3-2.6-2.3l0.1,0.1H83
		c-1.2-0.1-2.5-0.4-3.6-0.9c-0.3-0.2-0.6-0.5-0.8-0.8c-0.1-0.3-0.1-0.4-0.1-0.4c0,0,0,0.1,0.2,0.4c0.2,0.3,0.5,0.5,0.8,0.7
		c1.1,0.5,2.3,0.8,3.5,0.8h0.4l0,0.1c0.6,0.9,1.5,1.7,2.4,2.2C86.7,57.7,87.2,57.8,87.2,57.9z"/>
	<path class="st3" d="M105.1,39.6c-0.7,1.8-4.3,19.3-4.3,19.3l-11.7-4.6c0,0-2.9,8.1-3.3,8c-0.4-0.1,15.7,7.4,18.6,6.3
		c2.6-1,3-5.2,3-5.2l5.8-29C113.3,34.4,106.6,35.8,105.1,39.6z"/>
	<path class="st4" d="M134.9,81.3c-0.3,0.1-0.6,0.2-0.9,0.3c-0.3,0.1-0.7,0.2-1.1,0.3s-0.9,0.3-1.4,0.4c-1.1,0.3-2.4,0.5-3.8,0.7
		c-1.6,0.2-3.1,0.3-4.7,0.3c-1.6,0-3.2-0.1-4.7-0.3c-1.4-0.2-2.7-0.4-3.8-0.6c-0.5-0.1-1-0.2-1.4-0.3s-0.8-0.2-1.1-0.3
		c-0.3-0.1-0.6-0.2-0.9-0.3c0.3,0,0.6,0.1,0.9,0.2c0.3,0.1,0.7,0.2,1.1,0.3c0.4,0.1,0.9,0.2,1.4,0.3c1.1,0.2,2.4,0.4,3.8,0.6
		c1.6,0.2,3.1,0.2,4.7,0.2c1.6,0,3.1-0.1,4.7-0.3c1.4-0.2,2.7-0.4,3.8-0.6c0.5-0.1,1-0.2,1.4-0.3c0.4-0.1,0.8-0.2,1.1-0.3
		C134.3,81.4,134.6,81.4,134.9,81.3z"/>
	<path class="st4" d="M129.3,46.1c0.2,0.3,0.3,0.5,0.5,0.8c0.3,0.5,0.7,1.3,1.1,2.3c0.9,2,2.1,4.8,3.3,7.9l3.2,7.9l1,2.4
		c0.1,0.3,0.3,0.6,0.3,0.9c-0.2-0.3-0.3-0.6-0.4-0.8c-0.3-0.5-0.6-1.4-1.1-2.4c-0.9-2-2-4.8-3.2-7.9s-2.4-5.9-3.2-7.9
		c-0.4-1-0.8-1.8-1.1-2.4C129.6,46.7,129.5,46.4,129.3,46.1z"/>
	<path class="st4" d="M135.3,37.1c0,0-0.5,0.1-1.2,0.4c-1.9,0.8-3.4,2.3-4.2,4.2c-0.3,0.7-0.4,1.2-0.5,1.2c0-0.4,0.1-0.9,0.3-1.3
		c0.7-2,2.3-3.6,4.4-4.3C134.4,37.1,134.8,37.1,135.3,37.1z"/>
	<path class="st7" d="M127.2,33c-0.1,0.1-0.1,0.2-0.2,0.2l-0.6,0.6l-2.3,2.1c-2,1.8-4.6,4.4-7.5,7.4c-2.8,3-5.2,5.8-6.9,7.9l-2,2.5
		l-0.5,0.7c-0.1,0.1-0.2,0.2-0.2,0.2c0-0.1,0.1-0.2,0.2-0.3l0.5-0.7c0.4-0.6,1.1-1.5,1.9-2.5c1.7-2.1,4.1-5,6.9-8
		c2.8-3,5.5-5.6,7.5-7.4c1-0.9,1.8-1.6,2.4-2.1l0.7-0.5C127,33.1,127.1,33,127.2,33z"/>
	<path class="st7" d="M133.4,35c-0.1,0.1-0.2,0.2-0.3,0.3l-0.8,0.8l-3,3.1c-2.5,2.7-5.9,6.3-9.6,10.5s-6.8,8.1-9,11l-2.6,3.4
		l-0.7,0.9c-0.1,0.1-0.2,0.2-0.3,0.3c0.1-0.1,0.1-0.2,0.2-0.3c0.2-0.2,0.4-0.5,0.7-1c0.6-0.8,1.5-2,2.6-3.5c2.2-2.9,5.3-6.9,9-11.1
		s7.1-7.9,9.6-10.5c1.3-1.3,2.3-2.3,3-3.1l0.8-0.8C133.2,35.2,133.3,35.1,133.4,35z"/>
	<path class="st7" d="M130.5,48.8c-0.1,0.1-0.2,0.2-0.2,0.3l-0.7,0.7c-0.6,0.7-1.5,1.6-2.6,2.7c-2.2,2.3-5.2,5.5-8.4,9.2
		c-3.2,3.7-5.9,7.1-7.9,9.6l-2.3,3l-0.6,0.8c-0.1,0.1-0.1,0.2-0.2,0.3c0.1-0.1,0.1-0.2,0.2-0.3l0.6-0.8c0.5-0.7,1.3-1.8,2.2-3
		c1.9-2.5,4.6-6,7.8-9.7c3.2-3.7,6.2-6.9,8.4-9.1c1.1-1.1,2-2,2.7-2.7l0.7-0.7C130.3,48.9,130.4,48.8,130.5,48.8z"/>
	<path class="st7" d="M110.8,81.9c-0.3,0.5-0.7,0.9-1.1,1.2c-0.4,0.4-0.8,0.7-1.3,1c0.3-0.5,0.7-0.9,1.1-1.2
		C109.9,82.5,110.3,82.1,110.8,81.9z"/>
	<path class="st7" d="M133.8,57c-0.1,0.1-0.1,0.2-0.2,0.3l-0.6,0.7l-2.4,2.6c-2,2.2-4.8,5.3-7.8,8.7c-3,3.4-5.7,6.5-7.6,8.8
		l-2.3,2.7l-0.6,0.7c-0.1,0.1-0.1,0.2-0.2,0.2c0.1-0.1,0.1-0.2,0.2-0.3l0.6-0.8c0.5-0.7,1.3-1.6,2.2-2.7c1.9-2.3,4.6-5.4,7.6-8.9
		c3-3.4,5.8-6.4,7.8-8.6c1-1.1,1.9-2,2.4-2.6l0.7-0.7C133.6,57.1,133.7,57.1,133.8,57z"/>
	<path class="st7" d="M136.1,66.4c-0.2,0.3-0.3,0.5-0.5,0.7c-0.3,0.5-0.9,1.1-1.5,1.9c-1.3,1.6-3.1,3.7-5.3,6
		c-2.1,2.3-4.1,4.3-5.6,5.7c-0.7,0.7-1.4,1.3-1.8,1.6c-0.2,0.2-0.4,0.4-0.7,0.6c0.2-0.2,0.4-0.5,0.6-0.7l1.7-1.7
		c1.5-1.4,3.4-3.5,5.6-5.7c2.1-2.3,4-4.4,5.3-6l1.6-1.8C135.7,66.8,135.9,66.6,136.1,66.4z"/>
	<path class="st7" d="M118.6,83.3c0,0.1-0.5,0.4-1,1c-0.3,0.4-0.5,0.7-0.7,1.1l-0.1,0.2l0.1-0.2c0,0,0-0.1,0-0.1s0,0,0,0.1h-0.1
		c0.1-0.5,0.3-0.9,0.6-1.2C117.7,83.7,118.1,83.4,118.6,83.3z"/>
	<path class="st7" d="M137.6,75.3c-0.8,1.2-1.7,2.4-2.7,3.5c-0.9,1.2-1.9,2.3-2.9,3.3c0.8-1.2,1.7-2.4,2.7-3.5
		C135.6,77.4,136.5,76.3,137.6,75.3z"/>
	<path class="st7" d="M131.3,82.1c0.1,0.1-0.7,0.8-1.3,1.9c-0.7,1.1-1.1,2.1-1.1,2.1c0.1-0.8,0.4-1.5,0.9-2.2
		C130.1,83.2,130.6,82.6,131.3,82.1z"/>
	<path class="st7" d="M138.5,81c-0.4,0.9-1,1.7-1.6,2.5c-0.5,0.8-1.1,1.6-1.8,2.4c0.4-0.9,1-1.7,1.6-2.5
		C137.2,82.5,137.8,81.7,138.5,81z"/>
	<path class="st7" d="M114.6,35.7c-0.3,0.5-0.7,1-1.2,1.4c-0.7,0.9-1.7,2.1-2.8,3.5c-1.1,1.4-2,2.6-2.7,3.5c-0.3,0.5-0.7,1-1.1,1.5
		c0.1-0.2,0.1-0.3,0.2-0.4c0.2-0.3,0.4-0.7,0.7-1.1c0.6-0.9,1.6-2.2,2.7-3.6c1.1-1.4,2.1-2.6,2.9-3.4c0.4-0.4,0.7-0.8,0.9-1
		C114.3,35.9,114.5,35.8,114.6,35.7z"/>
	<path class="st7" d="M106.7,52.2c-0.7-0.4-1.4-0.9-1.9-1.4c-0.7-0.5-1.2-1-1.8-1.7c0.7,0.4,1.4,0.9,1.9,1.4
		C105.6,51,106.2,51.5,106.7,52.2z"/>
	<path class="st7" d="M106.8,59.2c-0.1,0.1-1.1-1.1-2.5-2.4s-2.7-2.1-2.6-2.2c1,0.5,2,1.2,2.8,2C105.4,57.4,106.2,58.2,106.8,59.2z"
		/>
	<path class="st4" d="M106.6,44c0,0.1,0,0.2,0,0.4c0,0.3,0,0.6,0,1c0,0.9,0,2.2,0.1,3.8c0.1,3.2,0.2,7.6,0.4,12.4
		c0.2,4.8,0.3,9.3,0.3,12.5c0,1.6,0,2.9,0,3.8c0,0.4,0,0.8,0,1c0,0.1,0,0.2,0,0.4c0-0.1,0-0.2,0-0.4c0-0.3,0-0.6,0-1
		c0-0.9-0.1-2.2-0.1-3.8c-0.1-3.2-0.3-7.6-0.4-12.4c-0.2-4.8-0.3-9.3-0.3-12.4c0-1.6,0-2.9,0-3.8c0-0.4,0-0.8,0-1
		C106.6,44.2,106.6,44.1,106.6,44z"/>
	<path class="st7" d="M105.9,67.5c-0.2-0.4-0.5-0.9-0.6-1.3c-0.4-0.8-0.9-1.9-1.6-3.1c-0.6-1-1.2-2-2-2.9c-0.3-0.4-0.6-0.8-0.9-1.2
		c0.4,0.3,0.8,0.6,1.1,1c0.8,0.9,1.4,1.9,2,2.9c0.6,1,1.1,2.1,1.6,3.2C105.7,66.5,105.8,67,105.9,67.5z"/>
	<path class="st7" d="M97.3,57.7c0.1,0.4,0.2,0.9,0.2,1.3c0,1.1,0,2.2-0.2,3.3c-0.2,1.1-0.5,2.1-1,3.1c-0.2,0.4-0.4,0.8-0.7,1.2
		c0.6-1.4,1.1-2.9,1.4-4.4C97.2,60.7,97.3,59.2,97.3,57.7z"/>
	<path class="st7" d="M92.7,55.7c0,0.4-0.1,0.9-0.2,1.3c-0.2,1-0.6,2.1-1,3c-0.4,1-0.9,1.9-1.5,2.8c-0.2,0.4-0.5,0.7-0.8,1.1
		c0.2-0.4,0.4-0.8,0.6-1.2c0.5-0.9,1-1.9,1.4-2.8c0.4-1,0.7-2,1-3C92.4,56.5,92.5,56.1,92.7,55.7z"/>
	<path class="st7" d="M105,40.5c0.8,0.8,1.3,1.8,1.5,2.9c-0.3-0.5-0.5-0.9-0.7-1.4C105.5,41.5,105.2,41,105,40.5z"/>
	<path class="st7" d="M140.9,45c-1.8,0.6-3.6,1-5.4,1.4c-3,0.7-5.4,1.2-5.4,1.1c1.8-0.6,3.6-1,5.4-1.4
		C137.3,45.6,139.1,45.2,140.9,45z"/>
	<path class="st7" d="M143.6,54.7c-1.5,0.5-3.1,1-4.7,1.3c-1.6,0.4-3.1,0.8-4.8,1.1c1.5-0.5,3.1-1,4.7-1.3
		C140.4,55.3,142,54.9,143.6,54.7z"/>
	<path class="st7" d="M147.4,63.1c-1.6,0.4-3.3,0.6-5,0.8c-1.7,0.3-3.3,0.4-5,0.5c1.6-0.4,3.3-0.6,5-0.8
		C144.1,63.4,145.8,63.2,147.4,63.1z"/>
	<path class="st7" d="M152.6,71.3c-0.5,0-1.1,0-1.6,0c-1,0-2.4,0-3.9,0s-2.9,0-3.9,0.1c-0.5,0-1.1,0-1.6,0c0.5-0.1,1.1-0.2,1.6-0.2
		c1-0.1,2.4-0.1,3.9-0.1c1.5,0,2.9,0,3.9,0.1C151.6,71.1,152.1,71.2,152.6,71.3z"/>
	<g class="st11">
		<path d="M129.6,46.5c0.4,6.4,2.6,13.2,6.5,18.3c0,0.1-0.7-4.5-0.7-4.5S131.8,51.6,129.6,46.5"/>
	</g>
	<g class="st11">
		<path d="M114.7,79.9l11.3,0.7c1.6,0.1,3.4,0.1,4.6-0.9c0.1-0.1,0.2-0.2,0.2-0.4c0-0.3-0.5-0.3-0.8-0.3c-4.8,0.9-9.8,0.8-14.5-0.3
			c-0.4-0.1-0.7-0.1-1.1,0c-0.3,0.1-0.6,0.6-0.3,0.9"/>
	</g>
	<g class="st11">
		<path d="M107.1,65.3c-2.2-6-2.5-12.7-0.6-18.8L107.1,65.3"/>
	</g>
	<g class="st11">
		<path d="M100.8,58.9c0.4,1.5,1,3,1.6,4.3c0.1,0.2,0.3,0.5,0.6,0.5s0.3-0.3,0.3-0.6c-0.1-0.5-0.3-1-0.6-1.4L100.8,58.9"/>
	</g>
</g>
<g id="freepik--Stairs--inject-97">
	<polygon class="st0" points="253.6,224.4 253.9,210 229.9,209.3 229.6,194.3 205.3,194.3 205.3,185.8 179.1,185.8 179.1,177.4 
		157.6,176.8 157.6,166.2 133.6,166.2 133.5,153.5 101,154 101,140.1 76.4,140.1 76.4,123.1 36,123.1 34.9,233.4 281.3,233.4 
		281.3,224.4 	"/>
	<path class="st4" d="M36,123.1h0.7h2h7.9l29.8,0h0.1v0c0,5.1,0,10.9,0,17l-0.1-0.1H101h0.1v0.1c0,4.4,0,9.1,0,13.9L101,154
		l32.5-0.6h0.1v0.1c0,4,0.1,8.4,0.1,12.8l-0.1-0.1h24.1v10.7l-0.1-0.1l14,0.4l7.4,0.2h0.1v8.5l-0.1-0.1h26.3v8.6l-0.1-0.1h24.5v0.1
		c0.1,5.2,0.2,10.1,0.3,15l-0.1-0.1l23.9,0.7h0.1v0.1c-0.1,5-0.2,9.8-0.2,14.4l-0.1-0.1h27.6h0.1v0.1c0,3.4,0,6.3,0,9l-0.1-0.1
		l18.6,0h4.8h1.6c0,0-0.5,0-1.6,0h-4.8l-18.6,0h-0.1v-0.1c0-2.7,0-5.6,0-9l0.1,0.1h-27.6h-0.1v-0.1c0.1-4.6,0.1-9.4,0.2-14.4
		l0.1,0.1l-23.9-0.7h-0.1v-0.1c-0.1-4.9-0.2-9.9-0.3-15l0.1,0.1h-24.5v-8.5l0.1,0.1H179v-8.5l0.1,0.1l-7.4-0.2l-14-0.4h-0.1v-10.7
		l0.1,0.1h-24.1v-0.1c0-4.4-0.1-8.8-0.1-12.8l0.1,0.1l-32.5,0.6h-0.1v-0.1c0-4.9,0-9.6,0-13.9l0.1,0.1H76.4h-0.1v-0.1
		c0-6.2,0-11.9,0-17l0.1,0.1l-29.7-0.1h-7.9h-2H36z"/>
	<rect x="54.6" y="188.9" class="st2" width="23.2" height="7.2"/>
	<rect x="120.4" y="223.8" class="st2" width="23.2" height="7.2"/>
	<rect x="96.7" y="209.1" class="st2" width="23.2" height="7.2"/>
</g>
<g id="freepik--Plant--inject-97">
	<path class="st3" d="M87.5,222.1c1.2-0.7,2.6-1,4-0.9c0.8,0,1.5,0.2,2.1,0.7c0.6,0.5,0.7,1.4,0.2,2c-0.3,0.3-0.8,0.4-1.2,0.4
		c-1.1,0.1-2.3,0-3.1,0.8c-0.4,0.4-0.7,1.1-1.3,1.3c-0.6,0.2-1.3,0-1.6-0.5c-0.3-0.5-0.5-1.1-0.3-1.7
		C86.3,223.3,86.8,222.6,87.5,222.1z"/>
	<path class="st3" d="M84.1,217c0.9,1,2.3,0.5,2.9-0.2c0.5-0.8,0.9-1.7,1-2.6c0.4-2.1,0.8-4.4,0.1-6.4c-0.2-0.6-0.5-1.2-1-1.6
		c-0.5-0.4-1.2-0.6-1.8-0.4c-0.7,0.3-1.1,1-1.4,1.8c-0.8,2.1-1.1,4.4-0.8,6.6C83.1,215.1,83.5,216.2,84.1,217"/>
	<path class="st3" d="M82.2,218.7c0.7-1.1,0.8-2.5,0.2-3.7c-0.5-1.2-1.4-2.2-2.4-2.9c-1.2-0.9-2.6-1.5-4-1.9
		c-0.6-0.2-1.2-0.2-1.7-0.1c-0.6,0.1-1.1,0.5-1.3,1c-0.3,0.8,0.2,1.7,0.6,2.4c0.9,1.3,1.8,2.5,2.9,3.6c0.8,1,1.8,1.7,3,2.1
		c1.2,0.3,2.4,0.1,2.9-0.7"/>
	<path class="st4" d="M85.7,233.2c0-0.2,0-0.3,0-0.5c0-0.4,0-0.8,0-1.3c0-0.7,0-1.3,0.1-2c0.1-0.8,0.3-1.6,0.5-2.4
		c0.2-0.8,0.5-1.5,1-2.2c0.3-0.6,0.8-1,1.4-1.4c0.4-0.2,0.8-0.4,1.2-0.5c0.2,0,0.3-0.1,0.5-0.1c-0.2,0-0.3,0-0.5,0
		c-0.4,0.1-0.9,0.2-1.3,0.5c-0.6,0.4-1.1,0.8-1.4,1.4c-0.4,0.7-0.8,1.5-1,2.3c-0.2,0.8-0.4,1.6-0.5,2.4c-0.1,0.7-0.1,1.3-0.1,2
		c0,0.6,0,1,0.1,1.3C85.6,232.8,85.7,233,85.7,233.2z"/>
	<path class="st4" d="M85.7,232.1c0-0.1,0-0.1,0-0.2c0-0.2,0-0.4-0.1-0.7c-0.1-0.6-0.1-1.4-0.2-2.4c-0.2-2-0.2-4.2-0.2-7.3
		c0-2.9,0.1-6.3,0.3-8.5c0-0.5,0.1-1,0.1-1.3s0.1-0.7,0.1-1c0-0.3,0.1-0.5,0.1-0.6c0-0.1,0-0.2,0-0.2c0,0.1,0,0.1-0.1,0.2
		c0,0.2-0.1,0.4-0.1,0.6s-0.1,0.6-0.2,1c-0.1,0.4-0.1,0.8-0.2,1.3c-0.3,2.6-0.4,5.3-0.5,7.9c0,3.1,0.1,5.9,0.3,7.9
		c0.1,1,0.2,1.8,0.3,2.4c0,0.3,0.1,0.5,0.1,0.6C85.6,232,85.6,232.1,85.7,232.1z"/>
	<path class="st4" d="M85.2,226.8c0-0.2,0-0.4-0.1-0.7c-0.1-0.6-0.2-1.2-0.4-1.8c-0.2-0.9-0.5-1.8-0.9-2.6c-0.4-1.1-0.9-2.1-1.4-3
		c-1-1.8-2.2-3.4-3.8-4.8c-0.3-0.2-0.5-0.4-0.8-0.6c-0.1-0.1-0.2-0.2-0.4-0.2l-0.3-0.2c-0.2-0.1-0.4-0.2-0.6-0.3
		c0.7,0.4,1.4,0.9,2,1.5c1.5,1.4,2.8,3,3.7,4.8c0.5,1,1,2,1.4,3c0.4,0.9,0.7,1.8,0.9,2.6c0.2,0.7,0.4,1.4,0.5,1.8
		C85.1,226.3,85.1,226.6,85.2,226.8z"/>
</g>
</svg>
