<?xml version="1.0" encoding="utf-8"?>
<!-- Generator: Adobe Illustrator 23.0.0, SVG Export Plug-In . SVG Version: 6.00 Build 0)  -->
<svg version="1.1" id="Layer_1" xmlns="http://www.w3.org/2000/svg" xmlns:xlink="http://www.w3.org/1999/xlink" x="0px" y="0px"
	 width="831.2px" height="493.3px" viewBox="0 0 831.2 493.3" style="enable-background:new 0 0 831.2 493.3;" xml:space="preserve"
	>
<style type="text/css">
	.st0{opacity:0.3;}
	.st1{fill:#5D1ECA;}
	.st2{opacity:0.7;fill:#FFFFFF;enable-background:new    ;}
	.st3{fill:none;stroke:#263238;stroke-linecap:round;stroke-linejoin:round;}
	.st4{fill:#FFFFFF;stroke:#263238;stroke-linecap:round;stroke-linejoin:round;}
	.st5{fill:#263238;stroke:#263238;stroke-linecap:round;stroke-linejoin:round;}
	.st6{fill:#5D1ECA;stroke:#263238;stroke-linecap:round;stroke-linejoin:round;}
	.st7{fill:#FFFFFF;}
	.st8{opacity:0.2;fill:none;stroke:#000000;stroke-linecap:round;stroke-linejoin:round;enable-background:new    ;}
	.st9{opacity:0.2;}
	.st10{fill:none;stroke:#000000;stroke-linecap:round;stroke-linejoin:round;}
	.st11{fill:none;stroke:#000000;stroke-miterlimit:10;}
	.st12{fill:#263238;}
	.st13{fill:none;stroke:#263238;stroke-width:9;stroke-linecap:round;stroke-linejoin:round;}
	.st14{fill:none;stroke:#263238;stroke-width:4;stroke-linecap:round;stroke-linejoin:round;}
	.st15{fill:none;stroke:#263238;stroke-width:7;stroke-linecap:round;stroke-linejoin:round;}
	.st16{fill:none;stroke:#263238;stroke-width:3;stroke-linecap:round;stroke-linejoin:round;}
	.st17{fill:#E0E0E0;}
	.st18{fill:#A8A8A8;}
	.st19{fill:none;stroke:#263238;stroke-width:0.75;stroke-linecap:round;stroke-miterlimit:10;}
</style>
<g id="freepik--background-simple--inject-97" class="st0">
	<path class="st1" d="M819.2,311.1c9-59.9,1.2-120.5-36.2-172.3C740.2,79.6,672.4,37.7,600.3,25.9c-12.8-2.1-25.8-3.2-38.9-3.3
		c-31.1-0.2-62,4.7-91.4,14.6c-49.8,16.8-92.5,46.1-131.2,81c-17.2,15.5-33.9,35.4-56.7,42.6c-23.6,7.5-49-2.2-72-8.1
		c-43.1-11.1-106.4-35.1-149.4-12.3c-56.4,30-73.2,96-51.6,147.6s87.6,55.2,94.8,94.8c7.2,39.6,42,98.4,117.6,92.4
		S326,404.4,374,423.6c16.9,6.8,30.2,19.2,44.5,29.9c20,14.9,41.7,25.1,66.3,29.8c35.2,6.7,73.7,3.2,109.2,1.5
		c40.8-2,84.7-0.5,124.3-14.7c42.5-15.3,69.4-48.9,83.8-91C810,356.9,815.6,334.2,819.2,311.1z"/>
	<path class="st2" d="M819.2,311.1c9-59.9,1.2-120.5-36.2-172.3C740.2,79.6,672.4,37.7,600.3,25.9c-12.8-2.1-25.8-3.2-38.9-3.3
		c-31.1-0.2-62,4.7-91.4,14.6c-49.8,16.8-92.5,46.1-131.2,81c-17.2,15.5-33.9,35.4-56.7,42.6c-23.6,7.5-49-2.2-72-8.1
		c-43.1-11.1-106.4-35.1-149.4-12.3c-56.4,30-73.2,96-51.6,147.6s87.6,55.2,94.8,94.8c7.2,39.6,42,98.4,117.6,92.4
		S326,404.4,374,423.6c16.9,6.8,30.2,19.2,44.5,29.9c20,14.9,41.7,25.1,66.3,29.8c35.2,6.7,73.7,3.2,109.2,1.5
		c40.8-2,84.7-0.5,124.3-14.7c42.5-15.3,69.4-48.9,83.8-91C810,356.9,815.6,334.2,819.2,311.1z"/>
</g>
<g id="freepik--Device--inject-97">
	<path class="st3" d="M512,429.6h208.3c8.3,0,15-6.7,15-15V29.3c0-8.3-6.7-15-15-15l0,0H117.7c-8.3,0-15,6.7-15,15l0,0v385.3
		c0,8.3,6.7,15,15,15H326"/>
	<rect x="115.9" y="31.1" class="st3" width="605" height="354.1"/>
	<rect x="326" y="429.6" class="st3" width="186.1" height="42"/>
	<polyline class="st3" points="512,471.6 544.4,471.6 544.4,487.6 293.6,487.6 293.6,471.6 326,471.6 	"/>
</g>
<g id="freepik--Data--inject-97">
	<polygon class="st4" points="206.4,143.3 159.3,143.3 159.3,80.5 196.3,80.5 206.4,90.4 	"/>
	<polygon class="st5" points="197.6,89.4 197.6,91.9 206.4,90.4 	"/>
	<polygon class="st4" points="196.3,80.5 196.3,90.4 206.4,90.4 	"/>
	<line class="st3" x1="165.3" y1="94.2" x2="201.5" y2="94.2"/>
	<line class="st3" x1="165.3" y1="103.1" x2="201.5" y2="103.1"/>
	<line class="st3" x1="165.3" y1="112.1" x2="201.5" y2="112.1"/>
	<line class="st3" x1="165.3" y1="121.1" x2="201.5" y2="121.1"/>
	<line class="st3" x1="165.3" y1="130.1" x2="201.5" y2="130.1"/>
	<polygon class="st6" points="181.5,290.9 142.7,290.9 142.7,239.1 173.2,239.1 181.5,247.2 	"/>
	<polygon class="st5" points="174.2,246.4 174.2,248.5 181.5,247.2 	"/>
	<polygon class="st4" points="173.2,239.1 173.2,247.2 181.5,247.2 	"/>
	<line class="st3" x1="147.6" y1="250.3" x2="177.5" y2="250.3"/>
	<line class="st3" x1="147.6" y1="257.7" x2="177.5" y2="257.7"/>
	<line class="st3" x1="147.6" y1="265.1" x2="177.5" y2="265.1"/>
	<line class="st3" x1="147.6" y1="272.5" x2="177.5" y2="272.5"/>
	<line class="st3" x1="147.6" y1="279.9" x2="177.5" y2="279.9"/>
	<polygon class="st4" points="304.8,247.5 257.7,247.5 257.7,184.7 294.7,184.7 304.8,194.5 	"/>
	<polygon class="st5" points="296,193.5 296,196.1 304.8,194.5 	"/>
	<polygon class="st4" points="294.7,184.7 294.7,194.5 304.8,194.5 	"/>
	<line class="st3" x1="263.7" y1="198.3" x2="299.9" y2="198.3"/>
	<line class="st3" x1="263.7" y1="207.3" x2="299.9" y2="207.3"/>
	<line class="st3" x1="263.7" y1="216.3" x2="299.9" y2="216.3"/>
	<line class="st3" x1="263.7" y1="225.2" x2="299.9" y2="225.2"/>
	<line class="st3" x1="263.7" y1="234.2" x2="299.9" y2="234.2"/>
	<path class="st4" d="M102.6,146.3h51.8c5.7,0,10.3,4.6,10.3,10.3v61.6c0,5.7-4.6,10.3-10.3,10.3h-51.8c-5.7,0-10.3-4.6-10.3-10.3
		v-61.6C92.2,150.9,96.9,146.3,102.6,146.3z"/>
	<path class="st5" d="M156.7,146.3h-56.4c-4.4,0-8.1,3.6-8.1,8.1l0,0v1.7h72.5v-1.7C164.7,149.9,161.1,146.3,156.7,146.3z"/>
	<line class="st3" x1="102.6" y1="170.4" x2="154.4" y2="170.4"/>
	<line class="st3" x1="102.6" y1="183.1" x2="154.4" y2="183.1"/>
	<line class="st3" x1="102.6" y1="195.8" x2="154.4" y2="195.8"/>
	<line class="st3" x1="102.6" y1="208.4" x2="154.4" y2="208.4"/>
	<path class="st7" d="M146.2,150.9c0-1.3-1-2.3-2.3-2.3s-2.3,1-2.3,2.3c0,1.3,1,2.3,2.3,2.3l0,0
		C145.2,153.2,146.2,152.2,146.2,150.9z"/>
	<path class="st7" d="M153.9,150.9c0-1.3-1-2.3-2.3-2.3s-2.3,1-2.3,2.3c0,1.3,1,2.3,2.3,2.3l0,0
		C152.8,153.2,153.9,152.2,153.9,150.9z"/>
	<path class="st7" d="M161.4,150.9c0-1.3-1-2.3-2.3-2.3c-1.3,0-2.3,1-2.3,2.3c0,1.3,1,2.3,2.3,2.3c0,0,0,0,0,0
		C160.4,153.2,161.4,152.2,161.4,150.9C161.4,150.9,161.4,150.9,161.4,150.9z"/>
	<circle class="st7" cx="119.6" cy="203.5" r="1.6"/>
	<circle class="st7" cx="124.8" cy="203.5" r="1.6"/>
	<path class="st7" d="M131.7,203.5c0-0.9-0.7-1.6-1.6-1.6s-1.6,0.7-1.6,1.6c0,0.9,0.7,1.6,1.6,1.6S131.7,204.4,131.7,203.5
		L131.7,203.5z"/>
	<line class="st3" x1="108.6" y1="274.6" x2="125.4" y2="274.6"/>
	<line class="st3" x1="89.9" y1="274.6" x2="105.5" y2="274.6"/>
	<line class="st3" x1="118.9" y1="279.9" x2="125.4" y2="279.9"/>
	<line class="st3" x1="89.9" y1="279.9" x2="115.8" y2="279.9"/>
	<line class="st3" x1="122.8" y1="285.2" x2="125.4" y2="285.2"/>
	<line class="st3" x1="108.9" y1="285.2" x2="118.6" y2="285.2"/>
	<line class="st3" x1="89.9" y1="285.2" x2="106.1" y2="285.2"/>
	<line class="st3" x1="89.9" y1="290.6" x2="125.4" y2="290.6"/>
	<line class="st3" x1="119.5" y1="295.9" x2="125.4" y2="295.9"/>
	<line class="st3" x1="99.1" y1="295.9" x2="113.4" y2="295.9"/>
	<line class="st3" x1="89.9" y1="295.9" x2="94.9" y2="295.9"/>
	<line class="st3" x1="106.1" y1="301.2" x2="125.4" y2="301.2"/>
	<line class="st3" x1="89.9" y1="301.2" x2="102.8" y2="301.2"/>
	<line class="st3" x1="115.8" y1="306.5" x2="125.4" y2="306.5"/>
	<line class="st3" x1="106.4" y1="306.5" x2="113.1" y2="306.5"/>
	<line class="st3" x1="89.9" y1="306.5" x2="102.8" y2="306.5"/>
	<polygon class="st4" points="187.7,200.8 187.7,253.7 234.8,253.7 234.8,190.9 197.8,190.9 	"/>
	<polygon class="st5" points="196.6,199.7 196.6,202.3 187.7,200.8 	"/>
	<polygon class="st4" points="197.8,190.9 197.8,200.8 187.7,200.8 	"/>
	<line class="st3" x1="228.9" y1="204.6" x2="192.6" y2="204.6"/>
	<line class="st3" x1="228.9" y1="213.5" x2="192.6" y2="213.5"/>
	<line class="st3" x1="228.9" y1="222.5" x2="192.6" y2="222.5"/>
	<line class="st3" x1="228.9" y1="231.5" x2="192.6" y2="231.5"/>
	<rect x="187.7" y="239.1" class="st5" width="47.1" height="14.7"/>
</g>
<g id="freepik--Graphics--inject-97">
	<path class="st8" d="M775.5,187.7l-8.3-0.2l-0.1,4.7c-2,0.2-4.1,0.7-6,1.3l-2.4-4.3l-7.3,4l2.3,4.2c-1.7,1.2-3.2,2.6-4.6,4.2
		l-4.2-2.5l-4.3,7.1l4,2.5c-0.8,1.9-1.5,3.9-1.9,5.9l-4.9-0.1l-0.2,8.3l4.7,0.1c0.2,2.1,0.7,4.1,1.3,6.1l-4.3,2.3l4,7.3l4.2-2.3
		c1.2,1.7,2.6,3.2,4.2,4.6l-2.5,4.2l7.1,4.3l2.4-4c1.9,0.8,3.9,1.5,5.9,1.9l-0.1,4.9l8.3,0.2l0.1-4.7c2-0.2,4.1-0.7,6-1.3l2.3,4.3
		l7.3-4l-2.1-4.1c1.7-1.2,3.2-2.6,4.6-4.2l4.2,2.5l4.3-7.1l-4-2.5c0.8-1.9,1.5-3.9,1.9-5.9l4.9,0.1l0.2-8.3l-4.7-0.1
		c-0.2-2-0.7-4.1-1.3-6l4.3-2.3l-4-7.3l-4.2,2.3c-1.2-1.7-2.6-3.2-4.2-4.6l2.5-4.2l-7.1-4.3l-2.4,4c-1.9-0.8-3.9-1.5-5.9-1.9
		L775.5,187.7z M769.5,239.8c-11.1-0.3-19.8-9.5-19.5-20.5c0.3-11.1,9.5-19.8,20.5-19.5c11.1,0.3,19.8,9.5,19.5,20.5c0,0,0,0,0,0
		C789.8,231.4,780.6,240.1,769.5,239.8z"/>
	<path class="st8" d="M370.9,110.3v-8.4h-4.7c-0.3-2-0.8-4.1-1.5-6l4.2-2.4l-4.2-7.2l-4.1,2.4c-1.3-1.6-2.7-3.1-4.3-4.5l2.4-4.2
		l-7.2-4.2l-2.4,4.1c-1.9-0.8-3.9-1.4-6-1.7v-4.9h-8.3V78c-2,0.3-4.1,0.8-6,1.5l-2.4-4.2l-7.2,4.2l2.4,4.1c-1.6,1.3-3.1,2.7-4.5,4.3
		l-4.2-2.4l-4.2,7.2l4.1,2.4c-0.8,1.9-1.4,3.9-1.7,6h-4.9v8.3h4.7c0.3,2,0.8,4.1,1.5,6l-4.2,2.4l4.2,7.2l4.1-2.4
		c1.3,1.6,2.7,3.1,4.3,4.5l-2.4,4.2l7.2,4.2l2.4-4.1c1.9,0.8,3.9,1.4,6,1.7v4.9h8.3v-4.8c2-0.3,4.1-0.8,6-1.5l2.4,4.2l7.2-4.2
		l-2.4-4.1c1.6-1.3,3.1-2.7,4.5-4.3l4.2,2.4l4.2-7.2l-4.1-2.4c0.8-1.9,1.4-3.9,1.7-6L370.9,110.3z M318.6,105.6c0-11.1,9-20,20-20
		s20,9,20,20c0,11.1-9,20-20,20c0,0,0,0,0,0C327.6,125.6,318.6,116.7,318.6,105.6C318.6,105.6,318.6,105.6,318.6,105.6L318.6,105.6z
		"/>
	<path class="st8" d="M432.4,85.2v-8.3h-4.7c-0.3-2-0.8-4.1-1.5-6l4.2-2.4l-4.2-7.2l-4.1,2.4c-1.3-1.6-2.7-3.1-4.3-4.5l2.4-4.2
		l-7.2-4.2l-2.4,4.1c-1.9-0.8-3.9-1.4-6-1.7v-5h-8.3V53c-2.1,0.3-4.1,0.8-6,1.5l-2.4-4.2l-7.2,4.2l2.4,4.1c-1.6,1.3-3.1,2.7-4.4,4.3
		l-4.2-2.4l-4.2,7.2l4.1,2.4c-0.8,1.9-1.4,3.9-1.7,6h-4.9v8.3h4.7c0.3,2,0.8,4.1,1.5,6l-4.2,2.4l4.2,7.2l4.1-2.4
		c1.3,1.6,2.7,3.1,4.3,4.4l-2.4,4.2l7.2,4.2l2.4-4.1c1.9,0.8,3.9,1.4,6,1.7v4.9h8.3v-4.7c2.1-0.3,4.1-0.8,6-1.5l2.4,4.2l7.2-4.2
		l-2.4-4.1c1.6-1.3,3.1-2.7,4.5-4.3l4.2,2.4l4.2-7.2l-4.1-2.4c0.8-1.9,1.4-3.9,1.7-6L432.4,85.2z M380.1,80.5c0-11.1,9-20,20-20
		c11.1,0,20,9,20,20s-9,20-20,20l0,0C389.1,100.6,380.2,91.6,380.1,80.5C380.1,80.5,380.1,80.5,380.1,80.5z"/>
	<g class="st9">
		<circle class="st10" cx="184.6" cy="330.1" r="21.2"/>
		
			<ellipse transform="matrix(0.1848 -0.9828 0.9828 0.1848 -173.9304 450.5194)" class="st10" cx="184.6" cy="330.1" rx="16.2" ry="16.2"/>
		<path class="st11" d="M215.7,344.7l-11.5-6.2l-1.9,3.5l11.5,6.2l0,0c-0.5,1-0.2,2.2,0.8,2.7l21.9,11.8c1,0.5,2.2,0.2,2.7-0.8
			l1.9-3.5c0.5-1,0.2-2.2-0.8-2.7l-21.9-11.8C217.5,343.4,216.2,343.7,215.7,344.7z"/>
	</g>
	<path class="st8" d="M542,86.3c0,12.8-10.4,23.2-23.2,23.2c-12.8,0-23.2-10.4-23.2-23.2s10.4-23.2,23.2-23.2c0,0,0,0,0,0"/>
	<path class="st8" d="M542,86.3h-23.2V63.1C531.7,63.1,542,73.5,542,86.3z"/>
	<polyline class="st8" points="539.6,70.3 551.7,60.7 568.5,60.7 	"/>
	<line class="st8" x1="578.1" y1="60.7" x2="600.5" y2="60.7"/>
	<line class="st8" x1="578.1" y1="67.9" x2="600.5" y2="67.9"/>
	<line class="st8" x1="578.1" y1="75.1" x2="600.5" y2="75.1"/>
	<line class="st8" x1="578.1" y1="82.3" x2="600.5" y2="82.3"/>
	<g class="st9">
		<polygon class="st10" points="341.2,333.7 340.3,329.5 325.1,329.5 326,333.7 326.8,337.5 331.9,362.7 372.5,362.7 366.6,333.7 		
			"/>
		<polyline class="st10" points="372.5,362.7 380,335.7 367.2,335.7 		"/>
	</g>
</g>
<g id="freepik--Bot--inject-97">
	<path class="st12" d="M427.4,266.3c1.2,0,2.2,1,2.2,2.2c0,0,0,0,0,0v13.7c-0.1,1.2-1.2,2.1-2.4,2.1c-1.1-0.1-2-1-2.1-2.1v-13.7
		C425.2,267.2,426.2,266.3,427.4,266.3C427.4,266.3,427.4,266.3,427.4,266.3z"/>
	<path class="st12" d="M422,266.3c1.2,0,2.2,1,2.2,2.2c0,0,0,0,0,0v13.7c-0.1,1.2-1.2,2.1-2.4,2.1c-1.1-0.1-2-1-2.1-2.1v-13.7
		C419.8,267.2,420.8,266.3,422,266.3z"/>
	<path class="st12" d="M416.7,266.3L416.7,266.3c1.2,0,2.2,1,2.2,2.2c0,0,0,0,0,0v13.7c0,1.2-1,2.2-2.2,2.2c0,0,0,0,0,0l0,0
		c-1.2,0-2.2-1-2.2-2.2c0,0,0,0,0,0v-13.7C414.5,267.2,415.5,266.3,416.7,266.3C416.7,266.3,416.7,266.3,416.7,266.3z"/>
	<path class="st12" d="M411.4,266.3c1.2,0,2.2,1,2.2,2.2c0,0,0,0,0,0v13.7c-0.1,1.2-1.2,2.1-2.4,2.1c-1.1-0.1-2-1-2.1-2.1v-13.7
		C409.2,267.2,410.2,266.3,411.4,266.3z"/>
	<path class="st12" d="M406.1,266.3c1.2,0,2.2,1,2.2,2.2c0,0,0,0,0,0v13.7c0,1.2-1,2.2-2.2,2.2c-1.2,0-2.2-1-2.2-2.2v-13.7
		C403.9,267.2,404.9,266.3,406.1,266.3C406.1,266.3,406.1,266.3,406.1,266.3z"/>
	<path class="st12" d="M400.8,266.3L400.8,266.3c1.2,0,2.2,1,2.2,2.2c0,0,0,0,0,0v13.7c0,1.2-1,2.2-2.2,2.2c0,0,0,0,0,0l0,0
		c-1.2,0-2.2-1-2.2-2.2v-13.7C398.6,267.2,399.6,266.3,400.8,266.3z"/>
	<path class="st12" d="M395.5,266.3c1.2,0,2.2,1,2.2,2.2c0,0,0,0,0,0v13.7c0,1.2-1,2.2-2.2,2.2c-1.2,0-2.2-1-2.2-2.2v-13.7
		C393.3,267.2,394.3,266.3,395.5,266.3C395.5,266.3,395.5,266.3,395.5,266.3z"/>
	<path class="st12" d="M390.2,266.3c1.2,0,2.2,1,2.2,2.2v13.7c-0.1,1.2-1.2,2.1-2.4,2.1c-1.1-0.1-2-1-2.1-2.1v-13.7
		C388,267.2,389,266.3,390.2,266.3C390.2,266.3,390.2,266.3,390.2,266.3z"/>
	<path class="st12" d="M384.9,266.3c1.2,0,2.2,1,2.2,2.2c0,0,0,0,0,0v13.7c0,1.2-1,2.2-2.2,2.2c-1.2,0-2.2-1-2.2-2.2v-13.7
		C382.7,267.2,383.7,266.3,384.9,266.3C384.9,266.3,384.9,266.3,384.9,266.3z"/>
	<path class="st12" d="M379.6,266.3c1.2,0,2.2,1,2.2,2.2v13.7c-0.1,1.2-1.2,2.1-2.4,2.1c-1.1-0.1-2-1-2.1-2.1v-13.7
		C377.4,267.2,378.4,266.3,379.6,266.3C379.6,266.3,379.6,266.3,379.6,266.3z"/>
	<path class="st12" d="M374.3,266.3c1.2,0,2.2,1,2.2,2.2c0,0,0,0,0,0v13.7c0,1.2-1,2.2-2.2,2.2c-1.2,0-2.2-1-2.2-2.2v-13.7
		C372,267.2,373,266.3,374.3,266.3C374.2,266.3,374.2,266.3,374.3,266.3z"/>
	<path class="st12" d="M370.5,266.3c-0.1,0.2-0.1,0.4,0,0.6c0.4,0.4,0.6,1,0.6,1.5v13.7c0,0.6-0.2,1.1-0.6,1.5c-1,0.5-2,0.7-3.1,0.6
		c-2.5,0-4.1-1-3.5-2.2l5.7-13.7C369.9,267.8,370.2,267,370.5,266.3z"/>
	<path class="st12" d="M370.5,266.3c-0.4,0.7-0.8,1.4-1.1,2.2l-7,13.7c-0.6,1.2-3,2.2-5.5,2.2s-3.5-1-2.3-2.2l13.7-13.7l1.6-1.5
		C370.3,266.5,370.5,266.3,370.5,266.3z"/>
	<path class="st12" d="M370.5,266.3c-0.2,0.2-0.4,0.4-0.6,0.6l-1.5,1.6l-13.7,13.7c-1.2,1.2-2.2,0.2-2.2-2.4s1-5.1,2.2-5.6l13.7-6.9
		C369,267,369.8,266.7,370.5,266.3z"/>
	<path class="st12" d="M370.5,266.3c-0.7,0.2-1.5,0.5-2.2,0.9l-13.7,5.5c-1.2,0.5-2.2-1.1-2.2-3.7c0-0.6,0.1-1.2,0.2-1.8
		c0.1-0.3,0.1-0.5,0.2-0.8c0-0.1,0.1-0.2,0.1-0.3l0.1-0.2c0.4-0.4,1-0.7,1.5-0.7h13.7c0.6,0,1.1,0.2,1.5,0.7l0.1,0.2
		c0,0.1,0.1,0.1,0.1,0.1L370.5,266.3L370.5,266.3z"/>
	<path class="st12" d="M370.5,262.2c0,1.2-0.9,2.2-2.2,2.3c0,0,0,0,0,0h-13.7c-1.2-0.1-2.2-1.2-2.1-2.4c0.1-1.1,1-2,2.1-2.1h13.7
		C369.5,260,370.5,261,370.5,262.2C370.5,262.2,370.5,262.2,370.5,262.2z"/>
	<path class="st12" d="M370.5,256.8c0,1.2-0.9,2.2-2.2,2.3c0,0,0,0,0,0h-13.7c-1.2-0.1-2.2-1.2-2.1-2.4c0.1-1.1,1-2,2.1-2.1h13.7
		C369.5,254.5,370.5,255.5,370.5,256.8C370.5,256.8,370.5,256.8,370.5,256.8z"/>
	<path class="st12" d="M370.5,251.3c0,1.2-0.9,2.2-2.2,2.3c0,0,0,0,0,0h-13.7c-1.2-0.1-2.2-1.2-2.1-2.4c0.1-1.1,1-2,2.1-2.1h13.7
		C369.5,249.1,370.5,250.1,370.5,251.3C370.5,251.3,370.5,251.3,370.5,251.3z"/>
	<path class="st12" d="M370.5,246c0,1.2-0.9,2.2-2.2,2.3c0,0,0,0,0,0h-13.7c-1.2-0.1-2.2-1.2-2.1-2.4c0.1-1.1,1-2,2.1-2.1h13.7
		C369.5,243.7,370.5,244.7,370.5,246C370.5,246,370.5,246,370.5,246z"/>
	<path class="st12" d="M370.5,240.5c0,1.2-0.9,2.2-2.2,2.3c0,0,0,0,0,0h-13.7c-1.2-0.1-2.2-1.2-2.1-2.4c0.1-1.1,1-2,2.1-2.1h13.7
		C369.5,238.2,370.5,239.2,370.5,240.5C370.5,240.5,370.5,240.5,370.5,240.5z"/>
	<path class="st12" d="M370.5,235c0,1.2-0.9,2.2-2.2,2.3c0,0,0,0,0,0h-13.7c-1.2-0.1-2.2-1.2-2.1-2.4c0.1-1.1,1-2,2.1-2.1h13.7
		C369.5,232.8,370.5,233.8,370.5,235C370.5,235,370.5,235,370.5,235z"/>
	<path class="st12" d="M370.5,228.3L370.5,228.3c0,0.6-0.1,1.2-0.2,1.8c0,0.3-0.1,0.5-0.2,0.8c0,0.1-0.1,0.2-0.1,0.2
		c0,0.1-0.1,0.1-0.1,0.2c-0.4,0.4-1,0.7-1.5,0.7h-13.7c-0.6,0-1.1-0.2-1.5-0.7l-0.1-0.2c0-0.1-0.1-0.1-0.1-0.1h-0.4
		c0.7-0.2,1.5-0.5,2.2-0.9l13.7-5.5C369.5,224.1,370.5,225.7,370.5,228.3z"/>
	<path class="st12" d="M370.5,217.4L370.5,217.4c0,2.6-1,5.1-2.2,5.6l-13.7,6.9c-0.7,0.3-1.5,0.7-2.2,1.1c0,0,0.2-0.2,0.6-0.6
		l1.5-1.6l13.7-13.7C369.5,213.8,370.5,214.9,370.5,217.4z"/>
	<path class="st12" d="M366.2,212.9c2.4,0,3.4,1,2.1,2.2l-13.7,13.7l-1.6,1.6c-0.2,0.2-0.4,0.4-0.6,0.6c0.4-0.7,0.8-1.4,1.1-2.2
		l7.2-13.7C361.3,213.9,363.8,212.9,366.2,212.9z"/>
	<path class="st12" d="M355.9,212.9c2.4,0,3.9,1,3.3,2.2l-6,13.7c-0.4,0.7-0.7,1.4-0.9,2.2c0-0.2,0-0.4,0-0.6V230
		c-0.1-0.1-0.1-0.2-0.2-0.4c-0.1-0.3-0.2-0.6-0.2-0.8v-13.7c0-0.3,0.1-0.6,0.2-0.9c0.1-0.1,0.1-0.2,0.2-0.4c0.2-0.1,0.3-0.2,0.5-0.3
		C353.8,213.1,354.9,212.9,355.9,212.9z"/>
	<path class="st12" d="M349,212.9c1.2,0,2.1,1,2.1,2.2v13.7c0,1.2-1,2.1-2.1,2.1c-1.2,0-2.1-1-2.1-2.1c0,0,0,0,0,0v-13.7
		C346.9,213.9,347.8,212.9,349,212.9z"/>
	<path class="st12" d="M343.9,212.9c1.2,0,2.1,1,2.1,2.2v13.7c0,1.2-1,2.1-2.1,2.1c-1.2,0-2.1-1-2.1-2.1c0,0,0,0,0,0v-13.7
		C341.7,213.9,342.7,212.9,343.9,212.9C343.9,212.9,343.9,212.9,343.9,212.9z"/>
	<path class="st12" d="M338.8,212.9L338.8,212.9c1.2,0,2.1,1,2.1,2.2v13.7c0,1.2-0.9,2.2-2.1,2.2c0,0,0,0,0,0l0,0
		c-1.2,0-2.1-1-2.1-2.1c0,0,0,0,0,0v-13.7C336.6,213.9,337.6,212.9,338.8,212.9C338.8,212.9,338.8,212.9,338.8,212.9z"/>
	<path class="st4" d="M335.1,239.3L335.1,239.3v-34.5l0,0c7.4,0,13.4,6,13.4,13.4v0v7.7C348.5,233.3,342.5,239.3,335.1,239.3
		L335.1,239.3z"/>
	<path class="st4" d="M300.6,272.6l35.9-17.7c3.5-1.7,5.6-5.2,5.6-9.1V199c0-3.9-2.2-7.4-5.6-9.1l-35.9-17.7V272.6z"/>
	<line class="st3" x1="367.7" y1="292.3" x2="394.2" y2="292.3"/>
	<line class="st3" x1="362.4" y1="296.9" x2="373" y2="296.9"/>
	<line class="st3" x1="379" y1="223.7" x2="379" y2="249.5"/>
	<line class="st3" x1="374.3" y1="232.9" x2="374.3" y2="217.1"/>
	<line class="st3" x1="343.9" y1="265.4" x2="343.9" y2="278.7"/>
	<line class="st3" x1="348.5" y1="260.8" x2="348.5" y2="272.7"/>
	<line class="st13" x1="576.4" y1="172.2" x2="583.3" y2="172.2"/>
	<polyline class="st14" points="523.6,254.9 551.1,254.9 551.1,172.2 576.4,172.2 	"/>
	<line class="st13" x1="576.4" y1="339.2" x2="584.9" y2="339.2"/>
	<polyline class="st14" points="518.2,280.2 550.4,280.2 550.4,339.2 576.4,339.2 	"/>
	<polyline class="st14" points="418.8,176.6 412,176.6 412,238.9 	"/>
	<line class="st15" x1="424.2" y1="176.6" x2="418.8" y2="176.6"/>
	<rect x="454.3" y="200" class="st5" width="31.4" height="33.7"/>
	<rect x="483.8" y="153.4" class="st5" width="30.9" height="30.3"/>
	<path class="st4" d="M502.3,183.7H516c-9.5,25.1-37.4,37.7-62.5,28.3c-10.6-4-19.5-11.6-25.1-21.5c-4.3-7.5-6.4-16.1-6.3-24.7
		c0-0.8,0-1.5,0.1-2.3c1.7-26.8,24.8-47,51.6-45.3c21.4,1.4,39.3,16.6,44.2,37.5h-15.6c-7.7,0-14,6.3-14,14S494.6,183.7,502.3,183.7
		L502.3,183.7L502.3,183.7z"/>
	<line class="st3" x1="474.3" y1="168.5" x2="488.3" y2="168.5"/>
	<line class="st3" x1="463" y1="120.2" x2="463" y2="212.9"/>
	<circle class="st5" cx="461.9" cy="168.5" r="12.4"/>
	<path class="st4" d="M468.1,168.5c0-3.4-2.8-6.2-6.2-6.2s-6.2,2.8-6.2,6.2s2.8,6.2,6.2,6.2c0,0,0,0,0,0
		C465.3,174.7,468.1,171.9,468.1,168.5C468.1,168.5,468.1,168.5,468.1,168.5z"/>
	<circle class="st1" cx="503.4" cy="168.5" r="6.2"/>
	<path class="st5" d="M437.8,165.7v24.7h-9.4c-4.3-7.5-6.4-16.1-6.3-24.7H437.8z"/>
	<line class="st16" x1="470" y1="330.6" x2="470" y2="403.5"/>
	<circle class="st4" cx="470" cy="362.3" r="18.7"/>
	<circle class="st4" cx="470" cy="399.8" r="9"/>
	<path class="st4" d="M537.1,246.3L516.4,308c-5.8,17.2-23.3,28.9-43.1,28.9h-6.7c-19.8,0-37.3-11.7-43.1-28.9l-20.7-61.7
		c-3.1-9.4,4.6-18.8,15.4-18.8h103.5C532.5,227.5,540.3,236.9,537.1,246.3z"/>
	<path class="st4" d="M528.5,252.1c-5.2-1.4-10.6,1.5-12.4,6.6l-16.7,48.9c-1.7,4.9,0.6,10.3,5.3,12.6l3.6,1.7
		c3.6-4,6.3-8.7,8.1-13.8l18.2-54.2L528.5,252.1z"/>
	<path class="st4" d="M423.3,258.6c-1.7-5.1-7.2-8-12.4-6.6l-5.7,1.5l18.3,54.4c1.7,5,4.4,9.7,7.9,13.6l3.3-1.5
		c4.7-2.2,7-7.6,5.3-12.6L423.3,258.6z"/>
	<path class="st4" d="M502.4,227.5c-0.5,4.7-4.5,8.3-9.2,8.3h-48c-4.7,0-8.7-3.6-9.2-8.3H502.4z"/>
	<line class="st3" x1="470" y1="336.6" x2="470" y2="235.8"/>
	<path class="st6" d="M442.7,247.8h54.6c3.4,0,6.1,2.7,6.1,6.1v24.9c0,3.4-2.7,6.1-6.1,6.1h-54.6c-3.4,0-6.1-2.7-6.1-6.1v-24.9
		C436.6,250.5,439.3,247.8,442.7,247.8z"/>
	<circle class="st5" cx="470" cy="296.4" r="7.2"/>
	<circle class="st1" cx="470" cy="296.4" r="3"/>
</g>
<g id="freepik--Charts--inject-97">
	<path class="st5" d="M596,98.6h166c8.6,0,15.6,7,15.6,15.6v114.5c0,8.6-7,15.6-15.6,15.6H596c-8.6,0-15.6-7-15.6-15.6V114.2
		C580.4,105.6,587.4,98.6,596,98.6z"/>
	<path class="st4" d="M599.8,107.5h158.4c6.1,0,11.1,5,11.1,11.1v105.7c0,6.1-5,11.1-11.1,11.1H599.8c-6.1,0-11.1-5-11.1-11.1V118.7
		C588.7,112.5,593.7,107.5,599.8,107.5z"/>
	<rect x="612.1" y="128.9" class="st17" width="143.2" height="5.2"/>
	<rect x="612.1" y="141.2" class="st17" width="143.2" height="5.2"/>
	<rect x="612.1" y="153.5" class="st17" width="143.2" height="5.2"/>
	<rect x="612.1" y="165.8" class="st17" width="143.2" height="5.2"/>
	<rect x="612.1" y="178.1" class="st17" width="143.2" height="5.2"/>
	<rect x="612.1" y="190.4" class="st17" width="143.2" height="5.2"/>
	<rect x="612.1" y="202.7" class="st17" width="143.2" height="5.2"/>
	<rect x="613" y="159.6" class="st12" width="13.9" height="57.6"/>
	<rect x="634.3" y="175.7" class="st1" width="13.9" height="41.5"/>
	<rect x="655.7" y="165.7" class="st12" width="13.9" height="51.5"/>
	<rect x="677" y="186.5" class="st1" width="13.9" height="30.7"/>
	<rect x="698.3" y="166.7" class="st12" width="13.9" height="50.4"/>
	<rect x="719.7" y="153.5" class="st1" width="13.9" height="63.7"/>
	<rect x="741" y="145.2" class="st12" width="13.9" height="72"/>
	<line class="st3" x1="601.5" y1="129.9" x2="606.3" y2="129.9"/>
	<line class="st3" x1="601.5" y1="136.7" x2="606.3" y2="136.7"/>
	<line class="st3" x1="601.5" y1="143.6" x2="606.3" y2="143.6"/>
	<line class="st3" x1="601.5" y1="150.4" x2="606.3" y2="150.4"/>
	<line class="st3" x1="601.5" y1="157.3" x2="606.3" y2="157.3"/>
	<line class="st3" x1="601.5" y1="164.1" x2="606.3" y2="164.1"/>
	<line class="st3" x1="601.5" y1="171" x2="606.3" y2="171"/>
	<line class="st3" x1="601.5" y1="177.8" x2="606.3" y2="177.8"/>
	<line class="st3" x1="601.5" y1="184.7" x2="606.3" y2="184.7"/>
	<line class="st3" x1="601.5" y1="191.5" x2="606.3" y2="191.5"/>
	<line class="st3" x1="601.5" y1="198.4" x2="606.3" y2="198.4"/>
	<line class="st3" x1="601.5" y1="205.2" x2="606.3" y2="205.2"/>
	<line class="st3" x1="601.5" y1="212.1" x2="606.3" y2="212.1"/>
	<line class="st3" x1="601.5" y1="218.9" x2="606.3" y2="218.9"/>
	<line class="st3" x1="755.4" y1="220.9" x2="755.4" y2="225.7"/>
	<line class="st3" x1="744" y1="220.9" x2="744" y2="225.7"/>
	<line class="st3" x1="732.6" y1="220.9" x2="732.6" y2="225.7"/>
	<line class="st3" x1="721.2" y1="220.9" x2="721.2" y2="225.7"/>
	<line class="st3" x1="709.9" y1="220.9" x2="709.9" y2="225.7"/>
	<line class="st3" x1="698.5" y1="220.9" x2="698.5" y2="225.7"/>
	<line class="st3" x1="687.1" y1="220.9" x2="687.1" y2="225.7"/>
	<line class="st3" x1="675.7" y1="220.9" x2="675.7" y2="225.7"/>
	<line class="st3" x1="664.4" y1="220.9" x2="664.4" y2="225.7"/>
	<line class="st3" x1="653" y1="220.9" x2="653" y2="225.7"/>
	<line class="st3" x1="641.6" y1="220.9" x2="641.6" y2="225.7"/>
	<line class="st3" x1="630.2" y1="220.9" x2="630.2" y2="225.7"/>
	<line class="st3" x1="618.8" y1="220.9" x2="618.8" y2="225.7"/>
	<line class="st3" x1="607.5" y1="220.9" x2="607.5" y2="225.7"/>
	<rect x="662.5" y="117" class="st12" width="31.9" height="5.2"/>
	<path class="st5" d="M596,262.1h166c8.6,0,15.6,7,15.6,15.6v114.5c0,8.6-7,15.6-15.6,15.6H596c-8.6,0-15.6-7-15.6-15.6V277.7
		C580.4,269.1,587.4,262.1,596,262.1z"/>
	<path class="st4" d="M599.8,271h158.4c6.1,0,11.1,5,11.1,11.1v105.7c0,6.1-5,11.1-11.1,11.1H599.8c-6.1,0-11.1-5-11.1-11.1V282.1
		C588.7,276,593.7,271,599.8,271z"/>
	<path class="st12" d="M648.7,386.5c-26.9,0-48.6-21.8-48.6-48.6c0-23.2,16.4-43.2,39.2-47.7l2.3,11.8c-19.8,3.9-32.8,23.1-28.9,43
		c3.9,19.8,23.1,32.8,43,28.9c1.6-0.3,3.2-0.7,4.8-1.3l3.9,11.4C659.3,385.7,654,386.5,648.7,386.5z"/>
	<path class="st1" d="M683.2,325.5c-6.2-17-23.8-26.9-41.5-23.5l-2.4-11.8c23.6-4.6,46.9,8.7,55.1,31.2L683.2,325.5z"/>
	<path class="st18" d="M664.3,384l-3.9-11.4c19.2-6.5,29.4-27.3,22.9-46.5c-0.1-0.2-0.1-0.4-0.2-0.6l11.3-4.1
		c9.1,25.3-4,53.2-29.3,62.3C664.9,383.8,664.6,383.9,664.3,384z"/>
	<rect x="713.6" y="300.5" class="st12" width="13.5" height="13.5"/>
	<rect x="713.6" y="333.5" class="st1" width="13.5" height="13.5"/>
	<rect x="713.6" y="366.5" class="st18" width="13.5" height="13.5"/>
	<line class="st3" x1="734.2" y1="307.6" x2="757" y2="307.6"/>
	<line class="st3" x1="734.2" y1="339.5" x2="757" y2="339.5"/>
	<line class="st3" x1="636.2" y1="338.8" x2="659" y2="338.8"/>
	<line class="st3" x1="734.2" y1="372.9" x2="757" y2="372.9"/>
</g>
<g id="freepik--Floor--inject-97">
	<line class="st19" x1="82.3" y1="487.6" x2="55.9" y2="487.6"/>
	<line class="st19" x1="750.9" y1="487.6" x2="96.7" y2="487.6"/>
	<line class="st19" x1="801.3" y1="487.6" x2="759.3" y2="487.6"/>
</g>
</svg>
