<?xml version="1.0" encoding="utf-8"?>
<!-- Generator: Adobe Illustrator 23.0.0, SVG Export Plug-In . SVG Version: 6.00 Build 0)  -->
<svg version="1.1" xmlns="http://www.w3.org/2000/svg" xmlns:xlink="http://www.w3.org/1999/xlink" x="0px" y="0px" width="826.6px"
	 height="797.4px" viewBox="0 0 826.6 797.4" style="enable-background:new 0 0 826.6 797.4;" xml:space="preserve">
<style type="text/css">
	.st0{fill:#EBEBEB;}
	.st1{fill:#FFFFFF;}
	.st2{fill:#E6E6E6;}
	.st3{display:none;}
	.st4{display:inline;}
	.st5{fill:#407BFF;}
	.st6{opacity:0.9;fill:#FFFFFF;}
	.st7{fill:#F5F5F5;}
	.st8{fill:#7852DD;}
	.st9{fill:#805CE5;}
	.st10{fill:#263238;}
	.st11{fill:#6D3FEA;}
	.st12{opacity:0.1;}
	.st13{fill:#8560EA;}
	.st14{fill:#B19AED;}
	.st15{fill:#5621CB;}
	.st16{opacity:0.2;fill:#FFFFFF;}
</style>
<g id="Background_Complete">
	<g>
		<g>
			<g>
				<path class="st0" d="M805.2,346.5c6.2-21.6,5.1-43.6-1.9-63.3c5.5-7.8,9.8-16.6,12.6-26.3c12.8-44.5-10.6-90.8-52.7-107.4
					C754.9,91.3,713.6,40.3,653.4,23C605.9,9.3,557.1,19.6,520,46.7c-9.3-9.7-21.2-17.2-35-21.2c-41.7-12-85.3,12-97.3,53.7
					c-2,7-3,14-3.1,20.9c-42,8.5-77.9,39.4-90.6,83.4c-11.4,39.5-1.3,80.1,23.3,109.4c-3.2,5.8-5.8,11.9-7.7,18.5
					c-13.7,47.4,13.7,96.8,61,110.5c15.6,4.5,31.4,4.5,46.2,0.9c17.4,24,42.6,42.6,73.3,51.5c39.5,11.4,79.9,4.3,112.1-16.1
					c14.4,33.5,26.2,83.7,0.8,133c92.6-9.1,159.4-97.9,145.8-179.2C775.3,399.8,796.5,376.7,805.2,346.5z"/>
				<path class="st1" d="M627.5,572.8c-0.5,0-1-0.2-1.4-0.6c-0.5-0.5-0.7-1.2-0.5-1.9c13-45.4,1.2-89-11.1-117.5l-6.2-14.5
					l-13.3,8.4c-20.1,12.7-43.1,19.5-66.7,19.5c-11.6,0-23.2-1.6-34.5-4.9c-26.9-7.8-49.8-23.8-66.2-46.5l-5.3-7.3l-8.8,2.2
					c-12.9,3.2-26.4,2.9-39.2-0.7c-19.5-5.6-35.6-18.5-45.4-36.2c-9.8-17.7-12.1-38.2-6.5-57.7c1.6-5.4,3.8-10.7,6.6-15.8l4.5-8.1
					l-6-7.1c-22.7-26.9-30.5-63.2-20.7-97c10.9-37.8,41.7-66.2,80.4-74l10.6-2.1l0.1-10.8c0.1-5.9,0.9-11.7,2.5-17.4
					c8-27.8,33.8-47.2,62.6-47.2c6.1,0,12.2,0.9,18.1,2.6c11.1,3.2,21.1,9.3,29,17.6l8.1,8.5l9.5-6.9c24-17.5,53.4-27.2,82.9-27.2
					c13.1,0,26.2,1.9,38.9,5.5c53.1,15.3,92.4,60.7,100.1,115.5l1.1,7.7l7.3,2.9c36.4,14.4,55.6,53.6,44.8,91.3
					c-2.3,8-5.9,15.5-10.7,22.4l-4,5.7l2.3,6.5c6.3,17.8,6.9,36.9,1.7,55.1c-7.3,25.2-25.1,46-49,57l-9.3,4.3l1.7,10.1
					c5.8,34.7-4.6,72.6-28.7,104c-20,26.2-48,45.5-78.9,54.5C627.9,572.8,627.7,572.8,627.5,572.8z M609.3,433.7
					c0.2,0,0.4,0,0.6,0.1c0.5,0.2,1,0.6,1.2,1.1l7.1,16.5c12.2,28.4,24,71.4,12.2,116.7c28.7-9.2,54.8-27.6,73.6-52.2
					c23.4-30.6,33.6-67.4,28-101.1l-1.9-11.6c-0.1-0.9,0.3-1.7,1.1-2.1l10.6-4.9c22.9-10.5,40-30.4,46.9-54.5
					c5-17.4,4.5-35.7-1.6-52.7l-2.6-7.4c-0.2-0.6-0.1-1.2,0.2-1.7l4.5-6.5c4.5-6.5,7.9-13.6,10.1-21.2c10.3-35.7-8-73-42.5-86.6
					l-8.3-3.3c-0.6-0.3-1.1-0.8-1.2-1.5l-1.2-8.8c-7.5-53.3-45.7-97.4-97.3-112.3c-12.4-3.6-25.1-5.4-37.8-5.4
					c-28.7,0-57.3,9.4-80.6,26.5l-10.8,7.9c-0.8,0.6-1.9,0.5-2.5-0.2l-9.3-9.7c-7.5-7.8-16.9-13.5-27.3-16.5
					c-5.6-1.6-11.3-2.4-17-2.4c-27.2,0-51.4,18.3-58.9,44.4c-1.5,5.3-2.3,10.8-2.4,16.3l-0.1,12.4c0,0.9-0.7,1.7-1.5,1.9l-12.2,2.4
					c-37.3,7.5-66.9,34.8-77.5,71.3c-9.4,32.6-1.9,67.5,20,93.5l6.8,8.1c0.5,0.6,0.6,1.5,0.2,2.2l-5.1,9.2c-2.6,4.8-4.7,9.8-6.2,15
					c-5.3,18.5-3.1,37.9,6.2,54.8c9.3,16.8,24.6,29,43.1,34.4c12.2,3.5,25,3.7,37.2,0.7l10-2.5c0.8-0.2,1.6,0.1,2,0.7l6.1,8.4
					c15.9,21.9,38.1,37.5,64.1,45c10.9,3.2,22.2,4.8,33.4,4.8c22.8,0,45.2-6.5,64.6-18.9l15.2-9.6
					C608.5,433.8,608.9,433.7,609.3,433.7z"/>
			</g>
			<g>
				<path class="st1" d="M493.2,254.7l-51.3-8l0.8-5.1c1.4-8.7,3.5-15.7,6.3-20.8c2.8-5.1,6.6-9.7,11.2-13.6
					c4.6-3.9,14.7-10.4,30.1-19.7c8.2-4.8,12.7-9.7,13.5-14.6c0.8-5-0.1-9-2.6-12.2c-2.5-3.2-6.7-5.3-12.7-6.2
					c-6.4-1-12,0.3-16.9,3.9c-4.8,3.6-8.7,10.5-11.5,20.9l-51.4-14.6c4.8-19,14.2-33.4,28.3-43.3c14-9.9,33.7-12.8,58.9-8.9
					c19.6,3.1,34.8,9.6,45.6,19.7c14.7,13.6,20.6,29.7,17.7,48.1c-1.2,7.7-4.5,14.7-9.8,21.2c-5.3,6.5-15.3,13.8-30,22
					c-10.2,5.8-16.9,10.7-19.9,14.7C496.4,242.1,494.3,247.6,493.2,254.7z M438,260l55,8.6l-7.5,48.5l-55-8.6L438,260z"/>
			</g>
			<g>
				<path class="st1" d="M624.2,329.8l-28.5-23.1l2.3-2.8c3.9-4.9,7.7-8.3,11.2-10.5c3.6-2.1,7.4-3.6,11.6-4.3
					c4.2-0.7,12.7-1.2,25.4-1.3c6.7,0,11.2-1.4,13.4-4.2c2.2-2.7,3.1-5.5,2.8-8.4c-0.4-2.8-2.2-5.6-5.5-8.3
					c-3.6-2.9-7.4-4.1-11.7-3.6c-4.2,0.5-9,3.4-14.4,8.7l-26.2-27.2c9.7-9.9,20.5-15.4,32.6-16.4c12.1-1,25.1,4.1,39.1,15.5
					c10.9,8.8,17.9,18.2,20.9,28.2c4.1,13.5,2,25.4-6.3,35.7c-3.4,4.3-7.9,7.4-13.5,9.4c-5.6,2-14.3,3-26.1,2.8
					c-8.3-0.1-14.1,0.5-17.4,1.9C630.6,323.3,627.4,325.9,624.2,329.8z M588.6,313.5l30.5,24.7l-21.8,26.9l-30.5-24.7L588.6,313.5z"
					/>
			</g>
			<g>
				<path class="st1" d="M632.2,163.9l-12.3-16.8l1.7-1.2c2.9-2.1,5.4-3.5,7.7-4.1c2.3-0.7,4.6-0.9,7-0.7c2.4,0.2,7.1,1.2,14.1,3
					c3.7,1,6.4,0.9,8-0.3c1.6-1.2,2.5-2.6,2.7-4.2c0.2-1.6-0.4-3.4-1.8-5.4c-1.5-2.1-3.5-3.3-5.9-3.7c-2.4-0.4-5.5,0.5-9.2,2.7
					l-10.5-18.8c6.8-4,13.5-5.5,20.3-4.3c6.8,1.2,13.2,5.9,19.3,14.2c4.7,6.4,7.2,12.6,7.4,18.6c0.3,8-2.6,14.3-8.6,18.7
					c-2.5,1.8-5.4,2.9-8.8,3.2c-3.4,0.3-8.3-0.4-14.8-2.2c-4.6-1.3-7.8-1.7-9.8-1.5C636.7,161.2,634.5,162.2,632.2,163.9z
					 M615,149.8l13.2,18l-15.9,11.7l-13.2-18L615,149.8z"/>
			</g>
		</g>
		<g>
			<g>
				<path class="st2" d="M156.5,402.9c-15.8,0-31.8-4.3-45.9-12.8c-19.4-11.6-33.2-29.5-37.8-49.4c-15.8-1.1-30.3-8.9-40-21.4
					c-7-9-11-19.8-11.6-31.2c-4.2-2.8-7.8-6.3-10.9-10.3C-4.9,258.4-3,231.2,14.5,214c-7.3-31.1,4.2-63.8,29.5-83.4
					c19.8-15.4,45.1-20.8,69.5-14.9c2.8-6.5,7.3-12.1,12.9-16.5c9-7,20.2-10.1,31.5-8.6c11.3,1.4,21.4,7.1,28.4,16.1
					c2.1,2.7,3.9,5.7,5.3,8.8c23-3.8,46.1,5.2,60.5,23.7c12.8,16.5,16.7,38.2,10.4,58.1c2.5,2.1,4.8,4.5,6.8,7.1
					c16.3,21,12.5,51.3-8.5,67.6c-6.4,5-14,8.3-22,9.5c-4.2,15.6-13.1,29.1-25.9,39.1c-16.2,12.6-36.9,17.8-57,14.5
					c-0.2,18.6,4.1,43.8,24.9,61.9c0.4,0.4,0.6,0.9,0.5,1.5c-0.1,0.5-0.5,1-1.1,1.1C172.3,401.8,164.4,402.8,156.5,402.9z M94,116.4
					c-17.3,0-34.2,5.7-48.2,16.6c-24.6,19.1-35.6,51-28.2,81.2c0.1,0.5,0,1.1-0.4,1.5c-17,16-19,42-4.6,60.4c3,3.9,6.7,7.3,10.8,10
					c0.4,0.3,0.7,0.7,0.7,1.2c0.4,11.1,4.2,21.5,11,30.3c9.4,12.1,23.6,19.5,38.9,20.3c0.7,0,1.2,0.5,1.4,1.2
					c4.2,19.5,17.6,37.2,36.7,48.5c19.7,11.7,43,15.3,64.4,9.8c-20.6-19.2-24.4-45.3-23.9-64.1c0-0.4,0.2-0.9,0.6-1.1
					c0.3-0.3,0.8-0.4,1.2-0.3c19.9,3.7,40.4-1.2,56.4-13.6c12.5-9.7,21.2-23,25.1-38.4c0.2-0.6,0.6-1,1.3-1.1
					c7.8-1.1,15.3-4.2,21.5-9.1c19.7-15.3,23.2-43.7,8-63.4c-2.1-2.7-4.5-5.1-7.1-7.3c-0.5-0.4-0.7-1-0.5-1.6
					c6.4-19.2,2.8-40.3-9.6-56.3c-13.9-17.9-36.4-26.5-58.7-22.4c-0.7,0.1-1.4-0.3-1.7-0.9c-1.4-3.3-3.2-6.4-5.3-9.2
					c-6.5-8.4-15.9-13.7-26.4-15c-10.5-1.3-20.9,1.5-29.2,8c-5.5,4.3-9.8,10-12.4,16.5c-0.3,0.7-1,1.1-1.8,0.9
					C107.3,117.2,100.6,116.4,94,116.4z"/>
			</g>
			<g>
				<path class="st0" d="M103.3,242.7l-26.5,6.2l-0.6-2.6c-1.1-4.5-1.4-8.3-1.1-11.3c0.4-3,1.3-6,2.7-8.8c1.5-2.8,5-7.9,10.7-15.5
					c3-3.9,4.3-7.2,3.7-9.8c-0.6-2.6-1.8-4.4-3.7-5.4c-1.8-1.1-4.3-1.2-7.4-0.5c-3.3,0.8-5.8,2.5-7.4,5.2c-1.6,2.7-2.1,6.8-1.5,12.4
					l-27.8,3c-1.4-10.1,0.3-19,5.2-26.5c4.9-7.5,13.8-12.8,26.8-15.9c10.1-2.4,18.8-2.2,26,0.6c9.8,3.7,15.8,10.3,18,19.8
					c0.9,3.9,0.7,8-0.6,12.2c-1.3,4.2-4.7,9.7-10.2,16.6c-3.8,4.8-6.1,8.5-6.8,11C102.4,236,102.5,239.1,103.3,242.7z M77.6,256.2
					l28.3-6.7l5.9,25l-28.3,6.7L77.6,256.2z"/>
			</g>
			<g>
				<path class="st0" d="M170.7,186.9l-18.4-5.6l0.6-1.8c0.9-3.1,2.1-5.6,3.4-7.3c1.3-1.7,2.9-3.2,4.8-4.4c1.9-1.2,5.9-3.1,12-5.6
					c3.3-1.3,5.2-2.9,5.7-4.7c0.5-1.8,0.4-3.3-0.3-4.6c-0.7-1.3-2.2-2.3-4.3-2.9c-2.3-0.7-4.4-0.5-6.4,0.5c-2,1.1-3.7,3.4-5.3,7
					l-18-8c2.7-6.7,6.9-11.5,12.6-14.4c5.6-2.9,13-2.9,22-0.2c7,2.1,12.2,5.3,15.7,9.6c4.7,5.7,6,11.9,4,18.5
					c-0.8,2.7-2.4,5.1-4.7,7.2c-2.3,2.1-6.3,4.3-12.1,6.5c-4,1.6-6.7,3-8,4.3C172.5,182.4,171.4,184.3,170.7,186.9z M150.2,186
					l19.7,6l-5.3,17.3l-19.7-6L150.2,186z"/>
			</g>
		</g>
	</g>
</g>
<g id="Background_Simple" class="st3">
	<g class="st4">
		<path class="st5" d="M28.2,461.3c-95.7,62,62.1,91.1,102.8,124.7c29.2,24.1,18.8,76.3,63.9,105.4c47.4,30.5,117,30,152.3,12.8
			c53.3-26,52.2-142.7-34.6-184.2c-65.9-31.5-115.2,15.4-182.9-9.8C87.2,494.4,80.3,427.5,28.2,461.3z"/>
		<path class="st6" d="M28.2,461.3c-95.7,62,62.1,91.1,102.8,124.7c29.2,24.1,18.8,76.3,63.9,105.4c47.4,30.5,117,30,152.3,12.8
			c53.3-26,52.2-142.7-34.6-184.2c-65.9-31.5-115.2,15.4-182.9-9.8C87.2,494.4,80.3,427.5,28.2,461.3z"/>
	</g>
</g>
<g id="Shadow_1_">
	<ellipse id="_x3C_Path_x3E__372_" class="st7" cx="389.5" cy="771.8" rx="371.3" ry="21.7"/>
</g>
<g id="Question_Marks">
	<g>
		<g>
			<path class="st8" d="M212.5,448.6l-1.8-0.7c1.6-3.7,2.5-6.8,2.8-9.5l1.9,0.2C215.2,441.4,214.2,444.6,212.5,448.6z M211.8,426.6
				c-3.7-8.2-10.6-13.3-20-14.9l0.3-1.9c10,1.7,17.4,7.2,21.4,16L211.8,426.6z"/>
			<path class="st8" d="M201.8,467.8l-18.8,8.6l-0.9-1.9c-1.5-3.2-2.3-6-2.5-8.3c-0.2-2.3,0.1-4.6,0.8-7c0.7-2.3,2.6-6.7,5.7-13.1
				c1.7-3.4,2.1-6,1.3-7.8c-0.8-1.8-2-3-3.5-3.5c-1.5-0.5-3.4-0.3-5.6,0.7c-2.3,1.1-3.9,2.7-4.8,5c-0.8,2.3-0.6,5.4,0.8,9.5
				l-20.3,6.4c-2.6-7.4-2.6-14.2-0.1-20.6c2.5-6.4,8.4-11.6,17.7-15.8c7.2-3.3,13.7-4.4,19.5-3.4c7.9,1.3,13.3,5.4,16.4,12.2
				c1.3,2.8,1.7,5.9,1.4,9.2c-0.4,3.3-2.1,8-5.2,13.9c-2.1,4.2-3.3,7.2-3.4,9.2C200.1,462.9,200.6,465.2,201.8,467.8z M184.6,481.7
				l20.2-9.2l8.1,17.8l-20.2,9.2L184.6,481.7z"/>
		</g>
		<g>
			<path class="st8" d="M155.1,510.4l-9.6,13l-1.3-1c-2.2-1.6-3.8-3.2-4.8-4.7c-1-1.5-1.7-3.2-2.1-5c-0.4-1.8-0.8-5.5-1.1-11.1
				c-0.1-3-0.8-4.9-2.1-5.8c-1.3-0.9-2.5-1.3-3.7-1c-1.2,0.2-2.4,1.1-3.5,2.6c-1.2,1.6-1.6,3.4-1.4,5.2c0.3,1.9,1.7,3.9,4.1,6.2
				l-11.4,12.1c-4.5-4.1-7.2-8.7-7.9-14c-0.7-5.3,1.3-11.1,6-17.5c3.7-5,7.7-8.2,12-9.8c5.9-2.1,11.1-1.4,15.8,2
				c1.9,1.4,3.4,3.3,4.4,5.7c1,2.4,1.6,6.2,1.8,11.4c0.1,3.7,0.5,6.2,1.2,7.6C152.1,507.7,153.4,509.1,155.1,510.4z M148.7,526.4
				l10.3-13.9l12.3,9.1L161,535.5L148.7,526.4z"/>
		</g>
	</g>
</g>
<g id="Character_1_">
	<g>
		<path class="st9" d="M359,764.9c-3.1,0-6.1-1.7-7.6-4.6c-7.7-14.9-17.4-32.3-34.8-51.2c-2-2.2-2.8-5.3-1.9-8.2
			c6.5-22.4,16.6-53.1,16.7-53.4c1.5-4.5,6.4-6.9,10.9-5.5c4.5,1.5,6.9,6.4,5.5,10.9c-0.1,0.3-8.8,26.7-15.2,48.2
			c16,18.1,25.9,35.3,34.1,51.3c2.2,4.2,0.5,9.4-3.7,11.6C361.7,764.6,360.3,764.9,359,764.9z"/>
		<polygon class="st10" points="373.3,771.8 306.7,771.8 342,751.8 371.6,752.9 		"/>
		
			<ellipse transform="matrix(0.9545 -0.2983 0.2983 0.9545 -176.5435 134.6178)" class="st10" cx="352.7" cy="645.6" rx="57.5" ry="47.7"/>
		<path class="st10" d="M201.1,614.3c-3.4,0-6.6-2-7.9-5.3c-1.8-4.4,0.3-9.4,4.6-11.2c5-2.1,5.7-7.2,5.7-7.2c0.4-3.8,3.2-7,7-7.7
			c2-0.4,4-0.9,6.3-1.6c11.6-3.4,26.1-7.6,71.4,5.1c44.8-25,45.3-72,45.3-74c0-4.7,3.8-8.6,8.6-8.6c0,0,0,0,0,0
			c4.7,0,8.6,3.8,8.6,8.5c0,2.5-0.3,61.4-57.5,91c-2,1-4.2,1.2-6.3,0.6c-43.3-12.5-55.5-8.9-65.2-6.1c-0.9,0.3-1.7,0.5-2.6,0.8
			c-2.1,5.5-6.5,11.8-14.6,15.1C203.3,614.1,202.2,614.3,201.1,614.3z"/>
		<path class="st11" d="M301.5,552.8c-16.3-64.8-59.7-231.8,79.4-242.1c124.8-9.2,159.1,157,167.4,214.5c4.9,33.5,6.5,64,6.8,87.7
			c0.4,30.7-21.2,57.1-51.2,63.2c-68,13.8-132.4,15.8-175.7-1.3c-11.7-4.6-18.8-16.6-17.7-29.1C312.2,627.2,312.2,595.2,301.5,552.8
			z"/>
		<path class="st12" d="M548.3,525.3c-7.8-54.2-38.7-205-146.8-214.4c-12.6-1.1-25,5.1-30.8,16.3c-4.8,9.3-4.7,20.7,2.6,31.9
			c23.8,36.9,80.6,164.6,72.1,234.2c-3.9,31.7-23.8,56.9-6.5,92.5c20.9-1.7,42.7-5,65-9.5c30.1-6.1,51.6-32.5,51.2-63.2
			C554.8,589.3,553.2,558.9,548.3,525.3z"/>
		<path class="st10" d="M529.7,613.9c-0.5,0-0.9-0.4-0.9-0.8c-0.4-29.6-2.6-59.1-6.8-87.6c-20.7-143-76.4-215.3-161.1-209
			c-0.5,0.1-0.9-0.3-0.9-0.8c0-0.5,0.3-0.9,0.8-0.9c85.7-6.3,142,66.5,162.9,210.5c4.1,28.6,6.4,58.2,6.8,87.9
			C530.6,613.5,530.2,613.9,529.7,613.9C529.7,613.9,529.7,613.9,529.7,613.9z"/>
		
			<ellipse transform="matrix(0.9545 -0.2983 0.2983 0.9545 -170.5573 183.007)" class="st10" cx="514.2" cy="650.2" rx="57.5" ry="47.7"/>
		<path class="st13" d="M533.7,764.9c-3.1,0-6.1-1.7-7.6-4.6c-7.7-14.9-17.4-32.3-34.8-51.2c-2-2.2-2.8-5.3-1.9-8.2
			c6.5-22.4,16.6-53.1,16.7-53.4c1.5-4.5,6.3-7,10.9-5.5c4.5,1.5,6.9,6.4,5.5,10.9c-0.1,0.3-8.8,26.7-15.2,48.2
			c16,18.1,25.9,35.3,34.1,51.3c2.2,4.2,0.5,9.4-3.7,11.6C536.3,764.6,535,764.9,533.7,764.9z"/>
		<path class="st10" d="M515.6,503.1c-3.1,0-6.1-1.7-7.6-4.6c-2.2-4.2-0.6-9.4,3.6-11.6l0,0c1.7-0.9,39.1-21.3,49.6-70.4
			c-24.9-10.4-69.8-34-79.6-45.8c-0.9-1.1-1.6-2.5-1.8-4c-0.2-1.3-1.8-11.4,1.9-21.1l-4.5-8.7c-2.2-4.2-0.5-9.4,3.7-11.6
			c4.2-2.2,9.4-0.5,11.6,3.7l6.5,12.6c1.4,2.7,1.3,5.9-0.3,8.5c-2.1,3.3-2.3,8.2-2.1,11.3c11,10,55.6,33.6,77.4,41.7
			c3.8,1.4,6.1,5.3,5.5,9.4c-9.7,62.7-57.7,88.6-59.8,89.7C518.3,502.8,517,503.1,515.6,503.1z"/>
		<path class="st10" d="M488.2,369.5c-0.8,0-1.6-0.2-2.3-0.7c-2-1.3-2.5-4-1.2-5.9c0.3-0.5,7.4-11.2,18.2-14.1
			c2.3-0.6,4.6,0.7,5.3,3c0.6,2.3-0.7,4.6-3,5.3c-7.5,2-13.2,10.4-13.2,10.5C491,368.8,489.6,369.5,488.2,369.5z"/>
		<polygon class="st10" points="548,771.8 481.4,771.8 516.7,751.8 546.3,752.9 		"/>
		<g>
			
				<ellipse transform="matrix(0.9961 -8.815408e-02 8.815408e-02 0.9961 -40.2253 37.5312)" class="st1" cx="404.8" cy="474.2" rx="45.8" ry="41.2"/>
			
				<ellipse transform="matrix(0.9617 -0.274 0.274 0.9617 -115.973 126.1754)" class="st10" cx="393.6" cy="478.2" rx="12.6" ry="22.9"/>
			<path class="st10" d="M352.7,481.9c28.9-3.7,86.2-20,95.6-26.6c-7.4-21.8-42.1-40.4-73-29.9C347.4,434.8,352.7,481.9,352.7,481.9
				z"/>
			<path class="st10" d="M358.3,495.9c35.9-6.8,82.6-18.3,95.9-25.6c-0.8,23.4-7.6,47.1-44.3,55.2C380,532,358.3,495.9,358.3,495.9z
				"/>
		</g>
		<g>
			
				<ellipse transform="matrix(0.834 -0.5518 0.5518 0.834 -218.3142 251.6749)" class="st1" cx="309.1" cy="488.6" rx="28.2" ry="35.7"/>
			<path class="st10" d="M309.7,489.2c2.2,10.3,0.3,18.8-4.2,19.1c-4.5,0.3-9.9-7.8-12.1-18c-2.2-10.3-0.3-18.8,4.2-19.1
				C302.1,470.9,307.5,479,309.7,489.2z"/>
			<path class="st10" d="M274.1,485.3c19.4,2.3,57.9-0.3,64.3-3.8c-4.7-18.6-27.7-39.6-48.5-36.9
				C271.1,447.1,274.1,485.3,274.1,485.3z"/>
			<path class="st10" d="M277.7,497.4c24.1,1.1,55.5,0.5,64.5-2.9c-0.8,18.4-5.7,35.9-30.3,35.7
				C291.8,529.9,277.7,497.4,277.7,497.4z"/>
		</g>
		<path class="st10" d="M416.4,413.8c-36.2,0-60.2-17.9-61.4-18.8c-3.8-2.9-4.5-8.3-1.7-12c2.9-3.8,8.2-4.5,12-1.7
			c0.4,0.3,29,21.1,68.6,13.6c4.7-0.9,9.2,2.2,10,6.8c0.9,4.7-2.2,9.2-6.8,10C430,413.2,423,413.8,416.4,413.8z"/>
		<path class="st10" d="M262.8,399c-1,0-1.9-0.2-2.9-0.5c-4.5-1.6-6.8-6.5-5.2-11c4.6-12.7,12.1-20.9,22.4-24.5
			c18.7-6.5,38.9,6.1,39.8,6.6c4,2.5,5.2,7.8,2.7,11.8c-2.5,4-7.8,5.2-11.8,2.7c-3.9-2.4-16-8.1-25.1-4.9c-5.2,1.8-9.1,6.4-11.8,14
			C269.7,396.8,266.4,399,262.8,399z"/>
		<path class="st10" d="M330.5,543.9c-0.2,0-0.5,0-0.7-0.1c-1.4-0.4-2.1-1.8-1.8-3.1c0.1-0.2,1.7-5.8,8.7-9.4
			c9.9-5.1,24.9-4,44.6,3.1c1.3,0.5,2,2,1.5,3.3c-0.5,1.3-2,2-3.3,1.5c-22.7-8.2-34.4-6.4-40.3-3.5c-5.1,2.6-6.3,6.2-6.4,6.4
			C332.7,543.2,331.7,543.9,330.5,543.9z"/>
		<g>
			<g>
				<path class="st14" d="M249.4,534.5c-50,4.5-85.8,25.2-85.8,25.2c14.8-2.8,67.7,62.7,81.3,113.2c25.1-9.3,54.4-15.6,85.6-20.6
					C311.6,600.2,277.1,541.3,249.4,534.5z"/>
			</g>
			<g>
				<path class="st15" d="M249.4,534.5c-32.7-3.7-85.8,23.7-85.8,23.7c-9.4,6-6.9,17.3-1.7,22c4.9-7.1,59.8-25.5,80.4-27.9
					C232.1,542.8,241.6,535.9,249.4,534.5z"/>
				<path class="st16" d="M249.4,534.5c-32.7-3.7-85.8,23.7-85.8,23.7c-9.4,6-6.9,17.3-1.7,22c4.9-7.1,59.8-25.5,80.4-27.9
					C232.1,542.8,241.6,535.9,249.4,534.5z"/>
			</g>
		</g>
		<path class="st10" d="M201.1,614.3c-2.8,0-5.6-1.4-7.2-3.9c-6.2-9.5-2.3-24.1-1.5-26.9c1.4-4.5,6.1-7.1,10.7-5.8
			c4.5,1.4,7.1,6.1,5.8,10.7c-1.4,4.8-1.7,10.9-0.6,12.6c2.6,4,1.5,9.3-2.5,11.9C204.4,613.8,202.7,614.3,201.1,614.3z"/>
	</g>
</g>
<g id="_x34_00_ERROR">
</g>
<g id="Bad_Request">
</g>
</svg>
