<?xml version="1.0" encoding="utf-8"?>
<!-- Generator: Adobe Illustrator 23.0.0, SVG Export Plug-In . SVG Version: 6.00 Build 0)  -->
<svg version="1.1" id="Layer_1" xmlns="http://www.w3.org/2000/svg" xmlns:xlink="http://www.w3.org/1999/xlink" x="0px" y="0px"
	 width="576.8px" height="510.3px" viewBox="0 0 576.8 510.3" style="enable-background:new 0 0 576.8 510.3;" xml:space="preserve"
	>
<style type="text/css">
	.st0{fill:#EBEBEB;}
	.st1{fill:#E0E0E0;}
	.st2{fill:#F5F5F5;}
	.st3{fill:#E6E6E6;}
	.st4{fill:#F0F0F0;}
	.st5{opacity:0.2;fill:#E0E0E0;enable-background:new    ;}
	.st6{fill:#A688DB;}
	.st7{opacity:0.2;enable-background:new    ;}
	.st8{opacity:0.5;fill:#FFFFFF;enable-background:new    ;}
	.st9{opacity:0.2;fill:#FFFFFF;enable-background:new    ;}
	.st10{fill:#263238;}
	.st11{opacity:0.3;fill:#FFFFFF;enable-background:new    ;}
	.st12{opacity:0.6;fill:#FFFFFF;enable-background:new    ;}
	.st13{fill:#E4897B;}
	.st14{opacity:0.1;enable-background:new    ;}
	.st15{fill:#FFFFFF;}
	.st16{fill:#DE5753;}
	.st17{opacity:0.4;enable-background:new    ;}
	.st18{opacity:0.2;}
	.st19{opacity:0.7;fill:#FFFFFF;enable-background:new    ;}
	.st20{opacity:0.4;fill:#FFFFFF;enable-background:new    ;}
	.st21{opacity:0.1;fill:#FFFFFF;enable-background:new    ;}
</style>
<g id="freepik--background-complete--inject-46">
	<rect x="-56.1" y="443.6" class="st0" width="681.1" height="0.3"/>
	<rect x="511.6" y="465.6" class="st0" width="45.1" height="0.3"/>
	<rect x="383.2" y="469.3" class="st0" width="11.8" height="0.3"/>
	<rect x="484.1" y="452.9" class="st0" width="26.1" height="0.3"/>
	<rect x="15.3" y="455.2" class="st0" width="58.8" height="0.3"/>
	<rect x="86.3" y="455.2" class="st0" width="8.6" height="0.3"/>
	<rect x="123" y="461" class="st0" width="127.6" height="0.3"/>
	<rect x="220.6" y="82.4" class="st1" width="330" height="318.1"/>
	<rect x="225.9" y="88.2" class="st2" width="324.7" height="306.8"/>
	<polygon class="st3" points="228.3,320.6 228.3,228.4 237.9,228.4 237.9,216.2 259.4,206.1 259.4,193.6 263,193.6 263,228.4 
		266.6,228.4 266.6,320.6 271.4,320.6 271.4,272.7 282.2,272.7 282.2,247.5 285.8,247.5 285.8,320.6 294.2,320.6 294.2,293.1 
		300.2,293.1 300.2,285.9 313.4,285.9 313.4,260.7 320.6,260.7 320.6,243.9 329,243.9 329,218.8 332.5,218.8 332.5,243.9 
		340.9,243.9 340.9,260.7 348.1,260.7 348.1,285.9 361.3,285.9 361.3,293.1 367.3,293.1 367.3,320.6 374.5,320.6 374.5,285.9 
		387.7,285.9 387.7,209.2 391.3,209.2 391.3,200.8 420,200.8 420,209.2 426,209.2 426,264.3 450,264.3 450,270.3 458.4,270.3 
		458.4,273.9 450,273.9 450,295.5 475.2,295.5 475.2,223.6 479.9,223.6 479.9,209.2 491.9,209.2 491.9,154.1 495.5,154.1 
		495.5,209.2 503.9,209.2 503.9,223.6 550.6,223.6 550.6,394.9 225.9,394.9 225.9,320.6 	"/>
	<rect x="522.3" y="227.3" class="st4" width="3.4" height="3.4"/>
	<rect x="522.3" y="233" class="st4" width="3.4" height="3.4"/>
	<rect x="522.3" y="255.8" class="st4" width="3.4" height="3.4"/>
	<rect x="522.3" y="261.5" class="st4" width="3.4" height="3.4"/>
	<rect x="522.3" y="267.2" class="st4" width="3.4" height="3.4"/>
	<rect x="522.3" y="284.2" class="st4" width="3.4" height="3.4"/>
	<rect x="522.3" y="289.9" class="st4" width="3.4" height="3.4"/>
	<rect x="516.9" y="250.1" class="st4" width="3.4" height="3.4"/>
	<rect x="516.9" y="255.8" class="st4" width="3.4" height="3.4"/>
	<rect x="516.9" y="261.5" class="st4" width="3.4" height="3.4"/>
	<rect x="516.9" y="267.2" class="st4" width="3.4" height="3.4"/>
	<rect x="516.9" y="272.9" class="st4" width="3.4" height="3.4"/>
	<rect x="516.9" y="284.2" class="st4" width="3.4" height="3.4"/>
	<rect x="516.9" y="289.9" class="st4" width="3.4" height="3.4"/>
	<rect x="511.5" y="227.3" class="st4" width="3.4" height="3.4"/>
	<rect x="511.5" y="233" class="st4" width="3.4" height="3.4"/>
	<rect x="511.5" y="238.7" class="st4" width="3.4" height="3.4"/>
	<rect x="511.5" y="244.4" class="st4" width="3.4" height="3.4"/>
	<rect x="511.5" y="250.1" class="st4" width="3.4" height="3.4"/>
	<rect x="511.5" y="255.8" class="st4" width="3.4" height="3.4"/>
	<rect x="511.5" y="261.5" class="st4" width="3.4" height="3.4"/>
	<rect x="511.5" y="267.2" class="st4" width="3.4" height="3.4"/>
	<rect x="511.5" y="272.9" class="st4" width="3.4" height="3.4"/>
	<rect x="511.5" y="278.6" class="st4" width="3.4" height="3.4"/>
	<rect x="511.5" y="289.9" class="st4" width="3.4" height="3.4"/>
	<rect x="506.1" y="227.3" class="st4" width="3.4" height="3.4"/>
	<rect x="506.1" y="233" class="st4" width="3.4" height="3.4"/>
	<rect x="506.1" y="238.7" class="st4" width="3.4" height="3.4"/>
	<rect x="506.1" y="244.4" class="st4" width="3.4" height="3.4"/>
	<rect x="506.1" y="250.1" class="st4" width="3.4" height="3.4"/>
	<rect x="506.1" y="255.8" class="st4" width="3.4" height="3.4"/>
	<rect x="506.1" y="261.5" class="st4" width="3.4" height="3.4"/>
	<rect x="506.1" y="312.7" class="st4" width="3.4" height="3.4"/>
	<rect x="500.7" y="227.3" class="st4" width="3.4" height="3.4"/>
	<rect x="500.7" y="233" class="st4" width="3.4" height="3.4"/>
	<rect x="500.7" y="238.7" class="st4" width="3.4" height="3.4"/>
	<rect x="500.7" y="244.4" class="st4" width="3.4" height="3.4"/>
	<rect x="500.7" y="250.1" class="st4" width="3.4" height="3.4"/>
	<rect x="500.7" y="255.8" class="st4" width="3.4" height="3.4"/>
	<rect x="500.7" y="261.5" class="st4" width="3.4" height="3.4"/>
	<rect x="500.7" y="267.2" class="st4" width="3.4" height="3.4"/>
	<rect x="500.7" y="301.3" class="st4" width="3.4" height="3.4"/>
	<rect x="500.7" y="307" class="st4" width="3.4" height="3.4"/>
	<rect x="500.7" y="312.7" class="st4" width="3.4" height="3.4"/>
	<rect x="500.7" y="318.4" class="st4" width="3.4" height="3.4"/>
	<rect x="500.7" y="341.2" class="st4" width="3.4" height="3.4"/>
	<rect x="495.3" y="227.3" class="st4" width="3.4" height="3.4"/>
	<rect x="495.3" y="233" class="st4" width="3.4" height="3.4"/>
	<rect x="495.3" y="238.7" class="st4" width="3.4" height="3.4"/>
	<rect x="495.3" y="244.4" class="st4" width="3.4" height="3.4"/>
	<rect x="495.3" y="250.1" class="st4" width="3.4" height="3.4"/>
	<rect x="495.3" y="255.8" class="st4" width="3.4" height="3.4"/>
	<rect x="495.3" y="261.5" class="st4" width="3.4" height="3.4"/>
	<rect x="495.3" y="267.2" class="st4" width="3.4" height="3.4"/>
	<rect x="495.3" y="272.9" class="st4" width="3.4" height="3.4"/>
	<rect x="495.3" y="278.6" class="st4" width="3.4" height="3.4"/>
	<rect x="495.3" y="295.6" class="st4" width="3.4" height="3.4"/>
	<rect x="495.3" y="301.3" class="st4" width="3.4" height="3.4"/>
	<rect x="495.3" y="307" class="st4" width="3.4" height="3.4"/>
	<rect x="495.3" y="312.7" class="st4" width="3.4" height="3.4"/>
	<rect x="495.3" y="318.4" class="st4" width="3.4" height="3.4"/>
	<rect x="495.3" y="341.2" class="st4" width="3.4" height="3.4"/>
	<rect x="489.9" y="227.3" class="st4" width="3.4" height="3.4"/>
	<rect x="489.9" y="233" class="st4" width="3.4" height="3.4"/>
	<rect x="489.9" y="238.7" class="st4" width="3.4" height="3.4"/>
	<rect x="489.9" y="244.4" class="st4" width="3.4" height="3.4"/>
	<rect x="489.9" y="250.1" class="st4" width="3.4" height="3.4"/>
	<rect x="489.9" y="255.8" class="st4" width="3.4" height="3.4"/>
	<rect x="489.9" y="261.5" class="st4" width="3.4" height="3.4"/>
	<rect x="489.9" y="267.2" class="st4" width="3.4" height="3.4"/>
	<rect x="489.9" y="272.9" class="st4" width="3.4" height="3.4"/>
	<rect x="489.9" y="278.6" class="st4" width="3.4" height="3.4"/>
	<rect x="489.9" y="284.2" class="st4" width="3.4" height="3.4"/>
	<rect x="489.9" y="289.9" class="st4" width="3.4" height="3.4"/>
	<rect x="489.9" y="295.6" class="st4" width="3.4" height="3.4"/>
	<rect x="489.9" y="301.3" class="st4" width="3.4" height="3.4"/>
	<rect x="489.9" y="307" class="st4" width="3.4" height="3.4"/>
	<rect x="489.9" y="312.7" class="st4" width="3.4" height="3.4"/>
	<rect x="489.9" y="318.4" class="st4" width="3.4" height="3.4"/>
	<rect x="489.9" y="324.1" class="st4" width="3.4" height="3.4"/>
	<rect x="484.5" y="227.3" class="st4" width="3.4" height="3.4"/>
	<rect x="484.5" y="233" class="st4" width="3.4" height="3.4"/>
	<rect x="484.5" y="238.7" class="st4" width="3.4" height="3.4"/>
	<rect x="484.5" y="244.4" class="st4" width="3.4" height="3.4"/>
	<rect x="484.5" y="250.1" class="st4" width="3.4" height="3.4"/>
	<rect x="484.5" y="255.8" class="st4" width="3.4" height="3.4"/>
	<rect x="484.5" y="261.5" class="st4" width="3.4" height="3.4"/>
	<rect x="484.5" y="267.2" class="st4" width="3.4" height="3.4"/>
	<rect x="484.5" y="272.9" class="st4" width="3.4" height="3.4"/>
	<rect x="484.5" y="278.6" class="st4" width="3.4" height="3.4"/>
	<rect x="484.5" y="295.6" class="st4" width="3.4" height="3.4"/>
	<rect x="484.5" y="301.3" class="st4" width="3.4" height="3.4"/>
	<rect x="484.5" y="307" class="st4" width="3.4" height="3.4"/>
	<rect x="484.5" y="312.7" class="st4" width="3.4" height="3.4"/>
	<rect x="479.1" y="227.3" class="st4" width="3.4" height="3.4"/>
	<rect x="479.1" y="233" class="st4" width="3.4" height="3.4"/>
	<rect x="479.1" y="238.7" class="st4" width="3.4" height="3.4"/>
	<rect x="479.1" y="244.4" class="st4" width="3.4" height="3.4"/>
	<rect x="479.1" y="250.1" class="st4" width="3.4" height="3.4"/>
	<rect x="479.1" y="255.8" class="st4" width="3.4" height="3.4"/>
	<rect x="479.1" y="261.5" class="st4" width="3.4" height="3.4"/>
	<rect x="479.1" y="267.2" class="st4" width="3.4" height="3.4"/>
	<rect x="479.1" y="272.9" class="st4" width="3.4" height="3.4"/>
	<rect x="479.1" y="278.6" class="st4" width="3.4" height="3.4"/>
	<rect x="479.1" y="295.6" class="st4" width="3.4" height="3.4"/>
	<rect x="479.1" y="301.3" class="st4" width="3.4" height="3.4"/>
	<rect x="479.1" y="307" class="st4" width="3.4" height="3.4"/>
	<rect x="418.4" y="212.5" class="st4" width="3.4" height="3.4"/>
	<rect x="418.4" y="218.2" class="st4" width="3.4" height="3.4"/>
	<rect x="418.4" y="223.9" class="st4" width="3.4" height="3.4"/>
	<rect x="418.4" y="229.6" class="st4" width="3.4" height="3.4"/>
	<rect x="418.4" y="235.3" class="st4" width="3.4" height="3.4"/>
	<rect x="418.4" y="241" class="st4" width="3.4" height="3.4"/>
	<rect x="418.4" y="246.7" class="st4" width="3.4" height="3.4"/>
	<rect x="418.4" y="252.4" class="st4" width="3.4" height="3.4"/>
	<rect x="418.4" y="269.5" class="st4" width="3.4" height="3.4"/>
	<rect x="418.4" y="275.2" class="st4" width="3.4" height="3.4"/>
	<rect x="413" y="212.5" class="st4" width="3.4" height="3.4"/>
	<rect x="413" y="218.2" class="st4" width="3.4" height="3.4"/>
	<rect x="413" y="223.9" class="st4" width="3.4" height="3.4"/>
	<rect x="413" y="229.6" class="st4" width="3.4" height="3.4"/>
	<rect x="413" y="235.3" class="st4" width="3.4" height="3.4"/>
	<rect x="413" y="241" class="st4" width="3.4" height="3.4"/>
	<rect x="413" y="246.7" class="st4" width="3.4" height="3.4"/>
	<rect x="413" y="252.4" class="st4" width="3.4" height="3.4"/>
	<rect x="413" y="275.2" class="st4" width="3.4" height="3.4"/>
	<rect x="407.6" y="212.5" class="st4" width="3.4" height="3.4"/>
	<rect x="407.6" y="218.2" class="st4" width="3.4" height="3.4"/>
	<rect x="407.6" y="223.9" class="st4" width="3.4" height="3.4"/>
	<rect x="407.6" y="229.6" class="st4" width="3.4" height="3.4"/>
	<rect x="407.6" y="235.3" class="st4" width="3.4" height="3.4"/>
	<rect x="407.6" y="241" class="st4" width="3.4" height="3.4"/>
	<rect x="407.6" y="246.7" class="st4" width="3.4" height="3.4"/>
	<rect x="407.6" y="252.4" class="st4" width="3.4" height="3.4"/>
	<rect x="402.2" y="212.5" class="st4" width="3.4" height="3.4"/>
	<rect x="402.2" y="218.2" class="st4" width="3.4" height="3.4"/>
	<rect x="402.2" y="223.9" class="st4" width="3.4" height="3.4"/>
	<rect x="402.2" y="229.6" class="st4" width="3.4" height="3.4"/>
	<rect x="402.2" y="235.3" class="st4" width="3.4" height="3.4"/>
	<rect x="402.2" y="241" class="st4" width="3.4" height="3.4"/>
	<rect x="402.2" y="252.4" class="st4" width="3.4" height="3.4"/>
	<rect x="402.2" y="258.1" class="st4" width="3.4" height="3.4"/>
	<rect x="402.2" y="275.2" class="st4" width="3.4" height="3.4"/>
	<rect x="402.2" y="280.9" class="st4" width="3.4" height="3.4"/>
	<rect x="402.2" y="286.6" class="st4" width="3.4" height="3.4"/>
	<rect x="402.2" y="292.2" class="st4" width="3.4" height="3.4"/>
	<rect x="402.2" y="297.9" class="st4" width="3.4" height="3.4"/>
	<rect x="402.2" y="303.6" class="st4" width="3.4" height="3.4"/>
	<rect x="402.2" y="309.3" class="st4" width="3.4" height="3.4"/>
	<rect x="396.8" y="212.5" class="st4" width="3.4" height="3.4"/>
	<rect x="396.8" y="218.2" class="st4" width="3.4" height="3.4"/>
	<rect x="396.8" y="223.9" class="st4" width="3.4" height="3.4"/>
	<rect x="396.8" y="229.6" class="st4" width="3.4" height="3.4"/>
	<rect x="396.8" y="235.3" class="st4" width="3.4" height="3.4"/>
	<rect x="396.8" y="241" class="st4" width="3.4" height="3.4"/>
	<rect x="396.8" y="258.1" class="st4" width="3.4" height="3.4"/>
	<rect x="396.8" y="263.8" class="st4" width="3.4" height="3.4"/>
	<rect x="396.8" y="269.5" class="st4" width="3.4" height="3.4"/>
	<rect x="396.8" y="275.2" class="st4" width="3.4" height="3.4"/>
	<rect x="396.8" y="280.9" class="st4" width="3.4" height="3.4"/>
	<rect x="396.8" y="286.6" class="st4" width="3.4" height="3.4"/>
	<rect x="396.8" y="292.2" class="st4" width="3.4" height="3.4"/>
	<rect x="396.8" y="297.9" class="st4" width="3.4" height="3.4"/>
	<rect x="396.8" y="303.6" class="st4" width="3.4" height="3.4"/>
	<rect x="396.8" y="309.3" class="st4" width="3.4" height="3.4"/>
	<rect x="396.8" y="315" class="st4" width="3.4" height="3.4"/>
	<rect x="396.8" y="326.4" class="st4" width="3.4" height="3.4"/>
	<rect x="391.4" y="212.5" class="st4" width="3.4" height="3.4"/>
	<rect x="391.4" y="218.2" class="st4" width="3.4" height="3.4"/>
	<rect x="391.4" y="223.9" class="st4" width="3.4" height="3.4"/>
	<rect x="391.4" y="229.6" class="st4" width="3.4" height="3.4"/>
	<rect x="391.4" y="235.3" class="st4" width="3.4" height="3.4"/>
	<rect x="391.4" y="241" class="st4" width="3.4" height="3.4"/>
	<rect x="391.4" y="258.1" class="st4" width="3.4" height="3.4"/>
	<rect x="391.4" y="263.8" class="st4" width="3.4" height="3.4"/>
	<rect x="391.4" y="269.5" class="st4" width="3.4" height="3.4"/>
	<rect x="391.4" y="275.2" class="st4" width="3.4" height="3.4"/>
	<rect x="391.4" y="292.2" class="st4" width="3.4" height="3.4"/>
	<rect x="391.4" y="297.9" class="st4" width="3.4" height="3.4"/>
	<rect x="391.4" y="303.6" class="st4" width="3.4" height="3.4"/>
	<rect x="391.4" y="309.3" class="st4" width="3.4" height="3.4"/>
	<rect x="391.4" y="315" class="st4" width="3.4" height="3.4"/>
	<rect x="391.4" y="326.4" class="st4" width="3.4" height="3.4"/>
	<rect x="391.4" y="332.1" class="st4" width="3.4" height="3.4"/>
	<rect x="342.5" y="265.5" class="st4" width="3.4" height="3.4"/>
	<rect x="342.5" y="271.2" class="st4" width="3.4" height="3.4"/>
	<rect x="342.5" y="276.9" class="st4" width="3.4" height="3.4"/>
	<rect x="342.5" y="282.5" class="st4" width="3.4" height="3.4"/>
	<rect x="342.5" y="288.2" class="st4" width="3.4" height="3.4"/>
	<rect x="342.5" y="293.9" class="st4" width="3.4" height="3.4"/>
	<rect x="342.5" y="299.6" class="st4" width="3.4" height="3.4"/>
	<rect x="342.5" y="316.7" class="st4" width="3.4" height="3.4"/>
	<rect x="342.5" y="322.4" class="st4" width="3.4" height="3.4"/>
	<rect x="342.5" y="328.1" class="st4" width="3.4" height="3.4"/>
	<rect x="337.1" y="265.5" class="st4" width="3.4" height="3.4"/>
	<rect x="337.1" y="271.2" class="st4" width="3.4" height="3.4"/>
	<rect x="337.1" y="276.9" class="st4" width="3.4" height="3.4"/>
	<rect x="337.1" y="282.5" class="st4" width="3.4" height="3.4"/>
	<rect x="337.1" y="288.2" class="st4" width="3.4" height="3.4"/>
	<rect x="337.1" y="293.9" class="st4" width="3.4" height="3.4"/>
	<rect x="337.1" y="299.6" class="st4" width="3.4" height="3.4"/>
	<rect x="331.7" y="265.5" class="st4" width="3.4" height="3.4"/>
	<rect x="331.7" y="271.2" class="st4" width="3.4" height="3.4"/>
	<rect x="331.7" y="276.9" class="st4" width="3.4" height="3.4"/>
	<rect x="331.7" y="282.5" class="st4" width="3.4" height="3.4"/>
	<rect x="331.7" y="288.2" class="st4" width="3.4" height="3.4"/>
	<rect x="331.7" y="293.9" class="st4" width="3.4" height="3.4"/>
	<rect x="331.7" y="299.6" class="st4" width="3.4" height="3.4"/>
	<rect x="326.3" y="265.5" class="st4" width="3.4" height="3.4"/>
	<rect x="326.3" y="271.2" class="st4" width="3.4" height="3.4"/>
	<rect x="326.3" y="276.9" class="st4" width="3.4" height="3.4"/>
	<rect x="326.3" y="282.5" class="st4" width="3.4" height="3.4"/>
	<rect x="326.3" y="288.2" class="st4" width="3.4" height="3.4"/>
	<rect x="326.3" y="293.9" class="st4" width="3.4" height="3.4"/>
	<rect x="326.3" y="299.6" class="st4" width="3.4" height="3.4"/>
	<rect x="326.3" y="305.3" class="st4" width="3.4" height="3.4"/>
	<rect x="326.3" y="311" class="st4" width="3.4" height="3.4"/>
	<rect x="326.3" y="316.7" class="st4" width="3.4" height="3.4"/>
	<rect x="326.3" y="322.4" class="st4" width="3.4" height="3.4"/>
	<rect x="320.9" y="265.5" class="st4" width="3.4" height="3.4"/>
	<rect x="320.9" y="271.2" class="st4" width="3.4" height="3.4"/>
	<rect x="320.9" y="276.9" class="st4" width="3.4" height="3.4"/>
	<rect x="320.9" y="282.5" class="st4" width="3.4" height="3.4"/>
	<rect x="320.9" y="288.2" class="st4" width="3.4" height="3.4"/>
	<rect x="320.9" y="293.9" class="st4" width="3.4" height="3.4"/>
	<rect x="320.9" y="299.6" class="st4" width="3.4" height="3.4"/>
	<rect x="320.9" y="305.3" class="st4" width="3.4" height="3.4"/>
	<rect x="320.9" y="311" class="st4" width="3.4" height="3.4"/>
	<rect x="320.9" y="316.7" class="st4" width="3.4" height="3.4"/>
	<rect x="320.9" y="322.4" class="st4" width="3.4" height="3.4"/>
	<rect x="320.9" y="328.1" class="st4" width="3.4" height="3.4"/>
	<rect x="320.9" y="345.2" class="st4" width="3.4" height="3.4"/>
	<rect x="320.9" y="350.9" class="st4" width="3.4" height="3.4"/>
	<rect x="315.5" y="265.5" class="st4" width="3.4" height="3.4"/>
	<rect x="315.5" y="271.2" class="st4" width="3.4" height="3.4"/>
	<rect x="315.5" y="276.9" class="st4" width="3.4" height="3.4"/>
	<rect x="315.5" y="293.9" class="st4" width="3.4" height="3.4"/>
	<rect x="315.5" y="299.6" class="st4" width="3.4" height="3.4"/>
	<rect x="315.5" y="305.3" class="st4" width="3.4" height="3.4"/>
	<rect x="315.5" y="311" class="st4" width="3.4" height="3.4"/>
	<rect x="315.5" y="316.7" class="st4" width="3.4" height="3.4"/>
	<rect x="315.5" y="322.4" class="st4" width="3.4" height="3.4"/>
	<rect x="315.5" y="328.1" class="st4" width="3.4" height="3.4"/>
	<rect x="315.5" y="345.2" class="st4" width="3.4" height="3.4"/>
	<rect x="315.5" y="350.9" class="st4" width="3.4" height="3.4"/>
	<rect x="315.5" y="356.6" class="st4" width="3.4" height="3.4"/>
	<rect x="259" y="231.3" class="st4" width="3.4" height="3.4"/>
	<rect x="259" y="237" class="st4" width="3.4" height="3.4"/>
	<rect x="259" y="242.7" class="st4" width="3.4" height="3.4"/>
	<rect x="259" y="248.4" class="st4" width="3.4" height="3.4"/>
	<rect x="259" y="254.1" class="st4" width="3.4" height="3.4"/>
	<rect x="259" y="259.8" class="st4" width="3.4" height="3.4"/>
	<rect x="259" y="265.5" class="st4" width="3.4" height="3.4"/>
	<rect x="259" y="271.2" class="st4" width="3.4" height="3.4"/>
	<rect x="259" y="276.9" class="st4" width="3.4" height="3.4"/>
	<rect x="259" y="282.5" class="st4" width="3.4" height="3.4"/>
	<rect x="259" y="288.2" class="st4" width="3.4" height="3.4"/>
	<rect x="259" y="293.9" class="st4" width="3.4" height="3.4"/>
	<rect x="259" y="299.6" class="st4" width="3.4" height="3.4"/>
	<rect x="259" y="305.3" class="st4" width="3.4" height="3.4"/>
	<rect x="259" y="311" class="st4" width="3.4" height="3.4"/>
	<rect x="259" y="316.7" class="st4" width="3.4" height="3.4"/>
	<rect x="259" y="322.4" class="st4" width="3.4" height="3.4"/>
	<rect x="259" y="328.1" class="st4" width="3.4" height="3.4"/>
	<rect x="259" y="333.8" class="st4" width="3.4" height="3.4"/>
	<rect x="259" y="339.5" class="st4" width="3.4" height="3.4"/>
	<rect x="259" y="345.2" class="st4" width="3.4" height="3.4"/>
	<rect x="259" y="350.9" class="st4" width="3.4" height="3.4"/>
	<rect x="259" y="356.6" class="st4" width="3.4" height="3.4"/>
	<rect x="253.6" y="231.3" class="st4" width="3.4" height="3.4"/>
	<rect x="253.6" y="237" class="st4" width="3.4" height="3.4"/>
	<rect x="253.6" y="242.7" class="st4" width="3.4" height="3.4"/>
	<rect x="253.6" y="248.4" class="st4" width="3.4" height="3.4"/>
	<rect x="253.6" y="254.1" class="st4" width="3.4" height="3.4"/>
	<rect x="253.6" y="259.8" class="st4" width="3.4" height="3.4"/>
	<rect x="253.6" y="265.5" class="st4" width="3.4" height="3.4"/>
	<rect x="253.6" y="271.2" class="st4" width="3.4" height="3.4"/>
	<rect x="253.6" y="276.9" class="st4" width="3.4" height="3.4"/>
	<rect x="253.6" y="282.5" class="st4" width="3.4" height="3.4"/>
	<rect x="253.6" y="288.2" class="st4" width="3.4" height="3.4"/>
	<rect x="253.6" y="293.9" class="st4" width="3.4" height="3.4"/>
	<rect x="253.6" y="299.6" class="st4" width="3.4" height="3.4"/>
	<rect x="253.6" y="305.3" class="st4" width="3.4" height="3.4"/>
	<rect x="253.6" y="311" class="st4" width="3.4" height="3.4"/>
	<rect x="253.6" y="316.7" class="st4" width="3.4" height="3.4"/>
	<rect x="253.6" y="322.4" class="st4" width="3.4" height="3.4"/>
	<rect x="253.6" y="328.1" class="st4" width="3.4" height="3.4"/>
	<rect x="253.6" y="333.8" class="st4" width="3.4" height="3.4"/>
	<rect x="248.2" y="231.3" class="st4" width="3.4" height="3.4"/>
	<rect x="248.2" y="237" class="st4" width="3.4" height="3.4"/>
	<rect x="248.2" y="242.7" class="st4" width="3.4" height="3.4"/>
	<rect x="248.2" y="248.4" class="st4" width="3.4" height="3.4"/>
	<rect x="248.2" y="254.1" class="st4" width="3.4" height="3.4"/>
	<rect x="248.2" y="259.8" class="st4" width="3.4" height="3.4"/>
	<rect x="248.2" y="265.5" class="st4" width="3.4" height="3.4"/>
	<rect x="248.2" y="271.2" class="st4" width="3.4" height="3.4"/>
	<rect x="248.2" y="276.9" class="st4" width="3.4" height="3.4"/>
	<rect x="248.2" y="282.5" class="st4" width="3.4" height="3.4"/>
	<rect x="248.2" y="288.2" class="st4" width="3.4" height="3.4"/>
	<rect x="248.2" y="293.9" class="st4" width="3.4" height="3.4"/>
	<rect x="248.2" y="299.6" class="st4" width="3.4" height="3.4"/>
	<rect x="248.2" y="305.3" class="st4" width="3.4" height="3.4"/>
	<rect x="248.2" y="311" class="st4" width="3.4" height="3.4"/>
	<rect x="248.2" y="316.7" class="st4" width="3.4" height="3.4"/>
	<rect x="248.2" y="322.4" class="st4" width="3.4" height="3.4"/>
	<rect x="248.2" y="328.1" class="st4" width="3.4" height="3.4"/>
	<rect x="248.2" y="333.8" class="st4" width="3.4" height="3.4"/>
	<rect x="242.8" y="231.3" class="st4" width="3.4" height="3.4"/>
	<rect x="242.8" y="237" class="st4" width="3.4" height="3.4"/>
	<rect x="242.8" y="242.7" class="st4" width="3.4" height="3.4"/>
	<rect x="242.8" y="248.4" class="st4" width="3.4" height="3.4"/>
	<rect x="242.8" y="254.1" class="st4" width="3.4" height="3.4"/>
	<rect x="242.8" y="259.8" class="st4" width="3.4" height="3.4"/>
	<rect x="242.8" y="265.5" class="st4" width="3.4" height="3.4"/>
	<rect x="242.8" y="271.2" class="st4" width="3.4" height="3.4"/>
	<rect x="242.8" y="276.9" class="st4" width="3.4" height="3.4"/>
	<rect x="242.8" y="282.5" class="st4" width="3.4" height="3.4"/>
	<rect x="242.8" y="288.2" class="st4" width="3.4" height="3.4"/>
	<rect x="242.8" y="293.9" class="st4" width="3.4" height="3.4"/>
	<rect x="242.8" y="299.6" class="st4" width="3.4" height="3.4"/>
	<rect x="242.8" y="305.3" class="st4" width="3.4" height="3.4"/>
	<rect x="242.8" y="311" class="st4" width="3.4" height="3.4"/>
	<rect x="237.4" y="231.3" class="st4" width="3.4" height="3.4"/>
	<rect x="237.4" y="237" class="st4" width="3.4" height="3.4"/>
	<rect x="237.4" y="242.7" class="st4" width="3.4" height="3.4"/>
	<rect x="237.4" y="248.4" class="st4" width="3.4" height="3.4"/>
	<rect x="237.4" y="254.1" class="st4" width="3.4" height="3.4"/>
	<rect x="237.4" y="259.8" class="st4" width="3.4" height="3.4"/>
	<rect x="237.4" y="265.5" class="st4" width="3.4" height="3.4"/>
	<rect x="237.4" y="271.2" class="st4" width="3.4" height="3.4"/>
	<rect x="237.4" y="276.9" class="st4" width="3.4" height="3.4"/>
	<rect x="237.4" y="282.5" class="st4" width="3.4" height="3.4"/>
	<rect x="237.4" y="288.2" class="st4" width="3.4" height="3.4"/>
	<rect x="237.4" y="293.9" class="st4" width="3.4" height="3.4"/>
	<rect x="237.4" y="299.6" class="st4" width="3.4" height="3.4"/>
	<rect x="232.1" y="231.3" class="st4" width="3.4" height="3.4"/>
	<rect x="232.1" y="237" class="st4" width="3.4" height="3.4"/>
	<rect x="232.1" y="242.7" class="st4" width="3.4" height="3.4"/>
	<rect x="232.1" y="248.4" class="st4" width="3.4" height="3.4"/>
	<rect x="232.1" y="254.1" class="st4" width="3.4" height="3.4"/>
	<rect x="232.1" y="259.8" class="st4" width="3.4" height="3.4"/>
	<rect x="232.1" y="265.5" class="st4" width="3.4" height="3.4"/>
	<rect x="232.1" y="271.2" class="st4" width="3.4" height="3.4"/>
	<rect x="232.1" y="276.9" class="st4" width="3.4" height="3.4"/>
	<rect x="232.1" y="282.5" class="st4" width="3.4" height="3.4"/>
	<rect x="232.1" y="288.2" class="st4" width="3.4" height="3.4"/>
	<rect x="232.1" y="293.9" class="st4" width="3.4" height="3.4"/>
	<rect x="546.8" y="229.6" class="st4" width="3.4" height="3.4"/>
	<rect x="546.8" y="235.3" class="st4" width="3.4" height="3.4"/>
	<rect x="546.8" y="241" class="st4" width="3.4" height="3.4"/>
	<rect x="546.8" y="246.7" class="st4" width="3.4" height="3.4"/>
	<rect x="546.8" y="252.4" class="st4" width="3.4" height="3.4"/>
	<rect x="546.8" y="258.1" class="st4" width="3.4" height="3.4"/>
	<rect x="546.8" y="263.8" class="st4" width="3.4" height="3.4"/>
	<rect x="546.8" y="269.5" class="st4" width="3.4" height="3.4"/>
	<rect x="546.8" y="275.2" class="st4" width="3.4" height="3.4"/>
	<rect x="546.8" y="280.9" class="st4" width="3.4" height="3.4"/>
	<rect x="546.8" y="286.6" class="st4" width="3.4" height="3.4"/>
	<rect x="546.8" y="292.2" class="st4" width="3.4" height="3.4"/>
	<rect x="546.8" y="297.9" class="st4" width="3.4" height="3.4"/>
	<rect x="546.8" y="303.6" class="st4" width="3.4" height="3.4"/>
	<rect x="546.8" y="309.3" class="st4" width="3.4" height="3.4"/>
	<rect x="546.8" y="315" class="st4" width="3.4" height="3.4"/>
	<rect x="546.8" y="320.7" class="st4" width="3.4" height="3.4"/>
	<rect x="546.8" y="332.1" class="st4" width="3.4" height="3.4"/>
	<rect x="546.8" y="337.8" class="st4" width="3.4" height="3.4"/>
	<rect x="546.8" y="343.5" class="st4" width="3.4" height="3.4"/>
	<rect x="546.8" y="349.2" class="st4" width="3.4" height="3.4"/>
	<rect x="546.8" y="354.8" class="st4" width="3.4" height="3.4"/>
	<rect x="541.4" y="229.6" class="st4" width="3.4" height="3.4"/>
	<rect x="541.4" y="235.3" class="st4" width="3.4" height="3.4"/>
	<rect x="541.4" y="241" class="st4" width="3.4" height="3.4"/>
	<rect x="541.4" y="246.7" class="st4" width="3.4" height="3.4"/>
	<rect x="541.4" y="252.4" class="st4" width="3.4" height="3.4"/>
	<rect x="541.4" y="258.1" class="st4" width="3.4" height="3.4"/>
	<rect x="541.4" y="263.8" class="st4" width="3.4" height="3.4"/>
	<rect x="541.4" y="269.5" class="st4" width="3.4" height="3.4"/>
	<rect x="541.4" y="275.2" class="st4" width="3.4" height="3.4"/>
	<rect x="541.4" y="280.9" class="st4" width="3.4" height="3.4"/>
	<rect x="541.4" y="286.6" class="st4" width="3.4" height="3.4"/>
	<rect x="541.4" y="292.2" class="st4" width="3.4" height="3.4"/>
	<rect x="541.4" y="297.9" class="st4" width="3.4" height="3.4"/>
	<rect x="541.4" y="303.6" class="st4" width="3.4" height="3.4"/>
	<rect x="541.4" y="309.3" class="st4" width="3.4" height="3.4"/>
	<rect x="541.4" y="315" class="st4" width="3.4" height="3.4"/>
	<rect x="541.4" y="349.2" class="st4" width="3.4" height="3.4"/>
	<rect x="541.4" y="354.8" class="st4" width="3.4" height="3.4"/>
	<rect x="536.1" y="229.6" class="st4" width="3.4" height="3.4"/>
	<rect x="536.1" y="235.3" class="st4" width="3.4" height="3.4"/>
	<rect x="536.1" y="241" class="st4" width="3.4" height="3.4"/>
	<rect x="536.1" y="246.7" class="st4" width="3.4" height="3.4"/>
	<rect x="536.1" y="252.4" class="st4" width="3.4" height="3.4"/>
	<rect x="536.1" y="258.1" class="st4" width="3.4" height="3.4"/>
	<rect x="536.1" y="263.8" class="st4" width="3.4" height="3.4"/>
	<rect x="536.1" y="269.5" class="st4" width="3.4" height="3.4"/>
	<rect x="536.1" y="275.2" class="st4" width="3.4" height="3.4"/>
	<rect x="536.1" y="280.9" class="st4" width="3.4" height="3.4"/>
	<rect x="536.1" y="286.6" class="st4" width="3.4" height="3.4"/>
	<rect x="536.1" y="292.2" class="st4" width="3.4" height="3.4"/>
	<rect x="536.1" y="297.9" class="st4" width="3.4" height="3.4"/>
	<rect x="536.1" y="303.6" class="st4" width="3.4" height="3.4"/>
	<rect x="536.1" y="309.3" class="st4" width="3.4" height="3.4"/>
	<rect x="536.1" y="315" class="st4" width="3.4" height="3.4"/>
	<rect x="536.1" y="326.4" class="st4" width="3.4" height="3.4"/>
	<rect x="536.1" y="332.1" class="st4" width="3.4" height="3.4"/>
	<rect x="536.1" y="337.8" class="st4" width="3.4" height="3.4"/>
	<rect x="536.1" y="343.5" class="st4" width="3.4" height="3.4"/>
	<rect x="536.1" y="354.8" class="st4" width="3.4" height="3.4"/>
	<rect x="442" y="269.5" class="st4" width="3.4" height="3.4"/>
	<rect x="442" y="275.2" class="st4" width="3.4" height="3.4"/>
	<rect x="442" y="280.9" class="st4" width="3.4" height="3.4"/>
	<rect x="442" y="286.6" class="st4" width="3.4" height="3.4"/>
	<rect x="442" y="292.2" class="st4" width="3.4" height="3.4"/>
	<rect x="442" y="297.9" class="st4" width="3.4" height="3.4"/>
	<rect x="442" y="303.6" class="st4" width="3.4" height="3.4"/>
	<rect x="442" y="309.3" class="st4" width="3.4" height="3.4"/>
	<rect x="442" y="315" class="st4" width="3.4" height="3.4"/>
	<rect x="442" y="320.7" class="st4" width="3.4" height="3.4"/>
	<rect x="442" y="326.4" class="st4" width="3.4" height="3.4"/>
	<rect x="442" y="332.1" class="st4" width="3.4" height="3.4"/>
	<rect x="442" y="337.8" class="st4" width="3.4" height="3.4"/>
	<rect x="442" y="349.2" class="st4" width="3.4" height="3.4"/>
	<rect x="442" y="354.8" class="st4" width="3.4" height="3.4"/>
	<rect x="442" y="360.5" class="st4" width="3.4" height="3.4"/>
	<rect x="442" y="366.2" class="st4" width="3.4" height="3.4"/>
	<rect x="442" y="377.6" class="st4" width="3.4" height="3.4"/>
	<rect x="442" y="383.3" class="st4" width="3.4" height="3.4"/>
	<rect x="442" y="389" class="st4" width="3.4" height="3.4"/>
	<rect x="436.6" y="269.5" class="st4" width="3.4" height="3.4"/>
	<rect x="436.6" y="275.2" class="st4" width="3.4" height="3.4"/>
	<rect x="436.6" y="280.9" class="st4" width="3.4" height="3.4"/>
	<rect x="436.6" y="286.6" class="st4" width="3.4" height="3.4"/>
	<rect x="436.6" y="292.2" class="st4" width="3.4" height="3.4"/>
	<rect x="436.6" y="297.9" class="st4" width="3.4" height="3.4"/>
	<rect x="436.6" y="303.6" class="st4" width="3.4" height="3.4"/>
	<rect x="436.6" y="309.3" class="st4" width="3.4" height="3.4"/>
	<rect x="436.6" y="315" class="st4" width="3.4" height="3.4"/>
	<rect x="436.6" y="320.7" class="st4" width="3.4" height="3.4"/>
	<rect x="436.6" y="326.4" class="st4" width="3.4" height="3.4"/>
	<rect x="436.6" y="332.1" class="st4" width="3.4" height="3.4"/>
	<rect x="436.6" y="337.8" class="st4" width="3.4" height="3.4"/>
	<rect x="436.6" y="354.8" class="st4" width="3.4" height="3.4"/>
	<rect x="436.6" y="360.5" class="st4" width="3.4" height="3.4"/>
	<rect x="436.6" y="371.9" class="st4" width="3.4" height="3.4"/>
	<rect x="436.6" y="377.6" class="st4" width="3.4" height="3.4"/>
	<rect x="436.6" y="383.3" class="st4" width="3.4" height="3.4"/>
	<rect x="436.6" y="389" class="st4" width="3.4" height="3.4"/>
	<rect x="431.2" y="269.5" class="st4" width="3.4" height="3.4"/>
	<rect x="431.2" y="275.2" class="st4" width="3.4" height="3.4"/>
	<rect x="431.2" y="280.9" class="st4" width="3.4" height="3.4"/>
	<rect x="431.2" y="286.6" class="st4" width="3.4" height="3.4"/>
	<rect x="431.2" y="292.2" class="st4" width="3.4" height="3.4"/>
	<rect x="431.2" y="297.9" class="st4" width="3.4" height="3.4"/>
	<rect x="431.2" y="303.6" class="st4" width="3.4" height="3.4"/>
	<rect x="431.2" y="309.3" class="st4" width="3.4" height="3.4"/>
	<rect x="431.2" y="315" class="st4" width="3.4" height="3.4"/>
	<rect x="431.2" y="320.7" class="st4" width="3.4" height="3.4"/>
	<rect x="431.2" y="326.4" class="st4" width="3.4" height="3.4"/>
	<rect x="431.2" y="332.1" class="st4" width="3.4" height="3.4"/>
	<rect x="431.2" y="337.8" class="st4" width="3.4" height="3.4"/>
	<rect x="431.2" y="343.5" class="st4" width="3.4" height="3.4"/>
	<rect x="431.2" y="354.8" class="st4" width="3.4" height="3.4"/>
	<rect x="431.2" y="366.2" class="st4" width="3.4" height="3.4"/>
	<rect x="431.2" y="371.9" class="st4" width="3.4" height="3.4"/>
	<rect x="431.2" y="377.6" class="st4" width="3.4" height="3.4"/>
	<rect x="431.2" y="383.3" class="st4" width="3.4" height="3.4"/>
	<rect x="431.2" y="389" class="st4" width="3.4" height="3.4"/>
	<rect x="463.9" y="301.9" class="st4" width="3.4" height="3.4"/>
	<rect x="463.9" y="307.6" class="st4" width="3.4" height="3.4"/>
	<rect x="463.9" y="313.3" class="st4" width="3.4" height="3.4"/>
	<rect x="463.9" y="319" class="st4" width="3.4" height="3.4"/>
	<rect x="463.9" y="324.7" class="st4" width="3.4" height="3.4"/>
	<rect x="463.9" y="330.4" class="st4" width="3.4" height="3.4"/>
	<rect x="463.9" y="347.5" class="st4" width="3.4" height="3.4"/>
	<rect x="463.9" y="353.2" class="st4" width="3.4" height="3.4"/>
	<rect x="463.9" y="358.9" class="st4" width="3.4" height="3.4"/>
	<rect x="463.9" y="364.5" class="st4" width="3.4" height="3.4"/>
	<rect x="463.9" y="370.2" class="st4" width="3.4" height="3.4"/>
	<rect x="463.9" y="375.9" class="st4" width="3.4" height="3.4"/>
	<rect x="463.9" y="381.6" class="st4" width="3.4" height="3.4"/>
	<rect x="458.5" y="301.9" class="st4" width="3.4" height="3.4"/>
	<rect x="458.5" y="307.6" class="st4" width="3.4" height="3.4"/>
	<rect x="458.5" y="313.3" class="st4" width="3.4" height="3.4"/>
	<rect x="458.5" y="319" class="st4" width="3.4" height="3.4"/>
	<rect x="458.5" y="324.7" class="st4" width="3.4" height="3.4"/>
	<rect x="458.5" y="330.4" class="st4" width="3.4" height="3.4"/>
	<rect x="458.5" y="347.5" class="st4" width="3.4" height="3.4"/>
	<rect x="458.5" y="353.2" class="st4" width="3.4" height="3.4"/>
	<rect x="458.5" y="358.9" class="st4" width="3.4" height="3.4"/>
	<rect x="458.5" y="364.5" class="st4" width="3.4" height="3.4"/>
	<rect x="458.5" y="370.2" class="st4" width="3.4" height="3.4"/>
	<rect x="458.5" y="375.9" class="st4" width="3.4" height="3.4"/>
	<rect x="458.5" y="387.3" class="st4" width="3.4" height="3.4"/>
	<rect x="279.4" y="276.9" class="st4" width="3.4" height="3.4"/>
	<rect x="279.4" y="282.5" class="st4" width="3.4" height="3.4"/>
	<rect x="279.4" y="288.2" class="st4" width="3.4" height="3.4"/>
	<rect x="279.4" y="293.9" class="st4" width="3.4" height="3.4"/>
	<rect x="279.4" y="299.6" class="st4" width="3.4" height="3.4"/>
	<rect x="279.4" y="305.3" class="st4" width="3.4" height="3.4"/>
	<rect x="279.4" y="311" class="st4" width="3.4" height="3.4"/>
	<rect x="279.4" y="316.7" class="st4" width="3.4" height="3.4"/>
	<rect x="279.4" y="322.4" class="st4" width="3.4" height="3.4"/>
	<rect x="279.4" y="328.1" class="st4" width="3.4" height="3.4"/>
	<rect x="279.4" y="333.8" class="st4" width="3.4" height="3.4"/>
	<rect x="279.4" y="345.2" class="st4" width="3.4" height="3.4"/>
	<rect x="279.4" y="350.9" class="st4" width="3.4" height="3.4"/>
	<rect x="279.4" y="356.6" class="st4" width="3.4" height="3.4"/>
	<rect x="279.4" y="362.2" class="st4" width="3.4" height="3.4"/>
	<rect x="279.4" y="367.9" class="st4" width="3.4" height="3.4"/>
	<rect x="279.4" y="373.6" class="st4" width="3.4" height="3.4"/>
	<rect x="279.4" y="379.3" class="st4" width="3.4" height="3.4"/>
	<rect x="279.4" y="385" class="st4" width="3.4" height="3.4"/>
	<rect x="274" y="276.9" class="st4" width="3.4" height="3.4"/>
	<rect x="274" y="282.5" class="st4" width="3.4" height="3.4"/>
	<rect x="274" y="288.2" class="st4" width="3.4" height="3.4"/>
	<rect x="274" y="293.9" class="st4" width="3.4" height="3.4"/>
	<rect x="274" y="299.6" class="st4" width="3.4" height="3.4"/>
	<rect x="274" y="305.3" class="st4" width="3.4" height="3.4"/>
	<rect x="274" y="311" class="st4" width="3.4" height="3.4"/>
	<rect x="274" y="316.7" class="st4" width="3.4" height="3.4"/>
	<rect x="274" y="322.4" class="st4" width="3.4" height="3.4"/>
	<rect x="274" y="328.1" class="st4" width="3.4" height="3.4"/>
	<rect x="274" y="333.8" class="st4" width="3.4" height="3.4"/>
	<rect x="274" y="339.5" class="st4" width="3.4" height="3.4"/>
	<rect x="274" y="345.2" class="st4" width="3.4" height="3.4"/>
	<rect x="274" y="350.9" class="st4" width="3.4" height="3.4"/>
	<rect x="274" y="356.6" class="st4" width="3.4" height="3.4"/>
	<rect x="274" y="362.2" class="st4" width="3.4" height="3.4"/>
	<rect x="274" y="367.9" class="st4" width="3.4" height="3.4"/>
	<rect x="274" y="373.6" class="st4" width="3.4" height="3.4"/>
	<rect x="274" y="379.3" class="st4" width="3.4" height="3.4"/>
	<rect x="274" y="385" class="st4" width="3.4" height="3.4"/>
	<rect x="306" y="299" class="st4" width="3.4" height="3.4"/>
	<rect x="306" y="304.7" class="st4" width="3.4" height="3.4"/>
	<rect x="306" y="310.4" class="st4" width="3.4" height="3.4"/>
	<rect x="306" y="316.1" class="st4" width="3.4" height="3.4"/>
	<rect x="306" y="321.8" class="st4" width="3.4" height="3.4"/>
	<rect x="306" y="327.5" class="st4" width="3.4" height="3.4"/>
	<rect x="306" y="333.2" class="st4" width="3.4" height="3.4"/>
	<rect x="306" y="338.9" class="st4" width="3.4" height="3.4"/>
	<rect x="306" y="344.6" class="st4" width="3.4" height="3.4"/>
	<rect x="306" y="350.3" class="st4" width="3.4" height="3.4"/>
	<rect x="300.6" y="299" class="st4" width="3.4" height="3.4"/>
	<rect x="300.6" y="304.7" class="st4" width="3.4" height="3.4"/>
	<rect x="300.6" y="310.4" class="st4" width="3.4" height="3.4"/>
	<rect x="300.6" y="316.1" class="st4" width="3.4" height="3.4"/>
	<rect x="300.6" y="321.8" class="st4" width="3.4" height="3.4"/>
	<rect x="300.6" y="327.5" class="st4" width="3.4" height="3.4"/>
	<rect x="300.6" y="333.2" class="st4" width="3.4" height="3.4"/>
	<rect x="300.6" y="338.9" class="st4" width="3.4" height="3.4"/>
	<rect x="300.6" y="344.6" class="st4" width="3.4" height="3.4"/>
	<rect x="330.3" y="83" class="st1" width="5.7" height="317.5"/>
	<rect x="437.6" y="83" class="st1" width="5.7" height="317.5"/>
	<rect x="544.8" y="83" class="st1" width="5.7" height="317.5"/>
	<path class="st4" d="M145.2,369.5h35.1c3.3,0,6,2.7,6,6l0,0v67.9l0,0h-47.1l0,0v-67.8C139.2,372.3,141.9,369.6,145.2,369.5
		C145.2,369.5,145.2,369.5,145.2,369.5z"/>
	<rect x="139.2" y="379.6" class="st3" width="47.1" height="5.3"/>
	<path class="st1" d="M166,434.5h11.7c1.8,0,3.2,1.4,3.2,3.2v5.7l0,0h-18.2l0,0v-5.7C162.8,436,164.2,434.5,166,434.5
		C166,434.5,166,434.5,166,434.5z"/>
	<path class="st3" d="M181.1,443.5h-13c-1.2,0-2.1-0.9-2.1-2.1l0,0l0,0c0-1.2,0.9-2.1,2.1-2.1h13c1.2,0,2.1,0.9,2.1,2.1l0,0
		C183.2,442.5,182.2,443.5,181.1,443.5L181.1,443.5z"/>
	<ellipse transform="matrix(0.9733 -0.2297 0.2297 0.9733 1.7651 88.9454)" class="st1" cx="382.9" cy="36.9" rx="32.1" ry="32.1"/>
	<circle class="st4" cx="382.9" cy="36.9" r="27.3"/>
	<polyline class="st4" points="384.2,18.2 384.2,37.2 396.8,30.1 	"/>
	<path class="st1" d="M384.2,38.5c-0.2,0-0.5-0.1-0.7-0.2c-0.4-0.2-0.7-0.7-0.7-1.2V18.1c0-0.8,0.6-1.4,1.4-1.4
		c0.8,0,1.4,0.6,1.4,1.4v16.8l10.6-6c0.7-0.4,1.5-0.1,1.9,0.5c0.4,0.7,0.1,1.5-0.5,1.9l-12.6,7.2C384.7,38.5,384.4,38.6,384.2,38.5z
		"/>
	<path class="st1" d="M75.9,350c-2.5-4.1-6.5-0.5-6.5-0.5c0.6-7.7-6.5-13-6.5-13s8.3,0,9.4-7.9s-2.9-4.2-6.7-4.3
		c-3.8-0.1-7.8,11-2.7,17.2s3.7,16.8-7.9,27.1c-2.8,2.6-4.8,5.8-6,9.4c0.9-9.4,1.4-22.6-1.4-31.4c-4.7-15,4.2-19.1,6.8-26.5
		c2.6-7.5-6.8-13.8-6.8-13.8s8.9-4.1,4.5-8.6s-13.3-4-13.3,2c0,6,6.1,8.3,6.1,8.3s6.9,7.2,6.9,10.9S45,330.6,45,330.6
		s3.2-6.9-3.2-7.2s-8.4,8.1-5.8,11.8s6.9,0.6,6.9,0.6c0.3,4.4,0.9,8.7,2,13c0.7,2.2,0.4,10.6-0.2,19.4c-1.2-3.2-3.1-6-5.6-8.3
		c-11.5-10.2-12.9-20.8-7.9-27.1c5-6.2,1-17.3-2.7-17.2s-7.8-3.6-6.7,4.3c1.2,7.9,9.4,7.9,9.4,7.9s-7.1,5.3-6.6,13
		c0,0-4.1-3.5-6.5,0.5c-4.4,7.2,5.8,11.7,7.5,8.2c0,0,21.5,15.2,16.3,37.1l1.2,1.8c-0.1,1.8-0.2,2.8-0.2,2.8l1.7-0.7l1.9,2.8
		c-0.1,3.2,0.1,6.4,0.5,9.5l5.1-7.6c-5.2-21.9,16.3-37.1,16.3-37.1C70.2,361.7,80.3,357.2,75.9,350z"/>
	<path class="st5" d="M75.9,350c-2.5-4.1-6.5-0.5-6.5-0.5c0.6-7.7-6.5-13-6.5-13s8.3,0,9.4-7.9s-2.9-4.2-6.7-4.3
		c-3.8-0.1-7.8,11-2.7,17.2s3.7,16.8-7.9,27.1c-2.8,2.6-4.8,5.8-6,9.4c0.9-9.4,1.4-22.6-1.4-31.4c-4.7-15,4.2-19.1,6.8-26.5
		c2.6-7.5-6.8-13.8-6.8-13.8s8.9-4.1,4.5-8.6s-13.3-4-13.3,2c0,6,6.1,8.3,6.1,8.3s6.9,7.2,6.9,10.9S45,330.6,45,330.6
		s3.2-6.9-3.2-7.2s-8.4,8.1-5.8,11.8s6.9,0.6,6.9,0.6c0.3,4.4,0.9,8.7,2,13c0.7,2.2,0.4,10.6-0.2,19.4c-1.2-3.2-3.1-6-5.6-8.3
		c-11.5-10.2-12.9-20.8-7.9-27.1c5-6.2,1-17.3-2.7-17.2s-7.8-3.6-6.7,4.3c1.2,7.9,9.4,7.9,9.4,7.9s-7.1,5.3-6.6,13
		c0,0-4.1-3.5-6.5,0.5c-4.4,7.2,5.8,11.7,7.5,8.2c0,0,21.5,15.2,16.3,37.1l1.2,1.8c-0.1,1.8-0.2,2.8-0.2,2.8l1.7-0.7l1.9,2.8
		c-0.1,3.2,0.1,6.4,0.5,9.5l5.1-7.6c-5.2-21.9,16.3-37.1,16.3-37.1C70.2,361.7,80.3,357.2,75.9,350z"/>
	<polygon class="st3" points="71.7,443.5 22.4,443.5 17.1,389.5 77,389.5 	"/>
	<rect x="14.5" y="383.6" class="st4" width="65.2" height="11.9"/>
</g>
<g id="freepik--Shadow--inject-46">
	<ellipse id="freepik--path--inject-46" class="st2" cx="193.9" cy="490" rx="193.9" ry="11.3"/>
</g>
<g id="freepik--Plant--inject-46">
	<path class="st6" d="M503,446.8c0.2-1.4,5-34.3-4.6-45.6c-1.9-2.4-4.8-3.9-7.9-3.9c-19.3-0.4-21.9,15-21.9,15.2l2.3,0.4
		c0.1-0.6,2.4-13.6,19.6-13.2c2.4,0,4.7,1.2,6.2,3.1c8.9,10.6,4.1,43.5,4.1,43.8L503,446.8z"/>
	<path class="st6" d="M504.1,445.3l2.3-0.1c0-0.3-0.8-30.3,14-36.5c14.5-6.1,21,6.4,21.3,6.9l2.1-1c-0.1-0.1-7.7-15-24.2-8
		C503.3,413.4,504.1,444,504.1,445.3z"/>
	<path class="st6" d="M504.1,447.7c0-0.5,0.1-47.9,9.4-61.8c8.9-13.3,23.2-7.1,23.8-6.8l0.9-2.1c-0.2-0.1-16.7-7.4-26.7,7.6
		c-9.6,14.5-9.8,61.1-9.8,63.1L504.1,447.7z"/>
	<path class="st6" d="M487.7,398.4c0,0,8.4,3.1,5.9,10.4c-2.5,7.3-29.1,19.4-29.1,19.4s-11.2-10.2-0.9-26.8
		C473.8,384.7,487.5,393.2,487.7,398.4z"/>
	<path class="st6" d="M513.9,383.3c0,0-6-0.6-5.4-4.3c0.5-3.6,23.2-13,36.7,2.1c0,0-8.6,14.8-21,15
		C511.6,396.4,513.9,383.3,513.9,383.3z"/>
	<path class="st6" d="M520.1,407.7c0,0-4.1-3.3,0.3-4.9c4.4-1.6,26.3-1.2,26.5,20.4c0,0-25.4,4.2-28.6-4
		C515.1,410.9,520.1,407.7,520.1,407.7z"/>
	<path class="st7" d="M487.7,398.4c0,0,8.4,3.1,5.9,10.4c-2.5,7.3-29.1,19.4-29.1,19.4s-11.2-10.2-0.9-26.8
		C473.8,384.7,487.5,393.2,487.7,398.4z"/>
	<path class="st7" d="M513.9,383.3c0,0-6-0.6-5.4-4.3c0.5-3.6,23.2-13,36.7,2.1c0,0-8.6,14.8-21,15
		C511.6,396.4,513.9,383.3,513.9,383.3z"/>
	<path class="st7" d="M520.1,407.7c0,0-4.1-3.3,0.3-4.9c4.4-1.6,26.3-1.2,26.5,20.4c0,0-25.4,4.2-28.6-4
		C515.1,410.9,520.1,407.7,520.1,407.7z"/>
	<polygon class="st6" points="483.2,490.9 522.7,490.9 526.9,447.7 478.9,447.7 	"/>
	<polygon class="st8" points="483.2,490.9 522.7,490.9 526.9,447.7 478.9,447.7 	"/>
	<rect x="476.8" y="442.9" class="st6" width="52.2" height="9.5"/>
	<rect x="476.8" y="442.9" class="st9" width="52.2" height="9.5"/>
</g>
<g id="freepik--Chair--inject-46">
	<path class="st10" d="M438.5,459.9l-39.2-3.9v-55.2h-15.6V456l-39.4,3.9c-3.9,0.4-6.9,3.7-6.9,7.6v5.9h108v-5.9
		C445.5,463.5,442.4,460.3,438.5,459.9z"/>
	<path class="st9" d="M438.5,459.9l-39.2-3.9v-55.2h-15.6V456l-39.4,3.9c-3.9,0.4-6.9,3.7-6.9,7.6v5.9h108v-5.9
		C445.5,463.5,442.4,460.3,438.5,459.9z"/>
	<circle class="st10" cx="341.6" cy="480.7" r="10.2"/>
	<circle class="st10" cx="441.3" cy="480.7" r="10.2"/>
	<path class="st10" d="M381,363.6h20.9l0,0v43.5c0,3.1-2.5,5.6-5.6,5.6l0,0h-9.7c-3.1,0-5.6-2.5-5.6-5.6l0,0V363.6L381,363.6z"/>
	<path class="st11" d="M381,363.6h20.9l0,0v43.5c0,3.1-2.5,5.6-5.6,5.6l0,0h-9.7c-3.1,0-5.6-2.5-5.6-5.6l0,0V363.6L381,363.6z"/>
	<path class="st10" d="M428.7,277.4c0,0,3,73.6-17.5,86.2h23.4c0,0,18.1-25,13-86.2H428.7z"/>
	<path class="st11" d="M428.7,277.4c0,0,3,73.6-17.5,86.2h23.4c0,0,18.1-25,13-86.2H428.7z"/>
	<path class="st10" d="M442.5,369.2H337.7l0,0v-9.1c0-3.8,3-6.8,6.8-6.8h91.2c3.8,0,6.8,3,6.8,6.8V369.2L442.5,369.2z"/>
	<path class="st10" d="M444.1,369.2h-108c-1.5,0-2.7-1.2-2.7-2.7V364c0-1.5,1.2-2.7,2.7-2.7h108c1.5,0,2.7,1.2,2.7,2.7v2.5
		C446.9,368,445.6,369.2,444.1,369.2z"/>
	<path class="st12" d="M444.1,369.2h-108c-1.5,0-2.7-1.2-2.7-2.7V364c0-1.5,1.2-2.7,2.7-2.7h108c1.5,0,2.7,1.2,2.7,2.7v2.5
		C446.9,368,445.6,369.2,444.1,369.2z"/>
	<path class="st10" d="M415.8,238h37.5c11,0,19.9,8.9,19.9,19.9v14.7c0,11-8.9,19.9-19.9,19.9h-37.5c-11,0-19.9-8.9-19.9-19.9v-14.7
		C396,246.9,404.8,238,415.8,238z"/>
</g>
<g id="freepik--Character--inject-46">
	<path class="st13" d="M302.2,177.9l-7.5-19.7c0,0,3.2-3,1-6c-2.2-3-16-11.5-18.5-10s-8.1,7.1-5.1,10.2c3,3.1,16.3,8.3,16.3,8.3
		l6.6,25.9L302.2,177.9z"/>
	<path class="st6" d="M354.4,215.3c0,0-34.1-7-37.7-8.7c-3.6-1.7-17.3-41.8-17.3-41.8l-10.5,4.9c0,0,8.4,40.2,17.1,49.8
		c8.6,9.6,45.5,17.7,45.5,17.7L354.4,215.3z"/>
	<path class="st7" d="M351.4,237.3l-0.6-0.1c-1.9-0.4-7.7-1.8-14.6-3.8c-11.2-3.3-25.3-8.2-30.3-13.7c-8.6-9.5-17.1-49.8-17.1-49.8
		l10.5-4.9c0,0,13.7,40.1,17.4,41.8s37.7,8.7,37.7,8.7L351.4,237.3z"/>
	<polygon class="st6" points="299.5,164.1 301.7,168.3 288.2,172.9 288.7,167.8 	"/>
	<path class="st7" d="M351.7,236.7c-1.9-0.3-7.8-1.2-14.8-2.7c4-6.9,15.8-10.5,15.8-10.5L351.7,236.7z"/>
	<path class="st10" d="M402.4,187.6c0,0,2,18.8-5,23.5c-7,4.6-41.3-0.8-45.2-8.4c-3.9-7.6,10.8-28.2,10.8-28.2L402.4,187.6z"/>
	<polygon class="st13" points="263.4,435.5 272.4,437.6 276.9,425.3 281,414 270.8,409.7 266.9,423.3 	"/>
	<polygon class="st7" points="266.9,423.3 276.9,425.3 281,414 270.8,409.7 	"/>
	<path class="st6" d="M267.8,416.8l12.4,4.6c0,0,33.1-82.9,40-83.1c6.8-0.2,76.2,31.6,93.5,13.9c17.4-17.7-7.8-60.3-7.8-60.3
		s-41.8-6-45,3.5c-0.8,2.8-1.4,5.6-1.8,8.5c-0.5,2.9-0.8,5.3-0.8,5.3l0,0c-1.3-0.3-43.3-11.2-59.8,0
		C281.8,320.5,267.8,416.8,267.8,416.8z"/>
	<path class="st12" d="M267.8,416.8l12.4,4.6c0,0,33.1-82.9,40-83.1c6.8-0.2,76.2,31.6,93.5,13.9c17.4-17.7-7.8-60.3-7.8-60.3
		s-41.8-6-45,3.5c-0.8,2.8-1.4,5.6-1.8,8.5c-0.5,2.9-0.8,5.3-0.8,5.3l0,0c-1.3-0.3-43.3-11.2-59.8,0
		C281.8,320.5,267.8,416.8,267.8,416.8z"/>
	<polygon class="st13" points="339.3,470.8 348.2,468.5 346.5,455.7 344.9,444 333.9,445 336.7,458.7 	"/>
	<polygon class="st7" points="336.8,458.9 346.5,456 344.9,444.1 333.9,445 	"/>
	<polygon class="st6" points="285.4,416.8 267.3,410.7 266.5,418.1 280.2,422.9 	"/>
	<path class="st6" d="M383.7,356.4c0,0-2.8,0.1-46.7-2c0,0,6.6,54.8,10.1,95.9l-13.1,2.2c0,0-31.3-87.9-31-101.8
		c0.3-14,16.3-18,16.3-18S350.6,350.7,383.7,356.4z"/>
	<path class="st12" d="M383.7,356.4c0,0-2.8,0.1-46.7-2c0,0,6.6,54.8,10.1,95.9l-13.1,2.2c0,0-31.3-87.9-31-101.8
		c0.3-14,16.3-18,16.3-18S350.6,350.7,383.7,356.4z"/>
	<path class="st14" d="M383.7,356.4c0,0-2.8,0.1-46.7-2c0,0,6.6,54.8,10.1,95.9l-13.1,2.2c0,0-31.3-87.9-31-101.8
		c0.3-14,16.3-18,16.3-18S350.6,350.7,383.7,356.4z"/>
	<polygon class="st6" points="349.1,446.3 331.1,448.4 334.5,455.4 349.1,453.6 	"/>
	<path class="st14" d="M358.5,309.2l24.5,5.1c0,0-13.5-7.5-23.6-10.4C358.8,306.7,358.5,309.2,358.5,309.2z"/>
	<polygon class="st10" points="405,285.4 406,291.9 361,295.4 359.8,287.7 	"/>
	<polygon class="st7" points="405,285.4 406,291.9 361,295.4 359.8,287.7 	"/>
	
		<rect x="390.2" y="284.8" transform="matrix(0.9948 -0.1023 0.1023 0.9948 -27.6603 41.5449)" class="st6" width="2.2" height="11.4"/>
	
		<rect x="370.6" y="287.4" transform="matrix(0.9979 -6.418384e-02 6.418384e-02 0.9979 -17.9107 24.7018)" class="st15" width="9.9" height="7.5"/>
	
		<rect x="362.6" y="286" transform="matrix(0.9948 -0.1023 0.1023 0.9948 -27.9264 38.7305)" class="st6" width="2.2" height="11.4"/>
	
		<rect x="390.2" y="284.8" transform="matrix(0.9948 -0.1023 0.1023 0.9948 -27.6603 41.5449)" class="st12" width="2.2" height="11.4"/>
	
		<rect x="362.6" y="286" transform="matrix(0.9948 -0.1023 0.1023 0.9948 -27.9264 38.7305)" class="st12" width="2.2" height="11.4"/>
	<path class="st6" d="M353.6,214.7c8.4,2.3,17.2,3.3,25.9,2.8c14.4-0.7,31.6,6.2,31.6,6.2l-6.2,61.6l-45.1,2.3
		C359.8,287.6,344.7,236.3,353.6,214.7z"/>
	<path class="st10" d="M360.9,180c0,0,2.5-29.9,27.5-19.1c31.3,13.6,6.4,50-8.9,42.6C364.2,196,360.9,180,360.9,180z"/>
	<path class="st7" d="M367.9,219.2l0.7,16.9l5.6-7.9c0,0-2,18.7-0.8,28.9c0,0,1.1-18.2,3.6-28.9l6,7.9l8.5-16.8
		C391.4,219.4,377.6,214.4,367.9,219.2z"/>
	<path class="st13" d="M375.6,222.4l12.9-3.7c-8-5.4-4-17.7-4-17.7l-12.8,4.5c0.6,1.8,1,3.6,1.4,5.4c1.4,8-2.3,8.6-2.3,8.6
		L375.6,222.4z"/>
	<path class="st7" d="M371.8,205.5c0.6,1.8,1,3.6,1.4,5.4c6.1-2.5,11.4-10,11.4-10L371.8,205.5z"/>
	<path class="st13" d="M380.1,167.2c-11.3-2.5-16.3,2.7-19.8,14.2c-4.3,14.4-3.3,25.5,11.5,25.5C392.1,207,399,171.4,380.1,167.2z"
		/>
	<path class="st16" d="M367.8,182.4c-1.3,1.5-2.7,2.8-4.3,4c0.5,1.1,1.5,1.9,2.7,1.9L367.8,182.4z"/>
	<path class="st10" d="M375,183c-0.2,0.9,0.1,1.8,0.7,2c0.6,0.1,1.3-0.5,1.5-1.4c0.2-0.9-0.1-1.8-0.7-2
		C375.9,181.5,375.2,182.1,375,183z"/>
	<path class="st10" d="M376.8,181.7l-1.8-1.3C375,180.5,375.5,182.4,376.8,181.7z"/>
	<path class="st10" d="M363.5,180c-0.2,0.9,0.1,1.8,0.7,2c0.6,0.1,1.4-0.5,1.5-1.4c0.2-0.9-0.1-1.8-0.7-2
		C364.4,178.5,363.8,179.1,363.5,180z"/>
	<path class="st10" d="M365.3,178.7l-1.9-1.2C363.4,177.5,364.1,179.4,365.3,178.7z"/>
	<path class="st10" d="M381.4,178.5c-0.2,0-0.4-0.1-0.4-0.3c-0.9-1.4-2.4-2.4-4.1-2.5c-0.3,0-0.5-0.3-0.4-0.5c0-0.3,0.3-0.5,0.5-0.4
		c2,0.2,3.9,1.3,4.9,3.1c0.1,0.2,0,0.5-0.2,0.7c0,0,0,0,0,0C381.6,178.5,381.5,178.5,381.4,178.5z"/>
	<path class="st10" d="M368.7,173.4c-0.1,0-0.2,0-0.3-0.1c-1.4-0.7-2.9-0.7-4.3,0c-0.2,0.1-0.5,0-0.6-0.3c0,0,0,0,0,0
		c-0.1-0.3,0-0.5,0.3-0.6c0,0,0,0,0,0c1.6-0.8,3.6-0.7,5.2,0.1c0.2,0.1,0.3,0.4,0.2,0.7c0,0,0,0,0,0
		C369,173.3,368.9,173.4,368.7,173.4z"/>
	<path class="st10" d="M388.3,189c0,0-3.2-10.5-0.8-17.5c0,0-20.4-14.2-26.6,8.4c0,0,2.3-20.7,21.9-16.9s13.2,32.4,1.2,38.6
		C384,201.7,390.3,195.6,388.3,189z"/>
	<path class="st13" d="M385.9,191.1c0.8-2.7,3.7-4.2,6.4-3.4c3.4,1.2,3.5,8.7-5.6,8.5C385.3,196.2,384.9,194.8,385.9,191.1z"/>
	<path class="st10" d="M364.2,192.7c0.3,1.4,0.5,2.8,0.6,4.2h0.7c3.4,0.3,5.1-0.7,5.9-1.9c0.4-0.6,0.6-1.3,0.7-1.9
		c0.1-0.4,0.1-0.8,0-1.2c-2.2,0.8-4.5,1-6.8,0.8C364.6,192.7,364.2,192.7,364.2,192.7z"/>
	<path class="st15" d="M365.3,192.7l0.2,1.2c3.2,0.3,5.4,0,6.6-0.9c0.1-0.4,0.1-0.8,0-1.2C369.9,192.7,367.6,193,365.3,192.7z"/>
	<path class="st16" d="M365.5,197c3.4,0.3,5.1-0.7,5.9-1.9c-1.3-0.1-2.6,0.1-3.8,0.4C366.7,195.7,366,196.3,365.5,197z"/>
	<path class="st10" d="M380.2,168.1c0,0,0.4,19.7,12.3,22c11.8,2.4-1.1-25.3-1.1-25.3s-17.6-11.5-29.3-3.4s-1.2,18.5-1.2,18.5
		S363.3,165.3,380.2,168.1z"/>
	<path class="st10" d="M384.7,186.1c-0.1,0-0.2,0-0.2-0.1c-8.4-6.6-4.2-19.2-4.2-19.3c0.1-0.2,0.3-0.3,0.4-0.2
		c0.2,0.1,0.3,0.3,0.2,0.4c0,0.1-4,12.3,4,18.6c0.1,0.1,0.1,0.3,0,0.5c0,0,0,0,0,0C384.8,186,384.8,186.1,384.7,186.1z"/>
	<path class="st6" d="M395.8,194.2c-1.5,4-5.4,6.3-8.6,5s-4.7-5.4-3.2-9.5c1.5-4,5.4-6.3,8.6-5C395.9,186,397.3,190.2,395.8,194.2z"
		/>
	<path class="st17" d="M395.8,194.2c-1.5,4-5.4,6.3-8.6,5s-4.7-5.4-3.2-9.5c1.5-4,5.4-6.3,8.6-5C395.9,186,397.3,190.2,395.8,194.2z
		"/>
	<path class="st6" d="M392,187.6c0,0,4.9-21.9-6.1-27.6c1.2,0.2,2.5,0.4,3.7,0.7c1.4,0.4,10.2,9.3,5.7,29L392,187.6z"/>
	<path class="st7" d="M392,187.6c0,0,4.9-21.9-6.1-27.6c1.2,0.2,2.5,0.4,3.7,0.7c1.4,0.4,10.2,9.3,5.7,29L392,187.6z"/>
	<path class="st6" d="M371.6,200.2l-0.8-0.1l0.2-1.4c6,0.9,12.2-0.4,17.3-3.7l0.8,1.1C383.9,199.5,377.7,200.9,371.6,200.2z"/>
	<g class="st18">
		<path d="M371.6,200.2l-0.8-0.1l0.2-1.4c6,0.9,12.2-0.4,17.3-3.7l0.8,1.1C383.9,199.5,377.7,200.9,371.6,200.2z"/>
	</g>
	<path class="st6" d="M395.4,193.6c-1,2.6-3.5,4.1-5.7,3.3c-2.1-0.8-3.1-3.6-2.1-6.2s3.5-4.1,5.7-3.3
		C395.4,188.2,396.4,191,395.4,193.6z"/>
	<path class="st6" d="M370.3,200.6l-1.1-0.1c-0.8-0.1-1.4-0.8-1.3-1.6c0,0,0,0,0,0l0,0c0.1-0.8,0.8-1.4,1.6-1.3c0,0,0,0,0,0l1.1,0.1
		c0.8,0.1,1.4,0.9,1.3,1.7l0,0C371.9,200.2,371.1,200.7,370.3,200.6z"/>
	<path class="st17" d="M370.3,200.6l-1.1-0.1c-0.8-0.1-1.4-0.8-1.3-1.6c0,0,0,0,0,0l0,0c0.1-0.8,0.8-1.4,1.6-1.3c0,0,0,0,0,0
		l1.1,0.1c0.8,0.1,1.4,0.9,1.3,1.7l0,0C371.9,200.2,371.1,200.7,370.3,200.6z"/>
	<polygon class="st6" points="385,214.1 377,222 380.2,231.8 391.4,219.4 	"/>
	<polygon class="st6" points="373.3,215.7 374.7,221.8 370.5,230.5 367.9,219.2 	"/>
	<path class="st13" d="M383.3,221l4.7-17.2c0,0-2.3-4.3-1.8-5.2c0.5-0.9,2.9-12.4,4.7-13.7c1.7-1.3,8.9,0.9,9.6,2.1
		c0.7,1.2-6.9,16.8-6.9,16.8l-2.7,18.6L383.3,221z"/>
	<path class="st6" d="M411.1,223.8c12.9,13.2-13,43.2-27.8,42c-14.9-1.3,0.4-55.7,0.4-55.7l9.5,1.6c0,0-3.3,23.5-2.3,25.4
		C391.9,238.9,406.8,219.4,411.1,223.8z"/>
	<path class="st7" d="M411.1,223.8c12.9,13.2-13,43.2-27.8,42c-14.9-1.3,0.4-55.7,0.4-55.7l9.5,1.6c0,0-3.3,23.5-2.3,25.4
		C391.9,238.9,406.8,219.4,411.1,223.8z"/>
	<polygon class="st6" points="382.9,208.4 381.5,212.9 394.8,214.1 394.8,210.1 	"/>
	<path class="st12" d="M357.4,244h5.4c0.6,0,1.1,0.5,1.1,1.1v10.1c0,0.6-0.5,1.1-1.1,1.1h-5.4c-0.6,0-1.1-0.5-1.1-1.1V245
		C356.4,244.4,356.9,244,357.4,244z"/>
	<rect x="356.8" y="244.8" class="st7" width="6.1" height="8.3"/>
	<rect x="359.3" y="241" class="st10" width="1.3" height="4.9"/>
	<path class="st6" d="M248.6,452.9c1.4-0.6,2.8-1,4.3-1.1l0,0c0,0,5.2-3,10.3-14.9h5.8c2,0,3.8,1.3,4.4,3.2c0.1,0.3,0.2,0.5,0.2,0.8
		c-0.1,1.4-0.2,2.8-0.4,4.2c-0.8,4.6-2,9.2-3.4,13.6l-1-0.2l1.8-8.6c0.6-2.9-2.5-0.1-3.9,2.8c-1.4,2.9-3.6,5.9-10,4.5
		C249.3,455.3,246.3,454.2,248.6,452.9z"/>
	<path class="st13" d="M264.3,433.8c0,0-7.2,15.1-11.3,18c0,0,5.6,3.3,11.3-4.1c7.5-9.5,9.3-6.9,9.3-6.9c-0.2-1.6-0.5-3.3-0.9-4.9
		C271.6,432.9,264.3,433.8,264.3,433.8z"/>
	<path class="st6" d="M327.9,488.8c1.2-0.9,2.5-1.6,3.9-2.1l0,0c0,0,4.3-4.2,6.5-16.9l5.6-1.4c1.9-0.4,4,0.4,5.1,2
		c0.2,0.2,0.3,0.5,0.4,0.7c0.3,1.3,0.5,2.7,0.6,4.1c0.3,4.7,0.2,9.3-0.1,14h-1l-0.3-8.8c-0.1-3-2.4,0.5-3.1,3.7
		c-0.7,3.2-2.1,6.6-8.6,6.7C329.1,490.9,326,490.6,327.9,488.8z"/>
	<path class="st13" d="M338.6,466.5c0,0-3.4,16.3-6.8,20.1c0,0,6.2,1.9,10.1-6.6c5-11,7.4-8.9,7.4-8.9c-0.5-1.6-1.2-3.1-2-4.5
		C345.5,463.9,338.6,466.5,338.6,466.5z"/>
</g>
<g id="freepik--speech-bubble--inject-46">
	<path class="st6" d="M417.7,136.8h47.6c3.8,0,6.9,3.1,6.9,6.9v20.3c0,3.8-3.1,6.9-6.9,6.9h-47.6c-3.8,0-6.9-3.1-6.9-6.9v-20.3
		C410.8,139.9,413.9,136.8,417.7,136.8z"/>
	<polygon class="st6" points="427.2,167.1 412.9,186.6 436,168.4 	"/>
	<path class="st15" d="M427.8,153.9c0,1.1-0.9,2-2,2c-1.1,0-2-0.9-2-2c0-1.1,0.9-2,2-2c0,0,0,0,0,0
		C426.9,151.9,427.8,152.8,427.8,153.9L427.8,153.9z"/>
	<path class="st15" d="M438.3,153.9c0,1.1-0.9,2-2,2c-1.1,0-2-0.9-2-2c0-1.1,0.9-2,2-2c0,0,0,0,0,0
		C437.4,151.9,438.3,152.8,438.3,153.9L438.3,153.9z"/>
	<path class="st15" d="M448.7,153.9c0,1.1-0.9,2-2,2c-1.1,0-2-0.9-2-2c0-1.1,0.9-2,2-2c0,0,0,0,0,0
		C447.8,151.9,448.7,152.8,448.7,153.9L448.7,153.9z"/>
	<path class="st15" d="M459.2,153.9c0,1.1-0.9,2-2,2c-1.1,0-2-0.9-2-2c0-1.1,0.9-2,2-2c0,0,0,0,0,0
		C458.3,151.9,459.2,152.8,459.2,153.9L459.2,153.9z"/>
</g>
<g id="freepik--Bird--inject-46">
	<path class="st6" d="M252.8,102.4l33.9,18.3c0.9,0.5,1.3,1.6,0.8,2.5l-10.8,20.1c-0.5,0.9-1.6,1.3-2.5,0.8l-33.9-18.3
		c-0.9-0.5-1.3-1.6-0.8-2.5l10.8-20.1C250.7,102.3,251.9,102,252.8,102.4z"/>
	<path class="st19" d="M252.8,102.4l33.9,18.3c0.9,0.5,1.3,1.6,0.8,2.5l-10.8,20.1c-0.5,0.9-1.6,1.3-2.5,0.8l-33.9-18.3
		c-0.9-0.5-1.3-1.6-0.8-2.5l10.8-20.1C250.7,102.3,251.9,102,252.8,102.4z"/>
	<path class="st7" d="M249.3,104.9l10.6,19.8c0.8,1.5,2.5,2.4,4.2,2.3l22.1-2.2l-22.5,3.3c-2,0.3-4-0.8-4.8-2.6L249.3,104.9z"/>
	<path class="st6" d="M223.6,101.2c0.4-7.6,6-22.8,12.8-27.5c6.8-4.7,2.3,1.8,2.3,1.8s6.5-6.3,9.9-6.1c3.4,0.2,0,4.1,0,4.1
		s7-4.3,10.2-4.1c3.2,0.2,0,4,0,4s5.7-4.1,8.1-2.2c2.3,1.9-29.8,23.2-33.4,31.8S223.2,108.8,223.6,101.2z"/>
	<path class="st20" d="M223.6,101.2c0.4-7.6,6-22.8,12.8-27.5c6.8-4.7,2.3,1.8,2.3,1.8s6.5-6.3,9.9-6.1c3.4,0.2,0,4.1,0,4.1
		s7-4.3,10.2-4.1c3.2,0.2,0,4,0,4s5.7-4.1,8.1-2.2c2.3,1.9-29.8,23.2-33.4,31.8S223.2,108.8,223.6,101.2z"/>
	<path class="st6" d="M251.2,100.1l4.3,2.7c0.2,0.1,0.2,0.3,0.1,0.5c-0.1,0.1-0.2,0.2-0.3,0.2l-4.5-0.4l0.4,3.5
		c0,0.2-0.1,0.4-0.3,0.4c-0.1,0-0.3,0-0.3-0.1l-2.6-2.9L251.2,100.1z"/>
	<path class="st11" d="M251.2,100.1l4.3,2.7c0.2,0.1,0.2,0.3,0.1,0.5c-0.1,0.1-0.2,0.2-0.3,0.2l-4.5-0.4l0.4,3.5
		c0,0.2-0.1,0.4-0.3,0.4c-0.1,0-0.3,0-0.3-0.1l-2.6-2.9L251.2,100.1z"/>
	<path class="st6" d="M190.9,83c0,0,5.9-4.1,14.9-1.4c0,0,2.6,11.9,9.6,15.8c3.9,2.2,13.4,2,20.9-0.4c8.9-2.9,13.3-2.9,14.9,0.4
		c1.6,3.3-0.2,6.8-7,8.4c-6.8,1.6-12.3,13.5-24.6,13.6c-12.4,0.1-18.9-12.3-15.8-23.2C200.9,90.7,196.4,86.1,190.9,83z"/>
	<path class="st8" d="M190.9,83c0,0,5.9-4.1,14.9-1.4c0,0,2.6,11.9,9.6,15.8c3.9,2.2,13.4,2,20.9-0.4c8.9-2.9,13.3-2.9,14.9,0.4
		c1.6,3.3-0.2,6.8-7,8.4c-6.8,1.6-12.3,13.5-24.6,13.6c-12.4,0.1-18.9-12.3-15.8-23.2C200.9,90.7,196.4,86.1,190.9,83z"/>
	<path class="st10" d="M247.9,99.6c0,0.3-0.3,0.6-0.6,0.6c-0.3,0-0.6-0.3-0.6-0.6c0-0.3,0.3-0.6,0.6-0.6l0,0
		C247.6,99,247.9,99.3,247.9,99.6z"/>
	<path class="st6" d="M216.8,109.6c-7.3,2-23.6,1.4-30.1-3.7c-6.5-5,1-2.7,1-2.7s-8-4.2-8.9-7.5c-0.9-3.3,3.9-1.3,3.9-1.3
		s-6.3-5.3-7.1-8.5c-0.8-3.1,3.8-1.2,3.8-1.2s-5.7-4.2-4.5-7c1.2-2.8,31.2,21.2,40.6,22C224.7,100.4,224.2,107.6,216.8,109.6z"/>
	<path class="st20" d="M216.8,109.6c-7.3,2-23.6,1.4-30.1-3.7c-6.5-5,1-2.7,1-2.7s-8-4.2-8.9-7.5c-0.9-3.3,3.9-1.3,3.9-1.3
		s-6.3-5.3-7.1-8.5c-0.8-3.1,3.8-1.2,3.8-1.2s-5.7-4.2-4.5-7c1.2-2.8,31.2,21.2,40.6,22C224.7,100.4,224.2,107.6,216.8,109.6z"/>
	<path class="st6" d="M168.9,76.5c-0.1,0-0.1,0-0.2,0c-1.3-0.4-2.6-0.9-3.9-1.3c-0.3-0.1-0.4-0.4-0.3-0.6c0.1-0.3,0.4-0.4,0.6-0.3
		c1.4,0.4,2.6,0.8,3.9,1.4c0.3,0.1,0.4,0.4,0.3,0.6C169.3,76.4,169.1,76.6,168.9,76.5L168.9,76.5z"/>
	<path class="st6" d="M86.5,187c-0.3,0-0.5-0.2-0.5-0.5c0-0.3,0.2-0.5,0.5-0.5c2.7,0,5.4-0.3,8.1-0.8c0.3,0,0.5,0.1,0.6,0.4
		c0.1,0.3-0.1,0.5-0.4,0.6c0,0,0,0,0,0C92.1,186.7,89.3,187,86.5,187z M78.4,186.6L78.4,186.6c-2.7-0.3-5.5-0.7-8.2-1.4
		c-0.3-0.1-0.5-0.3-0.4-0.6c0.1-0.3,0.3-0.4,0.6-0.4c2.7,0.6,5.3,1.1,8,1.4c0.3,0,0.5,0.3,0.4,0.6C78.8,186.4,78.7,186.6,78.4,186.6
		L78.4,186.6z M102.6,183.9c-0.2,0-0.4-0.1-0.5-0.3c-0.1-0.3,0-0.6,0.2-0.7c0,0,0,0,0,0c2.5-1.1,4.8-2.5,6.8-4.3
		c0.2-0.2,0.6-0.1,0.7,0.1c0.2,0.2,0.1,0.5,0,0.7c-2.1,1.8-4.5,3.3-7.1,4.4C102.7,183.9,102.6,183.9,102.6,183.9L102.6,183.9z
		 M62.4,182.9c-0.1,0-0.1,0-0.2,0c-2.6-0.9-5.2-1.9-7.7-3c-0.2-0.1-0.3-0.5-0.2-0.7c0.1-0.2,0.4-0.3,0.6-0.2c2.5,1.1,5,2.1,7.6,2.9
		c0.3,0.1,0.4,0.4,0.3,0.7C62.8,182.8,62.6,182.9,62.4,182.9z M47.4,176.3c-0.1,0-0.2,0-0.2,0c-2.4-1.4-4.8-2.8-7-4.4
		c-0.2-0.2-0.3-0.5-0.1-0.7c0.2-0.2,0.5-0.3,0.7-0.1c2.2,1.5,4.5,3,6.9,4.3c0.2,0.1,0.3,0.4,0.2,0.7c0,0,0,0,0,0
		C47.7,176.3,47.5,176.4,47.4,176.3L47.4,176.3z M114.8,173.2c-0.1,0-0.2,0-0.2,0c-0.2-0.1-0.3-0.4-0.2-0.7c0,0,0,0,0,0
		c0.4-0.7,0.8-1.5,1.2-2.3c0.8-1.7,1.4-3.4,1.8-5.2c0.1-0.3,0.3-0.4,0.6-0.4c0.3,0.1,0.4,0.4,0.4,0.6c-0.4,1.8-1.1,3.6-1.8,5.4
		c-0.4,0.8-0.8,1.6-1.2,2.4C115.1,173.2,114.9,173.3,114.8,173.2L114.8,173.2z M34,166.9c-0.1,0-0.2,0-0.3-0.1
		c-2.1-1.8-4-3.8-5.8-5.9c-0.2-0.2-0.2-0.5,0-0.7c0.2-0.2,0.5-0.2,0.7,0c1.8,2.1,3.7,4,5.7,5.8c0.2,0.2,0.2,0.5,0,0.7
		C34.2,166.8,34,166.9,34,166.9L34,166.9z M118.7,157.4c-0.3,0-0.5-0.2-0.5-0.5c0,0,0,0,0,0c0-2.7-0.3-5.4-0.7-8.1
		c0-0.3,0.1-0.5,0.4-0.6c0.3,0,0.5,0.1,0.6,0.4c0.5,2.7,0.7,5.5,0.8,8.3C119.2,157.2,119,157.4,118.7,157.4
		C118.7,157.4,118.7,157.4,118.7,157.4L118.7,157.4z M116,141.3c-0.2,0-0.4-0.2-0.5-0.4c-0.7-2.4-1.6-4.9-2.6-7.8
		c-0.1-0.3,0-0.6,0.3-0.7c0,0,0,0,0,0c0.3-0.1,0.6,0,0.7,0.3c1.1,2.9,1.9,5.4,2.6,7.8c0.1,0.3-0.1,0.6-0.3,0.6L116,141.3z
		 M110.3,125.8c-0.2,0-0.4-0.1-0.4-0.3c-0.9-2.2-2.1-4.7-3.3-7.3v-0.1c-0.1-0.3,0.1-0.6,0.3-0.6c0.2-0.1,0.5,0,0.6,0.2v0.1
		c1.3,2.7,2.4,5.2,3.3,7.3c0.1,0.3,0,0.6-0.3,0.7L110.3,125.8z M103.5,110.8c-0.2,0-0.4-0.1-0.5-0.3c-1.2-2.8-2.2-5.4-3-7.7
		c-0.1-0.3,0-0.6,0.3-0.7c0.3-0.1,0.6,0.1,0.7,0.3c0.8,2.3,1.7,4.8,3,7.6c0.1,0.3,0,0.6-0.3,0.7c0,0,0,0,0,0
		C103.7,110.9,103.6,110.9,103.5,110.8L103.5,110.8z M98.5,95.2c-0.3,0-0.5-0.2-0.5-0.4c-0.2-1.5-0.4-2.9-0.4-4.4
		c0-1.3,0.1-2.6,0.4-3.9c0.1-0.3,0.4-0.4,0.7-0.3c0.2,0.1,0.4,0.3,0.4,0.5c-0.2,1.2-0.3,2.5-0.3,3.7c0,1.4,0.1,2.9,0.3,4.3
		C99.1,94.9,98.9,95.2,98.5,95.2L98.5,95.2z M102.1,79.8c-0.1,0-0.2,0-0.3-0.1c-0.2-0.2-0.2-0.5,0-0.7c1.8-2.1,4.1-3.9,6.6-5.2
		c0.2-0.1,0.6,0,0.7,0.2c0.1,0.3,0,0.6-0.2,0.7c-2.4,1.2-4.5,2.9-6.2,4.9C102.4,79.7,102.3,79.8,102.1,79.8L102.1,79.8z M157,73.1
		h-0.1c-2.6-0.5-5.3-1-8.1-1.4c-0.3,0-0.5-0.3-0.4-0.6c0,0,0,0,0,0c0-0.3,0.3-0.5,0.6-0.4c0,0,0,0,0,0c2.7,0.4,5.4,0.8,8.2,1.4
		c0.3,0.1,0.5,0.3,0.4,0.6C157.5,72.9,157.3,73.1,157,73.1L157,73.1z M116.1,71.9c-0.3,0-0.5-0.2-0.6-0.4c0-0.3,0.2-0.5,0.4-0.6
		c2.7-0.6,5.4-1,8.2-1.2c0.3,0,0.5,0.2,0.5,0.5c0,0.3-0.2,0.5-0.5,0.5c0,0,0,0,0,0C121.6,70.9,118.9,71.3,116.1,71.9L116.1,71.9z
		 M140.7,71L140.7,71c-2.4-0.2-5.2-0.3-8.2-0.4c-0.3,0-0.5-0.2-0.5-0.5c0-0.3,0.2-0.5,0.5-0.5c0,0,0,0,0,0c3,0.1,5.9,0.2,8.2,0.4
		c0.3,0,0.5,0.3,0.5,0.5c0,0,0,0,0,0C141.2,70.8,141,71,140.7,71L140.7,71z"/>
	<path class="st6" d="M23.4,154.3c-0.2,0-0.4-0.1-0.4-0.3c-0.7-1.2-1.3-2.4-1.8-3.7c-0.1-0.3,0-0.6,0.3-0.7c0,0,0,0,0,0
		c0.3-0.1,0.6,0,0.7,0.3c0.5,1.2,1.1,2.4,1.8,3.6c0.2,0.2,0.1,0.5-0.1,0.7C23.6,154.3,23.5,154.3,23.4,154.3L23.4,154.3z"/>
</g>
<g id="freepik--Desk--inject-46">
	<rect x="137.1" y="262" class="st15" width="51.7" height="10.6"/>
	<rect x="137.1" y="262" class="st14" width="51.7" height="10.6"/>
	<rect x="137.1" y="262" class="st14" width="21.8" height="10.6"/>
	<polygon class="st14" points="137.1,263.5 183.1,263.5 137.1,264.8 	"/>
	<polygon class="st14" points="188.8,265.4 148.9,266.4 188.8,266.4 	"/>
	<polygon class="st14" points="139.2,268.3 158.9,267.5 187.8,268.3 158.9,268.8 	"/>
	<polygon class="st14" points="137.1,270.6 171.2,270.6 137.1,271.4 	"/>
	<polygon class="st14" points="188.7,271.4 166,271.8 188.8,271.8 	"/>
	<rect x="129.9" y="251.4" class="st15" width="51.7" height="10.6"/>
	<rect x="129.9" y="251.4" class="st14" width="51.7" height="10.6"/>
	<rect x="129.9" y="251.4" class="st14" width="21.8" height="10.6"/>
	<polygon class="st14" points="129.9,252.9 175.9,252.9 129.9,254.2 	"/>
	<polygon class="st14" points="181.6,254.8 141.7,255.8 181.6,255.8 	"/>
	<polygon class="st14" points="132,257.7 151.7,256.9 180.6,257.7 151.7,258.2 	"/>
	<polygon class="st14" points="129.9,260 164,260 129.9,260.8 	"/>
	<polygon class="st14" points="181.5,260.8 158.8,261.2 181.6,261.2 	"/>
	<rect x="135.8" y="240.8" class="st15" width="51.7" height="10.6"/>
	<rect x="135.8" y="240.8" class="st14" width="51.7" height="10.6"/>
	<rect x="135.8" y="240.8" class="st14" width="21.8" height="10.6"/>
	<polygon class="st14" points="135.8,242.3 181.8,242.3 135.8,243.6 	"/>
	<polygon class="st14" points="187.5,244.1 147.6,245.1 187.5,245.1 	"/>
	<polygon class="st14" points="137.9,247.1 157.6,246.3 186.5,247.1 157.6,247.6 	"/>
	<polygon class="st14" points="135.8,249.4 169.9,249.4 135.8,250.2 	"/>
	<polygon class="st14" points="187.5,250.2 164.7,250.6 187.5,250.6 	"/>
	<polygon class="st10" points="222,272.4 223.3,267.3 278.6,267.3 304,269.8 305,272.4 	"/>
	<polygon class="st17" points="278.6,267.3 278.6,272.4 222,272.4 223.3,267.3 	"/>
	<path class="st10" d="M267.5,243c0.3,2.4-1.4,4.5-3.8,4.8c-0.2,0-0.4,0-0.6,0h-84.6c-2.7-0.1-5-2.1-5.3-4.9l-5-54.2
		c-0.1-0.5,0-1.1,0.1-1.6c0.5-2,2.3-3.3,4.3-3.3h84.7c2.7,0.1,5,2.1,5.3,4.9L267.5,243z"/>
	<path class="st17" d="M262.8,247.8h-84.3c-2.7-0.1-5-2.1-5.3-4.9l-5-54.2c-0.1-0.5,0-1.1,0.1-1.6h84.3c2.7,0.1,5,2.1,5.3,4.9
		l5,54.2C262.9,246.8,262.9,247.3,262.8,247.8z"/>
	<polygon class="st10" points="204.6,214.6 222.1,214.6 217.5,264.7 245.2,268.9 245.2,272.4 186.9,272.4 186.9,268.9 198.8,264.7 	
		"/>
	<polygon class="st21" points="222.1,214.6 209.2,271.6 198.8,271.3 204.6,214.6 	"/>
	<polygon class="st10" points="222.1,490.9 213.7,490.9 198.7,282.1 209.8,282.1 	"/>
	<polygon class="st20" points="222.1,490.9 213.7,490.9 199.5,292.5 198.7,282.5 209.8,282.5 210.4,292.5 	"/>
	<polygon class="st7" points="210.4,292 199.5,292 198.7,282.5 209.8,282.5 	"/>
	<polygon class="st10" points="283.3,490.9 275,490.9 273.6,282.1 284.7,282.1 	"/>
	<polygon class="st8" points="284.7,282.5 284.5,316.2 283.3,490.9 275,490.9 273.8,316.2 273.6,282.5 	"/>
	<polygon class="st7" points="284.7,282.5 284.5,316.5 273.8,316.5 273.6,282.5 	"/>
	<polygon class="st10" points="371.9,490.9 363.6,490.9 348.6,282.1 359.6,282.1 	"/>
	<polygon class="st8" points="371.9,490.9 363.6,490.9 349.3,292.5 348.6,282.5 359.6,282.5 360.2,292.5 	"/>
	<polygon class="st7" points="360.2,292 349.3,292 348.6,282.5 359.6,282.5 	"/>
	<polygon class="st10" points="126.6,490.9 118.3,490.9 130.5,282.1 141.6,282.1 	"/>
	<polygon class="st8" points="141.6,282.5 140.9,292.5 126.6,490.9 118.3,490.9 129.9,292.5 130.5,282.5 	"/>
	<polygon class="st7" points="130.5,282.5 141.6,282.5 140.9,292 129.9,292 	"/>
	<path class="st6" d="M121.7,276.9h246.7l0,0v7.5c0,1.6-1.3,2.9-2.9,2.9l0,0H124.7c-1.6,0-2.9-1.3-2.9-2.9l0,0L121.7,276.9
		L121.7,276.9z"/>
	<path class="st12" d="M121.7,276.9h246.7l0,0v7.5c0,1.6-1.3,2.9-2.9,2.9l0,0H124.7c-1.6,0-2.9-1.3-2.9-2.9l0,0L121.7,276.9
		L121.7,276.9z"/>
	<rect x="121.7" y="276.9" class="st7" width="246.7" height="5.2"/>
	<path class="st6" d="M373.6,278.3h-257c-1.6,0-2.9-1.3-2.9-2.9l0,0l0,0c0-1.6,1.3-2.9,2.9-3h257c1.6,0,2.9,1.3,2.9,3l0,0
		C376.5,277,375.2,278.3,373.6,278.3L373.6,278.3z"/>
	<path class="st12" d="M373.6,278.3h-257c-1.6,0-2.9-1.3-2.9-2.9l0,0l0,0c0-1.6,1.3-2.9,2.9-3h257c1.6,0,2.9,1.3,2.9,3l0,0
		C376.5,277,375.2,278.3,373.6,278.3L373.6,278.3z"/>
	<path class="st6" d="M312.8,263.3l3.2-4.7c0.6-0.9,1.7-1.5,2.8-1.5h4c0.3,0,0.7,0.1,1,0.1l14.3,4.3c0.8,0.2,1.5,0.8,1.9,1.5
		l2.1,3.4L312.8,263.3z"/>
	<path class="st7" d="M342,266.5l-20.8-2.3l-8.5-0.9l3.2-4.7c0.6-0.9,1.7-1.5,2.8-1.5h4c0.3,0,0.7,0.1,1,0.1l0.3,0.1l14,4.2
		c0.8,0.2,1.5,0.8,1.9,1.5L342,266.5z"/>
	<path class="st7" d="M342,266.5l-20.8-2.3l2.8-6.9l14,4.2c0.8,0.2,1.5,0.8,1.9,1.5L342,266.5z"/>
	<path class="st6" d="M351.9,271.9v0.4h-44.2l1.6-6.4c0.6-2.4,2.8-4.1,5.3-4.1h19.6c0.7,0,1.3,0.1,1.9,0.3l2.5,0.9l9.7,3.6
		C350.5,267.6,351.9,269.6,351.9,271.9z"/>
	<path class="st7" d="M351.9,271.9v0.4h-18.1l1-6.9c0.2-1.6,1.7-2.7,3.3-2.5c0.2,0,0.4,0.1,0.6,0.2l9.7,3.6
		C350.5,267.6,351.9,269.6,351.9,271.9z"/>
	<path class="st10" d="M336.6,267.7l5.8-17.3c0.2-0.7,0.9-1,1.6-0.8c0.1,0,0.1,0.1,0.2,0.1l0,0c0.5,0.3,0.8,0.9,0.7,1.5l-4.9,18.5
		C340,269.6,336.7,270.9,336.6,267.7z"/>
	<polygon class="st7" points="312.8,270.9 310.2,270.9 310.7,268.4 313.3,268.4 	"/>
	<polygon class="st7" points="316.6,270.8 314,270.8 314.5,268.3 317.1,268.3 	"/>
</g>
</svg>
