<?xml version="1.0" encoding="utf-8"?>
<!-- Generator: Adobe Illustrator 23.0.0, SVG Export Plug-In . SVG Version: 6.00 Build 0)  -->
<svg version="1.1" id="Layer_1" xmlns="http://www.w3.org/2000/svg" xmlns:xlink="http://www.w3.org/1999/xlink" x="0px" y="0px"
	 width="329.1px" height="277.3px" viewBox="0 0 329.1 277.3" style="enable-background:new 0 0 329.1 277.3;" xml:space="preserve"
	>
<style type="text/css">
	.st0{fill:none;stroke:#263238;stroke-linecap:round;stroke-linejoin:round;stroke-dasharray:3,3;}
	.st1{fill:#1C2021;stroke:#1C2021;stroke-miterlimit:10;}
	.st2{fill:#FFFFFF;stroke:#1C2021;stroke-linecap:round;stroke-linejoin:round;}
	.st3{fill:none;stroke:#1C2021;stroke-linecap:round;stroke-linejoin:round;}
	.st4{fill:#263238;stroke:#1C2021;stroke-linecap:round;stroke-linejoin:round;}
	.st5{fill:none;stroke:#263238;stroke-linecap:round;stroke-linejoin:round;}
	.st6{fill:#A182F4;stroke:#1C2021;stroke-miterlimit:10;}
	.st7{fill:#1C2021;}
	.st8{fill:#263238;stroke:#FFFFFF;stroke-linecap:round;stroke-linejoin:round;}
	.st9{fill:none;stroke:#263238;stroke-miterlimit:10;}
	.st10{fill:#A182F4;stroke:#0D0E0F;stroke-linecap:round;stroke-linejoin:round;}
	.st11{fill:#92E3A9;stroke:#263238;stroke-linecap:round;stroke-linejoin:round;}
	.st12{fill:#808080;stroke:#263238;stroke-linecap:round;stroke-linejoin:round;}
	.st13{fill:#263238;stroke:#263238;stroke-linecap:round;stroke-linejoin:round;}
	.st14{fill:#1C2021;stroke:#1C2021;stroke-linecap:round;stroke-linejoin:round;}
	.st15{fill:#FFFFFF;stroke:#263238;stroke-linecap:round;stroke-linejoin:round;}
	.st16{fill:#263238;}
	.st17{fill:#808080;stroke:#1C2021;stroke-linecap:round;stroke-linejoin:round;}
</style>
<g id="freepik--Files--inject-60">
	<line class="st0" x1="66.2" y1="224.6" x2="66.2" y2="5.3"/>
	<polygon class="st1" points="70,6.4 66.2,-0.3 62.4,6.4 	"/>
	<polygon class="st2" points="80.9,188.1 52.3,188.1 52.3,148.3 72.6,148.3 80.9,156.6 	"/>
	<polygon class="st2" points="72.6,148.3 72.6,156.5 80.9,156.5 	"/>
	<line class="st3" x1="56.7" y1="161.7" x2="76.5" y2="161.7"/>
	<line class="st3" x1="56.7" y1="167.1" x2="76.5" y2="167.1"/>
	<line class="st3" x1="56.7" y1="172.5" x2="76.5" y2="172.5"/>
	<line class="st3" x1="56.7" y1="177.9" x2="76.5" y2="177.9"/>
	<polygon class="st2" points="80.9,82.6 52.3,82.6 52.3,42.9 72.6,42.9 80.9,51.1 	"/>
	<polygon class="st2" points="72.6,42.9 72.6,51 80.9,51 	"/>
	<line class="st3" x1="56.7" y1="56.2" x2="76.5" y2="56.2"/>
	<line class="st3" x1="56.7" y1="61.6" x2="76.5" y2="61.6"/>
	<line class="st3" x1="56.7" y1="67" x2="76.5" y2="67"/>
	<line class="st3" x1="56.7" y1="72.4" x2="76.5" y2="72.4"/>
</g>
<g id="freepik--Mug--inject-60">
	<path class="st4" d="M252.7,266.9c-1.9-0.1-3.8-0.5-5.6-1.3c-1-0.4-1.4-1.6-1-2.5c0.4-1,1.6-1.4,2.5-1c1.8,0.8,4.1,1.2,4.7,1
		c1.1-1.3,2.8-8.9,0.6-12.5c-0.2-0.5-0.7-0.9-1.3-1c-1.3-0.2-3.1,1.1-3.8,1.8c-0.8,0.7-2,0.7-2.7-0.1c-0.7-0.8-0.7-2,0.1-2.7
		c0.4-0.3,3.5-3.2,6.9-2.8c1.7,0.3,3.2,1.3,4,2.8c3.3,5.3,1,15.5-1.5,17.5C254.9,266.6,253.8,266.9,252.7,266.9z"/>
	<rect x="228" y="244" class="st4" width="21.3" height="28.2"/>
	<path class="st5" d="M230,242.5c0,0,0-2.3,4.3-4.7c4.3-2.3,6.7-5.9,4.3-12.5c-2.4-6.7-2-11.4,2.7-15.3"/>
	<path class="st3" d="M231,217.4c0.2-2.9,1.5-5.3,4.1-7.5"/>
	<path class="st3" d="M232.3,225.2c-0.4-1.2-0.8-2.4-1-3.6"/>
	<path class="st3" d="M247.5,227.5c-0.2-0.8-0.4-1.6-0.7-2.3c-0.1-0.4-0.2-0.7-0.4-1.1"/>
	<path class="st5" d="M238.2,242.5c0,0,0-2.3,4.3-4.7c2.8-1.5,4.8-3.6,5.2-6.7"/>
</g>
<g id="freepik--Plants--inject-60">
	<path class="st6" d="M285.7,238.5c0,0-2.4-3-5-4.3c-2.6-1.3-8-2.4-8-2.4s4.8-1.1,8.5-0.2s6.3,4.6,6.3,4.6s-1.1-1.5-2.6-6.1
		c-1.5-4.5-1.5-14.3-1.5-14.3c2.3,2.7,4.1,5.8,5.4,9.1c1,3,1.8,6.1,2.2,9.3c0,0-0.4-7.6,0.9-11.9c1.3-4.3,5-9.7,5-9.7
		s0.2,9.5-1.3,14.7s-2.2,7.6-2.2,7.6c0.9-2.7,2.5-5.1,4.6-7.1c3.2-3,11-5.6,11-5.6s-3.7,6.7-6.1,8.9c-2.4,2.2-4.8,4.5-4.8,4.5
		c2.1-1.4,4.6-2,7.1-1.9c4.6,0,10,3,10,3s-15.8-0.2-18.8,2.4L285.7,238.5z"/>
	<line class="st5" x1="288.6" y1="237.3" x2="286" y2="235.4"/>
	<line class="st5" x1="291.5" y1="238.7" x2="287.8" y2="228.9"/>
	<line class="st5" x1="291.1" y1="240" x2="293.6" y2="225.6"/>
	<line class="st5" x1="291.5" y1="238.7" x2="298.5" y2="230.1"/>
	<line class="st5" x1="290.1" y1="237.8" x2="300.3" y2="235.2"/>
	<path class="st7" d="M303.8,272.3h-21.6l-1-7.8c-0.7-5.7-0.7-11.5-0.1-17.3l1.1-9.6h21.6l1.1,9.4c0.7,5.7,0.6,11.5-0.1,17.2
		L303.8,272.3z"/>
	<polyline class="st8" points="305.3,257.5 302,237.8 297.7,271.8 290.1,237.8 285.6,272.2 282.2,237.6 	"/>
	<path class="st9" d="M303.8,272.3h-21.6l-1-7.8c-0.7-5.7-0.7-11.5-0.1-17.3l1.1-9.6h21.6l1.1,9.4c0.7,5.7,0.6,11.5-0.1,17.2
		L303.8,272.3z"/>
</g>
<g id="freepik--character-1--inject-60">
	<line class="st3" x1="339.2" y1="272.3" x2="12" y2="272.3"/>
	<path class="st10" d="M162.6,173c0,0-2.1,14.1,0,16.7c2.1,2.6,6.8,4.7,13.5,6.8c6.8,2.1,11.2-2.4,17.6,5c6.5,7.3,11.7,26.1,15.3,32
		s7.6,15,8.6,21.8c0.9,6.8-2.1,10.6-7.9,11.4c-5.9,0.9-16.2-13.5-17.3-15.6c-1.1-2.1-6.8-8.8-6.8-8.8s-3.2,23.8-3.2,25
		c0,1.2,0.3,5,0.3,5H98.1c0,0,6.5-35.2,8.2-47.6c1.8-12.3,0.9-20.5,7.9-25c7-4.4,13.5-3.2,18.2-4.7c4.7-1.5,7.6-2.6,7.9-5.3
		c0.3-2.6,0.3-15,0.3-15L162.6,173z"/>
	<polyline class="st11" points="101.1,258.4 62.4,268.6 65.5,272.3 109.6,272.3 	"/>
	<path class="st12" d="M57.5,264.7c-3.4-2.1-7.6-2.7-11.5-1.5c-6.3,1.8-9.4,7.3-9.4,9.1H63C62.3,269.1,60.3,266.3,57.5,264.7z"/>
	<path class="st2" d="M41.3,258.4c0,0-3.4,5-3.4,6.8s-1.8,3.6,0.8,4.4s4.2-8.3,4.2-9.4C42.9,259.2,41.3,258.4,41.3,258.4z"/>
	<path class="st2" d="M46,258.2c0,0-3.7-0.8-4.7,0.3c-1,1-2.9,10.2-2.6,11.2c0.3,1,2.9,1.3,3.6,0.3C43.2,268.8,46,258.2,46,258.2z"
		/>
	<path class="st2" d="M72.6,266l-6.2-0.7c-0.3-0.4-0.7-0.8-1.1-1.2c-1.2-0.7-2.4-1.3-3.7-1.8c0,0-11-3.9-13.3-5.5
		c-2.3-1.6-3.6,1.5-4.4,3.4c-0.8,1.9-2.6,8.3-2.6,10.2s2.9,2.6,3.4,0.5c0.5-2.1,4.7-8.9,4.7-8.9l5.5,2.1c0,0,0.5,0.8-1.8,2.3
		c-2.3,1.6-5.7,5-4.7,5.5s4.2,0.3,5.2-0.8c1-1,6.5-2.3,6.5-2.3s5,3.1,6,3.4c0.7,0.1,1.4,0.1,2,0.1h6.4
		C75.1,270.1,74.4,267.7,72.6,266z"/>
	<path class="st5" d="M53.7,266c0,0,2.3-2.6,4.2-2.9"/>
	<path class="st2" d="M205.3,244.7c2.8,0.9,5.5,2,8.2,3.2c3.8,1.8,5.2,6.2,4.6,11.6s-4.4,9.6-10,8c-5.6-1.6-8.6-6.2-8.8-9.8
		C199.1,254,197.4,245.9,205.3,244.7z"/>
	<path class="st2" d="M145.9,213.6c-13.2-0.5-21.8-8.6-26.9-16.1c5.2-1.7,9.8-1.3,13.4-2.4c4.7-1.5,7.6-2.6,7.9-5.3
		c0.3-2.6,0.3-15,0.3-15l22-1.8c0,0-2.1,14.1,0,16.7c2.1,2.6,6.8,4.7,13.5,6.8c3,0.9,5.5,0.6,7.9,0.5
		C180.1,201.4,166.5,214.3,145.9,213.6z"/>
	<path class="st13" d="M140.6,183.6c1.7,1.6,3.5,3,5.5,4.2c3.5,2,9.6,0.2,11.3-2c0.9-1.1,2.6-3.2,4.5-5.8c0.3-3.7,0.8-7,0.8-7
		l-22,1.8C140.7,174.8,140.6,179.4,140.6,183.6z"/>
	<path class="st2" d="M207.8,218.9c0,0-12,15.8-13.2,22.4c-1.2,6.6-5,22.6-5,22.6s-11.6,5-19,5.2c-7.4,0.2-20.2-1-20.2-1
		s8.2-21.1,11.4-31.8c3.2-10.6,4-16.6,4-16.6s18.2,2.4,28.6,0l15.6-3.6L207.8,218.9z"/>
	<path class="st2" d="M207.3,252c0,0-1.5-18.5-3.2-19.1c-1.8-0.6-12.3-2.1-15.3-1.5s-3.8,1.8-1.5,2.3s6.5,1.2,8.2,1.5
		c2,0.5,4,1.1,5.9,1.8c0,0-6.5,0.9-9.1,0.9s-8.8,2.6-9.1,3.8c-0.2,0.7-0.1,1.4,0.3,2.1c-0.2,0.6-0.1,1.2,0,1.8
		c0.3,1.2,7.3,0.6,9.1,0.9s5.3,1.1,5.3,1.1s-10.3-0.6-10.3,1.5s4.4,1.8,6.2,1.8c2.1,0.2,4.2,1,5.9,2.3c0.9,0.9,0.6,5.5,3.2,6.4
		c1.1,0.4,2.3,0.7,3.5,0.9"/>
	<path class="st5" d="M183.5,243.8c0,0,11.7-2.6,17.6,0.3"/>
	<path class="st5" d="M119.8,227.9c0,0-4.7,16.4-3.8,22.3c0.9,5.9,3.5,12.6,3.8,13.5c0.3,0.9-1,7.8-1,7.8"/>
	<path class="st14" d="M110.1,136.9c2.6-2.6,0-4.1,0.3-7c0.3-2.9,3.2-4.4,4.7-5c1.5-0.6,0.9-2.1,1.2-5.3s3.8-4.4,6.2-5.3
		c2.3-0.9,0.9-2.3,2.1-4.7s7.6-1.8,7.6-1.8s1.5-2.6,3.2-2.6c1.8,0,2.9,2.3,5.3,0.3c2.3-2.1,4.4-2.9,7.6-1.8c1,0.4,2.1,0.8,3.2,1
		c1.1-0.3,2.2-0.6,3.2-1c3.2-1.2,5.3-0.3,7.6,1.8c2.3,2.1,3.5-0.3,5.3-0.3c1.8,0,3.2,2.6,3.2,2.6s6.5-0.6,7.6,1.8s-0.3,3.8,2,4.7
		c2.3,0.9,5.9,2.1,6.2,5.3s-0.3,4.7,1.2,5.3c1.5,0.6,4.4,2,4.7,5c0.3,2.9-2.3,4.4,0.3,7s5.3,4.7,2.9,6.5s-4.7,2.3-4.4,5
		c0.3,2.6,3.2,5.9,0.9,7.3s-4.7,1.5-4.7,4.1c0,2.6,0.9,6.5-1.8,7c-2.6,0.6-6.5,0-6.5,1.8s-0.3,5-4.4,4.4s-5.6-1.8-6.5,0.6
		c-0.9,2.3-2.9,3.8-5.3,3.5s-5.6-0.6-7.6,1.2c-1,0.8-2.2,1.3-3.5,1.4v0.1c-0.2,0-0.4,0-0.6,0s-0.4,0-0.6,0v-0.1
		c-1.3-0.2-2.5-0.7-3.5-1.4c-2.1-1.8-5.3-1.5-7.6-1.2c-2.3,0.3-4.4-1.2-5.3-3.5c-0.9-2.3-2.3-1.2-6.5-0.6c-4.1,0.6-4.4-2.6-4.4-4.4
		s-3.8-1.2-6.5-1.8s-1.8-4.4-1.8-7c0-2.6-2.3-2.6-4.7-4.1c-2.4-1.5,0.6-4.7,0.9-7.3c0.3-2.6-2.1-3.2-4.4-5
		C104.8,141.6,107.5,139.6,110.1,136.9z"/>
	<path class="st15" d="M133.7,153.2c0,0-3.3-5-5.4-2.7c-2,2.3-1.3,8.4,1.3,11.4c2.7,3,5.7,2,5.7,2"/>
	<path class="st15" d="M169.4,152.9c0,0,3.9-4.6,5.6-2s0.3,8.5-2.7,11.1c-3,2.7-5.9,1.3-5.9,1.3"/>
	<path class="st15" d="M168,141c-1.2,1.1-2.8,1.6-4.4,1.3c-1.5-0.2-2.9-0.7-4.2-1.3c0,0-2.6,1.8-4.6,1.1c-2-0.7-4.2-1.3-4.2-1.3
		c-1.4,0.9-3.2,1.2-4.8,0.9c-3.1-0.4-4-1.1-4-1.1s-1.8,1.5-3.5,1.5c-1.1,0-2.2-0.1-3.3-0.2c-0.5,0.2-1,0.4-1.5,0.4h-1.5
		c0,0-0.7,13.2,1.5,22.7c2.2,9.5,10.8,16.5,14.3,18.5c3.5,2,9.6,0.2,11.3-2c1.8-2.2,7.4-8.8,10-14.5c2.6-5.7,3.5-22.5,3.5-23.6
		C172.6,142.3,169.1,143.7,168,141z"/>
	<path class="st5" d="M155.6,148.7c-0.6,0.3-1,0.9-1,1.5c0.1,2.5,0.4,8.4,2.2,9.5c2.2,1.3,12.5,2.3,15,0.7c1.3-0.9,4.2-8.6,3.1-10.8
		C173.7,147.4,164.4,145.1,155.6,148.7z"/>
	<path class="st5" d="M148.8,148.7c0.6,0.3,1,0.9,1,1.5c-0.1,2.5-0.4,8.4-2.2,9.5c-2.2,1.3-12.5,2.3-15,0.7
		c-1.3-0.9-4.2-8.6-3.1-10.8C130.6,147.4,140,145.1,148.8,148.7z"/>
	<path class="st5" d="M155.6,148.7c0,0-4.1-0.9-6.7,0.4"/>
	<line class="st5" x1="154.1" y1="151.4" x2="149.9" y2="151.4"/>
	<ellipse class="st16" cx="160.7" cy="154.7" rx="1.3" ry="2.4"/>
	<ellipse class="st16" cx="145.8" cy="154.7" rx="1.3" ry="2.4"/>
	<path class="st5" d="M153.7,156.2c0,0-0.2,3.1,0.9,4.2c1.1,1.1,2.4,2,0.9,3.1c-1.5,1.1-2.9,2-5.1,0"/>
	<path class="st5" d="M157.6,168.1c0,0-5.5,2.6-10.3-0.9"/>
	<path class="st5" d="M164.9,149.8c-1.8-1.3-4.1-1.7-6.2-0.9"/>
	<path class="st5" d="M146.9,149.6c0,0-5.1-2.6-7.9,1.5"/>
	<polyline class="st3" points="165.1,191.7 148,234 137.8,193.4 	"/>
	<path class="st4" d="M145.8,235.9c0,1.3,1.1,2.4,2.4,2.4c1.3,0,2.4-1.1,2.4-2.4c0-1.3-1.1-2.4-2.4-2.4l0,0
		C146.8,233.5,145.8,234.6,145.8,235.9z"/>
	<rect x="93.5" y="270.2" class="st12" width="66.4" height="2.1"/>
	<polygon class="st17" points="45,227.1 111.7,227.1 125.2,272.3 58.5,272.3 	"/>
</g>
</svg>
