<?xml version="1.0" encoding="utf-8"?>
<!-- Generator: Adobe Illustrator 23.0.0, SVG Export Plug-In . SVG Version: 6.00 Build 0)  -->
<svg version="1.1" xmlns="http://www.w3.org/2000/svg" xmlns:xlink="http://www.w3.org/1999/xlink" x="0px" y="0px" width="370.2px"
	 height="265.7px" viewBox="0 0 370.2 265.7" style="enable-background:new 0 0 370.2 265.7;" xml:space="preserve">
<style type="text/css">
	.st0{fill:#1C2021;stroke:#263238;stroke-linecap:round;stroke-linejoin:round;stroke-miterlimit:10;}
	.st1{fill:#1C2021;stroke:#1C2021;stroke-linecap:round;stroke-linejoin:round;stroke-miterlimit:10;}
	.st2{fill:#A6A6A6;stroke:#1C2021;stroke-linecap:round;stroke-linejoin:round;stroke-miterlimit:10;}
	.st3{fill:#A182F4;stroke:#1C2021;stroke-linecap:round;stroke-linejoin:round;stroke-miterlimit:10;}
	.st4{fill:none;stroke:#1C2021;stroke-linecap:round;stroke-linejoin:round;stroke-miterlimit:10;}
	.st5{fill:#FFFFFF;stroke:#1C2021;stroke-linecap:round;stroke-linejoin:round;stroke-miterlimit:10;}
	.st6{fill:#263238;stroke:#1C2021;stroke-linecap:round;stroke-linejoin:round;stroke-miterlimit:10;}
	.st7{fill:none;stroke:#1C2021;stroke-width:2;stroke-linecap:round;stroke-linejoin:round;stroke-miterlimit:10;}
	.st8{fill:#FFFFFF;stroke:#263238;stroke-linecap:round;stroke-linejoin:round;stroke-miterlimit:10;}
	.st9{fill:#263238;stroke:#FFFFFF;stroke-linecap:round;stroke-linejoin:round;stroke-miterlimit:10;}
	.st10{fill:#1C2021;stroke:#FFFFFF;stroke-linecap:round;stroke-linejoin:round;stroke-miterlimit:10;}
	.st11{fill:none;stroke:#263238;stroke-linecap:round;stroke-linejoin:round;stroke-miterlimit:10;}
</style>
<g id="Background_Simple">
</g>
<g id="Plant">
</g>
<g id="Window">
</g>
<g id="Clock">
</g>
<g id="Speech_Bubble">
</g>
<g id="Character">
	<path class="st0" d="M316.6,162.5h53.6c0,0-29,71.3-23.5,103.2h-54.3C292.4,265.7,302.5,184.2,316.6,162.5z"/>
	<g>
		<path class="st1" d="M270.3,60.1c0,0,0.5,9.7,18.5,15.3c18,5.6,36.2,0,46.4,8c10.2,8,9.9,20.4,6.4,26.5
			c-3.5,6.2-9.1,12.3,7.5,19.6c16.6,7.2,6.7,28.4-0.3,36.2c-7,7.8-19,11.5-32.4,8.8c-13.4-2.7-29.2-35.1-46.4-52.3
			c-17.2-17.2-19.3-48.8-8.3-57.9C272.6,55.3,270.3,60.1,270.3,60.1z"/>
		<path class="st2" d="M267.5,25.4c0,0,7.4-3.2,9.3,3s2.5,23.3,2.5,23.3l-4-0.9c0,0,0.9-19.4-3.4-22.4c-4.4-3-7.8,3.8-7.8,3.8
			L267.5,25.4z"/>
		<path class="st1" d="M184.4,233.7l25.3-13.5c0,0-1.8-26.5-1.5-27.5c0.3-1,6.6-52.9,6.6-52.9l-17.3,51.4L184.4,233.7z"/>
		<path class="st3" d="M296.2,113.1c0,0,25,13.6,28.4,15c3.4,1.4,1.4,18.7,1.4,30.1s-17,107.2-17,107.2H183c0,0,21.3-32.6,21.8-41.1
			c0.6-8.5-3.1-15.3-3.7-23.5c-0.6-8.2,11.6-58.4,13.6-61c2-2.6,10.5-9.1,10.5-9.1l30.1-26.4l13.9-3.1L296.2,113.1z"/>
		<g>
			<line class="st4" x1="212.8" y1="233.5" x2="208.6" y2="242.1"/>
			<path class="st4" d="M216.8,208.7c0,0-6.2,4.3-3.1,6.5c3.1,2.3,4.5,7.1,4.5,7.1l-4,7.8"/>
			<path class="st4" d="M246.2,229.3c1.7,0.1,3.5,0.2,5.3,0.3"/>
			<path class="st4" d="M219.3,222.3c0,0,6.8,4.5,21.6,6.5"/>
		</g>
		<path class="st2" d="M202.4,41c0,0-3.8,1.5-3.8,6.5s4,14.6,4,14.6l2.3-0.8c0,0-4.2-10.1-3.6-13.7c0.6-3.6,4-4.6,4-4.6l-0.8-2.5
			L202.4,41z"/>
		<path class="st5" d="M212.2,66.4c1,5-0.7,9.5-3.7,10.1c-3,0.6-6.3-3-7.2-8c-1-5,0.7-9.5,3.7-10.1C208,57.8,211.2,61.4,212.2,66.4z
			"/>
		<path class="st6" d="M221.4,64.8c1.9,6.4-0.3,12.7-4.9,14c-4.6,1.4-9.9-2.7-11.8-9.1c-1.9-6.4,0.3-12.7,4.9-14
			C214.2,54.4,219.5,58.4,221.4,64.8z"/>
		<path class="st5" d="M238.5,99.6l4.5,14.6l-14.8,18.6l-2.5,14.4c0,0-2.5,41-1.1,47.3c1.4,6.3,1.4,8.1,1.4,8.1s30.5-35.4,45.6-57.1
			c15.1-21.7,18.6-35,18.6-35l-14.7-8.1l-7-32.6L238.5,99.6z"/>
		<polygon class="st6" points="261.8,85.4 243,114.2 237.8,97.3 		"/>
		<path class="st5" d="M225.9,146.3l-0.1,0.8c0,0-2.5,41-1.1,47.3c1.4,6.3,1.4,8.1,1.4,8.1s30.5-35.4,45.6-57.1
			c1.2-1.7,2.3-3.4,3.3-4.9C256.2,146.9,236.9,147,225.9,146.3z"/>
		<g>
			<path class="st5" d="M218.5,10.1c0,0-14,8.5-15.6,21.4s3.8,26.8,5.9,32.3c2.1,5.5,9.3,26.9,13.1,31.1s16.1,10.4,18.2,11.6
				c2.1,1.1,5.9,0.8,9.1-1.5c3.2-2.3,16.5-18.4,18.6-22.2c2.1-3.8,2.5-12.1,2.5-12.1s-0.4-16.7-1.1-27.5
				c-0.8-10.8-0.2-21.3-9.1-30.4C251.2,3.6,227.3,3.4,218.5,10.1z"/>
			<path class="st1" d="M269.2,43.1c-0.8-10.8-0.2-21.3-9.1-30.4c-8.9-9.1-32.8-9.3-41.6-2.7c0,0-14,8.5-15.6,21.4
				c-0.9,7.5,0.5,15.3,2.3,21.6c3.2-2,14.1-8.7,26.4-17.3C246.2,25.6,251,9.7,251,9.7s1.7-0.9,1.3,1.1c-0.4,2.1-6.1,14.4-8.2,16.3
				c-2.1,1.9-2.1,1.9-2.1,1.9s1.7-0.4,9.5,8.9c7.8,9.3,12.1,13.1,14.4,14.2c0.7,0.4,2.1,0.6,3.8,0.7
				C269.6,49.5,269.4,46.1,269.2,43.1z"/>
			<path class="st6" d="M245.8,63.2c0.2,1.4-0.3,2.6-1.1,2.8c-0.9,0.2-1.8-0.9-2-2.2c-0.2-1.4,0.3-2.6,1.1-2.8
				C244.7,60.8,245.6,61.8,245.8,63.2z"/>
			<path class="st6" d="M224.6,66.2c0.2,1.4-0.3,2.6-1.1,2.8c-0.9,0.2-1.8-0.9-2-2.2c-0.2-1.4,0.3-2.6,1.1-2.8
				C223.4,63.8,224.3,64.8,224.6,66.2z"/>
			<path class="st4" d="M237.1,54.7c0,0,6.3-4.9,12-0.9"/>
			<path class="st4" d="M224.4,57.3c0,0-7.4-3.6-12.5,2.8"/>
			<path class="st4" d="M225.8,57.5c0,0,5.1,2.5,5.5,7.2"/>
			<path class="st4" d="M231.4,77.8c0,0,2.1,1.5,5.7,0.4"/>
			<path class="st4" d="M229.9,85.8c0,0,5.7,0,12.3-2.8c6.6-2.8,9.3-6.8,9.3-6.8"/>
			<path class="st4" d="M233.2,85.6c0,0,2.1,2.1,5.5,2.1c3.4,0,6.5-6.1,6.5-6.1S236.4,85.4,233.2,85.6z"/>
		</g>
		<ellipse class="st6" cx="272.6" cy="59.5" rx="8.7" ry="12.1"/>
		<ellipse class="st5" cx="276.3" cy="57.4" rx="5.6" ry="9.2"/>
		<path class="st7" d="M208.4,72.4c0,0,0.1,19.7,5.2,21.4c5.1,1.7,19.2-1.7,19.2-1.7"/>
		<path class="st6" d="M240,92c0,1.5-1.9,2.8-4.2,2.8s-4.2-1.2-4.2-2.8c0-1.5,1.9-2.8,4.2-2.8S240,90.5,240,92z"/>
		<path class="st3" d="M241.2,115.1c0,0-6,10.5-10.2,41.7c-4.3,31.2-1.4,37.4-1.4,37.4l-6,3.7c0,0-12.5-1.4-8.2-30.9
			c4.3-29.5,6.5-34.3,6.5-34.3L241.2,115.1z"/>
		<path class="st3" d="M279.2,104.3c0,0-13.6,32.3-27.8,52.5c-14.2,20.1-33.5,49.1-33.5,49.1s10.2-4.8,31.8-21
			c21.6-16.2,43.4-53.3,45.7-57c2.3-3.7,5.7-12.2,5.7-12.2L279.2,104.3z"/>
		<g>
			<path class="st5" d="M161.4,248c0,0-4.1,2.6-10.4,5.2c-6.4,2.6-7,2.1-4.9,4.4c2,2.2,12.8-1.7,15.7-2.9c2.9-1.2,8.4-2.9,8.4-2.9
				s6.7,3.8,10.7,4.9s9-0.6,9-0.6s0.3-4.6-3.2-7.3s-11-8.7-13.6-8.4C170.4,240.7,161.4,248,161.4,248z"/>
			<path class="st5" d="M159.6,241c0,0-3.5-0.9-5.8,0.9c-2.3,1.7-4.9,7.3-5.2,8.7c-0.3,1.5,0.3,2.3,2.6,0.3c2.3-2,6.4-4.9,6.4-4.9
				l3.5-1.2L159.6,241z"/>
			<path class="st5" d="M168.6,238.4c0,0-7-2.3-8.4-0.3c-1.5,2-6.4,13.6-4.9,14.5c1.5,0.9,3.5-0.9,6.1-4.6c2.6-3.8,4.1-5.8,4.1-5.8
				l3.5-0.6L168.6,238.4z"/>
			<path class="st5" d="M181,241c0,0-9.1-7.1-11.3-5.4c-2.3,1.7-9.6,12.8-10.5,15c-0.9,2.3,3.1,1.1,6.2-1.7c3.1-2.8,6.8-6,6.8-6
				l7.1,3.7L181,241z"/>
			<path class="st5" d="M213.7,246.4c0,0-11.9-0.6-16.7-2.3c-4.8-1.7-14.5-5.4-17.3-5.1c-2.8,0.3-13.6,10.8-15.9,13
				c-2.3,2.3-2,2.9,0.2,3.2c2.3,0.3,7.7-3.4,10.3-5.4c2.6-2,5.1-3.1,5.1-3.1s4,5.7,6.8,8.2c2.8,2.6,9.6,4.5,12.2,4.3
				c2.6-0.3,4.8-0.9,4.8-0.9l9.6-0.3L213.7,246.4z"/>
		</g>
		<path class="st3" d="M296.5,164.4c0,0-10.5,12.2-9.9,16.4c0.6,4.3,0.9,8.5,0.9,8.5l-7.7,46.2c0,0-6.5-3.1-6.5-0.6
			c0,2.6,0,2.6,0,2.6l-61.3,6.2l-0.6,21.6l97.6,0.3c0,0,4.8-5.4,5.4-7.4c0.6-2,11.3-36.3,14.2-72.3s1.4-52.2,0-55
			c-1.4-2.8-18.2-8.2-18.2-8.2"/>
		<path class="st5" d="M282,235.3c0,0,9.1,6,14.5,7.4"/>
		<g>
			<path class="st5" d="M196.9,177.8l7-22.4c0,0,4.4-4.2,7.4-9.3c3-5.1,3-14.6,2.5-16.3c-0.4-1.7,6.1-9.3,8-12
				c1.9-2.7,3-7.6,0.4-11.2c-2.5-3.6-3.8,2.3-5.5,5.1c-1.7,2.7-7.6,5.5-7.6,5.5l-6.3,5.1c0,0-10.3,9.1-11,10.3
				c-0.6,1.3-1.9,5.3-1.9,5.3l0.8,12.3l-5.5,21.3L196.9,177.8z"/>
			<path class="st4" d="M198.7,114.8c0,0,5.1-8,6.5-10.6c1.5-2.5,3.8-12.7,5.3-12c1.5,0.6,3,4,2.5,8.4c-0.4,4.4-5.7,14.6-5.7,14.6
				L198.7,114.8z"/>
			<path class="st5" d="M186.4,165.1l4.4-15L189,126l5.9-11.4l16.3-2.1c0,0,9.9,5.3,10.8,5.3c0.8,0,0,2.3-1.9,2.7
				c-1.9,0.4-5.5-0.6-5.5-0.6l6.1,4c0,0-0.4,1.9-1.9,2.3c-1.5,0.4-4.4,0.4-4.4,0.4s5.3,3.4,4,4c-1.3,0.6-2.7,0.8-4,0.8
				c-1.3,0-4,0-4,0l-3.2-0.4l-4.9,1.9c0,0,3.4,8.7,3.2,12.9c-0.2,4.2-5.5,7-5.5,7"/>
			<path class="st4" d="M214.5,119.9c0,0-3.4-2.7-5.3-2.7c-1.9,0-13.5,2.1-13.5,2.1"/>
			<path class="st4" d="M214.3,126.6c0,0-5.5-3-7.2-3c-1.7,0-15,3.4-15,3.4"/>
		</g>
		<path class="st3" d="M186.7,160.4l17.1,11.6c0,0-7.6,41-8.4,44.5c-0.8,3.5-6.3,12.8-9,15.5c-2.8,2.8-6,2.3-13.5,0.3
			c-7.5-2-14-8-13.8-15.8C159.4,208.7,186.7,160.4,186.7,160.4z"/>
	</g>
</g>
<g id="Device_1_">
	<g>
		<rect x="93.1" y="259.8" class="st8" width="5" height="1.5"/>
		<rect x="100" y="259.8" class="st8" width="5" height="1.5"/>
		<rect x="106.9" y="259.8" class="st8" width="5" height="1.5"/>
		<rect x="113.8" y="259.8" class="st8" width="5" height="1.5"/>
		<rect x="120.7" y="259.8" class="st8" width="5" height="1.5"/>
		<rect x="127.6" y="259.8" class="st8" width="5" height="1.5"/>
		<rect x="134.5" y="259.8" class="st8" width="5" height="1.5"/>
		<rect x="141.4" y="259.8" class="st8" width="5" height="1.5"/>
		<rect x="148.3" y="259.8" class="st8" width="5" height="1.5"/>
		<rect x="155.2" y="259.8" class="st8" width="5" height="1.5"/>
		<rect x="162.1" y="259.8" class="st8" width="5" height="1.5"/>
		<rect x="169" y="259.8" class="st8" width="5" height="1.5"/>
		<rect x="175.9" y="259.8" class="st8" width="5" height="1.5"/>
		<rect x="182.8" y="259.8" class="st8" width="5" height="1.5"/>
		<rect x="189.7" y="259.8" class="st8" width="5" height="1.5"/>
		<rect x="196.6" y="259.8" class="st8" width="5" height="1.5"/>
		<rect x="90.2" y="261" class="st8" width="123.4" height="4.3"/>
		<rect x="166.3" y="261" class="st8" width="47.3" height="4.3"/>
	</g>
	<g>
		<g>
			<polygon class="st9" points="128.7,223 31.7,223 12.2,119.8 109.2,119.8 			"/>
			<polygon class="st10" points="125.8,220.3 31.6,220.3 13.2,122.4 107.3,122.4 			"/>
			<polygon class="st10" points="107.6,212.5 37.7,212.5 23.9,139.7 93.9,139.7 			"/>
			<line class="st11" x1="23.9" y1="139.7" x2="13.2" y2="122.4"/>
			<line class="st9" x1="93.9" y1="139.7" x2="107.3" y2="122.4"/>
			<line class="st9" x1="107.6" y1="212.5" x2="125.8" y2="220.3"/>
			<line class="st8" x1="37.7" y1="212.5" x2="31.6" y2="220.3"/>
		</g>
		<polygon class="st10" points="66.1,190.7 50.2,190.7 60.3,181.7 76.3,181.7 		"/>
		<rect x="60.7" y="259.9" class="st10" width="58.3" height="5.8"/>
		<polygon class="st10" points="85.7,265.7 69.7,265.7 50.2,243.5 66.1,243.5 		"/>
		<rect x="50.2" y="191.1" class="st10" width="15.9" height="52.1"/>
	</g>
</g>
<g id="Table">
	<path class="st8" d="M299.3,255.8c0,0,2.8,6,9.9,9.6"/>
	<line class="st11" x1="0" y1="265.7" x2="456.2" y2="265.7"/>
</g>
</svg>
