<svg width="1474" height="1298" viewBox="0 0 1474 1298" fill="none" xmlns="http://www.w3.org/2000/svg">
<path d="M1431.01 932.997C1406.91 878.176 1360.62 832.43 1305.02 809.914C1247.11 786.461 1180.61 794.999 1119.61 787.143C1066.63 780.32 1028.4 756.669 996.77 714.619C966.46 674.328 939.283 629.707 889.725 611.07C850.566 596.344 806.046 600.425 767.127 615.771C695.412 644.047 641.246 704.171 595.628 764.067C553.978 818.754 520.006 878.636 442.967 880.589C365.879 882.544 292.49 838.571 214.872 850.222C112.288 865.622 26.8575 951.02 8.95445 1052.69C-7.82355 1147.97 34.2784 1240.38 106.607 1294.68H1349.83C1440.97 1198 1488.79 1064.43 1431.01 932.997Z" fill="#F7F0E3" fill-opacity="0.03"/>
<path d="M307.157 1294.68H310.577C334.328 1268.58 352.933 1236.9 364.76 1201.74C383.903 1144.83 383.096 1085.1 362.488 1033.56C352.073 1007.51 337.034 983.236 322.49 959.759C307.739 935.95 292.488 911.331 282.136 884.949C277.856 874.04 274.694 862.327 272.792 850.378C271.935 850.266 271.077 850.174 270.219 850.07C272.13 862.446 275.381 874.578 279.809 885.862C290.242 912.456 305.555 937.173 320.364 961.077C334.851 984.461 349.832 1008.64 360.165 1034.49C380.553 1085.48 381.343 1144.59 362.389 1200.94C350.417 1236.54 331.422 1268.51 307.157 1294.68Z" fill="white" fill-opacity="0.05"/>
<path d="M1343.82 1186.26C1369.44 1191.72 1394.12 1196.61 1418 1199.69C1418.41 1198.9 1418.8 1198.11 1419.21 1197.32C1395.14 1194.26 1370.22 1189.32 1344.35 1183.81C1304.95 1175.42 1262.3 1166.33 1220.01 1166.33C1193.82 1166.33 1167.77 1169.82 1142.71 1179.1C1133.21 1182.62 1124.06 1187.08 1115.35 1192.4C1092.72 1182.76 1069.97 1172.23 1047.44 1160.67C1063.79 1148.35 1080.31 1136.29 1097.02 1124.62C1220.99 1038.05 1335.41 988.974 1445.95 975.044C1445.73 974.234 1445.5 973.425 1445.27 972.615C1334.43 986.659 1219.77 1035.86 1095.59 1122.57C1078.53 1134.49 1061.66 1146.81 1044.97 1159.4C1019.63 1146.3 994.588 1131.91 970.352 1116.04C926.397 1087.23 874.112 1046.12 828.45 991.5C1005.4 971.649 1185.55 946.637 1332.67 848.312C1338.26 844.578 1344.44 840.175 1350.86 835.181C1350.15 834.677 1349.43 834.181 1348.71 833.685C1342.57 838.444 1336.64 842.647 1331.28 846.232C1184.2 944.533 1003.71 969.352 826.536 989.201C794.27 950.173 765.44 904.33 745.406 851.259C714.198 768.591 715.845 687.465 749.927 628.683C751.407 626.13 752.97 623.617 754.581 621.129C753.157 621.782 751.747 622.46 750.337 623.138C749.46 624.559 748.599 625.987 747.763 627.428C713.304 686.864 711.591 768.768 743.066 852.142C762.993 904.925 791.565 950.587 823.569 989.53C813.313 990.677 803.054 991.81 792.827 992.938C755.932 997.01 717.779 1001.22 680.733 1005.99C667.21 1007.73 653.459 1009.76 639.776 1012.31C610.443 950.399 578.223 890.003 536.572 838.209C535.977 838.803 535.37 839.379 534.769 839.964C576.063 891.366 608.083 951.31 637.236 1012.78C577.556 1024.17 519.604 1045.56 488.662 1095.36C459.764 1141.87 459.79 1206.16 488.74 1286.45C489.741 1289.22 490.772 1291.96 491.818 1294.68H494.496C493.35 1291.71 492.21 1288.7 491.092 1285.6C462.415 1206.07 462.313 1142.51 490.787 1096.68C521.362 1047.47 578.995 1026.36 638.343 1015.12C648.698 1037.02 658.701 1059.11 668.643 1081.06L669.725 1083.44C704.251 1159.66 739.961 1233.22 786.719 1294.68H789.839C742.657 1233.1 706.745 1159.11 672.003 1082.41L670.922 1080.03C661.065 1058.26 651.145 1036.37 640.884 1014.64C654.303 1012.16 667.789 1010.18 681.055 1008.47C718.078 1003.7 756.217 999.494 793.102 995.424C803.873 994.235 814.669 993.044 825.475 991.835C871.571 1047.31 924.523 1089 968.981 1118.13C992.953 1133.83 1017.71 1148.09 1042.76 1161.07C1000.23 1193.24 958.866 1227.08 918.478 1260.12C904.492 1271.57 890.346 1283.13 876.088 1294.68H880.052C893.501 1283.77 906.856 1272.86 920.06 1262.06C960.734 1228.78 1002.39 1194.7 1045.22 1162.34C1067.63 1173.87 1090.26 1184.38 1112.76 1194.01C1081.97 1213.6 1056.88 1243.92 1041.7 1280.74C1039.8 1285.35 1038.14 1290.01 1036.61 1294.68H1039.24C1040.69 1290.33 1042.24 1285.99 1044.01 1281.7C1059.23 1244.77 1084.53 1214.48 1115.56 1195.21C1178.48 1221.94 1240.32 1241.78 1293.45 1257.5L1295.45 1258.09C1317.84 1264.71 1340.74 1271.5 1361 1282.39C1361.56 1281.75 1362.13 1281.1 1362.7 1280.46C1342.11 1269.29 1318.87 1262.41 1296.16 1255.69L1294.16 1255.1C1241.56 1239.54 1180.44 1219.94 1118.2 1193.61C1126.31 1188.78 1134.79 1184.7 1143.58 1181.45C1208.44 1157.41 1280.37 1172.74 1343.82 1186.26Z" fill="white" fill-opacity="0.05"/>
<path d="M112.874 1024.32C123.916 1069.52 118.99 1118.33 99.3567 1158.24C86.4977 1184.38 67.9277 1208.05 45.0547 1228.37C45.5097 1229.08 45.9747 1229.78 46.4367 1230.49C69.6807 1209.89 88.5467 1185.88 101.601 1159.34C121.489 1118.91 126.483 1069.48 115.302 1023.73C106.567 987.973 89.0067 957.691 64.7457 935.781C64.2047 936.417 63.6677 937.056 63.1337 937.698C86.9907 959.269 104.268 989.094 112.874 1024.32Z" fill="white" fill-opacity="0.05"/>
<path d="M678.695 451.761C700.474 474.016 710.235 511.509 698.227 546.076C686.6 579.546 661.111 607.269 630.488 625.092C605.849 639.432 573.709 647.343 549.477 632.326C531.369 621.104 521.979 599.088 521.457 577.791C520.935 556.494 528.097 535.74 536.949 516.363C549.427 489.049 566.22 462.562 591.237 445.951C625.721 423.056 657.761 430.369 678.695 451.761Z" fill="#F7F0E3" fill-opacity="0.03"/>
<path d="M390.004 161.564H209.664V81H390.004V161.564ZM213.414 157.814H386.254V84.75H213.414V157.814Z" fill="url(#paint0_linear_2710_633)"/>
<path d="M272.684 238.607H92.3438V158.043H272.684V238.607ZM96.0938 234.857H268.934V161.793H96.0938V234.857Z" fill="url(#paint1_linear_2710_633)"/>
<path d="M1416.1 224.453C1404.42 185.624 1383.89 149.975 1354.48 117.383C1325.02 84.7905 1284.84 57.8855 1233.94 36.6065C1183.05 15.3265 1118.37 4.6875 1039.93 4.6875C977.355 4.6875 913.582 13.1255 848.611 30.0025C783.58 46.9405 727.173 71.0325 679.328 102.34L741.604 273.32L708.227 300.359L756.634 314.584C804.419 289.574 847.952 271.415 887.234 260.102C926.456 248.851 968.133 243.224 1012.33 243.224C1056.46 243.224 1089.87 253.864 1112.57 275.143C1135.26 296.484 1146.58 322.105 1146.58 352.19C1146.58 388.512 1134.9 420.736 1111.67 448.925C1088.31 477.114 1062.56 505.61 1034.36 534.411C1014.78 554.406 995.737 575.074 977.354 596.354C958.971 617.694 942.683 640.502 928.611 664.961C914.479 689.359 903.162 715.653 894.599 743.842C885.976 772.031 881.725 803.644 881.725 838.682C881.725 849.994 881.964 863.448 882.623 879.102C882.733 881.99 882.885 884.804 883.057 887.583H837.294L887.234 921.355H1130.05C1128.79 913.834 1128.2 905.089 1128.2 895.06C1128.2 885.032 1128.2 877.511 1128.2 872.497C1128.2 851.217 1132.51 830.244 1141.07 809.576C1149.63 788.908 1160.41 769.219 1173.29 750.385C1186.16 731.613 1200.53 713.758 1216.52 696.882C1232.45 679.944 1247.78 663.983 1262.51 648.941C1282.09 628.946 1302.33 607.667 1323.17 585.104C1344.01 562.541 1362.45 538.815 1378.38 513.745C1394.31 488.675 1407.48 461.464 1417.9 431.99C1428.32 402.578 1433.59 370.352 1433.59 335.253C1433.59 300.214 1427.72 263.282 1416.1 224.453Z" fill="#E49B31"/>
<path d="M960.918 231.299C917.245 231.299 876.057 236.743 837.295 247.632C798.474 258.58 755.452 276.156 708.227 300.36L631.828 94.9533C679.111 64.6543 734.857 41.3383 799.125 24.9453C863.333 8.61231 926.358 0.445312 988.199 0.445312C1065.72 0.445312 1129.64 10.7423 1179.94 31.3363C1230.24 51.9303 1269.95 77.9683 1299.06 109.51C1328.12 141.052 1348.42 175.553 1359.96 213.131C1371.44 250.709 1377.24 286.453 1377.24 320.362C1377.24 354.33 1372.03 385.517 1361.73 413.982C1351.43 442.506 1338.42 468.84 1322.67 493.103C1306.93 517.366 1288.71 540.327 1268.11 562.164C1247.52 584.001 1227.52 604.595 1208.16 623.946C1193.61 638.504 1178.46 653.949 1162.72 670.342C1146.91 686.675 1132.71 703.955 1119.99 722.123C1107.27 740.35 1096.61 759.405 1088.15 779.407C1079.69 799.409 1075.43 819.707 1075.43 840.301C1075.43 845.154 1075.43 852.433 1075.43 862.138C1075.43 871.843 1076.02 880.306 1077.26 887.585H837.295C834.81 875.453 833.33 861.842 832.738 846.693C832.087 831.543 831.85 818.524 831.85 807.576C831.85 773.667 836.052 743.072 844.573 715.791C853.035 688.51 864.22 663.063 878.186 639.451C892.093 615.78 908.189 593.706 926.357 573.053C944.525 552.459 963.343 532.457 982.695 513.106C1010.57 485.233 1036.02 457.656 1059.09 430.375C1082.06 403.094 1093.6 371.907 1093.6 336.755C1093.6 307.639 1082.41 282.844 1059.98 262.191C1037.55 241.596 1004.53 231.299 960.918 231.299Z" fill="#FBC343"/>
<path d="M1146.67 1157.05C1146.67 1200.83 1132.5 1234.61 1104.15 1258.44C1075.81 1282.32 1043.78 1294.21 1008.01 1294.21C972.188 1294.21 940.155 1282.32 911.811 1258.44C883.516 1234.61 869.344 1200.83 869.344 1157.05C869.344 1113.32 883.516 1079.54 911.812 1055.66C955.442 1018.85 1019.99 1010.64 1071.07 1036.48C1116.4 1059.41 1146.67 1105.98 1146.67 1157.05Z" fill="#E49B31"/>
<path d="M1099.17 1157.05C1099.17 1200.83 1085 1234.61 1056.65 1258.44C1028.31 1282.32 996.276 1294.21 960.506 1294.21C924.688 1294.21 892.655 1282.32 864.311 1258.44C836.016 1234.61 821.844 1200.83 821.844 1157.05C821.844 1113.32 836.016 1079.54 864.311 1055.66C892.655 1031.83 924.687 1019.89 960.506 1019.89C996.276 1019.89 1028.31 1031.83 1056.65 1055.66C1085 1079.54 1099.17 1113.32 1099.17 1157.05Z" fill="#FBC343"/>
<path d="M380.324 536.392C382.984 522.196 373.633 508.532 359.438 505.872C345.243 503.212 331.579 512.563 328.918 526.758C326.258 540.953 335.609 554.618 349.804 557.278C364 559.938 377.664 550.587 380.324 536.392Z" fill="#D3DFFF"/>
<path d="M392.834 585.551C394.331 577.567 389.026 569.873 380.985 568.366C372.944 566.859 365.213 572.11 363.717 580.094C362.221 588.078 367.526 595.772 375.567 597.279C383.607 598.786 391.338 593.535 392.834 585.551Z" fill="#D3DFFF"/>
<path d="M362.888 472.749C403.096 432.541 403.096 367.35 362.888 327.142C322.679 286.933 257.489 286.933 217.28 327.142C177.072 367.35 177.072 432.541 217.28 472.749C257.489 512.957 322.679 512.957 362.888 472.749Z" fill="#D3DFFF"/>
<path d="M250.558 412.917C257.722 412.917 263.53 407.109 263.53 399.945C263.53 392.78 257.722 386.973 250.558 386.973C243.394 386.973 237.586 392.78 237.586 399.945C237.586 407.109 243.394 412.917 250.558 412.917Z" fill="white"/>
<path d="M290.089 412.917C297.253 412.917 303.061 407.109 303.061 399.945C303.061 392.78 297.253 386.973 290.089 386.973C282.925 386.973 277.117 392.78 277.117 399.945C277.117 407.109 282.925 412.917 290.089 412.917Z" fill="white"/>
<path d="M329.628 412.917C336.792 412.917 342.6 407.109 342.6 399.945C342.6 392.78 336.792 386.973 329.628 386.973C322.464 386.973 316.656 392.78 316.656 399.945C316.656 407.109 322.464 412.917 329.628 412.917Z" fill="white"/>
<path d="M216.338 1242.66L225.958 1279.75C228.467 1289.42 237.818 1295.96 248.164 1295.26C279.707 1293.11 345.245 1285.38 382.86 1257.66L372.167 1204.21C320.449 1201.29 272.082 1204.16 230.202 1218.26C219.716 1221.79 213.651 1232.3 216.338 1242.66Z" fill="#102048"/>
<path d="M276.621 1272.19C276.074 1272.19 275.572 1271.83 275.417 1271.27L262.5 1225.02C262.314 1224.36 262.703 1223.67 263.368 1223.48C264.037 1223.3 264.723 1223.69 264.909 1224.35L277.826 1270.6C278.011 1271.27 277.623 1271.96 276.958 1272.14C276.845 1272.17 276.731 1272.19 276.621 1272.19Z" fill="white"/>
<path d="M304.534 1265.94C303.987 1265.94 303.485 1265.58 303.33 1265.02L290.413 1218.77C290.228 1218.11 290.616 1217.42 291.281 1217.23C291.951 1217.05 292.636 1217.44 292.822 1218.1L305.739 1264.35C305.925 1265.02 305.536 1265.71 304.871 1265.89C304.758 1265.92 304.645 1265.94 304.534 1265.94Z" fill="white"/>
<path d="M336.954 1042.19L216.75 1077.86L306.019 1200.18L434.177 1210.37L610.946 1135.62L543.774 1034.54L336.954 1042.19Z" fill="url(#paint2_linear_2710_633)"/>
<path d="M485.147 1059.18C749.123 981.032 791.547 1214.33 379.675 1256.8C365.127 1240.43 348.126 1212.03 341.375 1188.29L558.879 1087.77L485.147 1059.18Z" fill="url(#paint3_linear_2710_633)"/>
<path d="M496.359 1226.38C484.014 1222.43 472.183 1214.62 472.183 1214.62L429.758 1227.92L439.48 1274.08L483.552 1283.03C496.978 1258.47 497.762 1238.31 496.359 1226.38Z" fill="#F9B384"/>
<path d="M342.314 1189.9L340.43 1186.66C385.805 1160.29 502.033 1096.94 601.058 1078.25L601.753 1081.94C503.299 1100.52 387.522 1163.63 342.314 1189.9Z" fill="#9F9F9F"/>
<path d="M336.953 1042.19C91.2434 995.473 27.6064 1231.61 439.479 1274.08C454.027 1257.71 465.43 1238.36 472.181 1214.62C408.914 1172.28 338.175 1132.05 260.647 1093.72L336.953 1042.19Z" fill="url(#paint4_linear_2710_633)"/>
<path d="M471.173 1216.2C459.485 1208.76 447.306 1200.89 434.412 1192.57C369.685 1150.78 296.322 1103.41 233.992 1076.4L235.483 1072.96C298.097 1100.09 371.597 1147.55 436.445 1189.42C449.334 1197.74 461.508 1205.6 473.186 1213.03L471.173 1216.2Z" fill="#9F9F9F"/>
<path d="M156.68 1159.27L153.398 1157.45C162.621 1140.76 177.394 1129.49 197.306 1123.98L198.307 1127.59C179.136 1132.9 165.52 1143.26 156.68 1159.27Z" fill="#9F9F9F"/>
<path d="M669.51 1145.05C660.67 1129.05 647.054 1118.69 627.883 1113.38L628.884 1109.77C648.797 1115.28 663.569 1126.54 672.792 1143.24L669.51 1145.05Z" fill="#9F9F9F"/>
<path d="M416.468 1272L413.727 1269.44C433.382 1248.39 445.454 1226.17 450.632 1201.5L454.302 1202.27C448.98 1227.63 436.604 1250.44 416.468 1272Z" fill="#9F9F9F"/>
<path d="M618.904 1212.63C587.424 1193.18 526.395 1226.79 511.075 1228.49C506.609 1228.98 501.442 1228.01 496.361 1226.38C497.764 1238.31 496.98 1258.47 483.555 1283.03L491.041 1284.55C491.041 1284.55 542.793 1303.52 597.692 1292.48C648.365 1282.28 643.652 1227.92 618.904 1212.63Z" fill="#102048"/>
<path d="M575.992 1276.25C575.867 1276.25 575.741 1276.23 575.615 1276.19C574.957 1275.98 574.592 1275.28 574.8 1274.62C578.54 1262.78 580.172 1239.48 569.339 1223.83C568.946 1223.27 569.089 1222.49 569.656 1222.09C570.222 1221.7 571.001 1221.84 571.394 1222.41C582.738 1238.8 581.071 1263.06 577.183 1275.37C577.015 1275.91 576.523 1276.25 575.992 1276.25Z" fill="white"/>
<path d="M551.305 1280.94C551.18 1280.94 551.054 1280.92 550.928 1280.88C550.27 1280.67 549.905 1279.97 550.113 1279.31C553.853 1267.47 555.485 1244.17 544.652 1228.52C544.259 1227.96 544.401 1227.18 544.968 1226.79C545.534 1226.39 546.313 1226.53 546.707 1227.1C558.051 1243.49 556.384 1267.75 552.496 1280.06C552.328 1280.6 551.836 1280.94 551.305 1280.94Z" fill="white"/>
<path d="M293.478 737.727C293.478 737.727 355.359 685.107 353.068 675.107C351.43 667.961 333.901 678.44 333.901 678.44C333.901 678.44 358.484 649.273 357.234 645.732C355 639.403 337.998 651.2 337.998 651.2C337.998 651.2 349.49 634.659 343.996 631.964C338.502 629.269 326.524 639.462 326.524 639.462C326.524 639.462 333.522 630.278 330.234 627.869C326.946 625.459 312.762 635.367 312.762 635.367C312.762 635.367 317.852 623.787 307.039 628.177C296.226 632.567 220.406 702.147 220.406 702.147L293.478 737.727Z" fill="#F9B384"/>
<path d="M318.797 675.317C318.496 675.317 318.194 675.209 317.954 674.99C307.332 665.285 302.649 662.929 290.93 659.324C290.27 659.122 289.899 658.422 290.102 657.762C290.305 657.102 291.005 656.73 291.666 656.935C303.808 660.669 308.656 663.108 319.641 673.144C320.151 673.61 320.187 674.401 319.722 674.91C319.474 675.18 319.136 675.317 318.797 675.317Z" fill="#E28B6D"/>
<path d="M300.15 703.859C300.092 703.859 300.034 703.855 299.976 703.847C299.292 703.751 298.815 703.119 298.911 702.436C300.127 693.735 302.866 688.297 307.285 685.813C311.062 683.688 315.977 683.907 321.894 686.461C322.528 686.734 322.82 687.47 322.546 688.104C322.273 688.738 321.537 689.032 320.903 688.756C315.742 686.527 311.573 686.27 308.51 687.992C304.869 690.039 302.472 695.015 301.387 702.781C301.299 703.406 300.764 703.859 300.15 703.859Z" fill="#E28B6D"/>
<path d="M297.235 651.253C296.903 651.253 296.571 651.121 296.325 650.86C295.851 650.357 295.875 649.567 296.377 649.094L311.905 634.459C312.407 633.983 313.198 634.009 313.672 634.511C314.146 635.014 314.122 635.804 313.62 636.277L298.092 650.912C297.851 651.141 297.543 651.253 297.235 651.253Z" fill="#E28B6D"/>
<path d="M311.61 656.253C311.298 656.253 310.987 656.138 310.744 655.904C310.246 655.426 310.23 654.635 310.708 654.137L325.623 638.597C326.101 638.097 326.892 638.081 327.391 638.561C327.889 639.039 327.905 639.83 327.427 640.328L312.512 655.868C312.266 656.124 311.938 656.253 311.61 656.253Z" fill="#E28B6D"/>
<path d="M326.297 665.002C325.992 665.002 325.686 664.891 325.445 664.666C324.94 664.195 324.912 663.404 325.383 662.899L337.085 650.346C337.557 649.843 338.346 649.814 338.852 650.284C339.357 650.755 339.385 651.546 338.914 652.051L327.212 664.604C326.965 664.868 326.632 665.002 326.297 665.002Z" fill="#E28B6D"/>
<path d="M527.234 1089.68L300.984 1098.43L275.984 892.184C275.984 892.184 351.727 820.342 380.868 793.886L430.063 791.363C582.694 860.741 557.701 947.391 527.234 1089.68Z" fill="#3A6BEA"/>
<path d="M430.07 791.363C430.07 791.363 604.691 806.296 659.741 925.934C713.608 1043 492.241 1084.68 492.241 1084.68L430.07 791.363Z" fill="#3A6BEA"/>
<path d="M230.464 816.999L302.623 729.187L235.145 688.293C206.997 707.865 152.565 752.195 106.436 802.395C96.254 813.476 88.301 826.418 84.295 840.669C80.877 852.83 80.256 864.841 82.177 876.603C87.184 907.258 111.298 930.915 143.487 934.684C170.978 937.903 275.987 929.684 360.987 904.684L385.987 808.194C373.141 800.904 277.664 799.638 230.464 816.999Z" fill="#3A6BEA"/>
<g opacity="0.8">
<path d="M575.8 838.842C576.176 838.756 576.553 838.67 576.929 838.583C576.14 838.116 575.348 837.662 574.557 837.203C561.76 840.149 548.556 843.16 535.541 844.73C527.719 845.672 501.585 847.398 493.947 829.986C490.147 821.323 493.023 811.689 497.321 804.927C496.693 804.745 496.072 804.569 495.448 804.391C491.047 811.554 488.222 821.604 492.231 830.738C500.385 849.337 527.618 847.574 535.766 846.59C549.157 844.977 562.701 841.86 575.8 838.842Z" fill="white"/>
<path d="M657.289 973.77C648.947 970.547 640.329 967.215 631.268 968.069C615.376 969.571 601.776 985.286 600.952 1003.1C600.389 1015.25 605.029 1027.98 613.876 1039.18C614.409 1038.84 614.94 1038.51 615.469 1038.17C606.82 1027.29 602.281 1014.94 602.825 1003.19C603.609 986.27 616.447 971.353 631.444 969.935C640.059 969.137 648.099 972.23 656.612 975.518C659.651 976.692 662.74 977.875 665.879 978.881C666.041 978.277 666.198 977.671 666.344 977.06C663.285 976.076 660.263 974.919 657.289 973.77Z" fill="white"/>
<path d="M216.537 914.143C205.635 905.127 188.695 902.717 170.07 907.532C153.471 911.826 139.229 920.33 129.445 931.585C130.088 931.792 130.716 932.027 131.368 932.217C140.887 921.54 154.598 913.47 170.538 909.348C188.573 904.68 204.907 906.96 215.343 915.588C220.303 919.689 223.81 925.014 226.359 930.761C227.003 930.688 227.649 930.613 228.297 930.538C225.629 924.356 221.91 918.585 216.537 914.143Z" fill="white"/>
<path d="M117.984 790.132C138.412 785.056 158.346 777.927 176.732 767.336C183.679 763.335 191.524 758.232 197.041 750.742C202.91 742.771 204.86 733.281 202.258 725.359C201.237 722.252 199.43 719.523 197.171 717.336C196.693 717.727 196.21 718.123 195.729 718.519C197.838 720.526 199.528 723.056 200.476 725.945C202.889 733.291 201.041 742.146 195.532 749.629C190.221 756.841 182.576 761.807 175.797 765.711C158.455 775.701 139.697 782.61 120.429 787.601C119.612 788.441 118.798 789.286 117.984 790.132Z" fill="white"/>
</g>
<path d="M446.05 745.507L446.018 748.708L445.511 798.438L445.448 803.826C445.353 812.257 441.898 819.896 436.32 825.442C430.773 830.957 423.135 834.412 414.672 834.475C397.62 834.57 383.674 820.877 383.516 803.794L382.914 742.336L446.05 745.507Z" fill="#F9B384"/>
<path d="M446.016 748.707L445.509 798.437C417.87 787.185 406.492 757.264 406.492 757.264L446.016 748.707Z" fill="#102048"/>
<path d="M456.95 661.928C466.855 673.814 495.777 741.167 466.459 764.146C433.467 790.004 383.258 747.506 383.258 747.506L376.523 669.06L420.104 657.57L456.95 661.928Z" fill="#F9B384"/>
<path d="M354.322 657.605C354.322 657.605 257.655 708.023 336.475 853.353C346.598 872.019 369.021 880.166 388.203 871.058C408.78 861.288 416.571 836.151 405.398 816.301C392.505 793.397 380.061 763.904 385.373 741.957L354.322 657.605Z" fill="#102048"/>
<path d="M381.931 699.959C392.143 689.747 392.143 673.191 381.931 662.979C371.719 652.767 355.163 652.767 344.951 662.979C334.739 673.191 334.739 689.747 344.951 699.959C355.163 710.17 371.719 710.17 381.931 699.959Z" fill="url(#paint5_linear_2710_633)"/>
<path d="M395.62 712.89C392.795 696.576 391.073 685.39 407.561 676.982C407.561 676.982 465.669 687.546 476.763 665.623C487.856 643.7 470.952 609.1 435.559 633.135C344.963 615.438 332.813 700.224 360.282 728.486L387.394 724.326C392.85 723.489 396.561 718.328 395.62 712.89Z" fill="#102048"/>
<path d="M440.605 716.8C442.739 716.8 444.468 715.071 444.468 712.937C444.468 710.804 442.739 709.074 440.605 709.074C438.472 709.074 436.742 710.804 436.742 712.937C436.742 715.071 438.472 716.8 440.605 716.8Z" fill="#102048"/>
<path d="M466.754 703.921C468.887 703.921 470.617 702.192 470.617 700.058C470.617 697.925 468.887 696.195 466.754 696.195C464.62 696.195 462.891 697.925 462.891 700.058C462.891 702.192 464.62 703.921 466.754 703.921Z" fill="#102048"/>
<path d="M464.079 724.827C463.808 724.827 463.537 724.727 463.326 724.526C462.888 724.11 462.87 723.418 463.287 722.98C464.836 721.349 466.533 719.055 465.82 717.393C465.079 715.667 461.948 714.922 460.514 714.922C457.432 714.922 455.952 709.438 455.687 708.339C455.545 707.752 455.906 707.162 456.493 707.021C457.079 706.875 457.671 707.239 457.813 707.827C458.376 710.143 459.65 712.735 460.514 712.735C461.989 712.735 466.5 713.432 467.83 716.531C468.78 718.744 467.785 721.42 464.873 724.485C464.657 724.712 464.368 724.827 464.079 724.827Z" fill="#102048"/>
<path d="M464.278 739.486C464.067 739.486 463.855 739.425 463.667 739.298C456.394 734.39 449.05 738.506 448.976 738.548C448.454 738.849 447.785 738.67 447.482 738.145C447.181 737.622 447.361 736.953 447.885 736.652C448.233 736.452 456.498 731.821 464.89 737.486C465.39 737.824 465.523 738.504 465.185 739.005C464.974 739.318 464.629 739.486 464.278 739.486Z" fill="#102048"/>
<path d="M438.914 696.206C441.112 700.342 437.282 701.172 432.795 703.556C428.308 705.94 423.714 706.813 422.666 704.84C421.618 702.867 424.405 699.335 428.892 696.951C433.379 694.567 437.213 693.004 438.914 696.206Z" fill="#102048"/>
<path d="M455.274 688.74C456.24 692.432 458.993 690.815 462.998 689.767C467.003 688.719 470.238 686.706 469.777 684.946C469.316 683.185 465.696 682.607 461.691 683.655C457.686 684.702 454.526 685.882 455.274 688.74Z" fill="#102048"/>
<path opacity="0.4" d="M430.546 739.333C435.171 735.067 435.462 727.86 431.197 723.236C426.931 718.611 419.725 718.32 415.1 722.586C410.476 726.851 410.184 734.058 414.45 738.682C418.715 743.307 425.922 743.598 430.546 739.333Z" fill="#EB5D60"/>
<path d="M393.4 741.65C398.605 734.905 396.611 724.642 388.946 718.727C381.281 712.813 370.848 713.486 365.643 720.232C360.438 726.977 362.432 737.24 370.097 743.154C377.762 749.069 388.195 748.395 393.4 741.65Z" fill="#F9B384"/>
<path d="M386.304 736.719C385.7 736.719 385.21 736.23 385.21 735.625C385.21 732.396 383.636 729.411 381 727.64C378.746 726.123 376.058 725.768 373.812 726.683C373.252 726.908 372.614 726.643 372.386 726.083C372.158 725.523 372.426 724.887 372.986 724.658C375.907 723.467 379.36 723.901 382.221 725.825C385.463 728.003 387.398 731.666 387.398 735.625C387.397 736.23 386.908 736.719 386.304 736.719Z" fill="#102048"/>
<path d="M229.531 816.113L190.062 858.809L191.898 860.506L231.367 817.81L229.531 816.113Z" fill="#102048"/>
<path d="M507.604 999.632L506.875 997.241C535.608 988.484 563.493 978.007 588.763 946.406L590.715 947.967C565 980.127 536.728 990.757 507.604 999.632Z" fill="#102048"/>
<path d="M525.068 902.824H280.65C271.86 902.824 264.734 910.533 264.734 920.042V1094.55C264.734 1104.06 271.86 1111.77 280.65 1111.77H525.069C533.859 1111.77 540.985 1104.06 540.985 1094.55V920.042C540.984 910.533 533.858 902.824 525.068 902.824Z" fill="#D3DFFF"/>
<path d="M415.759 996.266C416.687 996.266 417.439 997.08 417.439 998.084V1016.51C417.439 1017.51 416.687 1018.33 415.759 1018.33H389.953C389.025 1018.33 388.273 1017.51 388.273 1016.51V998.084C388.273 997.08 389.025 996.266 389.953 996.266H415.759ZM415.759 991.266H389.953C386.27 991.266 383.273 994.324 383.273 998.084V1016.51C383.273 1020.27 386.27 1023.33 389.953 1023.33H415.759C419.442 1023.33 422.439 1020.27 422.439 1016.51V998.084C422.439 994.324 419.442 991.266 415.759 991.266Z" fill="#1F3C88"/>
<path d="M1473.68 1292.18H0V1297.18H1473.68V1292.18Z" fill="#EDEDED" fill-opacity="0.2"/>
<defs>
<linearGradient id="paint0_linear_2710_633" x1="299.834" y1="81" x2="299.834" y2="161.564" gradientUnits="userSpaceOnUse">
<stop stop-color="#5621CB"/>
<stop offset="1" stop-color="#8776AC" stop-opacity="0.62"/>
</linearGradient>
<linearGradient id="paint1_linear_2710_633" x1="182.514" y1="158.043" x2="182.514" y2="238.607" gradientUnits="userSpaceOnUse">
<stop stop-color="#5621CB"/>
<stop offset="1" stop-color="#8776AC" stop-opacity="0.62"/>
</linearGradient>
<linearGradient id="paint2_linear_2710_633" x1="413.848" y1="1034.54" x2="413.848" y2="1210.37" gradientUnits="userSpaceOnUse">
<stop stop-color="#5621CB"/>
<stop offset="1" stop-color="#2B1065"/>
</linearGradient>
<linearGradient id="paint3_linear_2710_633" x1="513.892" y1="1043.29" x2="513.892" y2="1256.8" gradientUnits="userSpaceOnUse">
<stop stop-color="#5621CB"/>
<stop offset="1" stop-color="#2B1065"/>
</linearGradient>
<linearGradient id="paint4_linear_2710_633" x1="306.794" y1="1036.1" x2="306.794" y2="1274.08" gradientUnits="userSpaceOnUse">
<stop stop-color="#5621CB"/>
<stop offset="1" stop-color="#2B1065"/>
</linearGradient>
<linearGradient id="paint5_linear_2710_633" x1="344.951" y1="662.979" x2="381.931" y2="699.959" gradientUnits="userSpaceOnUse">
<stop stop-color="#5621CB"/>
<stop offset="1" stop-color="#2B1065"/>
</linearGradient>
</defs>
</svg>
