<?xml version="1.0" encoding="utf-8"?>
<!-- Generator: Adobe Illustrator 23.0.0, SVG Export Plug-In . SVG Version: 6.00 Build 0)  -->
<svg version="1.1" id="Layer_1" xmlns="http://www.w3.org/2000/svg" xmlns:xlink="http://www.w3.org/1999/xlink" x="0px" y="0px"
	 width="122.9px" height="122.8px" viewBox="0 0 122.9 122.8" style="enable-background:new 0 0 122.9 122.8;" xml:space="preserve"
	>
<style type="text/css">
	.st0{fill:#E8686A;}
	.st1{fill:#32B0CB;}
	.st2{fill:#55B46A;}
	.st3{fill:#F39D21;}
	.st4{fill:#195C85;}
</style>
<g>
	<path class="st0" d="M27,0c0,4.5,0,9.1,0,13.6c0,0.9,0.4,0.9,1.1,0.9c4.1,0,8.2,0,12.3,0c0.9,0,1.2,0.3,1.2,1.2
		c-0.1,3.3-0.1,6.6,0,10c0,1-0.2,1.3-1.3,1.3c-4.1-0.1-8.1,0-12.2,0c-0.8,0-1.1,0.2-1.1,1c0,4.1,0,8.2,0,12.3c0,0.9-0.3,1.2-1.2,1.2
		c-3.3,0-6.6-0.1-10,0c-1,0-1.3-0.2-1.3-1.3c0.1-4,0-8,0.1-12c0-1-0.2-1.3-1.3-1.3c-4.1,0.1-8.1,0-12.2,0C0.2,27,0,26.7,0,25.9
		c0-3.4,0.1-6.8,0-10.2c0-1,0.3-1.1,1.2-1.1c4.1,0,8.2,0,12.3,0c0.8,0,1.1-0.2,1.1-1.1c0-4.5,0-9,0-13.5C18.7,0,22.9,0,27,0z"/>
	<path class="st1" d="M120.2,27c-5.5,0-11.1,0-16.6,0c-7.9,0-15.7,0-23.6,0c-0.9,0-1.3-0.2-1.3-1.2c0.1-3.4,0-6.9,0-10.3
		c0-0.7,0.2-0.9,0.9-0.9c13.5,0,27,0,40.6,0C120.2,18.7,120.2,22.8,120.2,27z"/>
	<path class="st2" d="M120.2,101.6c-0.5,0-0.9-0.1-1.4-0.1c-12.9,0-25.8,0-38.7,0c-1.1,0-1.4-0.3-1.4-1.4c0.1-3.3,0-6.6,0-10
		c0-0.7,0.1-1.1,0.9-1.1c13.4,0,26.8,0,40.2,0c0.1,0,0.2,0,0.3,0.1C120.2,93.3,120.2,97.5,120.2,101.6z"/>
	<path class="st3" d="M33.3,113.8c-0.4-0.1-0.6-0.4-0.8-0.6c-2.9-2.9-5.9-5.8-8.8-8.8c-0.7-0.7-1-0.6-1.6,0c-2.9,3-5.9,5.9-8.8,8.8
		c-0.5,0.5-0.8,0.7-1.5,0.1c-3-3-6-6.1-9-9c-0.5-0.5-0.5-0.8,0-1.3c3-2.9,5.8-5.9,8.8-8.8c0.9-0.8,0.7-1.2,0-2
		c-2.9-2.9-5.8-5.9-8.7-8.9c-0.6-0.6-0.6-0.9,0-1.4c3-2.9,6-5.8,9-8.8c0.5-0.5,0.8-0.5,1.4,0c3,3,6,6,8.9,9c0.6,0.7,1,0.6,1.5,0
		c2.9-3,5.9-5.9,8.8-8.9c0.6-0.6,0.9-0.6,1.4,0c2.9,3,5.9,6,8.9,8.9c0.7,0.7,0.5,1-0.1,1.6c-2.9,2.9-5.8,5.8-8.7,8.7
		c-0.6,0.6-0.7,1,0,1.6c3,2.9,5.9,5.9,8.9,8.9c0.4,0.4,0.7,0.7,0.1,1.3c-3.1,3-6.2,6.1-9.2,9.2C33.6,113.5,33.4,113.7,33.3,113.8z"
		/>
	<path class="st4" d="M62.2,39.3c0,5.8,0,11.7,0,17.5c0,1,0.2,1.2,1.2,1.2c11.6,0,23.2,0,34.8,0c1,0,1.3,0.2,1.3,1.3
		c-0.1,2.9,0,2.9-2.9,2.9c-11.1,0-22.1,0-33.2,0c-1,0-1.2,0.2-1.2,1.2c0,11.6,0,23.2,0,34.8c0,1-0.2,1.3-1.3,1.3
		c-2.9-0.1-2.9,0-2.9-2.9c0-11.1,0-22.1,0-33.2c0-1-0.2-1.2-1.2-1.2c-11.6,0-23.2,0-34.8,0c-1,0-1.3-0.2-1.3-1.3
		c0.1-2.9,0-2.9,2.9-2.9c11.1,0,22.1,0,33.2,0c1,0,1.2-0.2,1.2-1.2c0-11.6,0-23.2,0-34.8c0-1,0.2-1.3,1.3-1.3c2.9,0.1,2.9,0,2.9,2.9
		C62.2,28.8,62.2,34.1,62.2,39.3z"/>
	<path class="st2" d="M105.7,76.7c0,3.4-2.8,6.2-6.2,6.2c-3.4,0-6.2-2.8-6.2-6.2c0-3.4,2.9-6.3,6.3-6.2
		C102.9,70.5,105.7,73.3,105.7,76.7z"/>
	<path class="st2" d="M105.7,114c0,3.4-2.8,6.2-6.2,6.2c-3.4,0-6.2-2.8-6.2-6.2c0-3.4,2.8-6.3,6.3-6.3
		C102.9,107.7,105.7,110.5,105.7,114z"/>
</g>
</svg>
