<?xml version="1.0" encoding="utf-8"?>
<!-- Generator: Adobe Illustrator 23.0.0, SVG Export Plug-In . SVG Version: 6.00 Build 0)  -->
<svg version="1.1" id="Layer_1" xmlns="http://www.w3.org/2000/svg" xmlns:xlink="http://www.w3.org/1999/xlink" x="0px" y="0px"
	 width="93.9px" height="93.8px" viewBox="0 0 93.9 93.8" style="enable-background:new 0 0 93.9 93.8;" xml:space="preserve">
<style type="text/css">
	.st0{fill:#407092;}
	.st1{fill:#365E7D;}
	.st2{fill:#F4DACB;}
	.st3{fill:#9AB3C5;}
	.st4{fill:#94A9BA;}
	.st5{fill:#F8E9E1;}
	.st6{fill:#DCB69F;}
	.st7{fill:#EBB683;}
	.st8{fill:#CB9575;}
	.st9{fill:#D5A788;}
	.st10{fill:#C3845C;}
	.st11{fill:#F8E8DF;}
	.st12{fill:#F3FAFE;}
</style>
<g>
	<path class="st0" d="M0.2,34.2c0.6-1.3,1.4-1.5,2.7-0.7C10,37.8,17.2,42,24.4,46.3c1,0.6,2,1.2,3,1.8c1.8,1.1,2.2,2.1,1.7,4.1
		c0,0.4-0.2,0.7-0.4,1c-3.3,5.5-6.6,11.1-9.8,16.6c-0.3,0.5-0.5,1-0.8,1.4c-1.3,2.8-3.6,3.1-6.1,1.5c-3.1-2-6.3-3.8-9.4-5.6
		c-1.4-0.8-2.4-1.8-2.6-3.5c0-0.1,0-0.1,0-0.2c0.2-0.3,0.1-0.7,0.1-1c0-9.1,0-18.1,0-27.2C0.1,34.9,0,34.6,0.2,34.2z"/>
	<path class="st1" d="M93.9,63.6c-0.6,2-2.1,3-3.8,3.9c-3,1.7-5.9,3.5-8.8,5.2c-2.2,1.3-3.5,1.1-5-0.9c-0.7-0.8-1.5-1.5-1.3-2.7
		c1.4-1.1,2.7-2.1,3.8-3.5c1.8-2.5,2.7-5.2,2.7-8.3c0-5.6,0-11.2,0-16.7c0-0.5-0.1-1,0.3-1.5c3.2-1.9,6.3-3.8,9.5-5.7
		c1-0.6,1.9-0.2,2.4,0.9c0.1,0.3,0.1,0.7,0.1,1c0,9,0,18,0,27c0,0.3-0.1,0.7,0.1,1C93.9,63.4,93.9,63.5,93.9,63.6z"/>
	<path class="st2" d="M49.1,93.8c-2-1-3.8-2.1-5.7-3.3c-0.2-0.4,0.1-0.6,0.2-0.9c1.3-2.1,1.2-3.2-0.5-5c-0.1-0.1-0.2-0.3-0.3-0.5
		c0.2-0.9,0.6-1.1,1.4-0.8c0.5,0.2,0.8,0.5,1.3,0.7c1.3,0.6,2.5,0.7,3.7-0.1c1.2-0.8,1.6-2,1.5-3.4c-0.1-0.9,0.4-1.4,1.4-1.3
		c0.4,0,0.7,0.2,1,0.4c2,0.9,3.8-0.1,4.1-2.3c0.1-0.6,0.1-1.2-0.1-1.8c-0.1-0.4-0.1-0.7,0.3-1c0.4-0.3,0.8-0.1,1.1,0.1
		c0.4,0.2,0.8,0.4,1.1,0.6c1.3,0.6,2.5,0.5,3.6-0.4c1.1-1,1.4-2.2,0.9-3.7c-0.1-0.4-0.4-0.7,0-1.1c0.3-0.2,0.5,0,0.8,0.1
		c2.4,1.4,4.8,2.9,7.2,4.2c0.1,0,0.1,0.1,0.2,0.2c0.3,0.6,1,0.8,1.3,1.4c1,1.5,0.9,3.2-0.3,4.5c-0.9,1-2.8,1.3-4.1,0.7
		c-0.8-0.4-1.5-0.8-2.5-1.4c1.1,2.2,1.1,4-0.9,5.4c-2,1.4-3.7,0.2-5.5-0.9c0.5,1.2,1,2.1,0.8,3.2c-0.5,2.6-3.3,3.4-5.3,2.4
		c-1-0.5-1.9-1.1-2.8-1.6c-0.1-0.1-0.2-0.1-0.3,0c0.1,0.1,0.1,0.1,0.1,0.2c1.4,2.1,0.7,4.5-1.6,5.5c-0.1,0.1-0.3,0.1-0.4,0.2
		C50.2,93.8,49.7,93.8,49.1,93.8z"/>
	<path class="st3" d="M0.2,34.2c0,7.4,0,14.9,0,22.3c0,2,0,4,0,6c0,0.3,0.1,0.6-0.2,0.8C0,53.7,0,44,0,34.3
		C0.1,34.2,0.1,34.2,0.2,34.2z"/>
	<path class="st4" d="M93.9,63.2c-0.2-0.1-0.2-0.4-0.2-0.6c0-9.5,0-18.9,0-28.4c0.1,0,0.1,0,0.2,0C93.9,43.9,93.9,53.6,93.9,63.2z"
		/>
	<path class="st5" d="M64.3,69.8c-0.2,0.3-0.1,0.6,0.1,0.8c0.6,1.5,0.3,3-0.9,4.1c-1.1,1.1-2.4,1.2-4,0.4c-0.4-0.2-0.7-0.3-1.1-0.6
		c-0.3-0.2-0.6-0.4-0.9-0.1c-0.3,0.2-0.2,0.5-0.1,0.8c0.2,1,0.2,2-0.2,3c-0.8,1.7-2.6,2.3-4.2,1.4c-0.5-0.3-0.9-0.5-1.5-0.3
		c-0.5,0.1-0.7,0.4-0.6,1c0.4,1.5-0.2,2.6-1.3,3.6c-1.2,1-2.6,0.9-4,0.4c-0.5-0.2-1-0.5-1.4-0.8c-0.7-0.5-1.1-0.2-1.3,0.6
		c-0.2,0.1-0.4,0.1-0.6,0c-0.9-0.3-1.8-0.3-2.7,0.1c-0.2,0.1-0.5,0.2-0.7,0c-0.2-0.2,0-0.5,0.1-0.7c0.2-0.4,0.5-0.8,0.8-1.1
		c0.9-1.3,0.9-2.8-0.1-4c-1-1.3-2.4-1.6-3.9-1c-0.1,0-0.2,0.1-0.3,0.1c-0.9,0.4-1,0.3-0.9-0.7c0.1-1.1-0.1-2.1-1-2.9
		c-1.4-1.4-3.5-1.3-4.8,0.2c-0.5,0.6-0.9,1.2-1.3,1.7c-0.2,0.2-0.4,0.6-0.7,0.4c-0.3-0.1-0.1-0.5-0.1-0.8c0.1-2.3-1.8-4-4-3.6
		c-0.5,0.1-0.9,0.3-1.2,0.6c-0.2,0.1-0.4,0.4-0.7,0.3c-0.8-0.8-1.9-1.3-2.9-1.8c2.4-4,4.7-8,7.1-12.1c1.3-2.3,2.7-4.6,4.1-6.8
		c2.3,2,4.8,2.8,8.2,1.4c1.3-0.6,2.6-1.2,4.1-1.3c2-0.2,3.7,0.7,5.2,1.8c0,0.5-0.4,0.6-0.6,0.8c-1.4,1.1-1.9,2.6-1.9,4.4
		c0,1.9,0,3.8,0,5.7c0,1.7,0.9,2.3,2.5,1.9c2-0.5,3.3-1.8,3.8-3.8c0-0.1,0-0.2,0.1-0.3c0.3-1.1,0.5-1.2,1.4-0.6
		c1.9,1.1,3.8,2.2,5.7,3.3c2,1.2,4,2.3,6,3.6C63.8,69.3,64.2,69.4,64.3,69.8z"/>
	<path class="st6" d="M52.2,35.4c-0.6,0.3-1.1,0-1.7,0c-6.5,0-13,0-19.5,0c-2.5,0-4.3-1.8-4.3-4.3c0-5.7,0-11.3,0-17
		c0.5,0.1,0.4,0.5,0.4,0.8c0.4,3.3,3.2,5.7,6.5,5.7c0.5,0,1-0.2,1.5,0.3c0.3,0.7,0.1,1.4,0.1,2.2c0,0.4,0,0.8,0.2,1.2
		c0.2,0.5,0.6,0.7,1.1,0.7c0.5,0,0.8-0.4,0.9-0.9c0.1-0.5,0-1,0.1-1.5c0-1.3,0-2.6,0-3.8c0-0.4-0.1-0.8,0.4-1.1
		c0.6,0.5,0.3,1.1,0.4,1.7c0.1,1.1,0.1,1.1,1.2,1.1c4.7,0,9.4,0,14.2,0c0.6,0,1.2-0.1,1.6,0.4c0.3,0.3,0.2,0.7,0.2,1.1
		c0,2.9,0,5.9,0,8.8c0,0.7-0.1,1.5-0.4,2.1C54.5,34.4,53.6,35.2,52.2,35.4z"/>
	<path class="st7" d="M64.3,69.8c-4.2-2.5-8.4-5-12.6-7.5c-0.7-0.4-1-0.3-1.1,0.5c-0.2,2-2,4-4.4,4.4c-1.4,0.2-2.4-0.5-2.4-2
		c0-2.2,0-4.4,0-6.6c0-1.8,0.9-3.1,2.3-4.2c0.2-0.1,0.3-0.3,0.5-0.4c2-0.5,4-1.1,6.1-1.6c1.3-0.3,2.5-0.2,3.7,0.3
		c0.7,0.3,1.4,0.5,2.1,0.8c2.3,1,4.6,1,6.8-0.4c0.5,0,0.5,0.4,0.7,0.6c2.9,4.9,5.8,9.8,8.8,14.8c0.1,0.2,0.3,0.5,0.3,0.8
		c0.5,0.8,0.9,1.7,1.4,2.5c-1.3,0.9-2.8,1.4-3.9,2.6c-1.3-0.3-2.2-1.2-3.3-1.8C67.5,71.7,65.9,70.8,64.3,69.8z"/>
	<path class="st8" d="M35,20.9c-2.4,0.2-4.5-0.3-6.2-2.1c-1.1-1.2-1.8-2.5-1.8-4.1c0-0.2,0-0.4-0.2-0.5c0-0.5,0-1,0-1.5
		c0-2.7,1.6-4.3,4.3-4.4c2.5,0,4.9,0,7.4,0C38.9,7.9,39.3,8,39.7,8c1.2,0,1.2,0,1.2-1.3c0-0.5,0-0.9,0-1.4c0-0.3,0-0.7,0.5-0.7
		c0.4,0.7,0.2,1.5,0.2,2.3c0.1,1,0.1,1,1.1,1c2.8,0,5.5,0,8.3,0c1,0,1-0.1,1.1-1.1c0-0.7-0.2-1.5,0.2-2.2c0.6,0,0.5,0.5,0.5,0.8
		c0.1,0.9,0,1.8,0,2.7c0,0.4,0.3,0.5,0.5,0.7c1.4,0.9,2,2.3,2,4c0,2.3,0,4.6,0,6.8c0,0.5,0,1,0.5,1.4c-0.2,0.5-0.5,0.3-0.8,0.2
		c-0.4-0.2-0.8-0.2-1.2-0.2c-5,0-10,0-15.1,0c-0.8,0-1.1-0.2-1-1c0-0.7,0.2-1.5-0.1-2.2c-0.5-0.4-1-1.1-1.8-0.7
		c-0.9,0.4-0.7,1.3-0.7,2C35.2,19.7,35.5,20.3,35,20.9z"/>
	<path class="st0" d="M74.9,69.3c-2.2-3.6-4.3-7.2-6.5-10.8c-1.1-1.8-2.1-3.5-3.2-5.3c-0.1-0.3-0.3-0.5-0.4-0.8
		c-0.7-1.4-0.3-3,1-3.9c5.3-3.2,10.6-6.3,15.9-9.4c0,6.3,0.1,12.6,0,18.9C81.6,62.8,79.3,66.7,74.9,69.3z"/>
	<path class="st9" d="M55.2,21.1c0.2,0,0.5,0.1,0.7-0.2c-0.4-1.1-0.5-2.1,0.1-3.1c0.4,0.2,0.4,0.7,0.4,1c0,1.4,0,2.8,0,4.2
		c0,0.3,0,0.6,0,0.9c0.1,0.6,0.3,1,1,1.1c0.7,0,1-0.4,1.1-1c0.1-0.4,0-0.9,0.1-1.4c0-0.5-0.1-1.1,0.1-1.6c0.3-0.4,0.8-0.4,1.3-0.3
		c3.4,0.2,6.6-2.8,6.7-6c0-0.3,0-0.6,0.4-0.7c0,5.9,0,11.8,0,17.7c0,2.2-1.7,3.8-4,3.8c-3.6,0-7.2,0-10.8,0c1-0.6,2-1.1,2.5-2.2
		c0.3-0.7,0.4-1.4,0.4-2.1C55.2,27.7,55.2,24.4,55.2,21.1z"/>
	<path class="st10" d="M67.1,13.9c-0.3,0.9-0.2,1.9-0.6,2.8c-1.4,2.8-3.5,4.3-6.7,4.2c-0.3,0-0.6,0-0.9,0c-0.5-0.5-0.2-1.1-0.3-1.7
		c0-0.2,0-0.4,0-0.5c0-0.7,0-1.3-0.7-1.6c-0.7-0.3-1.2,0.1-1.6,0.6c0,0-0.1,0.1-0.2,0.1c-0.3,1-0.1,2.1-0.2,3.1
		c-0.7,0.1-0.7-0.3-0.7-0.8c0-2.3,0-4.5,0-6.8c0-2.1-0.5-3.8-2.6-4.7c-0.2-0.1,0-0.2,0-0.3c0.9-0.5,1.8-0.5,2.7,0c2.3,0,4.5,0,6.8,0
		c3.6,0,4.9,1.4,5,4.9C67.1,13.4,67.1,13.7,67.1,13.9z"/>
	<path class="st1" d="M55.3,8.2c-0.9,0-1.8,0-2.7,0c-0.1-1.2,0.1-2.4-0.1-3.7c-0.8-1.5-2.1-1.7-3.6-1.6C47.6,3,46.3,3,45,3
		c-1.5-0.1-2.8,0.1-3.6,1.6c-0.2,1-0.1,2-0.1,3c0,0.5-0.2,0.7-0.7,0.7c-0.7,0-1.4,0-2.1,0c0-1.2,0-2.3,0-3.5c0-2.7,2-4.7,4.7-4.8
		c2.4,0,4.9,0,7.3,0c2.7,0,4.7,2,4.7,4.7C55.4,5.9,55.3,7,55.3,8.2z"/>
	<path class="st11" d="M52.8,88.2c-0.2-0.2-0.4-0.4-0.7-0.6c0.4,0,0.6,0.2,0.8,0.4C52.9,88,52.9,88.1,52.8,88.2z"/>
	<path class="st7" d="M20.9,72.9c1.4-1.3,2.9-1.5,4.3-0.7c1.4,0.8,2.1,2.3,1.8,4.2c0.7-0.6,1.1-1.3,1.6-2c1.1-1.4,2.4-1.9,4-1.5
		c1.4,0.4,2.5,1.7,2.6,3.2c0,0.5-0.1,1-0.2,1.6c2-1.1,3.8-1.2,5.2,0.7c1.2,1.5,0.9,2.5-1.1,6c1.4-0.8,2.7-0.8,4-0.2
		c1.2,0.9,1.8,2,1.7,3.5c-0.1,0.8-0.4,1.4-0.8,2c-0.2,0.3-0.5,0.5-0.5,0.9c-0.3,0.2-0.5,0.5-0.7,0.7c-1,1.4-2.6,1.9-4.1,1.3
		c-1.5-0.5-2.4-1.8-2.4-3.5c0-0.2,0.1-0.4-0.1-0.7c-1.3,1.5-2.9,2.1-4.8,1.1c-1.7-0.9-2.1-2.5-1.6-4.5c-1.6,0.8-3.1,1.1-4.5,0.1
		c-1.5-1.1-1.6-2.5-1.2-4.3c-0.6,0.2-1.1,0.6-1.8,0.7c-1.5,0.3-2.7-0.2-3.5-1.4c-0.9-1.2-1-2.6-0.2-3.9C19.2,75.1,20.1,74,20.9,72.9
		z"/>
	<path class="st12" d="M35,20.9c0-0.9,0-1.8,0-2.6c0-0.8,0.3-1.4,1.1-1.6c0.8-0.2,1.3,0.2,1.7,1.1c0,2,0,4,0,5.9
		c0,1.1-0.4,1.6-1.4,1.6c-0.8,0-1.3-0.6-1.4-1.6C35,22.8,35,21.8,35,20.9z"/>
	<path class="st12" d="M56.1,17.8c0.4-0.9,0.9-1.3,1.7-1.1c0.8,0.2,1.1,0.8,1.1,1.6c0,0.9,0,1.8,0,2.6c0,0.9,0,1.9,0,2.8
		c0,1-0.5,1.6-1.4,1.6c-0.9,0-1.4-0.5-1.4-1.6C56.1,21.7,56.1,19.7,56.1,17.8z"/>
</g>
</svg>
