<?xml version="1.0" encoding="utf-8"?>
<!-- Generator: Adobe Illustrator 23.0.0, SVG Export Plug-In . SVG Version: 6.00 Build 0)  -->
<svg version="1.1" id="Layer_1" xmlns="http://www.w3.org/2000/svg" xmlns:xlink="http://www.w3.org/1999/xlink" x="0px" y="0px"
	 width="100px" height="100px" viewBox="0 0 100 100" style="enable-background:new 0 0 100 100;" xml:space="preserve">
<style type="text/css">
	.st0{fill:#2EAEEF;}
	.st1{fill:#A4E0FE;}
</style>
<g>
	<path class="st0" d="M47.2,23.6c0,4.9,0,9.9,0,14.8c0,5.4-3.4,8.8-8.8,8.8c-9.8,0-19.7,0-29.5,0c-5.4,0-8.8-3.5-8.8-8.9
		c0-9.8,0-19.6,0-29.4C0,3.5,3.5,0,8.9,0c9.8,0,19.6,0,29.4,0c5.4,0,8.9,3.5,8.9,8.9C47.2,13.8,47.2,18.7,47.2,23.6z"/>
	<path class="st0" d="M76.4,52.8c4.9,0,9.8,0,14.7,0c5.4,0,8.9,3.5,8.9,8.9c0,9.8,0,19.6,0,29.4c0,5.4-3.5,8.9-8.9,8.9
		c-9.8,0-19.7,0-29.5,0c-5.2,0-8.7-3.5-8.8-8.7c0-9.9,0-19.9,0-29.8c0-5.2,3.5-8.6,8.6-8.7C66.5,52.8,71.4,52.8,76.4,52.8z"/>
	<path class="st1" d="M52.9,23.5c0-5.1,0-10.2,0-15.4C52.9,3.6,56.5,0,61,0c10.2,0,20.4,0,30.6,0c4.7,0,8.4,3.7,8.4,8.4
		c0,10.1,0,20.3,0,30.4c0,4.6-3.6,8.3-8.2,8.3c-10.2,0-20.5,0-30.7,0c-4.6,0-8.2-3.6-8.2-8.3C52.8,33.8,52.9,28.7,52.9,23.5z"/>
	<path class="st0" d="M47.2,76.4c0,4.9,0,9.8,0,14.7c0,5.4-3.5,8.9-8.9,8.9c-9.8,0-19.6,0-29.4,0C3.5,100,0,96.5,0,91.1
		c0-9.8,0-19.7,0-29.5c0-5.2,3.5-8.7,8.7-8.8c9.9,0,19.9,0,29.8,0c5.2,0,8.6,3.5,8.7,8.6C47.2,66.5,47.2,71.4,47.2,76.4z"/>
</g>
</svg>
