<?xml version="1.0" encoding="utf-8"?>
<!-- Generator: Adobe Illustrator 23.0.0, SVG Export Plug-In . SVG Version: 6.00 Build 0)  -->
<svg version="1.1" id="Layer_1" xmlns="http://www.w3.org/2000/svg" xmlns:xlink="http://www.w3.org/1999/xlink" x="0px" y="0px"
	 width="90.1px" height="86.2px" viewBox="0 0 90.1 86.2" style="enable-background:new 0 0 90.1 86.2;" xml:space="preserve">
<style type="text/css">
	.st0{fill:#D5DBE9;}
	.st1{fill:#98E5FB;}
	.st2{fill:#62DAFA;}
	.st3{fill:#E7E9EF;}
	.st4{fill:#FC7F86;}
	.st5{fill:#FD636E;}
	.st6{fill:#FDD0A2;}
	.st7{fill:#F7F1EF;}
	.st8{fill:#FEBB84;}
	.st9{fill:#FC8087;}
	.st10{fill:#FC8086;}
</style>
<g>
	<path class="st0" d="M87.9,16.8c-0.3,2.9-1.5,5.3-3.4,7.5c-0.9,1-1.9,1.8-2.9,2.7c-0.2,0.3-0.5,0.5-0.8,0.7
		c-3.8,2-7.7,2.3-11.7,0.9c-0.4-0.1-0.8-0.2-1-0.7c0.1-0.4,0.4-0.4,0.7-0.5c4.6-2.1,7.2-5.7,8.1-10.7c0-0.2,0.1-0.4,0.2-0.5
		c0.5-0.2,1-0.1,1.5-0.1c0.4,0,0.8-0.1,1.1-0.3c0.3-0.3,0.4-0.7,0.3-1.1c-0.1-0.5-0.5-0.7-1-0.8c-0.6-0.1-1.2,0.1-1.7-0.2
		c-0.3-0.3-0.3-0.7-0.4-1.1c-0.8-4.6-3.2-8-7.2-10.3c-0.3-0.2-0.8-0.2-0.7-0.8c1.8-0.6,3.7-1,5.6-0.8c3.3,0.2,6.2,1.4,8.7,3.6
		c2.6,2.4,4.2,5.2,4.7,8.8c0,0.1,0.1,0.1,0.1,0.2c0,0.9,0,1.8,0,2.7C87.9,16.2,88.1,16.5,87.9,16.8z"/>
	<path class="st1" d="M1.3,57c0.4-0.2,0.8-0.2,1.2-0.2c3.2,0,6.4,0,9.6,0c1.3,0,1.4,0.1,1.4,1.4c0,0.3,0,0.5,0,0.8
		c0.2,0.2,0.3,0.6,0.3,0.9c0,4.9,0,9.8,0,14.6c0,0.1,0,0.2,0,0.3c-0.2,0.8,0.1,1.6-0.3,2.4c-0.3,0.4-0.7,0.4-1.2,0.4
		c-3.2,0-6.4,0-9.6,0c-0.5,0-1,0-1.3-0.6C1.3,70.3,1.3,63.6,1.3,57z"/>
	<path class="st2" d="M1.3,77c0.3,0.3,0.7,0.3,1.1,0.3c3.3,0,6.7,0,10,0c0.3,0,0.7,0,1-0.2c0.3,0.4,0.2,0.9,0.1,1.4
		c-0.1,2.6,0.4,2.4-2.4,2.4c-2.9,0-5.8,0-8.7,0c-0.4,0-0.8,0-1.1-0.3C1.3,79.4,1.3,78.2,1.3,77z"/>
	<path class="st3" d="M87.9,16.8c0-0.3-0.1-0.6,0.2-0.9c0,0.3,0,0.6,0,0.8C88,16.8,88,16.8,87.9,16.8z"/>
	<path class="st4" d="M23,57.3c-1.4-1.4-2.8-2.9-4.2-4.3c-3.6-3.7-5.7-8.1-6.4-13.1C11.6,33.4,13,27.5,17,22.4
		c4.4-5.8,10.3-7.7,17.3-6.3c4.3,0.8,7.9,3,11,5.9c0.6,0.5,1.1,1.1,1.6,1.6c0.9,0.9,1,0.9,1.9,0c1.4-1.4,2.7-2.7,4.3-3.8
		c0.1-0.1,0.3-0.2,0.4-0.2c0.5,0,0.6,0.4,0.8,0.7c2.3,3.5,3.9,7.3,4.8,11.4c0.4,2,0.7,4,0.9,6c0,0.5,0.1,1,0,1.5
		C59,41,57.8,43,56.6,44.9c-0.4,0.6-0.7,0.6-1.1-0.1c-1.3-2.5-2.7-4.9-4-7.4c-0.7-1.3-1.5-2.6-2.2-3.9c-0.7-1.2-1.6-1.2-2.3,0
		c-1.4,2.4-2.8,4.8-4.1,7.2c-0.9,1.6-1.1,1.6-2,0c-0.6-1-1.2-2-1.9-3c-0.9-1.3-1.7-1.3-2.5,0c-0.8,1.3-1.5,2.5-2.3,3.8
		c-0.4,0.7-0.9,1-1.7,0.9c-1.9,0-3.7,0-5.6,0c-0.3,0-0.5,0-0.8,0c-0.7,0.1-1.1,0.5-1.1,1.1c0,0.6,0.4,1,1.1,1c2.7,0,5.4,0,8.1,0
		c0.6,0,0.9-0.4,1.2-0.8c0.6-0.9,1.1-1.9,1.7-2.8c0.5-0.8,0.7-0.8,1.3,0c0.9,1.3,1.6,2.6,2.5,3.9c0.8,1.2,1.6,1.1,2.3-0.1
		c1.4-2.5,2.8-5,4.2-7.4c0.2-0.3,0.3-0.7,0.7-0.7c0.4,0,0.6,0.4,0.7,0.7c2,3.6,3.9,7.2,5.9,10.8c0.3,0.5,0.5,1,1.2,1
		c0.7,0,1-0.5,1.3-1c0.5-0.8,1-1.6,1.5-2.5c0.2-0.3,0.3-0.7,0.7-0.6c0.2,0.2,0.1,0.5,0.1,0.7c-0.9,4.9-2.9,9.4-5.7,13.6
		c0,0.1-0.1,0.1-0.2,0.1c-0.2-0.1-0.4-0.2-0.5-0.4c-0.9-1.2-2.2-2-3.7-2.3c-3.3-0.7-6.5-1.4-9.8-1.6c-2-0.1-4,0.3-6,0.6
		c-3.1,0.5-6.2,1.1-9.3,1.6C23.9,57.5,23.4,57.7,23,57.3z"/>
	<path class="st5" d="M53.7,59.5c0-0.5,0.3-0.8,0.5-1.1c2.7-4.1,4.4-8.5,5.2-13.3c-0.2-0.4,0-0.7,0.2-0.9c0.3-0.6,0.7-1.2,1-1.8
		c0.4-0.7,0.9-0.9,1.7-0.9c2.7,0,5.5,0,8.2,0c0.4,0,0.8,0,1.2-0.1c0.5-0.2,0.8-0.5,0.8-1.1c0-0.6-0.4-0.9-0.9-1
		c-0.3-0.1-0.7-0.1-1-0.1c-3.4,0-6.8-0.1-10.2,0c-0.2,0-0.3,0-0.5-0.1c-0.1-6.9-2-13.3-5.8-19c-0.2-0.2-0.3-0.4-0.5-0.7
		c1.8-1.4,3.9-2.4,6.1-3c0.3,0.4,0.3,0.8,0.4,1.3c1,4.3,3.4,7.4,7.2,9.5c0.3,0.1,0.6,0.2,0.7,0.5c2.3,1.2,4.8,1.5,7.3,1.3
		c2.3-0.2,4.3-1.1,6.2-2.1c3.9,8.6,2.1,19.2-4.5,26C71,59.2,64.9,65.5,58.7,71.7c-0.1,0.5-0.6,0.5-1,0.6c-3.1,0.8-6.1,1.1-9.3,0.3
		c-2.1-0.5-4.2-0.8-6.3-1.2c-0.4-0.1-0.7-0.1-1.1-0.3c-0.5-0.5,0-0.7,0.3-0.9c1.1-0.7,2.2-1.4,3.2-2.2c0.9-0.6,1.7-1.3,2.5-2
		c0.4-0.4,0.9-0.7,1.5-0.6c1.4,0,2.7-0.2,3.8-1c1.5-1.2,1.9-2.6,1.2-4.8C53.6,59.7,53.6,59.6,53.7,59.5z"/>
	<path class="st6" d="M41,71c2.7,0.5,5.3,0.8,8,1.4c2.7,0.6,5.2,0.5,7.8-0.2c0.7-0.2,1.4-0.1,2-0.6c0.2,0.3,0.5,0.1,0.7,0.1
		c3.6-0.7,7.2-1.4,10.8-2.1c0.9-0.2,1.9-0.4,2.8-0.6c1.8-0.3,3.9,0.5,4.7,2c-0.6,1.4-1.7,2.1-3,2.6c-1.5,0.6-3.1,1.1-4.7,1.6
		c-5.9,1.9-11.7,3.8-17.6,5.6c-1.7,0.6-3.4,1.1-5.2,1.5c-3,0.7-5.9,0.5-8.8-0.3c-8-2.2-16-4.4-23.9-6.5c-0.4-0.1-0.9-0.2-1.2-0.6
		c0-5.3,0-10.6,0-15.9c3-0.5,6.1-1,9.1-1.5c0.2,0,0.3,0,0.5-0.2c2.1-0.1,4.1-0.6,6.1-0.9c3.1-0.5,6.2-1.2,9.4-1.4
		c2.3-0.1,4.6,0.5,6.9,0.9c1.1,0.2,2.1,0.4,3.2,0.6c2.1,0.3,3.8,1.3,5,3.1c0,0.1,0,0.1,0,0.2c0.2,0.4,0,0.7-0.3,1
		c-1.3,1.4-2.9,1.8-4.7,1.7c-2.8-0.2-5.7-0.6-8.5-1c-2.3-0.3-3.9,1.5-3.2,3.8c0.1,0.2,0.2,0.5,0.2,0.7c0,0.3-0.1,0.6-0.2,0.8
		c-0.7,1.6,0.4,3.4,2.1,3.8C39.8,70.6,40.5,70.5,41,71z"/>
	<path class="st7" d="M68.1,27.8c-4.4-2-7-5.4-8.1-10c-0.1-0.4-0.1-0.9-0.2-1.3c-0.5-4.9,1.2-9,4.8-12.3c1.3-1.2,2.8-2,4.4-2.6
		c0.4,0.6,1.1,0.7,1.7,1.1c3.6,2.3,5.7,5.6,6.4,9.8c0.1,0.4,0.1,0.8,0.2,1.2c-0.5,0.4-1.1,0.3-1.7,0.2c-0.5-0.1-0.5-0.5-0.6-0.8
		c0-0.7,0-1.5,0-2.2c0-0.3,0-0.6,0-0.9c-0.1-0.5-0.4-1-1-1c-0.6,0-1,0.3-1.1,0.9c-0.1,0.7-0.1,1.4-0.1,2.1c0,2,0,2-2,2
		c-0.6,0-1.2,0-1.9,0c-0.8,0.1-1.2,0.5-1.2,1c0,0.6,0.4,1,1.2,1.1c0.9,0.1,1.7,0,2.6,0c1.1,0,1.2,0.2,1.2,1.2c0,0.6,0,1.1,0,1.7
		c0,0.3,0,0.6,0,0.8c0.1,0.9,0.5,1.3,1.1,1.2c0.6,0,1-0.5,1-1.3c0-0.7,0-1.5,0-2.2c0-1.5,0.7-1.9,2.1-1.3c-0.1,2.8-1.3,5.1-2.9,7.2
		c-1.4,1.8-3.2,3.2-5.3,4.1C68.6,27.7,68.3,27.8,68.1,27.8z"/>
	<path class="st8" d="M13.5,74.9c7.1,1.9,14.3,3.9,21.4,5.8c1.8,0.5,3.6,1,5.4,1.5c3.2,0.8,6.4,0.3,9.5-0.7c6.5-2.1,13-4.2,19.5-6.3
		c1.6-0.5,3.2-1,4.8-1.5c1.3-0.5,2.5-1.1,3.3-2.3c0.1-0.1,0.3-0.2,0.4-0.3c0.8,1.7,0.2,3.9-1.6,5.2c-0.8,0.6-1.7,0.9-2.7,1.2
		c-7.6,2.4-15.2,4.9-22.8,7.3c-2.6,0.8-5.1,1.5-7.9,1.4c-2.1-0.1-4-0.7-6-1.3c-7.7-2.1-15.4-4.2-23.1-6.3c-0.1,0-0.2-0.1-0.2-0.1
		c-0.2-0.4,0-0.9-0.1-1.4C13.4,76.4,13.2,75.7,13.5,74.9z"/>
	<path class="st9" d="M77.1,16.3c-1.9-0.1-1.9-0.1-1.9,1.8c0,0.6,0,1.3,0,1.9c0,0.8-0.5,1.3-1.2,1.3c-0.8,0-1.2-0.4-1.3-1.1
		c-0.2-1-0.1-2-0.1-3c0.1-0.9-0.3-1.1-1.1-1c-0.8,0.1-1.6,0-2.5,0c-1,0-1.6-0.5-1.6-1.4c0-0.8,0.6-1.3,1.6-1.3c0.9,0,1.8,0,2.7,0
		c0.7,0,0.8-0.2,0.8-0.8c0-0.9,0-1.8,0-2.7c0-1.1,0.5-1.6,1.3-1.6c0.9,0,1.3,0.5,1.3,1.6c0,0.9,0,1.9,0,2.8c0,0.5,0.1,0.8,0.7,0.7
		c0.4,0,0.9,0,1.4,0c0.6,0,1.2,0,1.8,0c0.7,0.1,1.2,0.4,1.3,1.2c0.1,0.8-0.3,1.3-1.1,1.4C78.5,16.3,77.8,16.3,77.1,16.3z"/>
	<path class="st7" d="M59.9,39.2c0.4-0.1,0.8-0.2,1.2-0.2c3.4,0,6.7,0,10.1,0c0.6,0,1.2,0.1,1.5,0.7c0.5,1-0.2,1.9-1.4,2
		c-2.2,0-4.3,0-6.5,0c-1,0-1.9,0-2.9,0c-0.3,0-0.6,0-0.7,0.3c-0.6,1-1.2,2.1-1.8,3.1c-0.7,1.1-1.4,2.2-2,3.3c-0.3,0.5-0.7,1-1.4,1
		c-0.7,0-1-0.5-1.3-1c-2-3.7-4.1-7.4-6.1-11.1c-0.1-0.2-0.3-0.4-0.4-0.7c-0.6,0.4-0.8,1.1-1.1,1.7c-1.3,2.2-2.5,4.4-3.7,6.5
		c-0.8,1.5-1.9,1.5-2.8,0.1c-0.8-1.3-1.7-2.6-2.5-3.9c-0.3-0.6-0.5-0.4-0.8,0c-0.6,1.1-1.3,2.1-1.9,3.1c-0.3,0.6-0.8,0.8-1.5,0.8
		c-2.6,0-5.1,0-7.7,0c-1,0-1.6-0.5-1.6-1.3c0-0.8,0.6-1.3,1.6-1.3c2.2,0,4.3,0,6.5,0c0.5,0,0.8-0.1,1-0.6c0.8-1.4,1.7-2.8,2.5-4.2
		c0.8-1.3,1.8-1.4,2.7,0c0.9,1.5,1.9,3,2.9,4.6c0.8-1.3,1.5-2.5,2.1-3.7c0.9-1.6,1.8-3.2,2.8-4.8c0.3-0.5,0.6-1,1.3-1
		c0.7,0,1.1,0.5,1.4,1.1c2.1,3.8,4.1,7.6,6.2,11.4c0.1,0.1,0.2,0.3,0.3,0.5C57.5,43.3,58.5,41.1,59.9,39.2z"/>
	<path class="st8" d="M37.1,66c-0.6-1.3-0.7-2.6,0.3-3.9c0.7-0.8,1.5-1.2,2.5-1c2.7,0.4,5.4,0.7,8.1,1c1.3,0.2,2.5,0,3.7-0.4
		c0.9-0.4,1.7-0.9,2-2c1.3,2.1,0.1,5-2.4,5.7c-0.9,0.2-1.7,0.4-2.6,0.4c-1.8,0.1-3.6-0.2-5.4-0.4c-1-0.1-2.1-0.2-3.1-0.4
		c-0.9-0.1-1.6,0-2.3,0.7C37.6,65.8,37.4,66,37.1,66z"/>
	<path class="st10" d="M37.1,66c0.7-0.7,1.4-1.4,2.4-1.3c0.9,0.1,1.8,0.2,2.7,0.3c2,0.3,3.9,0.6,5.9,0.7c0.2,0,0.3,0,0.5,0.2
		c-1-0.2-1.4,0.7-2,1.2c-1.7,1.3-3.4,2.6-5.2,3.7C41.1,70.7,41,70.8,41,71c-0.8-0.2-1.7-0.3-2.5-0.6c-1.6-0.6-2.3-2.3-1.7-3.9
		C36.9,66.4,37,66.2,37.1,66z"/>
</g>
</svg>
