<?xml version="1.0" encoding="utf-8"?>
<!-- Generator: Adobe Illustrator 23.0.0, SVG Export Plug-In . SVG Version: 6.00 Build 0)  -->
<svg version="1.1" id="Layer_1" xmlns="http://www.w3.org/2000/svg" xmlns:xlink="http://www.w3.org/1999/xlink" x="0px" y="0px"
	 width="95.6px" height="102.8px" viewBox="0 0 95.6 102.8" style="enable-background:new 0 0 95.6 102.8;" xml:space="preserve">
<style type="text/css">
	.st0{fill:#EBCC61;}
	.st1{fill:#C5CFD9;}
	.st2{fill:#F5DF7F;}
	.st3{fill:#E6EBF0;}
	.st4{fill:#808A94;}
	.st5{fill:#EBB75E;}
	.st6{fill:#E9A849;}
	.st7{fill:#DB4955;}
	.st8{fill:#D72F3C;}
	.st9{fill:#5E6B75;}
	.st10{fill:#808B95;}
	.st11{fill:#B2E49E;}
	.st12{fill:#94D5A3;}
</style>
<g>
	<path class="st0" d="M1.4,102.2c-1.3-0.9-1.3-2.2-1.2-3.6c0-0.1-0.1-0.1-0.1-0.2c0-0.4-0.2-0.9,0.1-1.1c0.4-0.3,0.7,0.2,1,0.4
		c0.6,0.4,1.3,0.3,1.9,0.3c8.6,0,17.3,0,25.9,0c6.4,0,12.8,0,19.1,0c0.5,0,1.1,0,1.6,0.1c0.4,0.1,0.6,0.3,0.7,0.7
		c0.4,1.3,1.3,2.2,2.5,2.9c0.2,0.1,0.4,0.2,0.4,0.5C36,102.2,18.7,102.2,1.4,102.2z"/>
	<path class="st1" d="M53.3,102.2c-1.6-0.8-2.9-1.9-3.2-3.8c-0.5-1.1-0.4-2.2,0-3.4c0.5-0.1,0.6,0.4,0.7,0.6c0.8,1.7,2.1,2.4,4,2.4
		c12,0,24,0,36,0c1.7,0,2.9-0.8,3.8-2.2c0.1-0.2,0.2-0.4,0.4-0.6c0.1-0.1,0.1-0.1,0.4-0.1c0,1,0.1,2-0.1,3c-0.1,1.6-1,2.8-2.5,3.5
		c-0.3,0.2-0.6,0.3-1,0.5C79,102.2,66.2,102.2,53.3,102.2z"/>
	<path class="st2" d="M50.1,95.1c0,1.1,0,2.3,0,3.4c-15.8,0-31.6,0-47.5,0c-1,0-1.8-0.2-2.4-1.2c0,0.6-0.1,1-0.1,1.4
		C-0.1,98.1,0,97.6,0.1,97c0.1-0.5,0.1-1.1,0.1-1.6c0-30.8,0-61.7,0-92.5C0.2,0.6,0.8,0,3.1,0c17,0,34.1,0,51.1,0
		c0.4,0,0.8-0.1,1.2,0.1c0.2,0.5,0.3,0.9,0.3,1.4c0,3.1,0,6.2,0,9.3c0,0.8-0.4,1.5-0.1,2.3c0.1,0.6,0.1,1.1,0.1,1.7
		c0,2.5,1.6,4,4,4.1c1.9,0,3.8,0,5.8,0c2.5,0,4.9,0,7.4,0c0.5,0,1,0.1,1.5,0.1c0.3,0.2,0.2,0.6,0.2,0.9c0,4.4,0,8.8,0,13.2
		c-0.5,0.4-1.1,0.3-1.6,0.3c-5.8,0-11.6,0-17.3,0c-0.8,0-1.6,0-2.4,0.3c-1.3,0.5-2.3,1.5-2.6,2.9c-0.1,0.4-0.1,0.8-0.4,1.1
		c-0.5,0.3-1.1,0.2-1.7,0.2c-7.6,0-15.1,0-22.7,0c-0.6,0-1.3,0-1.9,0.2c-0.6,0.2-1,0.5-1,1.2c0.1,0.7,0.5,1,1.1,1.1
		c0.5,0.1,0.9,0.1,1.4,0.1c7.7,0,15.3,0,23,0c0.6,0,1.2-0.1,1.7,0.3c0.2,0.3,0.3,0.7,0.3,1c0,2.8,0,5.6,0,8.4c0,0.3,0,0.7-0.2,1
		c-0.5,0.6-1.2,0.5-1.8,0.5c-5.3,0-10.5,0-15.8,0c-2.5,0-5,0-7.5,0c-0.4,0-0.7,0-1.1,0c-0.6,0.1-1.1,0.3-1.1,1c0,0.7,0.4,1,1,1.2
		c0.5,0.1,1,0.1,1.5,0.1c7.6,0,15.3,0,22.9,0c0.6,0,1.2-0.1,1.7,0.3c0.6,1.3,0.2,2.6,0.3,3.9c0.1,1.9,0,3.8,0,5.8c0,0.4,0,0.7-0.2,1
		c-0.5,0.4-1.1,0.3-1.7,0.3c-7.7,0-15.4,0-23.2,0c-0.5,0-0.9,0-1.4,0.1c-0.5,0.1-0.9,0.4-0.9,1c0,0.6,0.3,0.9,0.8,1.1
		c0.5,0.2,1.1,0.1,1.6,0.1c7.7,0,15.4,0,23.1,0c0.6,0,1.2-0.1,1.7,0.3c0.3,0.3,0.3,0.7,0.3,1.1c0,2.8,0,5.6,0,8.3
		c0,0.4,0,0.8-0.2,1.1c-0.5,0.4-1.1,0.3-1.7,0.3c-7.7,0-15.4,0-23,0c-0.4,0-0.9,0-1.3,0c-0.7,0.1-1.2,0.4-1.2,1.1
		c0,0.7,0.5,1.1,1.1,1.2c0.4,0.1,0.9,0,1.3,0c7.7,0,15.4,0,23,0c0.6,0,1.2-0.1,1.7,0.3c0.3,0.4,0.3,1,0.3,1.4c0,3.5,0,7,0,10.6
		C50.4,94.1,50.5,94.7,50.1,95.1z"/>
	<path class="st3" d="M50.1,65.1c0-2.3,0-4.5,0-6.8C50.5,58,51,58,51.5,58c14.2,0,28.3,0,42.5,0c0.5,0,0.9,0,1.3,0.3
		c0,11.5,0,23.1,0,34.6c0,1.5,0.3,2.9,0.2,4.4c0,0.3,0.1,0.7-0.2,0.9c0-0.9,0-1.8,0-2.8c-0.4,0.6-0.8,1.3-1.3,1.8
		c-0.8,0.7-1.7,1.2-2.9,1.2c-12.1,0-24.2,0-36.3,0c-2.4,0-3.6-0.8-4.5-3.2c0-0.1-0.1-0.2-0.2-0.2c0-4.5,0-8.9,0-13.4
		c-0.4-1-0.4-2,0-3c0-3.5,0-7.1,0-10.6C49.7,67.1,49.7,66.1,50.1,65.1z"/>
	<path class="st4" d="M95.2,58.3c-15,0-30.1,0-45.1,0c0-1.3,0-2.5-0.1-3.8c-0.5-1.1-0.4-2.1,0-3.2c0-3.5,0-6.9,0-10.4
		c-0.4-1.1-0.4-2.1,0-3.2c0.2-2.9,2-4.6,4.9-4.6c6.5,0,13,0,19.4,0c5.3,0,10.7,0,16,0c2,0,3.6,0.8,4.5,2.7c0.2,0.4,0.3,0.9,0.3,1.3
		C95.3,44.3,95.3,51.3,95.2,58.3z"/>
	<path class="st5" d="M55.3,13.2c-0.5-0.7,0-1.5,0-2.2c-0.1-3.2,0-6.4,0-9.5c0-0.4,0-0.9,0-1.3c3.4,3.4,6.8,6.8,10.2,10.2
		c1.7,1.7,3.3,3.4,5,5c-0.4,0.4-0.9,0.3-1.3,0.3c-3.2,0-6.4,0-9.6,0c-1.8,0-3.3-0.7-4.1-2.4C55.5,13.2,55.4,13.2,55.3,13.2z"/>
	<path class="st6" d="M55.3,13.2c0-0.2,0-0.4,0-0.8c0.9,2.5,2.6,3.1,4.9,3.1c3.4-0.1,6.8,0,10.3,0c1.2,1.2,2.5,2.4,3.7,3.6
		c-0.3,0.3-0.7,0.2-1,0.2c-4.5,0-9,0-13.5,0c-2.7,0-4.4-1.7-4.4-4.4C55.3,14.3,55.3,13.7,55.3,13.2z"/>
	<path class="st5" d="M38.9,27.4c-4.8,0-9.6,0-14.4,0c-0.6,0-1.2-0.1-1.6-0.6c-0.8-1-0.2-2.4,1.2-2.6c0.3,0,0.5,0,0.8,0
		c9.4,0,18.8,0,28.1,0c0.2,0,0.5,0,0.7,0c1,0.1,1.7,0.8,1.6,1.7c0,0.9-0.7,1.5-1.8,1.5C48.7,27.4,43.8,27.4,38.9,27.4z"/>
	<path class="st5" d="M50.1,37.8c0,1.1,0,2.1,0,3.2c-8.4,0-16.9,0-25.3,0c-0.3,0-0.6,0-0.9,0c-0.8-0.2-1.2-0.6-1.3-1.4
		c-0.1-0.8,0.3-1.3,1-1.5c0.5-0.2,1-0.2,1.6-0.2C33.5,37.8,41.8,37.8,50.1,37.8z"/>
	<path class="st5" d="M50.1,51.4c0,1.1,0,2.1,0,3.2c-8.5,0-17,0-25.4,0c-0.4,0-0.7,0.1-1.1-0.1c-0.8-0.3-1.1-1-1-1.8
		c0.1-0.8,0.6-1.1,1.4-1.1c0.3,0,0.5,0,0.8,0c8,0,16,0,24,0C49.3,51.5,49.7,51.6,50.1,51.4z"/>
	<path class="st5" d="M50.1,78.7c0,1,0,2,0,3c-8.6,0-17.2,0-25.8,0c-1.1,0-1.7-0.6-1.7-1.5c0-0.9,0.6-1.5,1.7-1.5
		C32.9,78.7,41.5,78.7,50.1,78.7z"/>
	<path class="st5" d="M50.1,65.1c0,1,0,2,0,3c-8.6,0-17.2,0-25.7,0c-0.8,0-1.4-0.3-1.7-1.1c-0.2-0.7,0-1.2,0.6-1.7
		c0.3-0.3,0.7-0.2,1-0.2C32.9,65.1,41.5,65.1,50.1,65.1z"/>
	<path class="st5" d="M13.9,27.4c-1,0-1.9,0-2.9,0c-0.9,0-1.5-0.5-1.6-1.3c-0.1-0.9,0.4-1.4,1.2-1.7c0.3-0.1,0.6-0.2,1-0.2
		c1.7,0,3.3,0,5,0c1.4,0,2,0.5,2,1.6c0,1-0.6,1.5-2,1.5C15.7,27.4,14.8,27.4,13.9,27.4z"/>
	<path class="st5" d="M14,41c-1,0-1.9,0-2.9,0c-1,0-1.6-0.6-1.7-1.4c0-0.9,0.4-1.4,1.3-1.7c0.8-0.2,1.5-0.1,2.3-0.1
		c1.5,0,2.9-0.2,4.4,0.1c1,0.2,1.4,0.8,1.3,1.8c-0.1,0.9-0.8,1.3-1.6,1.3C16,41,15,41,14,41z"/>
	<path class="st5" d="M14.1,68.1c-1,0-2,0-3,0c-1,0-1.7-0.6-1.7-1.5c0-0.9,0.7-1.5,1.7-1.5c2,0,3.9,0,5.9,0c1.1,0,1.6,0.4,1.6,1.4
		c0,1-0.6,1.5-1.6,1.6C16,68.1,15,68.1,14.1,68.1z"/>
	<path class="st5" d="M14,78.7c1.1,0,2.1,0,3.2,0c1,0,1.4,0.5,1.4,1.5c0,0.8-0.6,1.4-1.4,1.5c-2.1,0-4.1,0-6.2,0
		c-1,0-1.6-0.7-1.6-1.6c0-0.8,0.7-1.4,1.6-1.4C12,78.7,13,78.7,14,78.7z"/>
	<path class="st5" d="M14,51.5c1,0,2,0,3,0c0.9,0,1.5,0.4,1.5,1.3c0.1,0.9-0.5,1.6-1.3,1.7c-2.2,0.1-4.4,0.1-6.6,0
		c-0.8,0-1.4-0.9-1.3-1.6c0.2-0.8,0.6-1.4,1.5-1.4C12,51.5,13,51.5,14,51.5z"/>
	<path class="st7" d="M81,90.1c-0.3-0.7,0-1.4,0-2.2c0-3.4,0-6.8,0-10.2c0-1.8,0.8-2.6,2.6-2.6c0.6,0,1.3,0,1.9,0
		c1.5,0.1,2.2,0.9,2.2,2.4c0,3.3,0,6.6,0,10c0,0.9,0.3,1.7,0,2.6c-0.2-0.2-0.3,0-0.4,0.1c-0.2,0.3-0.5,0.6-0.9,0.6
		c-1.8,0.3-3.6,0.8-5.1-0.8C81.2,90,81.1,90.1,81,90.1z"/>
	<path class="st8" d="M81,90.1c0-0.2,0.1-0.3,0.1-0.5c1.7,1.8,4.8,1.8,6.5,0c0,0.2,0.1,0.3,0.1,0.5c0,0.8,0,1.6,0,2.4
		c-0.1,1.1-0.8,1.9-1.9,2c-0.9,0.1-1.9,0.1-2.8,0c-1.1-0.1-1.9-0.8-1.9-2C81,91.7,81,90.9,81,90.1z"/>
	<path class="st9" d="M64.7,64.5c0,1,0,1.9,0,2.9c0,1.1-0.7,1.9-1.9,1.9c-1,0-1.9,0-2.9,0c-0.9,0-1.6-0.4-1.8-1.4
		c-0.1-0.9,0-1.8-0.1-2.8c0-0.5,0.2-0.6,0.6-0.4c0.9,0.6,2,0.6,3,0.6c0.9,0,1.7-0.1,2.4-0.7C64.2,64.6,64.4,64.4,64.7,64.5z"/>
	<path class="st9" d="M76.1,67.9c-0.2,0.9-0.9,1.4-1.8,1.4c-1,0-1.9,0-2.9,0c-1.2,0-1.9-0.7-1.9-1.9c0-1,0-1.9,0-2.9
		c0.1,0,0.3,0,0.4,0.1c1.8,1.3,3.7,1.1,5.6,0.3c0.5-0.2,0.8-0.3,0.7,0.4C76.1,66.1,76.3,67,76.1,67.9z"/>
	<path class="st9" d="M64.7,77.1c0,1,0,1.9,0,2.9c0,1.2-0.7,1.9-1.9,1.9c-1,0-1.9,0-2.9,0c-0.9,0-1.6-0.4-1.8-1.4
		c-0.1-0.9,0-1.8-0.1-2.8c0-0.5,0.2-0.6,0.6-0.4c2,1,4,1,5.9-0.3C64.5,77.1,64.6,77.1,64.7,77.1z"/>
	<path class="st9" d="M76.1,80.5c-0.2,0.9-0.9,1.4-1.8,1.4c-1,0-1.9,0-2.9,0c-1.2,0-1.9-0.7-1.9-1.9c0-1,0-1.9,0-2.9
		c0.1,0,0.3,0,0.4,0.1c1.8,1.2,3.7,1.1,5.6,0.3c0.5-0.2,0.7-0.2,0.7,0.4C76.1,78.7,76.3,79.6,76.1,80.5z"/>
	<path class="st9" d="M64.7,89.7c0,1,0,1.9,0,2.9c0,1.2-0.7,1.9-1.9,1.9c-1,0-1.9,0-2.9,0c-0.9,0-1.5-0.4-1.8-1.2
		c-0.2-1,0-2-0.1-2.9c0-0.5,0.3-0.6,0.6-0.3c1.3,1,2.8,0.5,4.2,0.6C63.6,90.6,63.9,89.7,64.7,89.7z"/>
	<path class="st9" d="M87.7,64.5c0,1,0.1,1.9,0,2.9c0,1.2-0.7,1.9-1.9,1.9c-1,0-1.9,0-2.9,0c-1.1,0-1.7-0.6-1.9-1.8
		c-0.1-1,0-2-0.1-2.9c0.2-0.1,0.3-0.1,0.4,0c1.3,1.1,2.9,0.9,4.4,0.8C86.6,65.3,87,64.6,87.7,64.5z"/>
	<path class="st9" d="M76.1,93.1c-0.2,1-0.9,1.4-1.8,1.4c-1,0-2,0-3,0c-1.1,0-1.8-0.7-1.8-1.8c0-1,0-2,0-3c1.1,0.7,2.3,1,3.6,0.9
		c0.8-0.1,1.6,0,2.4-0.6c0.5-0.4,0.7-0.2,0.7,0.4C76.1,91.3,76.3,92.2,76.1,93.1z"/>
	<path class="st10" d="M76.1,67.9c0-1,0-2,0-3.3c-1.1,1.1-2.2,1-3.4,1.1c-1.3,0.1-2.3-0.2-3.2-1.2c0.1-1.2,0.6-1.8,1.6-1.9
		c1.1-0.1,2.3-0.1,3.4,0c0.9,0.1,1.5,0.6,1.6,1.5C76.3,65.4,76.4,66.7,76.1,67.9z"/>
	<path class="st10" d="M64.7,77.1c-1.5,1.5-4.7,1.7-6.6,0.2c0,1.2,0,2.2,0,3.2c-0.3-1.3-0.2-2.6-0.1-3.8c0.1-0.9,0.7-1.4,1.6-1.5
		c1.1-0.1,2.2-0.2,3.4,0C64.1,75.4,64.5,76,64.7,77.1z"/>
	<path class="st10" d="M76.1,80.5c0-1,0-2,0-3.3c-1,1.3-2.3,1.1-3.4,1.1c-1.2,0-2.4-0.1-3.2-1.2c0.1-1.2,0.6-1.7,1.7-1.9
		c1.1-0.2,2.2-0.1,3.3,0c0.9,0.1,1.6,0.6,1.7,1.5C76.3,78,76.4,79.3,76.1,80.5z"/>
	<path class="st10" d="M64.7,64.5c-1.8,1.5-4.7,1.7-6.6,0.2c0,1.2,0,2.2,0,3.2c-0.3-1.3-0.3-2.6-0.1-3.8c0.1-1,0.9-1.5,1.8-1.5
		c1-0.1,2-0.1,3,0C64,62.7,64.5,63.3,64.7,64.5z"/>
	<path class="st10" d="M87.7,64.5c-0.6,0.9-1.6,1.3-2.6,1.2c-0.8,0-1.6,0.1-2.5-0.1c-0.6-0.2-1-0.4-1.5-1.1c0,1.2,0,2.1,0,3.1
		c-0.2-1.1-0.2-2.2,0-3.2c0.2-1.1,0.9-1.7,2.1-1.7c0.9,0,1.7,0,2.6,0C87,62.6,87.6,63.2,87.7,64.5z"/>
	<path class="st4" d="M64.7,89.7c-1.4,1.5-4.5,1.7-6.6,0.3c0,1.1,0,2.2,0,3.3c-0.4-1.4-0.3-2.7,0-4.1c0.2-0.9,0.8-1.3,1.7-1.3
		c1,0,2,0,3,0C63.9,87.9,64.5,88.5,64.7,89.7z"/>
	<path class="st4" d="M76.1,93.1c0-1,0-2,0-3.4c-1,1.4-2.3,1.1-3.4,1.1c-1.2,0-2.4,0-3.2-1.2c0.1-1.2,0.7-1.8,1.9-1.8
		c1,0,1.9,0,2.9,0c1.1,0,1.8,0.6,1.9,1.5C76.4,90.6,76.4,91.9,76.1,93.1z"/>
	<path class="st11" d="M58.1,41.9c0.3-1.1,0.9-1.6,2.2-1.6c6.1,0,12.3,0,18.4,0c2.3,0,4.6,0,6.9,0c1.3,0,2,0.7,2.1,2
		c0.2,1.9,0.1,3.8,0.1,5.8c0,0.7-0.5,1.1-1.1,1.4c-0.7,0.3-1.3,0.3-2,0.3c-7.8,0-15.7,0-23.5,0c-0.4,0-0.7,0-1.1,0
		C58.6,49.6,58,49,58,47.6C58,45.7,57.9,43.8,58.1,41.9z"/>
	<path class="st12" d="M58.1,41.9c0,1.7,0,3.3,0,5c0,2,0.6,2.6,2.6,2.6c4.6,0,9.1,0,13.7,0c3.6,0,7.1,0,10.7,0
		c1.9,0,2.6-0.7,2.6-2.6c0-1.5,0-3.1,0-4.6c0.3,0.3,0.2,0.7,0.2,1.1c0,2.6,0.1,5.2-0.2,7.9c-0.1,1.1-0.8,1.9-1.9,1.9
		c-8.6,0-17.2,0-25.7,0c-1.2,0-2.1-0.7-2.1-2c-0.1-3,0-5.9,0-8.9C57.9,42.2,58,42.1,58.1,41.9z"/>
</g>
</svg>
