<?xml version="1.0" encoding="utf-8"?>
<!-- Generator: Adobe Illustrator 23.0.0, SVG Export Plug-In . SVG Version: 6.00 Build 0)  -->
<svg version="1.1" id="Layer_1" xmlns="http://www.w3.org/2000/svg" xmlns:xlink="http://www.w3.org/1999/xlink" x="0px" y="0px"
	 width="91.8px" height="86.4px" viewBox="0 0 91.8 86.4" style="enable-background:new 0 0 91.8 86.4;" xml:space="preserve">
<style type="text/css">
	.st0{fill:#FA9927;}
	.st1{fill:#FBB34D;}
	.st2{fill:#FA9827;}
	.st3{fill:#F88824;}
	.st4{fill:#FED496;}
	.st5{fill:#756F6F;}
	.st6{fill:#5B5555;}
	.st7{fill:#FBC06D;}
</style>
<g>
	<path class="st0" d="M24.1,64.3c-1.3,2.5-3.2,4-6,4.3c-1.7,0.1-3.3,0-5.1,0.1c0.3-0.5,0.7-0.6,1.1-0.8c1.3-0.5,2.4-1.5,3.3-2.6
		c0.1-0.2,0.4-0.4,0.3-0.6c-0.1-0.3-0.4-0.2-0.7-0.2c-4.5,0-9,0-13.4,0c-0.5,0-1,0.1-1.4-0.3c-0.4-0.5-0.3-1.2-0.7-1.7
		c0-0.3,0-0.7,0-1c0.3-0.3,0.6-0.3,1-0.3c5.2,0,10.5,0,15.7,0c0.2,0,0.5,0,0.7,0.1c0.1,0,0.2,0.1,0.3,0.2c0.2,0.6,0,1.1-0.1,1.7
		c-0.2,0.7,0.1,0.9,0.7,0.9c1.2,0,2.3,0,3.5,0C23.5,64.1,23.9,64,24.1,64.3z"/>
	<path class="st1" d="M18.9,61.6c-5.9,0-11.7,0-17.6,0c0-0.6,0-1.3,0-1.9c0.4-0.6,0.8-1.1,1.5-1.4C3.2,58.1,3.5,58,3.8,58
		c4.5,0.1,9,0,13.6,0.1C18.9,58.7,19.6,60.2,18.9,61.6z"/>
	<path class="st2" d="M88.1,58.3c0.7,0.2,1.1,0.8,1.5,1.4c0,0.6,0,1.3,0,1.9c-0.2,0.2-0.5,0.3-0.7,0.3c-1.7,0-3.4,0.1-5.1-0.1
		c-0.1,0-0.2-0.1-0.3-0.1c-0.1-0.2-0.2-0.4-0.2-0.6c0-1-0.2-1.9-1.1-2.5c-0.2-0.1-0.2-0.3,0.1-0.5c1.7-0.2,3.4-0.1,5.1-0.1
		C87.7,58,87.9,58.1,88.1,58.3z"/>
	<path class="st3" d="M83.6,61.6c2,0,4,0,6,0c0,0.3,0,0.7,0,1c-0.3,0.5-0.3,1.2-0.7,1.7c-0.1,0.1-0.2,0.2-0.4,0.2
		c-1.7,0.1-3.4,0.1-5,0c-0.4,0-0.7-0.3-0.6-0.7C83.1,63.1,83.1,62.3,83.6,61.6z"/>
	<path class="st4" d="M63.2,80c1.7,0,3.3-0.1,5-0.1c0.3,0,0.6-0.1,0.9,0.1c-0.5,0.4-1,0.2-1.6,0.3c-0.5,0-1.1,0-1.7,0
		c0.6,0.6,0.7,1.3,0.7,2c0,0.8,0,1.5,0,2.3c-0.1,0.9-0.5,1.6-1.4,1.8c-3.5,0-6.9,0-10.4,0c-10.7,0-21.4,0-32.1,0
		c-1.7,0-2.4-0.6-2.4-2.4c0-0.9-0.1-1.7,0.1-2.6c0.2-1,0.8-1.4,1.8-1.4c1.6,0,3.3,0,4.9,0c0.6,0,0.8-0.2,0.8-0.8
		c0-0.9-0.2-1.9,0.1-2.8c0.4,0.3,0.3,0.7,0.3,1c0,0.5,0,1,0,1.5c0,0.5,0.2,0.7,0.7,0.7c0.3,0,0.7,0,1,0c8.4,0,16.8,0,25.2,0
		c2.3,0,4.6,0.1,7,0C62.5,79.8,62.9,79.7,63.2,80z"/>
	<path class="st1" d="M42.1,47.9c0.3-2.5,0.2-4.9,0.3-7.4c0.2-5.6,0.3-11.2,0.4-16.8c0.1-2.1,0.2-4.2,0.1-6.4
		c-0.3-1.1-0.1-2.3,0.1-3.4c0.2-0.2,0.5-0.2,0.7-0.1c1.2,0.3,2.3,0.3,3.5,0c0.3-0.1,0.5-0.1,0.7,0.1c0.2,1.1,0.4,2.3,0.1,3.4
		c0,3.9,0.2,7.9,0.3,11.8c0.1,2.3,0.1,4.6,0.2,7c0.1,3.6,0.2,7.1,0.2,10.7c0,0.4,0.1,0.7,0.1,1.1c-0.3,0.1-0.5-0.1-0.8-0.2
		c-1.5-0.8-3-0.9-4.6-0.3C43,47.5,42.7,48,42.1,47.9z"/>
	<path class="st4" d="M88.1,58.3c-1.9,0-3.9,0-5.8,0c-0.3,0.3-0.7,0.3-1.1,0.3c-4.1,0-8.1,0-12.2,0c-0.4,0-0.9,0.1-1.2-0.3
		c0.7-2.7,1.3-5.3,2-8c1.6-6.1,3.2-12.2,4.8-18.3c0.7-2.7,1.4-5.3,2.1-8c0.9-0.1,1.9-0.1,2.8-0.1c0,1.2,0.5,2.4,0.7,3.5
		c1.6,6.1,3.2,12.2,4.7,18.3C85.9,49.9,87,54.1,88.1,58.3z"/>
	<path class="st4" d="M17.6,58.3c-4.9,0-9.8,0-14.7,0C5.1,49.9,7.3,41.4,9.5,33c0.7-2.7,1.4-5.5,2.1-8.2c0.1-0.3,0.1-0.6,0.1-0.9
		c0.9,0,1.9,0,2.8,0.1c2.2,8.5,4.4,16.9,6.6,25.4c0.7,2.7,1.4,5.5,2.1,8.2c0.1,0.2,0.1,0.4,0.1,0.7c-0.1,0.2-0.3,0.3-0.4,0.3
		C21.1,58.5,19.3,58.8,17.6,58.3z"/>
	<path class="st5" d="M63.2,80c-4.5,0-9,0-13.4,0c-7,0-14,0-21,0c-0.7,0-1-0.2-0.9-0.9c0.1-0.9,0-1.8,0-2.7c0.4-1.5,1.3-2.3,2.9-2.3
		c3.5,0,7.1,0,10.6,0c0.3-0.3,0.6-0.2,1-0.2c2.1,0,4.2,0,6.3,0c0.3,0,0.7,0,1,0.2c2.4,0,4.7,0,7.1,0.1c1.4,0.3,2.2,1.1,2.3,2.6
		c0.1,0.7,0,1.4,0,2.1c0,0.5,0.2,0.8,0.8,0.8c0.7,0,1.5,0,2.2,0c0.6,0,0.8-0.3,0.8-0.8c0-0.5,0-1,0-1.5c0-0.3,0-0.7,0.3-1
		C63.4,77.5,63.2,78.8,63.2,80z"/>
	<path class="st6" d="M43.1,14c-0.1,1.1-0.1,2.3-0.2,3.4c-1.3,0-2.6,0-4,0c-0.9,0-1.5,0.3-2.2,0.8c-6,5.2-15,3.3-18.3-4
		c-0.8-1.8-2.2-2.1-3.9-2c-0.2-0.2-0.3-0.4-0.3-0.6c0-1.1,0-2.2,0-3.2c0-0.2,0.1-0.5,0.3-0.6c1.4,0,2.9,0,4.2,0.6
		c1.7,0.8,2.8,2,3.6,3.7c1.8,4.2,5.4,5.1,9.2,4.1c0.9-0.2,1.7-0.7,2.4-1.4c1.4-1.3,3.1-1.9,5-1.9c1.4,0,2.8,0,4.2,0
		C43.4,13.3,43.3,13.6,43.1,14z"/>
	<path class="st6" d="M48.1,17.4c-0.1-1.1-0.1-2.3-0.2-3.4c-0.2-0.4-0.3-0.7,0-1c1.9,0.1,3.7-0.1,5.6,0.1c1.4,0.2,2.5,0.8,3.6,1.7
		c3.5,3.1,9,2.2,11.3-1.9c0.1-0.3,0.3-0.6,0.4-0.8c1.3-2.8,3.5-4.1,6.5-4.2c0.4,0,0.8,0,1.2,0c0.2,0.2,0.3,0.4,0.3,0.6
		c0,1.1,0,2.2,0,3.2c0,0.2-0.1,0.5-0.3,0.6c-0.4,0-0.9,0-1.3,0c-1.1,0-1.9,0.5-2.3,1.5c-0.3,0.6-0.6,1.2-0.9,1.8
		c-3.7,6.2-12.3,7.5-17.7,2.8c-0.7-0.6-1.4-0.9-2.3-0.9C50.7,17.4,49.4,17.4,48.1,17.4z"/>
	<path class="st2" d="M83.6,61.6c0.1,0.7-0.1,1.4-0.4,2c-0.2,0.6-0.1,0.8,0.5,0.8c1.7,0,3.4,0,5.2,0c-1.2,2.6-3.2,4-6,4.3
		c-1.7,0.2-3.4,0-5.2,0.1c0.2-0.6,0.6-0.6,0.9-0.7c1.4-0.5,2.5-1.3,3.4-2.6c0.1-0.2,0.4-0.4,0.3-0.7c-0.1-0.3-0.5-0.2-0.7-0.2
		c-3.7,0-7.4,0-11.1,0c-0.9,0-1.7,0-2.6,0c-0.4,0-0.7,0-1.1-0.2c-0.5-0.9-0.7-1.8-0.7-2.8c0.3-0.3,0.7-0.3,1.1-0.3
		c5.1,0,10.1,0,15.2,0C82.8,61.3,83.2,61.3,83.6,61.6L83.6,61.6z"/>
	<path class="st1" d="M49.6,74.1c-2.7,0-5.5,0-8.2,0c0.1-2.9,0.2-5.9,0.2-8.8c0-0.3,0-0.6,0.1-0.8c0.3,1.1,1.1,1.2,2.1,1.2
		c1.2-0.1,2.3-0.1,3.5,0c1,0.1,1.8,0,2.1-1.2c0.3,0.7,0.1,1.4,0.1,2.1C49.5,69.1,49.5,71.6,49.6,74.1z"/>
	<path class="st4" d="M41.7,61.9c-0.8,0-1.5,0-2.3,0c-1,0-1.7-0.7-1.8-1.7c0-0.7,0-1.5,0-2.2c0-1.2,0.7-1.8,1.8-1.8
		c0.5,0,0.9,0,1.4,0c0.3-0.2,0.6-0.2,1-0.2c1.7,0,3.5,0,5.2,0c1.4,0,2.1,0.7,2.2,2.1c0,0.8,0.1,1.6,0,2.3c-0.1,1-0.8,1.7-1.7,1.7
		c-1.7,0.1-3.4,0-5.2,0C42.1,62.1,41.8,62.1,41.7,61.9z"/>
	<path class="st1" d="M83.6,61.6c-5.8,0-11.6,0-17.4,0c-0.3-1.7,0.1-2.6,1.6-3.3c4.8,0,9.7,0,14.5,0.1C83.7,59,83.6,60.3,83.6,61.6z
		"/>
	<path class="st1" d="M66.8,64.3c5.2,0,10.3,0,15.5,0c0.6,0,0.6,0.2,0.4,0.7c-1,1.7-2.5,2.8-4.7,3.7c1.7,0,3.3,0,5,0
		c-0.3,0.2-0.6,0.1-0.9,0.1c-3,0-6.1,0-9.1-0.2C70.1,68.4,68,66.9,66.8,64.3z"/>
	<path class="st1" d="M2.1,64.3c5.3,0,10.7,0,16.2,0c-1.1,2.2-2.8,3.5-5,4.3c1.6,0,3.2,0,4.8,0c-0.3,0.2-0.6,0.1-0.9,0.1
		c-2.9,0-5.9,0-8.8-0.1C5.4,68.5,3.4,67,2.1,64.3z"/>
	<path class="st2" d="M42.1,47.9c0.5-0.2,0.8-0.6,1.4-0.7c0.9,0.1,1.4,0.7,2,1.2c1.8,1.9,2.2,4.6,1,6.9c-0.2,0.3-0.3,0.7-0.8,0.7
		c-1.6,0-3.2,0.1-4.8-0.1C39,53,39.4,50.1,42.1,47.9z"/>
	<path class="st3" d="M45.8,56c1-1.7,1.4-3.5,0.7-5.4c-0.6-1.6-1.7-2.6-3.1-3.4c2-0.9,3.8-0.5,5.5,0.7c2.6,2.1,3.1,4.9,1.3,8.1
		c-0.3,0.3-0.6,0.3-1,0.3C48.1,56.2,47,56.1,45.8,56z"/>
	<path class="st4" d="M76.5,12.3c0-1.5,0-3,0-4.4c0-0.4,0-0.9,0-1.3c0.1-0.7,0.7-1.3,1.3-1.3c0.7,0,1.3,0.6,1.3,1.3
		c0,0.4-0.1,0.9,0.1,1.3c0.1,1.5,0.3,3-0.1,4.4c0,1.8,0,3.6-0.1,5.4c-0.9,0.2-1.7,0.2-2.6,0.1C76.5,15.9,76.5,14.1,76.5,12.3z"/>
	<path class="st4" d="M14.5,7.8c0,1.5,0,3,0,4.4c0,1.8,0,3.7,0,5.5c-0.9,0.1-1.7,0-2.6-0.1c0-1.8,0-3.6-0.1-5.4
		c-0.3-0.3-0.2-0.8-0.2-1.1c0-1.1-0.1-2.2,0.1-3.3C12,7.4,11.8,7,11.9,6.6c0.1-0.8,0.6-1.3,1.3-1.3c0.6,0,1.2,0.6,1.3,1.3
		C14.5,7,14.5,7.4,14.5,7.8z"/>
	<path class="st7" d="M45.8,56c1.5,0,3,0,4.4,0c0.6,0.1,1.2,0,1.8,0.1c0.8,0.3,1.3,0.8,1.3,1.7c0,0.8,0,1.6,0,2.3
		c0,0.9-0.6,1.5-1.5,1.7c-0.9,0.2-1.8,0-2.7,0.1c-0.3,0.3-0.6,0.3-1,0.3c-1.9,0-3.8,0-5.6,0c-0.3,0-0.7,0-1-0.3c0-0.1,0-0.1-0.1-0.2
		c1.8,0,3.7,0,5.5,0c1.2,0,1.8-0.6,1.8-1.8c0-0.7,0-1.4,0-2.1c0-1.2-0.6-1.8-1.8-1.8c-2.1,0-4.2,0-6.4,0c0,0,0-0.1,0-0.1
		C42.5,56.1,44.2,56.1,45.8,56z"/>
	<path class="st2" d="M41.7,62.1c2.5,0,5,0,7.6,0c0,0.8,0,1.6,0,2.4c-0.1,1.4-0.1,1.4-1.5,1.4c-1.7,0-3.3-0.1-5,0
		c-0.9,0-1.2-0.2-1.1-1.1c0-0.1,0-0.2,0-0.3C41.7,63.7,41.7,62.9,41.7,62.1z"/>
	<path class="st7" d="M65.1,86.4c0.9-0.6,1.3-1.4,1.2-2.5c0-0.5,0-1,0-1.5c0.1-0.9-0.1-1.7-0.9-2.5c1.2,0,2.4,0,3.7,0
		c1,0.2,1.6,0.8,1.7,1.7c0.1,0.9,0,1.9,0,2.8c-0.1,1.1-0.8,1.8-2,1.8C67.6,86.4,66.4,86.4,65.1,86.4z"/>
	<path class="st6" d="M63.1,76.3c0,0.9,0,1.8,0,2.7c0,0.5-0.1,0.8-0.7,0.8c-1,0-2,0-3,0c-0.4,0-0.6-0.2-0.6-0.6c0-0.6,0-1.2,0-1.8
		c0.1-1.6-0.6-2.7-2.1-3.3c1.3,0,2.6,0,3.9,0C61.9,74.2,62.8,75,63.1,76.3z"/>
	<path class="st0" d="M11.9,17.6c0.9-0.2,1.7-0.2,2.6,0.1c2.3,1,3.1,4.5,0,6.2c-0.9,0.3-1.9,0.3-2.8-0.1c-0.1-0.1-0.2-0.1-0.3-0.2
		c-0.1-0.4,0.2-0.5,0.4-0.8c1.3-1.2,1.4-2.9,0.4-4.3c-0.2-0.2-0.5-0.4-0.4-0.8C11.9,17.7,11.9,17.7,11.9,17.6z"/>
	<path class="st2" d="M76.5,17.8c0.8-0.4,1.7-0.3,2.6-0.1c1,0.6,1.9,1.4,2.1,2.7c0.2,1.6-0.4,2.7-1.9,3.5c-0.9,0.4-1.8,0.4-2.8,0.1
		c-0.2-0.1-0.3-0.2-0.5-0.4c-0.1-0.4,0.2-0.5,0.4-0.7c1.5-1.4,1.6-2.9,0.4-4.5C76.6,18.3,76.4,18.1,76.5,17.8L76.5,17.8z"/>
	<path class="st2" d="M17.6,58.3c1.9,0,3.8,0,5.7-0.1c1.5,0.5,2,1.7,1.5,4c-0.4-0.4-0.8-0.4-1.4-0.4c-1.1,0-2.2,0-3.4,0
		c-0.4,0-0.8,0-1.1-0.3c0,0,0,0,0,0C19.1,60.2,18.8,59.1,17.6,58.3z"/>
	<path class="st3" d="M19,61.6c1.7,0,3.4,0,5.1,0c0.5,0,0.8,0.1,0.7,0.7c0,0.8-0.1,1.5-0.7,2.1c-1.7,0-3.4,0-5,0
		c-0.6,0-0.7-0.2-0.6-0.8C18.7,62.9,18.8,62.2,19,61.6z"/>
	<path class="st1" d="M76.5,17.8c0.4,0.5,0.9,1,1.2,1.7c0.4,1.4,0,2.9-1.2,3.8c-0.2,0.1-0.4,0.2-0.4,0.4C73.8,22,74,19.1,76.5,17.8z
		"/>
	<path class="st7" d="M43.8,2.6c2-0.8,4.1-0.2,5.3,1.5c1.2,1.8,1,4.1-0.5,5.6c-0.5,0.5-0.6,1-0.6,1.6c-0.4-0.3-0.7-0.4-1.2-0.3
		c-0.7,0.2-1.4,0.2-2.1,0.1c-0.4-0.1-0.9-0.1-1-0.6c0.1-0.3,0.4-0.4,0.6-0.6c2.1-1.6,2.2-4.6,0.2-6.4C44.1,3.2,43.7,3.1,43.8,2.6z"
		/>
	<path class="st4" d="M43.8,2.6c0.5,0.6,1.2,1,1.6,1.7c1.3,2.2,0.5,5-1.8,6.1c-0.1,0.2-0.3,0.2-0.5,0.2c0-0.3-0.2-0.5-0.4-0.7
		C40.3,7.6,40.8,4.1,43.8,2.6z"/>
	<path class="st6" d="M79.1,12.3c0.1-1.5-0.1-3,0.1-4.4c0.6,0,1.3,0,1.9,0c1.4,0.1,2.3,1,2.3,2.3c0,1.2-1,2.1-2.3,2.2
		C80.5,12.3,79.8,12.3,79.1,12.3z"/>
	<path class="st6" d="M11.7,7.8c0.3,1.5,0,3,0.1,4.4c-0.7,0-1.4,0-2.1,0c-1.3,0-2.2-0.9-2.2-2.2c0-1.2,0.8-2.2,2.1-2.3
		C10.3,7.8,11,7.8,11.7,7.8z"/>
	<path class="st0" d="M43.1,10.6c0.1-0.1,0.3-0.2,0.5-0.2c1,0.8,2.1,0.5,3.1,0.3c0.3-0.1,0.6-0.2,0.9-0.3c0.1,0.2,0.2,0.5,0.2,0.8
		c0,0.6,0,1.1,0.1,1.7c0,0.3,0,0.7,0,1c-1.6,0.5-3.2,0.5-4.8,0c0-0.3,0-0.7,0-1C43.1,12.2,43.1,11.4,43.1,10.6z"/>
	<path class="st1" d="M11.9,17.8c1.1,1.2,1.6,2.5,1,4.1c-0.3,0.8-1,1.2-1.5,1.8C9.1,21.9,9.3,19.1,11.9,17.8z"/>
</g>
</svg>
