<?xml version="1.0" encoding="utf-8"?>
<!-- Generator: Adobe Illustrator 23.0.0, SVG Export Plug-In . SVG Version: 6.00 Build 0)  -->
<svg version="1.1" id="Layer_1" xmlns="http://www.w3.org/2000/svg" xmlns:xlink="http://www.w3.org/1999/xlink" x="0px" y="0px"
	 width="107.7px" height="102.5px" viewBox="0 0 107.7 102.5" style="enable-background:new 0 0 107.7 102.5;" xml:space="preserve"
	>
<style type="text/css">
	.st0{fill:#797F81;}
	.st1{fill:#979DA4;}
	.st2{fill:#5C5E5F;}
	.st3{fill:#BDDCFC;}
	.st4{fill:#ADD3FB;}
	.st5{fill:#E9496D;}
	.st6{fill:#F2F8FB;}
	.st7{fill:#E3F1F8;}
</style>
<g>
	<path class="st0" d="M39.4,77.4c-10.5,0-21,0-31.5,0c-5,0-7.9-2.9-7.9-7.8C0,49.6,0,29.8,0,9.9C0,4.9,2.9,2,7.9,2
		c30.6,0,61.3,0,91.9,0c4.9,0,7.9,2.9,7.9,7.9c0,19.9,0,39.8,0,59.6c0,4.9-2.9,7.8-7.9,7.8c-10.5,0-21,0-31.5,0
		c-0.4,0.4-1,0.3-1.5,0.3c-8.6,0-17.3,0-25.9,0C40.4,77.7,39.8,77.8,39.4,77.4z"/>
	<path class="st0" d="M32.5,93.2c1.8-4.1,3.6-8.2,5.5-12.3c0.4-0.4,1-0.4,1.5-0.4c9.6,0,19.2,0,28.8,0c0.5,0,1.1,0,1.5,0.4
		c1.8,4.1,3.6,8.2,5.5,12.3c0,0.5-0.5,0.5-0.8,0.6c-0.4,0.1-0.7,0-1.1,0c-13,0-25.9,0-38.9,0C33.7,93.9,32.9,94.2,32.5,93.2z"/>
	<path class="st0" d="M83.5,97.5c1,1.4,0.8,3,0.8,4.5c0,0.3-0.2,0.5-0.5,0.5c-0.2,0-0.4,0-0.6,0c-18.4,0-36.9,0-55.3,0
		c-0.3,0-0.5,0-0.8,0c-0.1-1.6,0.8-2.7,1.8-3.6c1.4-1.3,3.2-2.1,5.2-2.1c15.4,0,30.9,0,46.3,0C81.6,96.8,82.6,96.9,83.5,97.5z"/>
	<path class="st1" d="M83.5,97.5c-3.6-0.8-7.2-0.4-10.8-0.4c-12.6,0-25.2,0.1-37.7-0.1c-3.5,0-6.8,1.8-7.8,5.4c-0.6,0-1.2,0-1.8,0
		c-2.1,0-2.1,0-2-2c0.1-3.7,3.2-6.8,7-6.9c0.7,0,1.5,0.3,2.2-0.3c0.3,0.4,0.7,0.3,1.1,0.3c13.5,0,27,0,40.4,0c0.4,0,0.8,0.1,1.1-0.3
		c0.7,0.5,1.4,0.2,2.1,0.3C80.1,93.8,82.3,94.9,83.5,97.5z"/>
	<path class="st2" d="M69.7,80.9c-10.6,0-21.2,0-31.8,0c0.5-1.2,1-2.4,1.5-3.6c9.6,0,19.2,0,28.9,0C68.8,78.6,69.2,79.8,69.7,80.9z"
		/>
	<path class="st3" d="M100.5,12.8c0,0.3,0,0.6,0,0.9c0,18.5,0,36.9,0,55.4c0,0.8-0.1,1.2-1.1,1.2c-29.3,0-58.7,0-88,0
		c-0.2,0-0.4,0-0.7,0c-0.5-0.6-0.4-1.4-0.4-2.2c0-16.4,0-32.7,0-49.1c0-1.6,0-3.2,0-4.8c0-1.4,0.3-1.6,1.7-1.7c0.3,0,0.7,0,1,0
		c28.4,0,56.7,0,85.1,0C99,12.4,99.8,12.2,100.5,12.8z"/>
	<path class="st4" d="M100.5,12.8c-29.5,0-59,0-88.5,0c-1,0-1.3,0.2-1.3,1.2c0,18.7,0,37.4,0,56.2c-0.9,0-1.9,0-2.8,0
		c-0.7,0-0.9-0.3-0.8-0.9c0-0.1,0-0.3,0-0.4c0-19.5,0-38.9,0-58.4c0-1.1,0.3-1.3,1.4-1.3c30.2,0,60.5,0,90.7,0c1,0,1.5,0.2,1.3,1.3
		C100.4,11.2,100.5,12,100.5,12.8z"/>
	<path class="st5" d="M32.2,45.1c-4.6,0-9.1,0-13.7,0c-2.8,0-4.2-1.4-4.2-4.1c0-6.8,0-13.7,0-20.5c0-2.7,1.4-4.1,4-4.1
		c9.3,0,18.5,0,27.8,0c2.7,0,4,1.4,4,4.1c0,6.8,0,13.7,0,20.5c0,2.7-1.4,4.1-4.2,4.1C41.5,45.1,36.8,45.1,32.2,45.1z"/>
	<path class="st2" d="M75.4,27.1c5.7,0,11.4,0,17.1,0c0.3,0,0.6,0,0.9,0c1,0.1,1.7,0.8,1.7,1.8c0,0.9-0.7,1.7-1.6,1.8
		c-0.3,0-0.6,0-0.9,0c-11.5,0-22.9,0-34.4,0c-0.3,0-0.7,0-1,0c-1-0.2-1.5-0.8-1.5-1.8c0-1,0.6-1.6,1.6-1.7c0.3-0.1,0.7,0,1,0
		C63.9,27.1,69.7,27.1,75.4,27.1z"/>
	<path class="st2" d="M75.5,34.3c5.7,0,11.4,0,17,0c0.4,0,0.8,0,1.1,0c0.9,0.2,1.4,0.8,1.5,1.7c0,0.9-0.5,1.5-1.4,1.8
		c-0.4,0.1-0.7,0-1.1,0c-11.5,0-22.9,0-34.4,0c-0.3,0-0.6,0-0.9,0c-1-0.1-1.7-0.9-1.6-1.8c0.1-1,0.6-1.6,1.6-1.7c0.3-0.1,0.7,0,1,0
		C64,34.3,69.7,34.3,75.5,34.3z"/>
	<path class="st2" d="M75.5,41.5c5.7,0,11.4,0,17,0c0.3,0,0.7,0,1,0c1,0.2,1.6,0.8,1.6,1.7c0,1-0.6,1.6-1.5,1.8c-0.3,0.1-0.7,0-1,0
		c-11.5,0-22.9,0-34.4,0c-0.2,0-0.4,0-0.6,0c-1.2,0-2-0.8-2-1.8c0-1,0.8-1.7,1.9-1.8c0.3,0,0.5,0,0.8,0
		C64.1,41.5,69.8,41.5,75.5,41.5z"/>
	<path class="st2" d="M71.9,16.4c4.5,0,9,0,13.4,0c0.3,0,0.7,0,1,0c1,0.2,1.6,0.8,1.6,1.7c0,1-0.6,1.6-1.5,1.8c-0.4,0.1-0.7,0-1.1,0
		c-9,0-18,0-27,0c-0.2,0-0.4,0-0.6,0c-1.3,0-2.1-0.7-2.1-1.8c0-1.1,0.8-1.7,2-1.8c0.6,0,1.1,0,1.7,0C63.5,16.4,67.7,16.4,71.9,16.4z
		"/>
	<path class="st2" d="M84.3,57.6c0-1.6,0-3.3,0-4.9c0-1.6,0.6-2.2,2.1-2.2c1.6,0,3.2,0,4.8,0c1.2,0,2,0.7,2,1.8c0,1.1-0.8,1.8-2,1.8
		c-0.9,0-1.8,0-2.7,0c-0.8,0-0.7,0.5-0.7,1c0,0.5-0.1,0.9,0.7,0.9c0.4,0,0.8,0,1.2,0c1,0.1,1.7,0.8,1.7,1.8c0,0.9-0.7,1.7-1.6,1.8
		c-0.3,0-0.6,0-0.9,0c-0.7-0.1-1.1,0-1.1,0.9c0,0.9,0.4,0.9,1.1,0.9c0.8,0,1.6,0,2.5,0c1.1,0,1.9,0.8,1.8,1.8c0,1-0.7,1.7-1.8,1.7
		c-1.8,0-3.5,0-5.3,0c-1.2,0-1.8-0.7-1.9-1.9C84.3,61.1,84.3,59.4,84.3,57.6z"/>
	<path class="st2" d="M28.7,55.9c7.1,0,14.2,0,21.3,0c1.2,0,2,0.7,2,1.8c0,1.1-0.8,1.8-2,1.8c-7.1,0-14.2,0-21.3,0
		C28.2,58.2,28.2,57,28.7,55.9z"/>
	<path class="st2" d="M78.2,55.2c0.3-1.1,0.5-2.1,0.8-3.1c0.3-1.2,1.2-1.8,2.2-1.5c1.1,0.3,1.6,1.2,1.2,2.5
		c-0.8,3.4-1.7,6.7-2.5,10.1c-0.3,1-0.8,1.7-1.9,1.7c-1.1,0-1.5-0.7-1.8-1.7c-0.8-3.4-1.7-6.8-2.5-10.2c-0.3-1.2,0.2-2.1,1.2-2.4
		c1-0.3,1.9,0.3,2.3,1.6c0.3,1,0.5,1.9,0.8,2.9C77.9,55,78,55,78.2,55.2z"/>
	<path class="st2" d="M57.4,57.6c0-1.7,0-3.4,0-5c0-1.3,0.7-2.1,1.8-2.1c1.1,0,1.7,0.8,1.7,2c0,2.6,0,5.2,0,7.8
		c0,0.7,0.2,0.9,0.9,0.9c0.9-0.1,1.8,0,2.7,0c1.1,0,1.8,0.8,1.8,1.7c0,1-0.7,1.8-1.9,1.8c-1.7,0-3.4,0-5.2,0c-1.3,0-1.9-0.7-1.9-2
		C57.4,61.1,57.4,59.3,57.4,57.6z"/>
	<path class="st2" d="M71.8,57.6c0,1.7,0,3.4,0,5.1c0,1.3-0.8,2.1-1.8,2.1c-1.1,0-1.7-0.8-1.7-2.1c0-3.4,0-6.9,0-10.3
		c0-1.2,0.7-2,1.8-2c1.1,0,1.8,0.8,1.8,2C71.8,54.2,71.8,55.9,71.8,57.6z"/>
	<path class="st2" d="M25.1,59.4c-3.5,0-7,0-10.5,0c-1.2,0-2-0.7-2-1.8c0-1.1,0.8-1.8,2-1.8c3.5,0,7,0,10.5,0
		C25.7,57,25.7,58.2,25.1,59.4z"/>
	<path class="st6" d="M25.1,59.4c0-1.2,0-2.4,0-3.5c0-0.6,0-1.3,0-1.9c0.1-1,0.8-1.7,1.8-1.7c1,0,1.7,0.7,1.8,1.7c0,0.6,0,1.3,0,1.9
		c0,1.2,0,2.4,0,3.5c0,0.6,0,1.3,0,1.9c-0.1,1-0.8,1.7-1.8,1.7c-1,0-1.7-0.7-1.8-1.7C25.1,60.7,25.1,60,25.1,59.4z"/>
	<path class="st7" d="M27,37.8c0-4.8,0-9.5,0-14.3c1.9,1.3,3.7,2.5,5.5,3.7c1.5,1,3,2,4.6,3c0.4,0.3,0.6,0.5,0.1,0.9
		C33.8,33.3,30.4,35.5,27,37.8z"/>
</g>
</svg>
