<?xml version="1.0" encoding="utf-8"?>
<!-- Generator: Adobe Illustrator 23.0.0, SVG Export Plug-In . SVG Version: 6.00 Build 0)  -->
<svg version="1.1" id="Layer_1" xmlns="http://www.w3.org/2000/svg" xmlns:xlink="http://www.w3.org/1999/xlink" x="0px" y="0px"
	 width="92.8px" height="89.5px" viewBox="0 0 92.8 89.5" style="enable-background:new 0 0 92.8 89.5;" xml:space="preserve">
<style type="text/css">
	.st0{fill:#D5D5D3;}
	.st1{fill:#C6C6C4;}
	.st2{fill:#425B81;}
	.st3{fill:#FDC7A1;}
	.st4{fill:#FDBE91;}
	.st5{fill:#3C5174;}
	.st6{fill:#FDC8A2;}
	.st7{fill:#49648D;}
	.st8{fill:#FDB683;}
	.st9{fill:#425B82;}
	.st10{fill:#FDB684;}
	.st11{fill:#334562;}
	.st12{fill:#AFAFAD;}
	.st13{fill:#DFDFDD;}
	.st14{fill:#F6A368;}
	.st15{fill:#7A432A;}
</style>
<g>
	<path class="st0" d="M10.6,53.7c0-6.6,0-13.2,0-19.9c0-0.8-0.3-1.1-0.9-1.5c-4.6-2.8-7.2-6.8-8-12.1c-0.6-4.5,0.5-8.4,3.2-12
		c2.8-3.7,6.5-5.9,11.2-6.5c2.4-0.3,4.7-0.1,7,0.6c-0.1,0.4-0.4,0.6-0.6,0.8c-2.8,2.8-5.6,5.6-8.4,8.4c-2.1,2.1-2.1,4.1,0,6.2
		c1.5,1.5,3.1,3.1,4.6,4.6c1.9,1.9,4,1.9,5.8,0c3-2.9,5.9-5.9,8.9-8.8c0.1-0.1,0.3-0.2,0.5-0.4c0.8,2.1,1,4.2,0.8,6.3
		c-0.3,2.9-1.2,5.6-2.8,8c-1.4,2-3.1,3.7-5.3,4.9c-0.6,0.3-0.9,0.7-0.9,1.5c0.1,1.7,0,3.3,0,5c-0.2,0.4-0.5,0.8-0.9,1.1
		c-1.4,1.4-2.9,2.9-4.3,4.3c-0.3,0.3-0.6,0.9-1,0.1c-0.2-2.5,0-5.1-0.1-7.6c0-1.3,0-2.5,0-3.8c0-0.9-0.1-1-1.2-1
		c-1.1,0-1.2,0.1-1.2,1c0,2.8,0,5.7,0,8.5c0,2,0.1,4-0.1,6c-0.1,0.4-0.3,0.7-0.6,0.9c-1.6,1.6-3.2,3.2-4.8,4.8
		C11.3,53.4,11,53.8,10.6,53.7z"/>
	<path class="st1" d="M10.6,53.7c1.7-1.7,3.4-3.4,5.2-5.1c0.3-0.3,0.5-0.5,0.8-0.7c0.4,0.4,0.3,0.9,0.3,1.4c0,2.7,0,5.3,0,8
		c0,1.1,1.1,1.7,2.1,1.1c0.4-0.3,0.3-0.7,0.3-1.1c0-2.8,0-5.6,0-8.4c0-1,0-2.1,0-3.1c0-0.4,0-0.8,0.3-1.1c1.7-1.7,3.4-3.3,5.1-5
		c0.3-0.3,0.6-0.5,0.9-0.8c0,5.9,0,11.8,0,17.7c0,0.7,0.1,1.1,0.8,1.4c2.1,1.2,3.8,2.8,5.2,4.7c0.3,0.3,0.3,0.7,0.3,1
		c0,1.4,0,2.7,0,4.1c0,3.5,0,7,0,10.5c0,0.9,0,1.7,0,2.6c0,0.4,0,0.8-0.3,1c-2.7,3.4-6,5.8-10.3,6.7c-2.7,0.6-5.5,0.4-8.1-0.5
		c0-0.4,0.4-0.6,0.6-0.8c2.7-2.7,5.3-5.3,8-8c0.8-0.8,1.7-1.6,1.9-2.8c0.2-1.3-0.1-2.4-1-3.3c-1.8-1.8-3.6-3.6-5.4-5.4
		c-1.5-1.4-3.6-1.3-5.1,0.1c-3.1,2.9-6,6-9.1,8.9c-0.2,0.2-0.3,0.5-0.7,0.5c-0.5-1.1-0.7-2.3-0.8-3.5C1.3,66.8,4,61.5,9.9,57.9
		c0.5-0.3,0.8-0.6,0.7-1.2C10.6,55.7,10.6,54.7,10.6,53.7z"/>
	<path class="st2" d="M31.7,67.8c0-1.7,0-3.4-0.1-5.1c0-1.3,0-2.6,0.1-3.9c0.1-0.1,0.1-0.3,0-0.4c0-0.5-0.1-0.9,0.1-1.3
		c0.8-0.2,1.1-1.1,0.6-2c1.1-2.7,3.1-4.4,5.9-5.2c1-0.3,1.9-0.4,2.9-0.6c0.1,0.1,0.3,0.1,0.4-0.1c0.7-0.3,1.5-0.4,2.3-0.5
		c0.1,0.1,0.3,0.1,0.4-0.1c0.9-0.3,1.7-0.5,2.6-0.6c0.5,0,0.4,0.5,0.5,0.8c0.3,2,0.4,4.1,0.6,6.2c0.2,1.8,0.3,3.6,0.5,5.4
		c0.1,0.9,0.2,0.9,1,0.5c2-1.1,4-2.3,6-3.4c0.4-0.2,0.7-0.4,1.1-0.3c0.5,0.2,0.6,0.7,0.7,1.2c1,2.9,2,5.7,3.1,8.8
		c0.3-1,0.6-1.8,0.9-2.6c0.7-2.1,1.5-4.2,2.3-6.4c0.1-0.4,0.2-0.8,0.6-1c0.5-0.1,0.8,0.1,1.2,0.3c2,1.1,4,2.3,6,3.4
		c0.7,0.4,0.8,0.4,0.9-0.5c0.2-2.6,0.4-5.2,0.6-7.8c0.1-1.5,0.2-2.9,0.4-4.4c0.1-0.5,0.2-0.9,0.8-0.6c2.7,0.3,5.4,0.6,8.1,1.2
		c1.6,0.3,3,1.2,4.2,2.4c-2.5,3.4-5.2,6.6-8.3,9.6c-1.9,1.9-4,3.7-6.1,5.4c-0.2,0.1-0.4,0.3-0.6,0.3c-1.7,0.2-3.4,0-5,0.1
		c-0.4,0-0.9-0.1-1.1,0.3c-0.2,0.6-0.2,1.2,0,1.8c0.1,0.2,0.3,0.2,0.6,0.3c0.4,0,0.8,0,1.1,0.1c0.4,0.2,0.2,0.5,0,0.7
		c-1.5,1.1-3.1,2-4.7,2.9c-0.2,0.1-0.4,0.1-0.5-0.2c-0.2-1.1-0.1-2.2-0.1-3.4c0-1-0.1-1-1.2-1c-1.1,0-1.2,0.1-1.2,1
		c0,0.9,0,1.8,0,2.7c0,0.4,0,0.8-0.2,1.2c-0.6,0.4-1.4,0.2-2,0.1c-2.1-0.2-4.1-0.3-6.2-0.5c-0.9-0.1-1.7-0.3-2.5-0.7
		c-1.2-0.5-2.4-1-3.5-1.5c-0.4-0.2-0.9-0.4-1.1-0.8c-0.3-1.5-0.1-3-0.1-4.5c0-0.7,0-1.5,0-2.2c0-0.5-0.3-0.8-0.8-0.8
		c-0.2,0-0.4,0-0.6,0c-0.8-0.1-1.1,0.2-1.1,1c0,1.3,0,2.7,0,4c0,0.4,0,0.9-0.2,1.3c-0.1,0.1-0.2,0.1-0.4,0.1
		c-2.4-0.7-4.9-0.3-7.4-0.4C32.6,68,32.1,68.1,31.7,67.8z"/>
	<path class="st3" d="M43.7,69.6c1.9,0.9,3.8,1.9,5.9,2.5c1.5,0.5,3.2,0.4,4.8,0.5c1.5,0.1,2.9,0.2,4.4,0.3c0.5-0.3,1-0.2,1.5-0.1
		c1.1,0.3,2.3,0.2,3.5,0.3c4.5,0.3,9,0.7,13.6,1c3.3,0.2,6.6,0.5,9.9,0.8c0.6,0,1.1,0.1,1.6,0.4c0,2.4,0.3,4.8-0.1,7.2
		c-0.5,2.8-2.9,4.8-5.8,4.8c-1.5,0-3.1,0-4.6,0c-0.5,0.3-0.9,0.1-1.4,0c-5-1-10.1-2.1-15.1-3.2c-0.6-0.1-1.1-0.2-1.7-0.4
		c-3.2-0.7-6.5-1.3-9.7-2c-1.8-0.4-3.8-0.2-5.6-0.1c-1.9,0.1-3.4-0.4-4.5-1.9c-0.7-0.9-1.6-1.2-2.8-1.2c-1.5,0.1-3.1,0-4.6,0
		c-0.4,0-0.9,0.1-1.3-0.3c0-3.5,0-7,0-10.6c1.7,0,3.4,0,5.1,0c1.3,0,2.7-0.1,3.9,0.6C41.9,68.5,42.8,69,43.7,69.6z"/>
	<path class="st3" d="M73.9,28.7c0,4.8-2.1,8.5-6,11.3c-0.2,0.3-0.4,0.6-0.8,0.8c-4.4,2.3-8.8,2.4-13.2,0.1c-0.4-0.2-0.8-0.4-1-0.9
		c-2.9-2.1-4.9-4.8-5.7-8.4c-0.2-0.9-0.4-1.9-0.3-2.9c-0.2-0.2-0.3-0.6-0.3-0.9c0-2.1,0-4.3,0-6.4c0-0.2,0-0.5,0.2-0.7
		c0.3-0.4,0.7-0.1,1,0c1,0.4,2.1,0.5,3.1,0.3c3.9-0.7,7.8-1.2,11.7-1c2.5,0.3,5,0.7,7.5,1.1c1,0.2,1.9,0.1,2.9-0.2
		c0.3-0.1,0.6-0.2,0.9,0c0.3,0.3,0.3,0.6,0.3,0.9c0,2,0,4.1,0,6.1C74.2,28,74.1,28.4,73.9,28.7z"/>
	<path class="st2" d="M45.3,15.1c0-2.6-0.3-5.1,0.2-7.7c0.7-4,4.3-7.2,8.4-7.3c4.3-0.1,8.7,0,13,0c1,0,2,0.2,3,0.7
		c-0.6,1.2-1.5,2.1-2.4,3.1c-1.6,1.7-3.2,3.4-5.1,4.8c-0.3,0.3-0.7,0.5-1.1,0.6c-1.8,0.1-3.6,0-5.4,0.1c-1.1,0-1.2,0.1-1.2,1.2
		c0,0.5,0,0.9,0,1.4c0,0.4,0,0.9-0.1,1.3c-0.6,0.6-1.4,0.8-2.1,1.1c-0.8,0.4-1.7,0.7-2.6,0.9c-1.2,0.1-2.4,0.1-3.6,0.1
		C45.8,15.4,45.5,15.3,45.3,15.1z"/>
	<path class="st4" d="M31.7,78.3c2.3,0,4.5,0,6.8,0c0.6,0,1.1,0.1,1.4,0.6c1.5,2.1,3.5,2.8,6,2.5c3-0.4,5.8,0.3,8.7,1
		c1.9,0.5,3.8,0.8,5.7,1.2c-0.4,0.5-1,0.4-1.6,0.6c-5.1,1-10.1,2.1-15.1,3.2c-0.4,0.1-0.9,0.3-1.4,0c-1.4,0-2.8-0.1-4.2,0
		c-3.1,0.2-6-2.1-6.3-5.5C31.7,80.7,31.7,79.5,31.7,78.3z"/>
	<path class="st5" d="M71.6,66.3c0.8-1,1.9-1.7,2.9-2.5c2.6-2.2,5-4.6,7.2-7.2c1.4-1.6,2.7-3.2,4-5c0.2-0.2,0.4-0.4,0.6-0.4
		c1.6,1.5,2.5,3.4,2.6,5.5c0.1,3.7,0,7.4,0,11c-0.4,0.3-0.8,0.3-1.2,0.3c-1.4,0-2.8,0-4.2,0c-0.9,0-1.9,0-2.8,0.3
		c-0.3,0.1-0.5,0.1-0.8,0c-0.3-0.4-0.2-0.8-0.2-1.3c0-1.4,0-2.7,0-4.1c0-0.9-0.5-1-1.1-0.9c-0.6,0-1.3-0.1-1.3,0.9
		c0,0.8,0,1.6,0,2.3c0,1-0.3,1.2-1.2,1.3c-1.2,0-2.3,0-3.5,0C72.1,66.5,71.8,66.5,71.6,66.3z"/>
	<path class="st6" d="M67.8,42.9c0,0.8,0,1.5,0,2.3c0.2,0.3,0.1,0.6,0,0.9c-0.9,3-1.9,5.9-2.8,8.9c-0.1,0.4-0.3,0.8-0.8,1
		c-2.6,0.1-5.3,0.1-7.9,0c-0.6-0.1-0.7-0.6-0.8-1c-0.9-2.9-1.8-5.9-2.7-8.8c-0.1-0.3-0.2-0.6,0-0.9c0-0.8,0-1.5,0-2.3
		c0.4-0.1,0.7,0.2,1,0.3c4.3,2.2,8.6,2.3,12.9,0C67.1,43.1,67.4,42.8,67.8,42.9z"/>
	<path class="st5" d="M61.4,9c2.9-2.2,5.5-4.8,7.7-7.7c0.2-0.2,0.3-0.4,0.6-0.6c3,1,5.5,4.4,5.6,7.6c0.1,2.3,0,4.5,0,6.8
		c-0.3,0.3-0.7,0.3-1.1,0.3c-1.4,0-2.9,0-4.3,0c-0.9,0-1.8,0-2.6,0c-0.3,0-0.7,0-1-0.2c-0.5-1-0.2-2-0.3-3c0-0.6,0-1.1,0-1.7
		c0-1-0.1-1.1-1.1-1.1c-0.8,0-1.6,0-2.4,0C62.2,9.3,61.7,9.4,61.4,9z"/>
	<path class="st7" d="M66.3,15.1c1.2,0,2.4,0,3.6,0c0.1,0.3-0.1,0.5-0.3,0.7c-2,2-4.3,3.6-7.1,4.4c-4.1-0.2-8.1,0.3-12.1,1.1
		c-1.3,0.3-2.5-0.1-3.7-0.7c-0.5-0.1-0.8-0.4-0.9-0.9c-0.9-1.4-1.2-2.9-0.5-4.5c1.6,0,3.1,0,4.7,0c1.4-0.4,2.9-0.3,4.3-0.3
		c3.6-0.1,7.3,0,10.9,0C65.6,14.8,66,14.8,66.3,15.1z"/>
	<path class="st8" d="M79.9,68.4c1.9-0.9,3.9-0.5,5.9-0.6c1,0,2.1,0,3.1,0c0,2.5,0,5,0,7.5c-2.1-0.2-4.2-0.4-6.2-0.5
		c-1.9-0.1-3.8-0.3-5.7-0.4c-3-0.2-6-0.5-9-0.7c-2.2-0.2-4.4-0.3-6.6-0.4c-0.3,0-0.7,0.1-1-0.1c0.2-0.3,0.6-0.3,0.9-0.3
		c0.9,0.1,1.8-0.2,2.8-0.2c1.8-0.1,3.5-0.3,5.3-0.4c1.8-0.1,3.4-1,5-1.7c0.8-0.3,1.5-0.7,2.3-1C77.8,69.2,78.7,68.5,79.9,68.4z"/>
	<path class="st7" d="M64.5,55.7c1.1-3,2-6.2,3-9.3c0.1-0.4,0.3-0.8,0.4-1.2c2.1,0.8,4.1,1.8,6.2,2.4c-0.3,0-0.6,0.1-0.6,0.5
		c-0.1,1.4-0.2,2.8-0.4,4.2c-0.3,2.9-0.5,5.8-0.7,8.7c0,0.6-0.2,0.6-0.6,0.3c-2.3-1.3-4.5-2.6-6.8-3.9c-0.2-0.1-0.5-0.3-0.8-0.2
		C63.8,56.6,64.1,56.2,64.5,55.7z"/>
	<path class="st7" d="M52.8,45.2c1.1,3.4,2.1,6.7,3.2,10.1c0,0.1,0.1,0.3,0.2,0.4c0.4,0.4,0.7,0.9,0.4,1.5c-1.4,0.3-2.4,1.2-3.6,1.9
		c-1.5,0.8-3,1.7-4.5,2.6c-0.4-1.4-0.3-2.8-0.5-4.1c-0.3-3.1-0.5-6.2-0.8-9.3c0-0.1-0.1-0.2-0.2-0.3C48.9,47.1,50.8,46.1,52.8,45.2z
		"/>
	<path class="st5" d="M42.2,87.4c5.4-1.1,10.7-2.3,16.1-3.4c0.2,0,0.3,0,0.5,0c0.2,0.2,0.3,0.4,0.3,0.7c0.1,1.2,0,2.4,0,3.5
		c0,0.3-0.1,0.5-0.3,0.7c-5.3,0-10.6,0-16,0c-0.5,0-0.7-0.2-0.6-0.6C42.3,87.9,42.2,87.7,42.2,87.4z"/>
	<path class="st5" d="M61.8,83.9c3.2,0.7,6.4,1.3,9.7,2c2.3,0.5,4.6,1,6.9,1.5c0,1.5,0,1.5-1.5,1.5c-5,0-10,0-15,0
		c-0.2-0.2-0.3-0.5-0.3-0.8c0-1.1,0-2.2,0-3.4C61.5,84.4,61.6,84.1,61.8,83.9z"/>
	<path class="st9" d="M62.6,20.1c1.4-0.7,2.7-1.4,4-2.2c1.2-0.8,2.4-1.7,3.3-2.9c1.8,0,3.6,0,5.4,0c0.8,1.6,0.3,3.1-0.5,4.5
		c-0.2,0.5-0.6,0.9-1.2,1.1c-1.6,0.9-3.3,0.6-5,0.3C66.6,20.7,64.6,20.4,62.6,20.1z"/>
	<path class="st10" d="M73.6,20.7c0.4-0.4,0.8-0.7,1.2-1.1c3.4-0.2,5.2,2.6,5.1,4.7c-0.1,2.3-2,4.3-4.3,4.4c-0.6,0-1.1,0-1.7,0
		c0-2.3,0-4.7,0-7C73.9,21.3,74,20.9,73.6,20.7z"/>
	<path class="st10" d="M45.8,19.6c0.3,0.3,0.6,0.6,0.9,0.9c0,2.7,0,5.4,0,8.1c-0.8-0.1-1.6,0.1-2.4-0.1c-2.3-0.6-3.8-2.7-3.6-4.9
		c0.2-2.2,2.2-3.9,4.6-4C45.5,19.6,45.7,19.6,45.8,19.6z"/>
	<path class="st10" d="M67.8,42.9c-2.4,1.6-5,2.3-7.8,2.3c-2.6,0-5-0.8-7.2-2.3c0-1,0-2,0-3c2.3,1.5,4.8,2.3,7.6,2.3
		c2.7,0,5.2-0.8,7.4-2.3C67.8,40.9,67.8,41.9,67.8,42.9z"/>
	<path class="st11" d="M61.8,83.9c0,1.6,0,3.3,0,4.9c-1,0-2,0-3,0c0-1.6,0-3.3,0-4.9c0.5-0.1,1-0.3,1.5-0.4
		C60.8,83.7,61.3,83.8,61.8,83.9z"/>
	<path class="st2" d="M32.5,55c0.2-0.1,0.4-0.2,0.5,0.1c0.2,0.4-0.2,2-0.5,2.2c-0.3,0.2-0.5,0.1-0.6-0.3
		C31.9,56.3,32.1,55.6,32.5,55z"/>
	<path class="st2" d="M44.3,48.6c0,0.2-0.1,0.4-0.3,0.4c-0.3,0-0.1-0.2-0.1-0.3C44.1,48.6,44.2,48.6,44.3,48.6z"/>
	<path class="st2" d="M41.7,49.1c0,0.2,0,0.4-0.3,0.4c-0.3,0-0.1-0.2-0.1-0.3C41.4,49.2,41.5,49.1,41.7,49.1z"/>
	<path class="st2" d="M31.7,58.4c0.1,0,0.3-0.2,0.3,0.1c0,0.2-0.1,0.3-0.3,0.3C31.7,58.6,31.7,58.5,31.7,58.4z"/>
	<path class="st12" d="M19.7,44.6c0,4.4,0,8.8,0,13.1c0,0.8-0.2,1-1,1c-2,0-2,0-2-2c0-3,0-5.9,0-8.9c0-5.1,0-10.1,0-15.2
		c0-0.8,0.2-1,1-1c2,0,2,0,2,2C19.7,37.3,19.7,41,19.7,44.6z"/>
	<path class="st11" d="M79.9,68.4c-1,0.5-2,0.9-3,1.3c-2.3-0.2-4.6,0-6.9-0.1c-0.6,0-1.3,0-1.9,0c-0.3,0-0.7,0-1-0.3
		c0,0-0.1,0-0.1,0c-2.2,0-2.2,0-2.2-2.2c0-0.6,0.2-0.8,0.8-0.8c2,0,4,0,6,0c1.4,0,2.8-0.1,4.2,0c0.9,0.1,1.1-0.3,1.1-1.1
		c-0.1-0.9,0-1.8,0-2.7c0-0.5,0.2-0.7,0.7-0.7c2.3-0.1,2.3-0.1,2.3,2.2C79.9,65.4,79.9,66.9,79.9,68.4z"/>
	<path class="st13" d="M56.5,57.2c-0.1-0.5-0.2-1-0.4-1.5c2.8,0,5.5,0,8.3,0c-0.1,0.5-0.2,1-0.4,1.5c-1.2,3.4-2.5,6.8-3.8,10.5
		C59,64.1,57.8,60.7,56.5,57.2z"/>
	<path class="st5" d="M67.1,69.3c3,0,5.9,0,8.9,0c0.3,0,0.8-0.2,0.9,0.4c-1.9,0.9-3.8,1.8-5.8,2.5c-1.2,0.4-2.5,0.3-3.8,0.4
		c-2,0.2-4,0.3-6,0.4c0-0.4,0.3-0.3,0.6-0.3c1.6-1,3.2-2,4.8-3C66.8,69.6,67,69.5,67.1,69.3z"/>
	<path class="st11" d="M43.7,69.6c-1-0.4-2-0.8-3-1.3c0-1.9,0-3.9,0-5.8c0-0.6,0.2-0.8,0.8-0.8c2.2,0,2.2-0.1,2.2,2.2
		C43.7,65.8,43.7,67.7,43.7,69.6z"/>
	<path class="st11" d="M61.8,72.7c-0.2,0.1-0.4,0.2-0.6,0.3c-0.3,0-0.6,0.1-0.9,0.1c-0.5,0-1-0.1-1.5-0.1c0-1.5,0-3,0-4.5
		c0-0.5,0.2-0.7,0.7-0.7c2.3-0.1,2.3-0.1,2.3,2.2C61.8,70.9,61.8,71.8,61.8,72.7z"/>
	<path class="st11" d="M54.2,67.8c-1.7,0-1.4,0.2-1.4-1.7c0-1.6-0.2-1.3,1.7-1.3c1.5,0,1.3-0.2,1.3,1.8C55.8,68,55.9,67.8,54.2,67.8
		z"/>
	<path class="st14" d="M58.4,33.1c-0.1,0-0.3,0-0.4,0c-2.3,0-2.3,0-2.2-2.3c0-0.6,0.3-0.7,0.8-0.7c1.7,0,3.3,0.1,5-0.2
		c0.6-0.1,1.3-0.2,1.9-0.4c0.1,0,0.2-0.1,0.4-0.1c1.3,0.2,0.8,1.4,1.3,2.1c0.3,0.5,0,0.7-0.5,0.8C62.5,32.9,60.5,33.2,58.4,33.1z"/>
	<path class="st15" d="M67.1,21.1c1.2,0,2.3,1.1,2.2,2.3c0,1.2-1.1,2.2-2.3,2.2c-1.2,0-2.2-1.1-2.2-2.2
		C64.8,22.1,65.9,21.1,67.1,21.1z"/>
	<path class="st15" d="M55.8,23.4c0,1.2-1.1,2.3-2.3,2.2c-1.2,0-2.2-1.1-2.2-2.3c0-1.2,1.1-2.2,2.3-2.2
		C54.8,21.1,55.8,22.2,55.8,23.4z"/>
	<path class="st13" d="M61.4,9c1.4,0,2.8,0,4.2,0c0.5,0,0.7,0.1,0.7,0.7c0,0.8,0,1.6,0,2.3c-0.4,0.3-0.8,0.3-1.2,0.3
		c-3.2,0-6.3,0-9.5,0c-0.4,0-0.9,0-1.2-0.3c0-1-0.4-2.2,0.1-2.8c0.5-0.6,1.8-0.2,2.7-0.2C58.6,9,60,9,61.4,9z"/>
	<path class="st0" d="M54.3,12.1c4,0,8,0,12,0c0,1,0,2,0,3c-4,0-8,0-12,0c-0.4-0.6-0.4-1.1,0-1.7C54.3,12.9,54.3,12.5,54.3,12.1z"/>
	<path class="st5" d="M54.3,13.4c0,0.6,0,1.1,0,1.7c-1.4,0-2.9,0-4.3,0C51.4,14.5,52.8,13.9,54.3,13.4z"/>
</g>
</svg>
