<?xml version="1.0" encoding="utf-8"?>
<!-- Generator: Adobe Illustrator 23.0.0, SVG Export Plug-In . SVG Version: 6.00 Build 0)  -->
<svg version="1.1" id="Layer_1" xmlns="http://www.w3.org/2000/svg" xmlns:xlink="http://www.w3.org/1999/xlink" x="0px" y="0px"
	 width="142.9px" height="153.5px" viewBox="0 0 142.9 153.5" style="enable-background:new 0 0 142.9 153.5;" xml:space="preserve"
	>
<style type="text/css">
	.st0{fill:#525252;}
	.st1{fill:#FEDF7D;}
	.st2{fill:#FECF64;}
	.st3{fill:#FEEFAE;}
	.st4{fill:#8D736E;}
	.st5{fill:#F8F5F5;}
	.st6{fill:#C5BDB8;}
	.st7{fill:#010100;}
</style>
<g>
	<path d="M117,52.4c1.5,0.3,2.2,1.2,2.2,2.7c0,2.3,0,4.7,0,7c0,1.1-0.4,2-1.2,2.8c-1.4,1.3-2.8,2.6-4.2,3.9c-0.5,0.5-0.5,0.8,0,1.2
		c1.4,1.3,2.8,2.6,4.2,3.9c0.8,0.7,1.2,1.6,1.2,2.7c0,21,0,41.9,0,62.9c0,6.9-5.2,12.9-11.7,13.7c-0.5,0.3-1.1-0.1-1.5,0.3
		c-31.4,0-62.7,0-94.1,0c-0.5-0.5-1.3-0.4-1.9-0.6c-5.5-1.7-9.7-6.9-9.8-12.7C-0.1,132,0,123.9,0,115.8c0-1.9,1-2.8,2.9-2.8
		c6.4,0,12.9,0,19.3,0c1.2,0,1.5-0.3,1.5-1.5c-0.1-2.9,0-5.9,0-8.8c0-1.1,0.4-2,1.2-2.8c1.4-1.3,2.8-2.6,4.2-3.9
		c0.6-0.5,0.6-0.8,0-1.3c-1.3-1.2-2.6-2.5-4-3.7c-1-0.9-1.4-1.9-1.4-3.3c0-8.5,0-17,0-25.5c0-1.5-0.3-2.8-1-4.1
		c-4.7-8.8-7.5-18.1-7.7-28.1c0-1.6,0-3.2,0.3-4.8c0.4-2.4,1.7-3.7,4.1-4.1c0.5-0.1,1-0.2,1.5-0.2c2.8-0.2,2.8-0.2,2.9-3
		c0-2-0.2-4.1,0.2-6.1C25.2,4.8,30.8,0,38,0c14.4,0,28.8,0,43.2,0c15.8,0,31.6,0,47.4,0c7.1,0,12.7,4.6,14.1,11.5
		c0.4,2.1,0.3,4.2,0.2,6.3c0,0.8-0.5,1.4-1.1,1.9c-1.4,1.3-2.7,2.6-4.2,3.9c-0.6,0.5-0.6,0.9,0,1.4c1.4,1.3,2.8,2.6,4.2,3.9
		c0.8,0.7,1.2,1.6,1.1,2.6c0,2,0,4.1,0,6.1c0,2.1-1,3-3,3c-6.2,0-12.4,0-18.6,0c-2.1,0-2.1,0-2.1,2c0,0.3,0,0.7,0,1
		c0.1,1.6-0.6,2.6-2.2,2.9c-1.4,0.4-2-0.5-2.5-1.5c-0.4-0.8-0.3-1.7-0.3-2.5c0-9.2,0-18.5,0-27.7c0-3,0.7-5.8,2.4-8.4
		c0.2-0.4,0.7-0.7,0.4-1.2c-0.3-0.4-0.8-0.2-1.3-0.2c-3.4,0-6.9,0-10.3,0C91.6,5,77.9,5,64.3,5c-8.7,0-17.5,0-26.2,0
		c-4.4,0-7.9,2.6-9,6.8c-0.7,2.6-0.3,5.4-0.2,8.1c0,0.9,0.7,1,1.4,1.1c2.2,0.3,4.3,0.7,6.5,1.2c5.2,1.3,10.1,3.1,14.9,5.5
		c1.4,0.7,2.8,1,4.3,1c14.7,0,29.5,0,44.2,0c0.7,0,1.4,0,2.1,0.1c1.4,0.2,2.2,0.9,2.3,2.1c0.2,1.3-0.5,2.5-1.8,2.9
		c-0.9,0.3-1.9,0.3-2.8,0.3c-12.1,0-24.3,0-36.4,0c-0.5,0-1,0-1.8,0.1c2.6,1.8,4.4,4.1,6.5,5.9c0.7,0.6,1.7,0.5,2.6,0.5
		c9.8,0,19.6,0,29.4,0c0.7,0,1.4,0,2.1,0.1c1.4,0.2,2.2,1,2.3,2.2c0.1,1.3-0.5,2.4-1.7,2.8c-0.9,0.4-1.9,0.3-2.8,0.3
		c-8.4,0-16.9,0-25.3,0c-0.6,0-1.2-0.2-1.9,0.3c1.1,1.9,2.2,3.8,3.4,5.6c0.5,0.8,1.4,0.6,2.2,0.6c7.3,0,14.6,0,21.9,0
		c0.7,0,1.4,0,2.1,0.1c1.2,0.2,2,0.9,2.2,2.1c0.2,1.2-0.4,2.3-1.5,2.8c-0.9,0.4-1.8,0.4-2.8,0.4c-6.4,0-12.8,0-19.2,0
		c-2,0-2,0.1-1.4,1.9c0.5,1.4,0.8,3,1.7,4.3c0.5,0.5,1.2,0.4,1.9,0.4c5.6,0,11.3,0.1,16.9,0c0.5,0,1,0,1.5,0
		c2.8,0.1,3.8,1.9,2.4,4.4c-0.9,0.9-2.1,1-3.3,1c-5.4,0-10.8,0-16.2,0c-1.9,0-2,0.1-1.6,2c0.2,1,0.4,2.1,0.4,3.1
		c0.1,1.2,0.7,1.6,1.8,1.6c5.1,0,10.3,0,15.4,0c0.6,0,1.2,0,1.8,0.1c1.2,0.2,2,0.8,2.2,2c0.2,1.3-0.4,2.4-1.6,2.9
		c-0.8,0.3-1.7,0.3-2.5,0.3c-4.5,0-9.1,0-13.6,0c-0.4,0-0.8-0.1-1.2,0.1c0.2,0.5,0.6,0.8,1,1.2c5.6,5.6,11.2,11.2,16.8,16.8
		c0.6,0.6,1.2,1.2,1.7,1.9c0.5,0.9,0.5,1.9,0,2.8c-0.6,1-1.5,1.4-2.7,1.4c-3.7-0.1-7.5,0.3-11.2-0.2c-0.7-0.1-1.5-0.1-2.2-0.1
		c-12.4,0-24.8,0-37.2,0c-0.8,0-1.6,0.1-2.4-0.2c-1.3-0.4-2.2-1.6-2.1-2.8c0.1-1.3,1-2.2,2.5-2.3c0.6-0.1,1.3,0,1.9,0
		c10.7,0,21.5,0,32.2,0c0.4,0,0.9,0.2,1.4-0.2c-1.8-1.8-3.6-3.6-5.4-5.4c-1.1-1.1-2.4-2.2-3.4-3.4c-1.3-1.7-3.1-2.3-5.1-2.4
		c-8.1-0.5-15.7-2.8-23-6.1c-1.6-0.7-3.2-1.2-5-1.1C42.6,82,41.8,82,41,81.9c-1.8-0.3-2.8-1.4-2.5-3.2c0.1-1-0.1-1.6-0.9-2.2
		c-3.2-2.5-6.2-5.2-8.9-8.5c0,6.3,0,12.4,0,18.4c0,0.8,0.3,1.4,0.9,2c1.2,1.2,2.4,2.4,3.7,3.5c2.7,2.3,2.8,4.1,0.3,6.7
		c-1.2,1.3-2.7,2.3-3.9,3.5c-0.6,0.7-1.1,1.4-1,2.4c0,2.2,0,4.4,0,6.6c0,1.1,0.4,1.6,1.5,1.5c0.7,0,1.4,0,2.1,0
		c1.6,0.1,2.2,0.6,2.7,2.3c-0.1,1.8-0.8,2.6-2.5,2.9c-0.7,0.1-1.5,0.1-2.2,0.1c-7.6,0-15.3,0-22.9,0c-2.1,0-2.2,0.1-2.2,2.2
		c0,6.3,0,12.7,0,19c0,5.4,3.8,9.3,9.2,9.3c26,0,51.9,0,77.9,0c0.4,0,0.8,0.1,1.1-0.2c0.1-0.2,0-0.3,0-0.5
		c-2.3-3.2-2.9-6.9-2.8-10.8c0.1-5.7,0-11.4,0-17.1c0-1.9-0.1-2.1-2-2.1c-5.4,0-10.9,0-16.3,0c-1.3,0-2.3,0.4-3.2,1.3
		c-1.2,1.2-2.3,2.7-3.5,3.9c-2.2,2-4.1,1.9-6-0.3c-1.1-1.3-2.5-2.5-3.6-3.8c-0.7-0.8-1.6-1.1-2.7-1.1c-3.1,0-6.2,0-9.3,0
		c-1.7,0-3-0.7-3.5-2.5c0.2-2,1-2.8,2.9-2.9c4.1-0.1,8.3-0.1,12.4,0c1.2,0,2.1,0.6,2.9,1.4c1,1,1.9,2.2,2.9,3.2c0.7,0.7,1.3,0.7,2,0
		c1-1,2-1.9,2.9-3c0.9-1.1,2.1-1.6,3.5-1.6c7.4,0,14.9,0,22.3,0c2.6,0,3.6,1.1,3.6,3.7c0,7.3,0,14.6,0,21.9c0,2.2,0.4,4.2,1.4,6
		c3.5,4.8,9,5.8,13.4,2.2c2.3-1.8,3.4-4.2,3.4-7.2c0-6,0-12,0-18c0-13.9,0-27.9,0-41.8c0-1.6-0.4-2.8-1.7-3.9
		c-1.5-1.1-2.7-2.5-3.9-3.9c-1.5-1.6-1.5-3,0-4.6c1.3-1.4,2.6-2.8,4.1-3.9c1.1-0.8,1.6-1.8,1.5-3.2c-0.1-1.7-0.1-3.4,0-5.1
		C114.4,53,115.4,52.2,117,52.4z"/>
	<path class="st0" d="M105.9,153.5c0.5-0.4,1-0.4,1.5-0.3c-0.1,0.1-0.1,0.2,0,0.3C106.9,153.5,106.4,153.5,105.9,153.5z"/>
	<path class="st1" d="M105.3,4.6c4.3,0,8.5,0,13.1,0c-3.7,4-3.9,8.6-3.8,13.4c0.1,8.5,0,17,0,25.4c0,1.9,0.5,2.6,2.3,3.1
		c0,2,0,3.9,0,5.9c-1.8,0.4-2.3,1-2.3,2.9c0,1.8,0,3.6,0,5.4c0,0.9-0.3,1.5-0.9,2.1c-1.6,1.4-3.2,2.9-4.7,4.4
		c-1.6,1.6-1.6,3.1,0,4.6c1.6,1.5,3.2,3,4.8,4.5c0.6,0.5,0.8,1,0.8,1.8c0,20.4,0,40.7,0,61.1c0,4.5-2.9,8.4-7,9.5
		c-4.1,1.2-8.3-0.5-10.6-4.1c0.2-0.5,0.7-0.7,1.1-0.9c4.4-2.4,6.4-6.1,6.4-11c0-8.4,0-16.7,0-25.1c0-0.9,0-1.9,0.2-2.8
		c0.3-0.8,0.3-1.6,0-2.4c-0.2-0.9-0.3-1.9-0.3-2.8c0-8.3,0-16.6,0-24.9c0-1.9,0.1-3.9-1.1-5.6c0.6-0.8,1-1.7,0.4-2.8
		c-0.6-1-1.5-1.2-2.6-1.2c-6.4,0-12.8,0-19.2,0c-0.5,0-1,0.3-1.4-0.2c0.5-0.5,1.1-0.5,1.7-0.5c4.8,0,9.7,0,14.5,0c0.5,0,1,0,1.4,0.3
		c-0.6-1.3-0.6-1.8,0.4-2.6c1.7-1.4,3.1-3.1,4.8-4.5c0.8-0.7,1-1.5,1-2.5c0-15.5,0-31,0-46.5C104.6,7.1,104.3,5.7,105.3,4.6z"/>
	<path class="st2" d="M40.6,115.4c0.5,1.6,1.6,2.1,3.2,2.1c3.3-0.1,6.7,0,10,0c0.8,0,1.4,0.3,1.9,0.9c1.5,1.6,3,3.2,4.5,4.8
		c1.5,1.5,3.1,1.5,4.5,0c1.5-1.6,3-3.2,4.5-4.8c0.5-0.6,1.1-0.9,1.9-0.9c6.1,0,12.3,0.1,18.4,0c1.2,0,1.4,0.4,1.4,1.4
		c-0.1,5.6,0.1,11.3-0.1,16.9c-0.1,4.7,0.2,9.3,3.9,13.2c-0.8,0-1.3,0-1.8,0c-26,0-52,0-78.1,0c-6.5,0-10.4-3.9-10.4-10.4
		c0-6.5,0-13.1,0-19.6c0-1.1,0.3-1.5,1.5-1.5c8.5,0.1,17.1,0,25.6,0c2.1,0,2.9-0.6,3.1-2.6c1.5,0.1,3,0.1,4.5,0.1
		C39.7,115,40.2,115.1,40.6,115.4z"/>
	<path class="st3" d="M105.3,4.6c-0.5,2.7-0.3,5.4-0.3,8c0,14.1,0,28.2,0,42.4c0,1.3-0.3,2.3-1.5,3.2c-1.8,1.4-3.1,3.2-4.9,4.5
		c-0.9,0.7-0.2,1.3,0.4,2.1c-6.3,0-12.3,0-18.3,0c-0.8-2.4-1.7-4.7-2.6-7.3c1.2,0,2.2,0,3.2,0c6.5,0,13,0,19.5,0
		c0.7,0,1.4,0,2.1-0.3c1-0.5,1.4-1.3,1.3-2.3c-0.2-1.1-0.8-1.7-1.9-1.9c-0.4-0.1-0.9,0-1.3,0c-7.8,0-15.6,0-23.4,0
		c-1.1,0-1.7-0.2-2.2-1.3c-1-2.1-2.3-4.1-3.7-6.3c0.7,0,1.2,0,1.7,0c9.1,0,18.2,0,27.3,0c0.5,0,1,0,1.5-0.1c1.3-0.2,2.1-1.2,2-2.4
		c-0.1-1.2-0.9-2-2.3-2c-4.5,0-9.1,0-13.6,0c-6.2,0-12.5,0-18.7,0c-0.9,0-1.6-0.2-2.2-0.9c-2-2.3-4.3-4.4-6.9-6.4
		c0.5-0.4,1.1-0.2,1.6-0.2c12.9,0,25.8,0,38.7,0c0.7,0,1.4,0.1,2.1-0.2c1.1-0.4,1.6-1.2,1.4-2.3c-0.1-1.1-0.8-1.8-2-1.9
		c-0.5-0.1-1,0-1.5,0c-15.3,0-30.7,0-46,0c-1,0-1.8-0.2-2.7-0.6c-7.1-3.7-14.6-6.1-22.5-7.1c-0.9-0.1-1.3-0.4-1.2-1.4c0.1-2,0-4,0-6
		c0.1-5.2,4.2-9.4,9.4-9.4c22.5,0,44.9,0,67.4,0C105.1,4.5,105.2,4.5,105.3,4.6z"/>
	<path class="st3" d="M40.6,115.4c-1.5,0-3,0-4.5,0c-0.6,0-1.1,0-1.5-0.5c-0.3-1.4-1.2-2-2.6-1.9c-0.9,0-1.8-0.1-2.7,0
		c-1,0.1-1.2-0.3-1.1-1.2c0.1-2.6,0-5.3,0-7.9c0-0.7,0.2-1.1,0.7-1.5c1.7-1.5,3.3-3,4.9-4.6c1.6-1.6,1.6-3.1,0-4.6
		c-1.6-1.6-3.3-3.1-4.9-4.6c-0.4-0.3-0.7-0.6-0.7-1.2c0-6.7,0-13.4,0-20.4c1.1,1.2,2,2.3,2.9,3.3c2.3,2.5,4.8,4.7,7.5,6.6
		c0.5,0.4,0.8,0.6,0.4,1.4c-0.8,1.5,0,2.9,1.6,3.3c0.2,0.1,0.5,0.1,0.7,0.1c3.4-0.4,6.3,0.7,9.3,2.1c7.3,3.3,15,5.1,23,5.4
		c0.5,0,0.9,0.1,1.3,0.5c3.7,3.8,7.5,7.5,11.3,11.3c-0.6,0.3-1.1,0.2-1.6,0.2c-11.2,0-22.4,0-33.6,0c-0.5,0-1,0-1.5,0
		c-1.2,0.1-1.9,0.9-2,2c-0.1,1.2,0.5,2,1.7,2.3c0.5,0.1,1.1,0.1,1.6,0.1c10,0,20,0.1,30,0c7-0.1,14.1,0.6,21.1,0.4
		c1.1,0,2.1-0.2,2.7-1.2c0.4,0.5,0.2,1.2,0.2,1.7c0,8.6,0,17.2,0,25.8c0,4-1.1,7.5-4.3,10.2c-1.1,1-2.4,1.6-3.7,2.1
		c-1.2-1.6-1.6-3.5-1.6-5.5c0-7.5,0-15.1,0-22.6c0-2.6-0.8-3.4-3.4-3.4c-7.3,0-14.7,0-22,0c-1.4,0-2.4,0.4-3.3,1.4
		c-1.1,1.3-2.4,2.5-3.6,3.8c-0.6,0.7-0.9,0.6-1.5,0c-1.1-1.3-2.3-2.5-3.4-3.7c-0.9-1.1-2-1.5-3.4-1.5c-3.7,0.1-7.5,0-11.2,0
		C41.6,113,41.1,113.3,40.6,115.4z"/>
	<path class="st4" d="M46.8,30.8c0.9,0.4,1.5,0.8,2.2,1c0.7,0.3,0.9,0.8,0.9,1.5c0,4.4,0,8.9,0,13.3c-0.6,0.2-0.8-0.4-1.1-0.6
		c-1.3-1.2-2.5-2.6-3.8-3.8c-1.4-1.3-3.1-1.4-4.5,0c-1.3,1.2-2.6,2.5-3.8,3.8c-1.6,1.6-1.6,3.3,0,4.9c1.5,1.5,3,2.9,4.5,4.5
		c-0.2,0.2-0.3,0.3-0.4,0.3c-4.4,0-8.8,0-13.2,0c-0.8,0-1.2-0.3-1.5-0.9c-1.8-3.6-3.2-7.3-4.3-11.1c-0.3-1,0-1.2,0.9-1.2
		c1.1,0.1,2.2,0.1,3.3,0c1.5-0.1,2.5-1.2,2.4-2.4c-0.1-1.2-1.1-2-2.5-2.1c-1.4,0-2.9,0-4.3,0c-0.8,0-1.1-0.2-1.3-1.1
		c-0.6-3.3-0.7-6.5-0.6-9.8c0.1-1.2,0.6-1.6,1.8-1.7c6.9-0.4,13.6,1,20.1,3.2c0.7,0.2,0.9,0.7,0.9,1.3c0,1.4,0,2.9,0,4.3
		c0,1.5,0.9,2.5,2.2,2.5c1.2,0,2.1-0.9,2.3-2.3C46.8,33.4,46.8,32.2,46.8,30.8z"/>
	<path class="st2" d="M119.2,24.4c0-3.4-0.1-6.9,0-10.3c0.1-5,3.8-9,8.6-9.5c4.8-0.5,9.2,2.7,10.3,7.4c0.3,1.4,0.2,2.8,0.2,4.2
		c0,0.6-0.4,0.9-0.8,1.2c-1.5,1.4-3,2.8-4.5,4.2c-2.1,2-2.1,3.3,0,5.3c1.5,1.4,3.1,2.9,4.6,4.3c0.6,0.5,1.1,4,0.7,4.7
		c-0.2,0.4-0.6,0.3-0.9,0.3c-5.7,0-11.5,0-17.2,0c-0.9,0-1-0.4-1-1.2C119.2,31.4,119.1,27.9,119.2,24.4
		C119.2,24.4,119.2,24.4,119.2,24.4z"/>
	<path class="st3" d="M103.5,68.9c1.1,0.7,1.6,1.6,1.6,2.9c-0.1,9.6,0,19.2,0,28.8c0,0.5,0.2,1.1-0.2,1.6
		c-6.8-6.8-13.7-13.5-20.5-20.3c0.5-0.7,1-0.4,1.4-0.4c5,0,10.1,0,15.1,0c0.5,0,1,0,1.5-0.1c1.3-0.3,2.1-1.2,1.9-2.5
		c-0.2-1.3-1-1.9-2.2-1.9c-3.3,0-6.6,0-9.9,0c-2.6,0-5.3,0-7.9,0c-0.9,0-1.2-0.2-1.3-1.1c-0.1-1.7-0.4-3.5-0.8-5.2
		c-0.2-1,0.1-1.3,1.1-1.2c5.9,0,11.9,0,17.8,0C101.8,69.5,102.7,69.4,103.5,68.9z"/>
	<path class="st5" d="M64.9,76.2c-0.7,1.3-0.4,2.4,0.7,3.5c1.5,1.4,2.9,2.9,4.6,4.5c-11.8-1.6-22-5.7-30.9-13.3c1.3,0,2.5,0,3.8,0
		c1.7,0,2.6-0.9,2.7-2.2c0-1.4-1-2.3-2.7-2.3c-2.5,0-5.1,0-7.6,0c-0.8,0-1.4-0.2-1.9-0.9c-1.4-1.7-2.7-3.3-3.9-5.3
		c0.6,0,1-0.1,1.4-0.1c4.6,0,9.3,0,13.9,0c1,0,1.7,0.3,2.3,1c3.3,3.4,6.7,6.7,10,10.1c1.1,1.1,2.1,1.4,3.5,0.7
		c0.3-0.1,0.6,0,0.8,0.2C62.6,73.5,64.4,74.3,64.9,76.2z"/>
	<path class="st5" d="M72.1,55.6c3.3,6.2,5.4,12.8,6.2,19.7c-0.6-0.2-0.8-0.6-1.2-0.9c-7.3-7.3-14.5-14.5-21.8-21.8
		c-0.7-0.7-1-1.4-1-2.3c0-5,0-10.1,0-15.2c1.6,0.8,2.8,1.9,4.1,2.9c0.5,0.4,0.4,0.9,0.4,1.3c0,2.5,0,5,0,7.5c0,1.6,0.9,2.6,2.2,2.7
		c1.4,0,2.3-1,2.3-2.7c0-1.3,0-2.6,0-4.3c1.9,2.6,4.6,4.2,4.3,7.7c-0.3,2.8-0.1,5.7,0,8.5c0,1.7,0.9,2.8,2.3,2.8
		c1.4,0,2.2-1.1,2.2-2.8C72.1,57.6,72.1,56.6,72.1,55.6z"/>
	<path class="st6" d="M64.9,76.2c-1.3-1.6-2.7-3-4.3-4.3c1.2-1.6,1.1-2.5-0.3-3.9c-6.2-6.2-12.3-12.4-18.6-18.5
		c-0.9-0.9-0.7-1.4,0.1-2.1c0.7-0.6,1-1.3,2.1-0.2c17.6,17.7,35.2,35.3,52.8,52.9c0.4,0.4,0.9,0.7,1.1,1.3c-2.2,0.2-4.1,0.2-5.9-1.7
		c-7.6-7.8-15.3-15.5-23-23.1C67.4,75.1,66.5,75.1,64.9,76.2z"/>
	<path d="M75.9,17c8.4,0,16.9,0,25.3,0c0.9,0,1.7,0,2.3,0.7c1,1.2,0.6,3-0.9,3.6c-0.6,0.2-1.3,0.2-1.9,0.2c-16.6,0-33.2,0-49.8,0
		c-0.2,0-0.5,0-0.7,0c-1.7-0.1-2.7-1-2.7-2.4c0.1-1.3,1-2.1,2.7-2.1C58.9,17,67.4,17,75.9,17z"/>
	<path class="st7" d="M49.3,89c2.7,0,5.4,0,8.1,0c1.6,0,2.5,0.8,2.5,2.1c0,1.3-0.9,2.3-2.4,2.3c-5.4,0-10.9,0-16.3,0
		c-1.5,0-2.4-0.9-2.4-2.3c0-1.4,0.9-2.2,2.6-2.2C44,89,46.6,89,49.3,89z"/>
</g>
</svg>
