<?xml version="1.0" encoding="utf-8"?>
<!-- Generator: Adobe Illustrator 23.0.0, SVG Export Plug-In . SVG Version: 6.00 Build 0)  -->
<svg version="1.1" id="Layer_1" xmlns="http://www.w3.org/2000/svg" xmlns:xlink="http://www.w3.org/1999/xlink" x="0px" y="0px"
	 width="93.9px" height="89.2px" viewBox="0 0 93.9 89.2" style="enable-background:new 0 0 93.9 89.2;" xml:space="preserve">
<style type="text/css">
	.st0{fill:#CBCBCB;}
	.st1{fill:#F6CAA3;}
	.st2{fill:#527BA2;}
	.st3{fill:#F66B4F;}
	.st4{fill:#E4624C;}
	.st5{fill:#5E85B6;}
	.st6{fill:#E7B996;}
	.st7{fill:#BFE6F8;}
	.st8{fill:#AE7C38;}
	.st9{fill:#9A6A31;}
	.st10{fill:#DFB293;}
	.st11{fill:#F1F1F1;}
	.st12{fill:#4D4D4D;}
	.st13{fill:#4E4E4D;}
	.st14{fill:#666666;}
	.st15{fill:#FEFEFE;}
</style>
<g>
	<path class="st0" d="M72.3,73.6c1.4-1.1,2.3-2.7,2.9-4.3c1-2.5,1.9-5,3-7.5c1.5-3.5,1.2-6.8-0.4-10.2c-1.5-3-1.3-5.9,0.7-8.6
		c0.4-0.5,0.9-1,1.4-1.3c0.4-0.2,0.5-0.2,0.5,0.2c0.2,1.5,0.4,2.9,0.5,4.4c0.2,1.8,2,3,3.5,2.9c2-0.1,3.3-1.6,3.3-3.5
		c-0.1-1.7-0.3-3.3-0.5-5.1c1.9,0.6,3.1,1.9,4.1,3.4c0.5,0.8,0.6,1.7,1,2.5c0,0.9,0,1.8,0,2.7c-0.7,2.7-2.8,4.3-4.4,6.3
		c-1.6,2.1-2.2,4.7-3.2,7.1c-0.5,1.2-0.9,2.4-1.4,3.5c-1.4,3.5-1,6.8,0.6,10.1c1.7,3.4,1.1,6.7-1.7,9.3c-0.3,0.2-0.5,0.6-0.9,0.5
		c-0.4-0.1-0.2-0.6-0.2-0.9c-0.1-1.1-0.2-2.3-0.4-3.4c-0.3-1.7-1.5-3.5-3.9-3.3c-1.7,0.1-3,1.6-3,3.6c0,1.2-0.5,2-1.6,2.3
		c-0.3-0.3-0.3-0.8-0.3-1.2c0-2.8,0-5.7,0-8.5C72,74.4,71.9,74,72.3,73.6z"/>
	<path class="st1" d="M70.2,25.9c0.1,1.3,0,2.6,0.4,3.9c0.4,0.6,0.3,1.3,0.3,1.9c0.2,2.2,0.4,4.4,0.6,6.6c0,0.4,0.1,0.8-0.1,1.1
		c0,2,0.1,4-0.5,6.1c-0.9,3.3-2.7,6.1-5.3,8.3c-1.5,1.2-3,2.3-4.5,3.4c-0.3,0.6-1,0.8-1.4,1.2c-0.8,0.6-1.6,1.1-2.4,1.7
		c-3.3,2.5-7,3.5-11,2.5c-0.5-0.1-1-0.3-1.4-0.6c-1.9-1.8-3.4-4-5.1-6c-1.5-1.8-2.9-3.7-4.5-5.5c-2.4-2.7-2.9-5.9-2.6-9.4
		c0.3-2.3,0.4-4.6,0.7-7c0.2-1.9,0.2-3.8,0.7-5.7c0.8-0.9,2-1.3,3.1-1.8c8.2-3.5,16.4-3.4,24.6,0.1c1.2,0.5,2.3,1.1,3.4,1.8
		c2,1.2,4.4,0,4.6-2C69.9,26.2,69.9,25.9,70.2,25.9z"/>
	<path class="st2" d="M70.2,25.9c-0.4,2.1-1.3,3.1-3,3.2c-0.8,0.1-1.5-0.2-2.1-0.6c-5.5-3.3-11.4-4.7-17.7-4.3
		c-4.7,0.3-9.1,1.6-13.1,4.1c-0.9,1-2,1.2-3.2,0.8c-1.2-0.3-2.1-1-2.2-2.4c-0.1-3.4,0.2-6.7,0.4-10.1c0.2-2.4,0.3-4.7,0.6-7.1
		c0.5-3.4,2.4-5.6,5.8-6.5c2.8-0.8,5.7-1.4,8.6-1.9c0.2,0.5-0.3,0.7-0.5,0.9c-0.5,0.3-1.1,0.5-1.7,0.7c-3.2,0.9-4.6,3.2-5.1,6.3
		c-0.3,2.1-0.3,4.3-0.4,6.4c-0.1,1.6,0,1.6,1.6,1.4c3.3-0.4,6.6-0.8,9.9-0.7c1,0,2,0,3,0c3.6-0.1,7.1,0.3,10.7,0.8c1,0.1,1,0.1,1-1
		c-0.1-1.8-0.2-3.5-0.3-5.3c-0.1-2-0.5-3.9-1.6-5.5c-0.7-1-1.5-1.7-2.6-2C56.4,2.6,54.7,2,53,1.4c-0.3-0.1-0.7-0.2-0.9-0.4
		c-0.3-0.4,0-0.3,0.3-0.3c3.2,0.7,6.4,1.5,9.6,2.1c2.4,0.5,4.5,1.5,6,3.6c1.1,1.6,1.3,3.5,1.4,5.3C69.7,16.4,70,21.2,70.2,25.9z"/>
	<path class="st3" d="M59.8,58.2c0.4-0.5,0.9-0.8,1.5-1.1c1.1,0.3,2.2,0.5,3.2,0.9c0.3,0.1,0.6,0.2,0.8,0.5c0.4,0.3,0.4,0.7,0.4,1.1
		c0,9.3,0,18.6,0,27.9c0,0.4,0,0.8-0.4,1.1c-2,0-4.1,0-6.1,0c-0.4-0.4-0.3-0.9-0.3-1.4c0-2.3,0-4.7,0-7c0-1.2-0.1-1.3-1.2-1.3
		c-5.3,0-10.6,0-16,0c-1.2,0-1.2,0.1-1.2,1.2c0,2.4,0,4.7,0,7.1c0,0.5,0.1,1-0.3,1.4c-2.1,0-4.1,0-6.2,0c-0.3-0.3-0.3-0.8-0.3-1.2
		c0-9.3,0-18.6,0-27.9c0-0.4,0-0.8,0.3-1.2c1.2-0.7,2.6-1,3.9-1.3c0.9-0.1,1.3,0.6,1.8,1.2c0.2,1.9,0.1,3.9,0.1,5.8
		c0,3.5,1.4,6.3,4.2,8.4c3.3,2.5,8.3,2.4,11.6-0.1c2.9-2.2,4-5.2,4.1-8.7c0-1.5,0-3,0-4.4C59.6,58.9,59.5,58.5,59.8,58.2z"/>
	<path class="st3" d="M28.8,48.1c-1.2,3-3.1,5.3-6,6.7c-2,1-3,2.3-2.7,4.5c0.1,0.9-0.2,1.2-1,1.1c-0.7,0.4-1.5,0.2-2.3,0.2
		c-0.4,0-0.9,0.1-1.3-0.1c-0.3-0.3-0.3-0.7-0.3-1.1c0-0.6,0-1.2,0-1.9c0-0.8-0.3-1.5-0.9-2.1c-2.6-2.5-3.5-5.7-3.9-9.1
		c-0.1-0.7-0.2-1.5-0.2-2.2c0-0.4-0.2-0.8-0.4-1.1c-0.9-1.3-0.8-2.7-0.3-4.2c0.1-0.5,0.4-0.8,1-0.9c4.6,0,9.3,0,13.9,0
		c0.1,0,0.3,0,0.4,0.1c0.9,0.7,2,1,3,1.6c0.1,0.2,0.1,0.5,0.1,0.7c-0.1,2.4,0.2,4.6,1,6.9C28.9,47.4,29.1,47.7,28.8,48.1z"/>
	<path class="st2" d="M33.9,58.5c0,9,0,18,0,27.1c0,1.1,0,2.1,0,3.2c-2.2,0-4.3,0-6.5,0c-0.5,0-0.6-0.2-0.6-0.6c0-6-0.1-12,0-18
		c0.1-5,2.3-8.9,6.7-11.5C33.7,58.6,33.8,58.5,33.9,58.5z"/>
	<path class="st4" d="M40.1,88.7c0-3,0-6,0-9.1c0-0.7,0.2-0.9,0.9-0.9c5.7,0,11.5,0,17.2,0c0.7,0,0.9,0.2,0.9,0.9c0,3,0,6,0,9.1
		c-2.4,0-4.9,0-7.3,0C47.9,88.8,44,88.7,40.1,88.7z"/>
	<path class="st5" d="M65.2,88.7c0-7.1,0-14.2,0-21.4c0-2.9,0-5.8,0-8.8c2.3,1,3.9,2.7,5.2,4.8c1.3,2.1,1.8,4.4,1.8,6.8
		c0,1.1,0,2.3,0,3.4c0,3.6,0,7.2,0,10.8c0,1.2,0,2.4,0,3.6c0,0.5-0.1,0.7-0.6,0.7C69.5,88.7,67.4,88.7,65.2,88.7z"/>
	<path class="st5" d="M52.4,0.7c-0.6,0.2,0,0.2,0.1,0.2c1.7,0.6,3.5,1.3,5.3,1.8C60.8,3.6,62,6,62.4,8.8c0.4,2.2,0.4,4.4,0.4,6.6
		c0,0.1,0,0.1,0,0.2c0.1,1.8,0.1,1.9-1.8,1.6c-3.3-0.5-6.6-0.8-9.9-0.7c-0.3-0.3-0.3-0.8-0.3-1.2c0-4.6,0-9.2,0-13.8
		c0-0.4,0-0.8,0.3-1.2C51.6,0.4,52,0.5,52.4,0.7z"/>
	<path class="st6" d="M28.8,48.1c0-1.1-0.6-2-0.8-3c-0.3-1.6-0.5-3.2-0.4-4.9c0-0.2,0.1-0.4,0.2-0.6c-0.3-0.5-0.3-1.1-0.2-1.6
		c0.2-2.3,0.5-4.7,0.7-7c0-0.4,0.1-0.8,0.4-1.1c0.1-1,0.1-2,0.2-3c1.1,2.4,2.7,2.9,5.5,1.6c-0.2,2.3-0.5,4.6-0.7,6.9
		c-0.1,1.4-0.3,2.9-0.4,4.3c-0.1,1.3-0.2,2.6-0.2,4c-0.1,2.5,0.9,4.6,2.4,6.5c2.5,3.1,5,6.1,7.4,9.2c0.7,0.9,1.5,1.7,2.2,2.5
		c-0.3,0.3-0.7,0.1-1-0.1c-0.9-0.4-1.6-1-2.4-1.5c-0.7-0.7-1.7-1.1-2.3-1.9c-0.5-0.4-1-0.9-1.6-1.1c-0.8-0.9-1.8-1.4-2.7-2.1
		c-2.4-1.7-4.5-3.8-5.9-6.5C29.1,48.4,29,48.1,28.8,48.1z"/>
	<path class="st3" d="M72.9,18.4c0-0.3,0.1-0.7,0.3-1c0.8-1.2,0.7-2.3,0-3.5c-0.7-1.2-0.1-2.6,1.2-3.2c0.4-0.2,0.7-0.1,1.1-0.2
		c1.1,0,1.8-0.4,2.4-1.4c1.2-2,3.1-2,4.3,0c0.6,0.9,1.4,1.3,2.4,1.4c2.2,0.1,3.2,1.7,2.1,3.6c-0.6,1-0.5,1.9,0,2.9
		c1,1.9,0,3.6-2.2,3.6c-1,0-1.8,0.4-2.3,1.3c-1.2,2-3.1,2-4.4,0c-0.6-1-1.4-1.3-2.5-1.3C73.9,20.8,72.9,19.8,72.9,18.4z"/>
	<path class="st4" d="M10.3,38c-1.3,1.6-1.3,3.6,0,5.2c0.2,0.3,0.2,0.5,0.2,0.8c0.1,2.8,0.6,5.4,1.7,8c0.5,1,1,2,1.9,2.8
		c1.1,0.9,1.5,2.1,1.4,3.5c0,0.7,0,1.4,0,2.1c-0.3,0.3-0.8,0.3-1.2,0.3c0-0.1-0.1-0.2-0.1-0.2c-1.1,0.1-0.9-0.7-0.9-1.3
		c0-0.2,0-0.4,0-0.5c0.1-1.6-0.6-2.7-2.1-3.4c-2.7-1.2-4.7-3.2-6.1-5.8c-0.8-1.5-1.3-3.1-1.4-4.9c0-0.6,0-1.1-0.8-1.4
		c-1.1-0.4-1.6-1.5-1.5-2.8c0.1-1.1,0.9-1.9,2.1-2.3C5.8,37.8,8,37.8,10.3,38z"/>
	<path class="st7" d="M15.3,25.4c-2.2-0.1-3.8-1.1-4.7-3c-0.8-1.8-0.7-3.7,0.6-5.3c1.1-1.4,2.5-2.5,3.7-3.8c0.2-0.2,0.3-0.3,0.6-0.1
		c1.3,1.4,2.9,2.6,4,4.2c1.2,1.7,1.2,3.6,0.2,5.4C18.7,24.5,17.1,25.3,15.3,25.4z"/>
	<path class="st8" d="M16.7,60.3c0.8,0,1.6,0,2.4,0c0.2,8.2,0.3,16.4,0.5,24.6c0,1.5-0.4,2.6-1.8,3.2c-1-0.3-1.8-1.2-1.8-2.3
		c0-2.7-0.2-5.3,0.1-8c0-0.3,0.1-0.6,0.1-1c-0.1-4.8,0.3-9.7,0.2-14.5C16.2,61.7,16.2,61,16.7,60.3z"/>
	<path class="st9" d="M16.7,60.3c-0.3,2.9,0,5.8-0.2,8.7c-0.2,2.8,0,5.6-0.2,8.4c-0.2,2.5,0,5-0.2,7.5c-0.1,1.5,0.5,2.5,1.6,3.3
		c-2.1,0.8-4.1-0.6-4-3c0-2.9,0.1-5.8,0.2-8.8c0.1-5,0.2-9.9,0.3-14.9c0-0.3,0-0.6,0-0.9c0.3-0.5,0.8-0.2,1.2-0.3
		C15.9,60.3,16.3,60.3,16.7,60.3z"/>
	<path class="st2" d="M51.1,0.4c0,5.4,0,10.8,0,16.1c-1.1,0-2.1,0-3.2,0c-0.3-0.4-0.3-0.9-0.3-1.4c0-4.4,0-8.7,0-13.1
		c0-1.1,0-1.1-1-0.8c-0.6,0.2-1.3,0.4-1.9,0.6c-0.3,0.1-0.7,0.3-1,0c0.1-0.3,0.6-0.3,0.5-0.7c1.7-0.4,3.4-0.8,5.1-1.2
		C49.9-0.1,50.5,0.2,51.1,0.4z"/>
	<path class="st10" d="M10.3,38c-2.2,0-4.5,0-6.7,0c0.4-0.3,0.8-0.2,1.2-0.2c6.2,0,12.3,0,18.5,0c0.3,0,0.6,0,1.1,0
		c-1.2-1.8-1.5-3.6-0.5-5.5c1-1.8,2.7-2.6,4.7-2.5c-0.2,1.5-0.4,3-0.5,4.4c-0.1,1.8-0.4,3.6-0.4,5.3c-1.1-0.4-2.1-0.7-3-1.5
		c-0.3-0.3-0.6-0.1-0.9-0.1C19.3,38,14.8,38,10.3,38z"/>
	<path class="st10" d="M71.5,39.4c-0.4-0.7-0.3-1.5-0.3-2.2c-0.2-2.5-0.6-4.9-0.6-7.3c2.5-0.1,4.4,1.2,5,3.5
		c0.6,2.1-0.3,4.4-2.2,5.5C72.9,39.2,72.2,39.4,71.5,39.4z"/>
	<path class="st10" d="M41.7,60c0.8,0.5,1.6,1,2.5,1.5c0.3,0.2,0.6,0.3,0.9,0.3c3,1.3,6,1.2,9,0c1.2-0.5,2.3-1.2,3.4-2
		c0.2,0.1,0.2,0.3,0.2,0.5c0,2.2,0.2,4.5-0.5,6.7c-1.1,3.3-4.3,6-8.8,5.5c-3.4-0.4-6.3-3-6.9-6.7c-0.3-1.7-0.1-3.5-0.1-5.3
		C41.5,60.3,41.6,60.1,41.7,60z"/>
	<path class="st5" d="M41.7,60c0,1.7-0.1,3.4,0,5.1c0.1,3.6,3.6,6.9,7.2,7.1c3.9,0.3,7.4-2.3,8.2-5.9c0.2-0.7,0.3-1.5,0.3-2.3
		c0-1.4,0-2.8,0-4.2c0.7-0.6,1.4-1.2,2.3-1.6c0,2.4,0.1,4.8-0.1,7.2c-0.4,4.8-4.5,8.9-9.2,9.2c-5.9,0.4-10.2-3.8-10.9-8.2
		c-0.5-2.7-0.1-5.4-0.2-8.1C40.2,58.8,41,59.3,41.7,60z"/>
	<path class="st10" d="M47.2,37.9c0-1.2,0-2.3,0-3.5c0-0.5,0.1-0.7,0.6-0.7c1.2,0,2.4,0,3.5,0c0.4,0,0.6,0.1,0.6,0.6
		c0,2.2,0,4.5,0,6.7c0,1.5-1.2,2.5-2.6,2.4c-1.3-0.1-2.2-1.1-2.2-2.5C47.2,39.9,47.2,38.9,47.2,37.9z"/>
	<path class="st11" d="M43,49.9c-0.5-0.7-1.1-1.3-1.4-2.3c5.3,2.3,10.6,2.4,16,0c-0.4,1.2-0.9,2-1.9,2.5c-1.3,0.7-2.8,1-4.3,1.1
		c-2.2,0.2-4.4,0.1-6.5-0.5C44.2,50.5,43.6,50.1,43,49.9z"/>
	<path class="st12" d="M41.9,37.3c0,0.5,0,1-0.1,1.5c-0.1,0.8-0.7,1.3-1.5,1.3c-0.8,0-1.4-0.4-1.5-1.2c-0.2-1-0.2-2,0-3.1
		c0.1-0.8,0.8-1.4,1.5-1.3c0.8,0.1,1.3,0.5,1.5,1.3C41.9,36.3,41.9,36.8,41.9,37.3z"/>
	<path class="st12" d="M57.3,37.3c0-0.5,0-0.9,0-1.4c0.1-0.8,0.7-1.4,1.5-1.4c0.7,0,1.5,0.6,1.5,1.3c0.1,1,0.1,2,0,2.9
		c-0.1,0.8-0.8,1.4-1.5,1.3c-0.8,0-1.4-0.6-1.5-1.5C57.3,38.2,57.3,37.7,57.3,37.3C57.3,37.3,57.3,37.3,57.3,37.3z"/>
	<path class="st13" d="M43,49.9c1.2,0.3,2.4,0.7,3.7,0.9c2.8,0.5,5.6,0.3,8.4-0.6c0.2-0.1,0.4-0.1,0.7-0.1c-0.3,0.6-0.9,0.9-1.5,1.2
		c-3.5,1.9-7.7,1.5-10.8-1C43.3,50.1,43.1,50,43,49.9z"/>
	<path class="st14" d="M42.8,31.8c-1.8-0.3-3.6-0.2-5.4,0c-0.7,0.1-0.7-0.2-0.4-0.7c0.7-1.3,1.8-1.9,3.2-2c1.4,0,2.6,0.5,3.4,1.7
		c0.1,0.2,0.4,0.6,0.2,0.8C43.5,32,43.1,31.6,42.8,31.8z"/>
	<path class="st14" d="M61.2,31.8c-1.7-0.3-3.5-0.2-5.3,0c-0.8,0.1-0.8-0.2-0.5-0.8c1.2-2.3,4.9-2.5,6.4-0.3c0.2,0.3,0.6,0.7,0.4,1
		C62.1,32,61.6,31.7,61.2,31.8z"/>
	<path class="st14" d="M49.6,54c1.3,0,2.2,1.4,1.6,2.6c-0.4,0.8-0.9,1.5-1.4,2.3c-0.2,0.3-0.3,0.3-0.5,0c-0.5-0.8-1.1-1.4-1.4-2.2
		C47.4,55.3,48.3,53.9,49.6,54z"/>
	<path class="st5" d="M43.7,1.9c1.1-0.4,2.3-0.7,3.4-1.1c0.6-0.2,0.9-0.3,0.8,0.6c0,5,0,10.1,0,15.1c-3.6-0.1-7.3,0.3-10.9,0.9
		c-0.4,0.1-0.9,0.1-0.8-0.5c0.1-3.1,0-6.2,0.7-9.2c0.6-2.4,2-4.2,4.5-4.9C42.2,2.5,42.9,2.2,43.7,1.9z"/>
	<path class="st15" d="M80,18.1c-1.4,0-2.5-1-2.5-2.4c0-1.3,1.1-2.4,2.4-2.5c1.4,0,2.5,1.1,2.6,2.4C82.5,17,81.4,18.1,80,18.1z"/>
</g>
</svg>
