<?xml version="1.0" encoding="utf-8"?>
<!-- Generator: Adobe Illustrator 23.0.0, SVG Export Plug-In . SVG Version: 6.00 Build 0)  -->
<svg version="1.1" id="Layer_1" xmlns="http://www.w3.org/2000/svg" xmlns:xlink="http://www.w3.org/1999/xlink" x="0px" y="0px"
	 width="100.3px" height="100.3px" viewBox="0 0 100.3 100.3" style="enable-background:new 0 0 100.3 100.3;" xml:space="preserve"
	>
<style type="text/css">
	.st0{fill:#6E82B6;}
	.st1{fill:#466088;}
	.st2{fill:#7FD5FA;}
	.st3{fill:#6E83B6;}
	.st4{fill:#FEFEFE;}
	.st5{fill:#FCFDFE;}
</style>
<g>
	<path class="st0" d="M50.1,80.7c0,6.3,0,12.6,0,18.8c0,0.6-0.2,0.8-0.8,0.7c-2.2,0-4.5,0-6.7,0c-0.6,0-0.8-0.3-0.9-0.8
		c-1.2-4.3-2.4-8.6-3.6-12.9c-0.2-0.7-0.5-1.1-1.2-1.3c-0.6-0.2-1.3-0.4-1.9-0.8c-1-0.7-1.8-0.4-2.8,0.2c-3.7,2.1-7.4,4.2-11.1,6.3
		c-0.6,0.3-0.9,0.2-1.3-0.2c-3.4-3.5-6.9-6.9-10.4-10.4C9,80,9,79.7,9.4,79.1c2.2-3.9,4.4-7.7,6.6-11.6c0.4-0.7,0.5-1.2,0-1.9
		c-0.2-0.4-0.4-0.8-0.5-1.2c-0.3-1.7-1.4-2.3-3-2.6c-3.9-1-7.8-2.1-11.7-3.2C0.2,58.4,0,58.1,0,57.5c0-4.9,0-9.7,0-14.6
		c0-0.7,0.2-0.9,0.8-1.1c4.3-1.2,8.6-2.4,12.9-3.6c0.7-0.2,1.1-0.5,1.3-1.1c0.2-0.6,0.4-1.2,0.7-1.7c0.8-1.2,0.5-2.2-0.2-3.3
		c-2.1-3.6-4.1-7.3-6.2-10.9C9,20.7,9,20.4,9.5,20c3.5-3.5,7-7,10.5-10.5c0.4-0.4,0.7-0.4,1.2-0.1c3.9,2.2,7.8,4.4,11.7,6.6
		c0.6,0.4,1.1,0.4,1.8,0.1c0.7-0.4,1.4-0.7,2.2-0.9c1-0.2,1.3-0.8,1.5-1.7c1.1-4.2,2.3-8.3,3.4-12.5c0.2-0.8,0.5-1,1.3-1
		c2.1,0.1,4.3,0,6.4,0c0.6,0,0.8,0.2,0.8,0.7c0,6.3,0,12.6,0,18.8c-0.9,0.5-2,0.3-3,0.4c-6.6,0.7-12.4,3.3-17.3,7.8
		c-5.4,4.9-8.7,11-9.6,18.2c-1.2,9.2,1.3,17.3,7.4,24.3c4.9,5.5,11,8.8,18.3,9.8c1,0.2,2.1,0.3,3.1,0.3
		C49.4,80.5,49.8,80.4,50.1,80.7z"/>
	<path class="st1" d="M50.1,80.7c-7.1,0-13.4-2.3-19-6.7c-5.4-4.3-8.9-9.8-10.6-16.4c-0.9-3.4-1.1-6.8-0.8-10.4
		c0.6-5.7,2.5-10.9,5.9-15.4c5-6.6,11.6-10.6,19.8-11.9c1.5-0.2,3.1-0.4,4.6-0.4c0,4.4,0,8.8,0,13.2c-0.6,0.5-1.4,0.3-2.2,0.4
		c-9,1.3-15.3,8.8-14.9,17.8c0.4,8.3,6.6,14.8,14.6,16c0.8,0.1,1.7,0,2.5,0.5C50.1,71.9,50.1,76.3,50.1,80.7z"/>
	<path class="st2" d="M50.2,67.5c-8.5-0.3-15.1-5.7-16.9-13.6c-2.1-9.3,3.8-18.6,13.2-20.7c1.2-0.3,2.5-0.4,3.7-0.4
		c2.8,0,5.5,0.7,8,2c0.4,0.2,0.7,0.3,1.2,0.3c4.4,0,8.9,0,13.3,0c0.8,0,1-0.2,1-1c0-5.1,0-10.2,0-15.4c0.7-0.4,1.3-0.4,2,0
		c0,5.8,0,11.6,0,17.4c0,0.8-0.2,1-1,1c-4,0-7.9,0-11.9,0c-0.3,0-0.6,0-1.1,0c1.5,1.4,2.6,2.9,3.6,4.5c0.3,0.4,0.6,0.6,1.1,0.6
		c2.4,0,4.8,0,7.2,0c0.5,0,0.8-0.2,1.2-0.5c2.3-2,4.6-4,6.9-6c0.3-0.2,0.5-0.4,0.8-0.6c0.7,0.3,1.2,0.9,1.6,1.6
		c-1.1,0.3-1.7,1.2-2.5,1.9c-2,1.7-4,3.4-6,5.2c-0.4,0.4-0.8,0.5-1.4,0.5c-2.2,0-4.5,0-6.7,0c-0.9,0-1,0.2-0.7,1
		c0.4,1,0.6,2,0.6,3.1c0,0.7,0.4,0.9,1.1,0.9c6,0,12,0,18,0c0.5,0,1.1,0,1.6,0c0.4,0.7,0.4,1.3,0,2c-6.5,0-13,0-19.4,0
		c-0.9,0-1.3,0.2-1.3,1.1c0,1.1-0.3,2.1-0.7,3.2c-0.2,0.7,0,0.8,0.6,0.8c2.3,0,4.6,0,6.9,0c0.6,0,1,0.1,1.5,0.5
		c2.4,2.1,4.8,4.2,7.2,6.3c0.3,0.3,0.6,0.7,1.1,0.7c-0.3,0.7-0.8,1.3-1.6,1.6c-2.3-2-4.7-4-7-6.1c-0.7-0.6-1.4-1-2.4-0.9
		c-2.2,0.1-4.4,0-6.6,0c-0.6,0-1.1,0.1-1.4,0.7c-0.9,1.5-2,2.9-3.4,4.2c2.4,0,4.5,0,6.7,0c2.1,0,4.2,0,6.3,0c0.8,0,1,0.2,1,1
		c0,5.8,0,11.6,0,17.4c-0.7,0.4-1.3,0.4-2,0c0-5.1,0-10.2,0-15.3c0-0.8-0.2-1.1-1.1-1.1c-4.4,0-8.8,0-13.1,0c-0.4,0-0.9,0.1-1.3,0.3
		C55.7,66.8,53,67.5,50.2,67.5z"/>
	<path class="st3" d="M75.6,18.8c-0.7,0-1.3,0-2,0c-1.6-0.5-3-1.1-3.9-2.5c-1.6-2.3-1.6-5.1,0.1-7.3c1.5-2.1,4.3-2.9,6.8-2
		c2.5,0.9,4.2,3.2,4.1,5.9c-0.1,2.6-1.9,5-4.4,5.7C76.1,18.6,75.8,18.7,75.6,18.8z"/>
	<path class="st3" d="M88.1,51.2c0-0.7,0-1.3,0-2c0.7-2.5,2.1-4.4,4.8-5c3.1-0.7,6.4,1.2,7.2,4.3c0.8,3.2-0.9,6.5-4.1,7.4
		c-3.1,1-6.4-0.6-7.5-3.7C88.3,51.9,88.2,51.6,88.1,51.2z"/>
	<path class="st3" d="M73.6,81.6c0.7,0,1.3,0,2,0c2.5,0.7,4.3,2.1,4.9,4.8c0.7,3.1-1.2,6.4-4.3,7.2c-3.2,0.8-6.5-0.9-7.4-4.1
		c-1-3.1,0.6-6.4,3.7-7.5C72.8,81.8,73.2,81.7,73.6,81.6z"/>
	<path class="st3" d="M84,36.7c-0.6-0.4-1-1.1-1.6-1.6c-1-2.1-1.2-4.3,0-6.4c1.7-2.9,5.5-3.8,8.4-2.1c2.9,1.7,3.9,5.4,2.2,8.3
		c-1.7,2.9-5.4,3.9-8.3,2.2C84.4,37,84.2,36.8,84,36.7z"/>
	<path class="st3" d="M82.4,65.3c0.5-0.5,0.9-1.2,1.6-1.6c2.1-1.5,4.3-1.7,6.5-0.6c2.1,1.1,3.2,2.9,3.3,5.2c0.1,2.5-1.4,4.8-3.6,5.8
		c-2.3,1-5,0.5-6.8-1.2c-1.8-1.7-2.3-4.4-1.4-6.7C82.1,65.9,82.3,65.6,82.4,65.3z"/>
	<path class="st4" d="M37.9,49.1c-0.4,0-0.9,0-1.3,0c-1.7,0-1.7,0-1.4-1.7c0.5-2.9,1.8-5.4,3.8-7.6c0.4-0.4,0.7-0.5,1.2-0.1
		c0.7,0.5,1.7,0.8,2,1.5c0.3,0.6-0.3,1.6-0.4,2.4c-0.3,1.6-0.5,3.2-0.6,4.8c0,0.5-0.2,0.7-0.7,0.7C39.5,49.1,38.7,49.1,37.9,49.1z"
		/>
	<path class="st4" d="M62.3,49.1c-0.4,0-0.7,0-1.1,0c-1.9,0-1.9,0-2-1.8c-0.1-1.9-0.5-3.8-1-5.6c-0.1-0.4-0.1-0.7,0.4-0.9
		c0.4-0.2,0.8-0.5,1.1-0.7c1.3-0.9,1.3-0.9,2.3,0.3c1.9,2.3,3.1,5,3.4,8c0.1,0.5-0.1,0.7-0.6,0.6C64,49.1,63.2,49.1,62.3,49.1z"/>
	<path class="st4" d="M38,51.2c0.2,0,0.4,0,0.6,0c2.4,0,2.4,0,2.6,2.4c0.1,1.7,0.4,3.3,0.9,4.9c0.2,0.6,0.1,0.9-0.4,1.1
		c-0.4,0.2-0.9,0.5-1.2,0.8c-0.7,0.7-1.3,0.5-1.9-0.2c-2-2.4-3.2-5.2-3.6-8.3c-0.1-0.5,0.1-0.6,0.6-0.6C36.3,51.2,37.2,51.2,38,51.2
		z"/>
	<path class="st4" d="M62.4,51.2c0.8,0,1.6,0,2.4,0c0.4,0,0.6,0.1,0.5,0.6c-0.4,3.3-1.7,6.2-4,8.7c-0.4,0.4-0.6,0.5-1.1,0.1
		c-0.7-0.5-1.8-0.8-2.1-1.5c-0.3-0.6,0.3-1.6,0.5-2.4c0.3-1.6,0.5-3.1,0.6-4.7c0-0.6,0.3-0.8,0.9-0.8C60.9,51.2,61.6,51.2,62.4,51.2
		z"/>
	<path class="st4" d="M51.2,46c0-0.7,0.1-1.4,0-2c-0.1-0.7,0.2-1.1,0.9-1.1c1.2-0.1,2.3-0.3,3.5-0.7c0.5-0.2,0.6,0,0.8,0.4
		c0.5,1.9,0.7,3.8,1,5.8c0.1,0.6-0.1,0.8-0.7,0.8c-1.6,0-3.1,0-4.7,0c-0.5,0-0.7-0.2-0.7-0.7C51.2,47.6,51.2,46.8,51.2,46z"/>
	<path class="st4" d="M49.1,46.1c0,0.7,0,1.4,0,2.1c0,0.6-0.1,0.9-0.8,0.9c-1.5,0-3,0-4.5,0c-0.6,0-0.9-0.2-0.8-0.8
		c0.2-1.9,0.4-3.9,1-5.8c0.1-0.5,0.3-0.6,0.8-0.4c1.1,0.4,2.3,0.7,3.5,0.7c0.6,0,1,0.3,0.9,1C49.1,44.6,49.1,45.4,49.1,46.1z"/>
	<path class="st4" d="M46.3,51.2c0.8,0.1,2-0.4,2.7,0.2c0.6,0.6,0.1,1.8,0.2,2.8c0,0.7,0,1.5,0,2.2c0.1,0.7-0.2,1-0.9,1.1
		c-1.2,0-2.4,0.4-3.6,0.7c-0.4,0.1-0.6,0.1-0.7-0.4c-0.5-1.9-0.8-3.9-1-5.9c-0.1-0.6,0.2-0.8,0.8-0.7C44.6,51.2,45.4,51.2,46.3,51.2
		z"/>
	<path class="st4" d="M54.2,51.2c0.8,0,1.6,0,2.3,0c0.5,0,0.8,0.2,0.7,0.7c-0.2,2-0.4,4-1,6c-0.1,0.3-0.2,0.5-0.6,0.4
		c-1.3-0.5-2.6-0.7-4-0.9c-0.5-0.1-0.6-0.3-0.6-0.7c0-1.6,0-3.2,0-4.8c0-0.6,0.2-0.7,0.7-0.7C52.7,51.2,53.5,51.2,54.2,51.2z"/>
	<path class="st4" d="M49.1,38.1c0,0.4,0,0.8,0,1.2c0,1.7,0,1.7-1.7,1.5c-2.7-0.4-2.9-0.8-1.4-3.1c0.6-1,1.4-1.8,2.4-2.4
		c0.5-0.3,0.7-0.2,0.7,0.4C49.1,36.5,49.1,37.3,49.1,38.1z"/>
	<path class="st4" d="M51.2,38c0-0.7,0-1.5,0-2.2c0-0.6,0.2-0.8,0.7-0.4c1.7,1,2.6,2.6,3.4,4.3c0.2,0.4-0.1,0.4-0.4,0.6
		c-1.1,0.4-2.2,0.6-3.3,0.7c-0.5,0.1-0.5-0.3-0.5-0.6C51.2,39.6,51.2,38.8,51.2,38z"/>
	<path class="st4" d="M49.1,65.3c-2.2-1-3.2-2.7-4.1-4.6c-0.2-0.4,0.1-0.5,0.4-0.6c1-0.4,2.1-0.5,3.2-0.7c0.5-0.1,0.5,0.2,0.5,0.5
		C49.1,61.7,49.1,63.4,49.1,65.3z"/>
	<path class="st4" d="M51.2,62.3c0-0.8,0-1.6,0-2.3c0-0.3,0-0.6,0.5-0.5c1.1,0.2,2.2,0.3,3.3,0.7c0.3,0.1,0.5,0.2,0.3,0.6
		c-0.8,1.7-1.7,3.2-3.3,4.3c-0.5,0.3-0.8,0.3-0.8-0.4C51.2,63.8,51.2,63,51.2,62.3z"/>
	<path class="st5" d="M44.6,36.1c-0.5,0.9-1,1.8-1.4,2.7c-0.2,0.3-0.4,0.4-0.6,0.2c-0.1-0.1-0.3-0.2-0.4-0.2c-1.2-0.7-1.2-0.8,0-1.5
		C42.9,36.7,43.6,36.2,44.6,36.1z"/>
	<path class="st5" d="M55.7,36.1c1.4,0.3,2.3,1,3.3,1.6c0.3,0.2,0.2,0.4-0.1,0.6c-0.4,0.2-0.7,0.5-1.1,0.7c-0.3,0.2-0.5,0.1-0.7-0.2
		C56.7,37.9,56.2,37.1,55.7,36.1z"/>
	<path class="st5" d="M44.7,64.3c-1.4-0.2-2.3-1-3.3-1.6c-0.3-0.2-0.2-0.4,0-0.6c0.1-0.1,0.2-0.1,0.3-0.2c1.2-0.8,1.2-0.8,1.8,0.4
		c0.2,0.3,0.3,0.7,0.5,1C44.3,63.6,44.4,63.8,44.7,64.3z"/>
	<path class="st5" d="M55.7,64.3c0.5-0.8,0.8-1.5,1.2-2.1c0.2-0.3,0.2-0.9,0.7-0.8c0.6,0.1,1.1,0.5,1.5,0.9c0.2,0.2,0,0.3-0.1,0.4
		C57.9,63.3,57,64,55.7,64.3z"/>
</g>
</svg>
