<?xml version="1.0" encoding="utf-8"?>
<!-- Generator: Adobe Illustrator 23.0.0, SVG Export Plug-In . SVG Version: 6.00 Build 0)  -->
<svg version="1.1" id="Layer_1" xmlns="http://www.w3.org/2000/svg" xmlns:xlink="http://www.w3.org/1999/xlink" x="0px" y="0px"
	 width="85.1px" height="85.2px" viewBox="0 0 85.1 85.2" style="enable-background:new 0 0 85.1 85.2;" xml:space="preserve">
<style type="text/css">
	.st0{fill:#2195F2;}
	.st1{fill:#EBEEF0;}
	.st2{fill:#1976D1;}
	.st3{fill:#455A64;}
	.st4{fill:#F9F9F9;}
	.st5{fill:#2196F2;}
</style>
<g>
	<path class="st0" d="M0,63.7C0,45,0,26.2,0,7.4c0.3-1,0.2-2,0.8-2.9c1.1-1.9,2.6-3.3,4.7-4.1C6.3,0,7.3,0,8.3,0
		c9.6,0,19.2,0,28.8,0c1.5,0,1.9,0.3,2.4,1.7c1.4,4.1,2.8,8.2,4.2,12.3c0.9,2.7,1.9,5.4,2.8,8.2c1.4,4,2.8,8.1,4.1,12.1
		c0.1,0.4,0.3,0.8,0.4,1.3c0.5,1.1,0.8,2.3,1.2,3.5c0.7,1.9,1.4,3.9,2,5.9c1,3.3,2.3,6.4,3.3,9.7c0.1,0.3,0.1,0.6,0.2,0.9
		c0.5,1.2,1,2.5,1.4,3.7c1.1,3.1,2.1,6.1,3.2,9.2c0.5,1.4-0.3,2.7-1.5,2.9c-0.9,0.2-1.9,0.2-2.8,0.2c-4.8,0-9.6,0-14.4,0
		c-0.7,0-1.4-0.1-2.2,0c-0.5,0.1-1,0-1.5,0c-10.1,0-20.2,0-30.3,0c-1.8,0-3.5-0.2-5.1-1.1c-2.4-1.4-4.2-3.2-4.4-6.1
		C0.1,64.1,0.1,63.9,0,63.7z"/>
	<path class="st1" d="M61,71c1.1-0.8,1.2-1.8,0.7-3.1c-1.1-2.9-2-5.8-3-8.7c0-0.3,0.1-0.5,0.3-0.7c0.9-0.8,1.8-1.7,2.7-2.5
		c0.5-0.4,0.9-0.1,1.3,0.3c1.4,1.4,2.9,2.9,4.3,4.3c0.8,0.8,1.5,1.6,2.4,2.3c0.8,0.6,1.5,0.7,2.1,0.1c0.5-0.6,0.5-1.5-0.2-2.1
		c-1.9-1.7-3.7-3.6-5.6-5.4c-0.4-0.4-0.8-0.7-1.1-1.1c-0.7-0.7-0.7-1-0.1-1.8c0.9-1.2,1.7-2.3,2.5-3.5c1.9-2.9,3.5-5.9,4.5-9.1
		c0.3-1,0.5-1.1,1.5-1.1c0.7,0,1.5,0,2.2,0c0.4,0,0.8-0.1,1.2-0.3c0.5-0.2,0.8-0.6,0.8-1.2c0-0.6-0.3-0.9-0.8-1.2
		c-0.5-0.2-1-0.3-1.5-0.3c-3.2,0-6.4,0-9.6,0c-0.4,0-0.7,0-1.1,0c-0.8-0.1-1-0.3-1.1-1.1c0-0.4,0-0.7-0.1-1.1
		c-0.2-0.8-0.7-1.3-1.4-1.2c-0.6,0-1.1,0.6-1.2,1.4c0,0.1,0,0.1,0,0.2c0,2-0.4,1.9-2,1.9c-2.4,0-4.9,0-7.3,0c-0.3,0-0.5-0.1-0.7-0.2
		c-1.4-4-2.8-8.1-4.2-12.1c-1.1-3.1-2.1-6.2-3.1-9.3c0.2-0.3,0.5-0.4,0.8-0.4c0.5,0,0.9,0,1.4,0c9.7,0,19.4,0,29.2,0
		c2.2,0,4.3,0.2,6.2,1.4c2.4,1.5,4.1,3.6,4,6.6c0,0.1,0,0.2,0.1,0.2c0,18.5,0,37,0,55.5C84.9,77.8,85,78,85,78.3
		c-0.3,3.2-2.3,5.1-5,6.5c-0.8,0.4-1.7,0.2-2.6,0.5c-9.7,0-19.4,0-29.1,0c-0.1-0.2,0-0.4,0.1-0.5c3-3.1,5.8-6.5,8.7-9.7
		c0.9-1,1.8-2.1,2.7-3.1C60.2,71.4,60.6,71.2,61,71z"/>
	<path class="st2" d="M47.4,85.2c-0.7-0.4-1.1-0.9-1.4-1.7c-1.5-4.2-3.1-8.3-4.6-12.5c6,0,11.9,0,17.9,0c0.6,0,1.1-0.2,1.7,0
		c-3.6,4.2-7.2,8.3-10.9,12.5c-0.5,0.6-1,1.3-1.8,1.7C48,85.2,47.7,85.2,47.4,85.2z"/>
	<path class="st3" d="M50.7,35.7c0.4-0.1,0.9-0.1,1.3-0.1c2.5,0,5,0,7.6,0c0.5,0,0.8-0.1,0.7-0.7c0-0.4,0-0.8,0-1.2
		c0.1-0.8,0.7-1.5,1.5-1.6c0.8-0.1,1.6,0.4,1.9,1.2c0.1,0.2,0.1,0.4,0.1,0.6c0.1,0.5-0.2,1.3,0.1,1.6c0.4,0.4,1.2,0.1,1.8,0.1
		c3.4,0,6.8,0,10.2,0c1.1,0,1.8,0.5,2,1.3c0.3,1.2-0.5,2.2-1.8,2.2c-1,0-2,0-3.1,0c-0.4,0-0.6,0.1-0.7,0.5
		c-1.5,4.9-4.1,9.2-7.2,13.2c-0.4,0.6-0.4,0.9,0.1,1.3c2.2,2.2,4.5,4.5,6.8,6.6c1.2,1.1,0.8,2.8-0.6,3.2c-0.8,0.2-1.3-0.1-1.9-0.6
		c-2.2-2-4.4-4.2-6.5-6.3c-0.3-0.3-0.5-0.5-0.8-0.8c-1.1,1.2-2.3,2.2-3.5,3.2c-0.5-1.2-0.9-2.4-1.3-3.6c0-0.6,0.6-0.9,0.9-1.3
		c0.8-0.8,0.8-0.9,0.1-1.7c-1.1-1.4-2.3-2.8-3.2-4.3c-0.3-0.6-0.6-1.2-0.7-1.9c-0.2-1,0.2-1.8,1.1-2.2c0.9-0.4,2.1-0.1,2.6,0.7
		c0.8,1.2,1.5,2.5,2.4,3.6c0.3,0.3,0.5,0.6,0.8,0.9c0.5,0.6,0.6,0.6,1.1,0c1.2-1.6,2.3-3.3,3.3-5c0.7-1.2,1.3-2.5,1.8-3.7
		c0.4-1.1,0.4-1.2-0.8-1.2c-4.5,0-9,0-13.5,0c-0.6,0-1.1,0.1-1.5-0.4C51.5,38,51.1,36.8,50.7,35.7z"/>
	<path class="st4" d="M24.8,39.1c-1,0-2.1,0-3.1,0c-0.5,0-0.8,0.2-0.9,0.7c-1,2.8-2,5.6-3,8.4c-0.3,0.7-0.6,1.3-1.4,1.5
		c-1.4,0.3-2.5-1-2-2.5c0.7-2.1,1.5-4.2,2.3-6.3c2.1-5.9,4.2-11.8,6.3-17.7c0.4-1.2,1-1.7,2-1.6c0.8,0.1,1.3,0.5,1.6,1.3
		c2.9,8.1,5.8,16.3,8.7,24.4c0.4,1.1,0,2.1-1,2.5c-1,0.3-1.9-0.1-2.3-1.3c-1-2.8-2-5.6-3-8.4c-0.2-0.7-0.6-0.9-1.3-0.9
		C26.7,39.2,25.7,39.1,24.8,39.1z"/>
	<path class="st1" d="M51.9,39.1c5.4,0,10.8,0,16.2,0c0.6,0,0.7,0.2,0.5,0.7c-1.5,3.9-3.6,7.3-6.1,10.6c-0.2,0.3-0.4,0.3-0.6,0
		c-1.3-1.5-2.6-3-3.4-4.8c-0.6-1.1-1.5-1.5-2.5-1.1c-1,0.5-1.2,1.5-0.7,2.6c1,2.1,2.5,3.9,4.1,5.6c0.5,0.5,0.4,0.8-0.1,1.2
		c-0.6,0.5-1.1,1.1-1.7,1.5c-1.7-5-3.5-10-5.2-15C52.2,40.1,52,39.6,51.9,39.1z"/>
	<path class="st5" d="M24.8,28.4c0.8,2.3,1.6,4.4,2.3,6.5c0.2,0.5,0,0.6-0.4,0.6c-1.3,0-2.6,0-3.9,0c-0.3,0-0.6,0-0.4-0.4
		C23.2,32.9,24,30.8,24.8,28.4z"/>
</g>
</svg>
