<svg width="143" height="50" viewBox="0 0 143 50" fill="none" xmlns="http://www.w3.org/2000/svg">
<path d="M72.0965 33.0007V16.2007H75.6965V33.0007H72.0965ZM61.5605 33.0007V16.2007H65.1605V33.0007H61.5605ZM64.7045 25.8727V22.9687H72.6725V25.8727H64.7045ZM84.7625 33.2887C83.5145 33.2887 82.4105 33.0327 81.4505 32.5207C80.5065 32.0087 79.7705 31.2967 79.2425 30.3847C78.7145 29.4567 78.4505 28.3927 78.4505 27.1927C78.4505 25.9607 78.7065 24.8647 79.2185 23.9047C79.7465 22.9447 80.4825 22.1927 81.4265 21.6487C82.3865 21.0887 83.4985 20.8087 84.7625 20.8087C85.9465 20.8087 87.0025 21.0647 87.9305 21.5767C88.8585 22.0887 89.5865 22.7927 90.1145 23.6887C90.6425 24.5847 90.9065 25.6167 90.9065 26.7847C90.9065 26.9447 90.8985 27.1287 90.8825 27.3367C90.8825 27.5287 90.8665 27.7287 90.8345 27.9367H80.9945V25.8247H87.2345C87.1865 25.2007 86.9305 24.6887 86.4665 24.2887C86.0185 23.8887 85.4585 23.6887 84.7865 23.6887C84.2745 23.6887 83.8025 23.8087 83.3705 24.0487C82.9385 24.2727 82.6025 24.6247 82.3625 25.1047C82.1225 25.5687 82.0025 26.1607 82.0025 26.8807V27.5767C82.0025 28.1207 82.1065 28.6087 82.3145 29.0407C82.5385 29.4567 82.8585 29.7847 83.2745 30.0247C83.6905 30.2487 84.1785 30.3607 84.7385 30.3607C85.2505 30.3607 85.6825 30.2487 86.0345 30.0247C86.3865 29.8007 86.6585 29.5127 86.8505 29.1607H90.5465C90.3065 29.9287 89.9145 30.6247 89.3705 31.2487C88.8265 31.8727 88.1625 32.3687 87.3785 32.7367C86.5945 33.1047 85.7225 33.2887 84.7625 33.2887ZM93.4818 33.0007V15.7207H97.0818V33.0007H93.4818ZM100.139 38.2807V21.0967H103.331L103.739 22.6567C103.995 22.3207 104.291 22.0167 104.627 21.7447C104.963 21.4567 105.371 21.2327 105.851 21.0727C106.331 20.8967 106.883 20.8087 107.507 20.8087C108.611 20.8087 109.595 21.0807 110.459 21.6247C111.339 22.1687 112.035 22.9127 112.547 23.8567C113.075 24.8007 113.339 25.8727 113.339 27.0727C113.339 28.2567 113.075 29.3207 112.547 30.2647C112.035 31.2087 111.339 31.9527 110.459 32.4967C109.595 33.0247 108.611 33.2887 107.507 33.2887C106.659 33.2887 105.923 33.1367 105.299 32.8327C104.675 32.5287 104.155 32.1047 103.739 31.5607V38.2807H100.139ZM106.643 30.1447C107.235 30.1447 107.755 30.0167 108.203 29.7607C108.667 29.4887 109.027 29.1207 109.283 28.6567C109.555 28.1927 109.691 27.6647 109.691 27.0727C109.691 26.4807 109.555 25.9527 109.283 25.4887C109.027 25.0087 108.667 24.6327 108.203 24.3607C107.755 24.0887 107.235 23.9527 106.643 23.9527C106.051 23.9527 105.523 24.0887 105.059 24.3607C104.595 24.6327 104.235 25.0007 103.979 25.4647C103.723 25.9287 103.595 26.4567 103.595 27.0487C103.595 27.6407 103.723 28.1767 103.979 28.6567C104.235 29.1207 104.595 29.4887 105.059 29.7607C105.523 30.0167 106.051 30.1447 106.643 30.1447ZM122.052 33.2887C120.804 33.2887 119.7 33.0327 118.74 32.5207C117.796 32.0087 117.06 31.2967 116.532 30.3847C116.004 29.4567 115.74 28.3927 115.74 27.1927C115.74 25.9607 115.996 24.8647 116.508 23.9047C117.036 22.9447 117.772 22.1927 118.716 21.6487C119.676 21.0887 120.788 20.8087 122.052 20.8087C123.236 20.8087 124.292 21.0647 125.22 21.5767C126.148 22.0887 126.876 22.7927 127.404 23.6887C127.932 24.5847 128.196 25.6167 128.196 26.7847C128.196 26.9447 128.188 27.1287 128.172 27.3367C128.172 27.5287 128.156 27.7287 128.124 27.9367H118.284V25.8247H124.524C124.476 25.2007 124.22 24.6887 123.756 24.2887C123.308 23.8887 122.748 23.6887 122.076 23.6887C121.564 23.6887 121.092 23.8087 120.66 24.0487C120.228 24.2727 119.892 24.6247 119.652 25.1047C119.412 25.5687 119.292 26.1607 119.292 26.8807V27.5767C119.292 28.1207 119.396 28.6087 119.604 29.0407C119.828 29.4567 120.148 29.7847 120.564 30.0247C120.98 30.2487 121.468 30.3607 122.028 30.3607C122.54 30.3607 122.972 30.2487 123.324 30.0247C123.676 29.8007 123.948 29.5127 124.14 29.1607H127.836C127.596 29.9287 127.204 30.6247 126.66 31.2487C126.116 31.8727 125.452 32.3687 124.668 32.7367C123.884 33.1047 123.012 33.2887 122.052 33.2887ZM128.706 33.0007L133.146 27.0487L128.706 21.0967H132.57L135.426 24.9847L138.258 21.0967H142.122L137.682 27.0487L142.122 33.0007H138.258L135.426 29.1127L132.57 33.0007H128.706Z" fill="#00C2FF"/>
<path fill-rule="evenodd" clip-rule="evenodd" d="M23.4625 0.0168476C23.307 0.0321822 22.8298 0.0779036 22.4022 0.118466C20.3635 0.312021 17.9934 0.872829 16.0756 1.61546C12.7113 2.91819 9.8463 4.78237 7.30675 7.32113C3.19892 11.4277 0.767171 16.5106 0.0869379 22.4118C-0.0291322 23.4186 -0.0289203 26.566 0.0872205 27.5705C0.770493 33.4785 3.19892 38.5546 7.30675 42.6612C12.965 48.3176 20.8273 50.9068 28.7288 49.7157C30.2015 49.4937 32.0766 48.9061 33.1114 48.5124C33.1114 48.3315 33.1114 40.1885 33.1114 38.7259V28.9485H24.4736H15.8357L18.9215 31.0155L22.0073 33.0824L22.0103 36.5976L22.0134 40.1127L16.5174 40.0956L11.0214 40.0784V25.3092V10.5399L16.5169 10.5218L22.0123 10.5037L22.0306 15.0091L22.0487 19.5145H27.5624H33.0761L33.094 10.4188L33.112 1.32311L32.4225 1.10765C31.0181 0.668744 29.2864 0.309477 27.6331 0.113944C26.9816 0.0368468 23.9709 -0.0331841 23.4625 0.0168476ZM44.1388 24.9912C44.1388 33.8138 44.1495 41.0324 44.1628 41.0324C44.2125 41.0324 45.126 39.8392 45.5693 39.1951C49.1447 33.9998 50.6337 27.6986 49.7524 21.4932C49.2062 17.6472 47.7821 14.0026 45.5693 10.7872C45.126 10.1431 44.2125 8.94991 44.1628 8.94991C44.1495 8.94991 44.1388 16.1685 44.1388 24.9912Z" fill="#00C2FF"/>
</svg>
