<svg xmlns="http://www.w3.org/2000/svg" width="57.44" height="65.25" viewBox="0 0 57.44 65.25">
  <defs>
    <style>
      .cls-1 {
        fill: #e95a5a;
        fill-rule: evenodd;
      }
    </style>
  </defs>
  <path class="cls-1" d="M1347,3305s22.93,8.65,22.44,21.18h0.01v21.19s-22.93-8.66-22.44-21.19H1347V3305Zm42.86,37.41a31.392,31.392,0,0,1,14.56-5.37v-6.63A29.931,29.931,0,0,0,1389.86,3342.41Zm-2.6,2a31.091,31.091,0,0,1,17.16-15.39v-19.11s-32.64,12.33-31.95,30.17h-0.01v30.17s1.46-.55,3.74-1.59c-0.01-.97.03-1.94,0.11-2.92A31.307,31.307,0,0,1,1387.26,3344.41Zm-3.11,11.21a31.649,31.649,0,0,1,1.14-6.18,29.172,29.172,0,0,0-6.82,16.48c-0.05.58-.07,1.15-0.09,1.72,1.86-.89,4.01-2,6.28-3.31A31.262,31.262,0,0,1,1384.15,3355.62Zm1.3,0.1a30.228,30.228,0,0,0,.4,7.91c8.92-5.34,18.95-13.58,18.56-23.55h0.01v-0.85a29.254,29.254,0,0,0-16.97,7.93A30.035,30.035,0,0,0,1385.45,3355.72Z" transform="translate(-1347 -3305)"/>
</svg>
