<svg xmlns="http://www.w3.org/2000/svg" width="68.94" height="58.09" viewBox="0 0 68.94 58.09">
  <defs>
    <style>
      .cls-1 {
        fill: #683aeb;
        fill-rule: evenodd;
      }
    </style>
  </defs>
  <path class="cls-1" d="M1584.04,3381.85q0.57,0.075,1.14.12a32.639,32.639,0,0,0,19.23-30.49l-6.43-6.46A37.554,37.554,0,0,1,1584.04,3381.85Zm-2.3-.3a1.163,1.163,0,0,0,.18.04,36.338,36.338,0,0,0,14.04-38.17l-9.15-9.2A44.66,44.66,0,0,1,1581.74,3381.55Zm31.07-22.49a33.615,33.615,0,0,1-10.78,18.14,34.455,34.455,0,0,1-5.12,3.7,30.205,30.205,0,0,0,19.61-18.1Zm-1.46-1.04-5.29-5.31a33.937,33.937,0,0,1-17.9,29.38h0.02a29.679,29.679,0,0,0,3.55-.22A32.643,32.643,0,0,0,1611.35,3358.02Zm-28.83-27.68-6.32-6.34a30.151,30.151,0,0,0-19.2,28.04h0a30.137,30.137,0,0,0,22.74,29.17A43.212,43.212,0,0,0,1582.52,3330.34Zm43.41,26.71a30.076,30.076,0,0,0-29.92-30.05h0a29.582,29.582,0,0,0-10.71,2l38.63,38.8a29.8,29.8,0,0,0,2-10.75h0Z" transform="translate(-1557 -3324)"/>
</svg>
