<svg xmlns="http://www.w3.org/2000/svg" width="52.16" height="57.88" viewBox="0 0 52.16 57.88">
  <defs>
    <style>
      .cls-1 {
        fill: #0c6326;
        fill-rule: evenodd;
      }
    </style>
  </defs>
  <path class="cls-1" d="M2582.36,3309.55l-22.28,38.5-22.29-38.5h44.57m1.11-2.18h-46.79a1.546,1.546,0,0,0-1.34,2.32l23.4,40.41a1.551,1.551,0,0,0,2.68,0l23.39-40.41a1.546,1.546,0,0,0-1.34-2.32h0ZM2560.08,3293L2534,3338.04h52.15Zm-6.35,17.38,1.48,2.55-7.14,12.33-1.48-2.55Zm-4.61,16.7,7.14-12.33,11.75,20.29h-14.28Z" transform="translate(-2534 -3293)"/>
</svg>
