<svg xmlns="http://www.w3.org/2000/svg" width="54.062" height="54.06" viewBox="0 0 54.062 54.06">
  <defs>
    <style>
      .cls-1 {
        fill: #0c8c78;
        fill-rule: evenodd;
      }
    </style>
  </defs>
  <path class="cls-1" d="M464.5,3635.2a21.159,21.159,0,0,1-.963,36.92,21.161,21.161,0,1,0-10.154-39.89A20.993,20.993,0,0,1,464.5,3635.2Zm-24.19,30.86a27.489,27.489,0,0,0,4.822,9.44,29.214,29.214,0,0,0,5.079,2.93,28.613,28.613,0,0,1-5.654-10.6,30.863,30.863,0,0,1-.312-15.94,29.109,29.109,0,0,1-1.594-7.99A29.351,29.351,0,0,0,440.31,3666.06Zm5.264,1.48a27.667,27.667,0,0,0,6.9,11.8,29.2,29.2,0,0,0,34.583-12.25,29.2,29.2,0,0,1-42.117-13.41A29.94,29.94,0,0,0,445.574,3667.54Zm-2.969-25.66a29.032,29.032,0,0,1,4.307-14.93,29.176,29.176,0,0,0-4.736,46.11,28.519,28.519,0,0,1-2.883-6.71A30.3,30.3,0,0,1,442.605,3641.88Zm11.075-3.67s-7.217,19.44,12.065,26.2C473.141,3645.37,453.68,3638.21,453.68,3638.21Z" transform="translate(-433 -3626.94)"/>
</svg>
