<svg width="293" height="96" viewBox="0 0 293 96" fill="none" xmlns="http://www.w3.org/2000/svg">
<path fill-rule="evenodd" clip-rule="evenodd" d="M73.2778 95.451L85.1664 84.9611L75.842 74.3554C81.9028 66.7793 85.3995 56.5233 85.3995 44.7505C85.3995 18.4091 68.1494 0.226562 43.0924 0.226562C18.1505 0.229671 0.900391 18.5249 0.900391 44.8663C0.900391 71.2076 18.0332 89.3902 42.9751 89.3902C50.1493 89.4713 57.2338 87.7904 63.6068 84.4949L73.2778 95.451ZM65.4717 44.7512C65.5809 49.7624 64.5852 54.7361 62.5555 59.319L51.3663 46.7311L39.4777 57.2211L50.7858 70.0421C48.3459 70.8617 45.7832 71.256 43.2098 71.2076C29.2232 71.2076 20.8312 61.3005 20.8312 44.7505C20.8312 28.317 29.2232 18.4091 43.2098 18.4091C57.0798 18.4114 65.4717 28.3155 65.4717 44.7512Z" fill="black"/>
<path fill-rule="evenodd" clip-rule="evenodd" d="M226.579 95.4478L233.399 75.3741H264.153L270.844 95.4478H292.977L259.132 0.226562H238.801L204.83 95.4478H226.579ZM246.265 37.543C247.317 34.512 248.177 31.4176 248.839 28.2782C249.512 31.4148 250.371 34.5085 251.412 37.543L258.234 57.874H239.447L246.265 37.543Z" fill="black"/>
<path d="M147.837 95.8014C174.23 95.8014 195.625 74.4063 195.625 48.014C195.625 21.6217 174.23 0.226562 147.837 0.226562C121.445 0.226562 100.05 21.6217 100.05 48.014C100.05 74.4063 121.445 95.8014 147.837 95.8014Z" fill="#863EFA"/>
<path fill-rule="evenodd" clip-rule="evenodd" d="M160.594 74.1688H173.042L164.161 64.3782C166.888 60.1823 168.357 54.9373 168.357 48.784H157.797C157.823 51.3118 157.494 53.8308 156.818 56.2668L148.707 47.2455C154.86 43.1194 157.587 38.9242 157.587 33.6793C157.587 26.5461 151.924 21.5117 143.881 21.5117C135.769 21.5117 129.756 26.8966 129.756 34.0997C129.756 38.1558 131.084 41.3027 134.72 45.4979C127.518 48.7848 123.392 54.0297 123.392 60.1131C123.392 68.9247 131.294 75.078 142.692 75.078C148 75.2035 153.227 73.7689 157.727 70.9519L160.594 74.1688ZM139.895 34.0274C139.895 31.5098 141.434 29.9713 143.881 29.9713C146.259 29.9713 147.658 31.5098 147.658 34.0973C147.697 35.5893 147.335 37.0646 146.61 38.3687C145.884 39.6728 144.821 40.7579 143.532 41.5102C141.014 38.5746 139.895 36.5465 139.895 34.0274ZM134.861 58.9243C134.861 55.7074 136.539 53.1198 139.896 51.1617L151.365 63.8887C149.192 65.1898 146.693 65.8448 144.162 65.7769C138.426 65.7777 134.861 63.1902 134.861 58.9243Z" fill="white"/>
</svg>
